<svg width="170" height="44" viewBox="0 0 170 44" fill="none" xmlns="http://www.w3.org/2000/svg">
<mask id="mask0_774_1240" style="mask-type:luminance" maskUnits="userSpaceOnUse" x="5" y="2" width="35" height="16">
<path d="M22.9378 2.66346C20.2707 3.09802 17.6881 3.94786 15.2841 5.18206C13.1229 6.28649 11.1355 7.70226 9.38563 9.38408C7.83271 10.8881 6.05142 12.255 5.4707 14.5126V17.8501C5.79695 17.3836 6.14603 16.9366 6.42007 16.444C7.65588 14.1971 9.27188 12.1816 11.1963 10.4868C13.397 8.60631 15.8571 7.05266 18.5009 5.8737C20.628 4.89497 22.8106 4.20007 25.2052 4.37298C26.6472 4.47411 28.099 4.45128 29.5344 4.59156C31.2016 4.75468 32.8621 5.00915 34.5162 5.27341C35.6417 5.45284 36.751 5.72036 37.87 5.9259C38.7378 6.09554 39.1945 5.73994 39.2598 4.86561C39.2671 4.66603 39.2911 4.46742 39.3315 4.27184C39.4229 3.86077 39.2956 3.65524 38.8585 3.57694C37.9189 3.41056 36.9956 3.15283 36.0495 3.02559C33.9942 2.74176 31.9356 2.41552 29.8509 2.29481C29.2147 2.25892 28.5818 2.24261 27.9456 2.24261C26.2647 2.23868 24.5863 2.37508 22.928 2.65041" fill="white"/>
</mask>
<g mask="url(#mask0_774_1240)">
<path d="M18.556 -14.2755L-2.125 11.8362L26.3318 34.3746L47.0128 8.26293L18.556 -14.2755Z" fill="#111025"/>
</g>
<mask id="mask1_774_1240" style="mask-type:luminance" maskUnits="userSpaceOnUse" x="5" y="0" width="18" height="12">
<path d="M22.0204 0.6636C20.7709 0.794098 19.5116 0.872395 18.2751 1.07793C16.0444 1.4199 13.9267 2.28645 12.0961 3.60632C9.87435 5.23754 7.67547 6.89485 5.4668 8.54238V11.6776C6.84355 10.0692 8.14852 8.38905 9.81889 7.05471C11.1728 5.97158 12.543 4.96675 14.2101 4.35015C16.7092 3.43015 19.1462 2.34375 21.6028 1.31282C21.9236 1.15411 22.2342 0.975416 22.5326 0.777785C22.4098 0.699468 22.2672 0.65761 22.1215 0.657074H22.0204" fill="white"/>
</mask>
<g mask="url(#mask1_774_1240)">
<path d="M12.0443 -7.64802L0.101562 7.43076L15.9527 19.9852L27.8954 4.90642L12.0443 -7.64802Z" fill="#111025"/>
</g>
<mask id="mask2_774_1240" style="mask-type:luminance" maskUnits="userSpaceOnUse" x="5" y="2" width="5" height="5">
<path d="M8.47803 3.24106L5.4668 3.98816V6.92436C6.60865 5.9913 7.77008 5.07782 8.88583 4.10887C9.15524 3.80063 9.38134 3.45708 9.5579 3.08773L9.43066 2.97681C9.10441 3.06489 8.79775 3.16277 8.47803 3.24433" fill="white"/>
</mask>
<g mask="url(#mask2_774_1240)">
<path d="M7.04509 0.980157L3.54492 5.39944L7.98211 8.9138L11.4823 4.49451L7.04509 0.980157Z" fill="#111025"/>
</g>
<mask id="mask3_774_1240" style="mask-type:luminance" maskUnits="userSpaceOnUse" x="15" y="13" width="25" height="31">
<path d="M24.1474 15.2436C21.8637 16.3169 19.8149 17.7067 18.2228 19.6837C15.8738 22.6199 15.2311 26.0781 15.2246 29.6994C15.2603 31.0406 15.3856 32.3779 15.5998 33.7024C15.8704 35.8497 16.4312 37.9503 17.2669 39.9467C17.5205 40.6211 17.9648 41.2072 18.5458 41.6334C19.6909 42.3251 20.973 42.7883 22.1964 43.3429L22.3172 43.2385C21.9909 42.648 21.7038 42.0249 21.3189 41.4703C19.9036 39.3864 18.7704 37.1244 17.9487 34.7431C17.4444 33.178 17.1557 31.5514 17.0907 29.9082C17.0711 29.6309 17.0907 29.3732 17.4626 29.3895H17.6258C17.8411 29.3732 18.0597 29.3536 18.1314 29.7157C18.3468 30.7858 18.5556 31.8591 18.8394 32.9097C19.593 35.7121 20.6631 38.3808 22.3922 40.7395C23.0447 41.6171 23.7657 42.3936 25.0021 42.2304C25.3969 42.1782 25.9352 42.051 26.4278 41.9564C26.2939 41.6807 26.1321 41.4194 25.945 41.1767C25.2925 40.1327 24.6759 39.0789 23.9875 38.0708C21.7038 34.7725 19.7039 31.3633 19.1656 27.3048C18.9992 26.039 18.8916 24.7699 19.2733 23.5106C19.9062 21.4161 21.3254 19.9545 23.074 18.767C25.282 17.3097 27.796 16.3809 30.421 16.0526C31.9332 15.7821 33.4906 15.9322 34.9232 16.4865C36.0063 16.9368 37.0895 17.3772 38.1856 17.7915C38.5658 17.895 38.9545 17.9637 39.3471 17.9971C39.1905 16.3038 38.3194 15.2533 36.9883 14.5193C35.6084 13.8085 34.0776 13.4403 32.5253 13.446C32.3491 13.446 32.1697 13.446 31.9935 13.446C29.2794 13.4649 26.604 14.0914 24.1637 15.2794" fill="white"/>
</mask>
<g mask="url(#mask3_774_1240)">
<path d="M24.5255 1.66681L0.65625 31.8039L30.0517 55.0857L53.9209 24.9486L24.5255 1.66681Z" fill="#111025"/>
</g>
<mask id="mask4_774_1240" style="mask-type:luminance" maskUnits="userSpaceOnUse" x="23" y="17" width="17" height="20">
<path d="M28.2641 17.9644C26.9805 18.3129 25.8383 19.0548 24.998 20.0859C24.1578 21.1169 23.6616 22.3853 23.5792 23.7128C23.3971 26.0986 24.0372 28.4749 25.3931 30.4465C27.0244 32.8966 29.2135 34.7268 31.5918 36.3547C32.5509 37.0072 33.36 36.8963 34.1593 35.973C34.1079 35.8896 34.0478 35.812 33.9799 35.7414C33.0925 34.9976 32.2214 34.2309 31.3014 33.5262C29.9279 32.4724 28.6915 31.3241 27.8759 29.7483C26.6883 27.4091 26.4632 24.9068 26.597 22.3458C26.6408 21.8947 26.7763 21.4574 26.995 21.0604C27.2048 20.5841 27.5856 20.2039 28.0623 19.9949C28.5389 19.7859 29.0766 19.7633 29.5691 19.9316C30.0682 20.0784 30.1237 20.2089 29.7616 20.5548C29.423 20.9042 29.0376 21.205 28.6164 21.4487C28.3373 21.5876 28.101 21.7996 27.9326 22.0622C27.7643 22.3247 27.6703 22.6279 27.6605 22.9396C27.4154 25.1994 27.9644 27.474 29.2134 29.3731C30.4864 31.264 32.0913 32.9088 33.9505 34.2276C34.8085 34.8801 35.0532 34.8801 35.908 34.2831C36.0156 34.2113 36.1168 34.1232 36.2505 34.0188C35.1283 32.5442 33.36 31.758 32.4465 30.0484C32.6158 30.0537 32.7831 30.0857 32.9424 30.1431C33.5949 30.5052 34.2833 30.7955 34.8151 31.2882C35.7514 32.1397 36.1722 32.1788 37.4576 31.647C37.5106 31.6356 37.5603 31.6123 37.603 31.5789C37.6457 31.5455 37.6802 31.5029 37.7041 31.4543C37.7279 31.4056 37.7405 31.3522 37.7407 31.298C37.741 31.2438 37.729 31.1902 37.7056 31.1414C37.5066 30.3975 37.1738 29.9277 36.2995 29.7418C34.5182 29.3633 33.0664 28.29 31.6962 27.1318C30.912 26.5451 30.3029 25.7555 29.9345 24.8481C29.6082 23.9314 29.9345 23.1745 30.7729 22.8711C31.0401 22.7749 31.3209 22.722 31.6048 22.7145C32.6693 22.7136 33.709 23.0355 34.5867 23.6378C35.6959 24.3327 36.7758 25.0798 37.8948 25.7616C38.385 26.0094 38.8932 26.2199 39.4151 26.3913C39.3205 25.6083 39.2683 24.9982 39.1671 24.3946C39.1165 24.0767 38.9861 23.7768 38.7881 23.5229C38.5902 23.2691 38.3311 23.0695 38.0351 22.9429C37.5502 22.7107 37.0537 22.5038 36.5474 22.323C35.2539 21.9018 34.0203 21.3151 32.8772 20.5776C32.7434 20.4862 32.6227 20.3721 32.4074 20.1959C34.0712 20.0817 35.5328 20.2677 36.8998 20.9919C37.6562 21.4139 38.5135 21.6214 39.3792 21.5922C39.3368 21.1485 39.2944 20.7668 39.265 20.3851C39.2669 20.078 39.1739 19.7778 38.9987 19.5255C38.8235 19.2732 38.5747 19.0812 38.2863 18.9757C37.8948 18.8289 37.5098 18.6495 37.1151 18.519C35.3698 17.873 33.5276 17.5278 31.6668 17.4978C30.5192 17.4947 29.3769 17.6539 28.2739 17.9709" fill="white"/>
</mask>
<g mask="url(#mask4_774_1240)">
<path d="M29.5759 9.69877L13.9082 29.4807L33.24 44.7919L48.9078 25.01L29.5759 9.69877Z" fill="#111025"/>
</g>
<mask id="mask5_774_1240" style="mask-type:luminance" maskUnits="userSpaceOnUse" x="7" y="6" width="33" height="30">
<path d="M27.6129 6.51322C26.1742 6.95365 24.7485 7.45606 23.3718 8.02373C21.7622 8.6436 20.1893 9.35488 18.6608 10.1541C16.9807 11.0774 15.6724 12.49 14.4197 13.9287C11.9712 16.6683 10.1034 19.8757 8.92897 23.3572C8.03202 26.1781 7.6529 29.1381 7.80995 32.094C7.86867 33.4544 9.28783 34.9323 10.7461 35.1737C10.7266 35.0367 10.7135 34.9062 10.694 34.7757C10.5374 33.5947 10.2698 32.417 10.2405 31.2327C10.0985 27.6808 10.7157 24.1395 12.0511 20.8451C12.945 18.6984 14.1391 16.6822 15.9269 15.1978C19.3977 12.3425 23.3524 10.1326 27.6032 8.67295C29.2929 8.02252 31.1275 7.84323 32.9111 8.15423C34.1574 8.40217 35.371 8.80671 36.6108 9.09381C37.4949 9.3026 38.3986 9.44615 39.3936 9.63863C39.3447 9.21452 39.2957 8.93721 39.2892 8.6599C39.2664 7.83777 38.8096 7.43323 38.043 7.26032C37.1915 7.06783 36.3563 6.82641 35.5146 6.60783C34.1343 6.21702 32.7079 6.01294 31.2734 6.00102C30.0345 5.98744 28.8006 6.1601 27.6129 6.51322Z" fill="white"/>
</mask>
<g mask="url(#mask5_774_1240)">
<path d="M19.658 -8.72085L-6.73633 24.485L26.7876 51.1321L53.1819 17.9263L19.658 -8.72085Z" fill="#111025"/>
</g>
<mask id="mask6_774_1240" style="mask-type:luminance" maskUnits="userSpaceOnUse" x="11" y="9" width="29" height="31">
<path d="M24.8004 11.1034C22.6368 12.0725 20.5983 13.2993 18.729 14.7573C17.2283 15.8861 15.8189 17.103 14.814 18.7147C12.9609 21.6925 11.9152 25.1016 11.78 28.6064C11.6974 30.7388 11.7224 32.8741 11.855 35.004C11.9725 37.2649 13.4862 39.0168 15.8124 39.7378C15.7504 39.4572 15.6982 39.1962 15.6329 38.9385C14.8068 35.823 14.2835 32.6349 14.0702 29.4187C13.9665 27.57 14.1325 25.716 14.5628 23.915C15.171 21.0807 16.7015 18.5279 18.9149 16.6561C21.0169 14.9422 23.4342 13.6565 26.0303 12.8716C28.1212 12.1333 30.3577 11.9029 32.5552 12.1996C34.1081 12.441 35.6317 12.8521 37.165 13.2044C37.8762 13.3675 38.5776 13.5698 39.3345 13.7688C39.3606 12.0887 38.5581 10.8652 37.1095 10.2845C35.8894 9.79842 34.6007 9.7397 33.3088 9.63204C32.8749 9.60268 32.4475 9.58636 32.0038 9.58636C29.5246 9.59163 27.0724 10.1023 24.7971 11.0871" fill="white"/>
</mask>
<g mask="url(#mask6_774_1240)">
<path d="M22.0716 -3.13238L-3.22852 28.6967L28.2876 53.748L53.5877 21.9189L22.0716 -3.13238Z" fill="#111025"/>
</g>
<mask id="mask7_774_1240" style="mask-type:luminance" maskUnits="userSpaceOnUse" x="5" y="4" width="22" height="26">
<path d="M25.7465 4.85904C24.0224 4.96624 22.321 5.3087 20.6897 5.87692C14.0115 8.2324 9.34293 12.7933 6.40673 19.1616C5.97727 20.1063 5.70402 21.1144 5.59764 22.1467C5.50571 23.4585 5.497 24.7748 5.57155 26.0877C5.60847 27.3008 5.8432 28.4998 6.26645 29.6373C6.59462 28.9781 6.85478 28.2873 7.04291 27.5754C7.44419 25.7419 7.6954 23.879 8.14235 22.0553C8.72307 19.602 9.99542 17.4684 11.4048 15.4065C13.943 11.6938 17.2772 9.10021 21.6162 7.76913C22.8418 7.37154 24.0406 6.89532 25.2049 6.34344C25.4881 6.20279 25.735 5.99857 25.9263 5.74673C26.1176 5.4949 26.2481 5.20226 26.3076 4.89166C26.1282 4.89166 25.9814 4.85577 25.8248 4.85577H25.7465" fill="white"/>
</mask>
<g mask="url(#mask7_774_1240)">
<path d="M13.5057 -5.28734L-6.58789 20.0826L18.2783 39.7772L38.3719 14.4072L13.5057 -5.28734Z" fill="#111025"/>
</g>
<mask id="mask8_774_1240" style="mask-type:luminance" maskUnits="userSpaceOnUse" x="20" y="20" width="12" height="20">
<path d="M20.95 22.2479C20.49 23.2266 20.5227 24.2445 20.539 25.2917C20.5575 26.7514 20.7961 28.1999 21.2469 29.5884C22.1735 32.4495 23.6057 35.0693 25.1618 37.6172C25.7732 38.6196 26.7216 39.3714 27.837 39.7378C28.1417 39.8578 28.4715 39.8995 28.7964 39.859C29.1212 39.8185 29.4308 39.6972 29.6966 39.5062C30.1894 39.1579 30.7163 38.8606 31.2691 38.6188C31.6998 38.4426 31.628 38.2926 31.3768 38.0707C30.1893 37.0006 29.0311 35.8947 27.7881 34.8703C25.7784 33.1868 24.0461 31.2816 22.8944 28.9033C22.3953 27.856 22.069 26.7664 22.3039 25.5919C22.5388 24.4174 22.8064 23.2331 23.0641 22.0554C23.1587 21.6215 23.2598 21.1909 23.3903 20.6591C22.1996 20.7928 21.3905 21.2594 20.9239 22.2479" fill="white"/>
</mask>
<g mask="url(#mask8_774_1240)">
<path d="M24.817 15.1938L11.0918 32.5231L27.3854 45.428L41.1106 28.0987L24.817 15.1938Z" fill="#111025"/>
</g>
<mask id="mask9_774_1240" style="mask-type:luminance" maskUnits="userSpaceOnUse" x="31" y="23" width="8" height="7">
<path d="M31.0566 23.7422C31.187 24.2168 31.3461 24.6831 31.533 25.1385C32.0778 26.2673 33.001 27.0503 34.045 27.693C35.4667 28.5859 37.063 29.1643 38.7266 29.3895V27.432C38.3058 27.3276 37.8849 27.2395 37.4739 27.1058C36.4266 26.7958 35.7056 26.0292 34.9846 25.2723C33.9537 24.1891 32.652 23.8042 31.0566 23.7422Z" fill="white"/>
</mask>
<g mask="url(#mask9_774_1240)">
<path d="M34.0126 20.0098L28.3086 27.2116L35.7713 33.1222L41.4752 25.9204L34.0126 20.0098Z" fill="#111025"/>
</g>
<mask id="mask10_774_1240" style="mask-type:luminance" maskUnits="userSpaceOnUse" x="5" y="2" width="35" height="16">
<path d="M22.9378 2.66346C20.2707 3.09802 17.6881 3.94786 15.2841 5.18206C13.1229 6.28649 11.1355 7.70226 9.38563 9.38408C7.83271 10.8881 6.05142 12.255 5.4707 14.5126V17.8501C5.79695 17.3836 6.14603 16.9366 6.42007 16.444C7.65588 14.1971 9.27188 12.1816 11.1963 10.4868C13.397 8.60631 15.8571 7.05266 18.5009 5.8737C20.628 4.89497 22.8106 4.20007 25.2052 4.37298C26.6472 4.47411 28.099 4.45128 29.5344 4.59156C31.2016 4.75468 32.8621 5.00915 34.5162 5.27341C35.6417 5.45284 36.751 5.72036 37.87 5.9259C38.7378 6.09554 39.1945 5.73994 39.2598 4.86561C39.2671 4.66603 39.2911 4.46742 39.3315 4.27184C39.4229 3.86077 39.2956 3.65524 38.8585 3.57694C37.9189 3.41056 36.9956 3.15283 36.0495 3.02559C33.9942 2.74176 31.9356 2.41552 29.8509 2.29481C29.2147 2.25892 28.5818 2.24261 27.9456 2.24261C26.2647 2.23868 24.5863 2.37508 22.928 2.65041" fill="white"/>
</mask>
<g mask="url(#mask10_774_1240)">
<path d="M18.556 -14.2755L-2.125 11.8362L26.3318 34.3746L47.0128 8.26293L18.556 -14.2755Z" fill="#111025"/>
</g>
<mask id="mask11_774_1240" style="mask-type:luminance" maskUnits="userSpaceOnUse" x="5" y="0" width="18" height="12">
<path d="M22.0204 0.6636C20.7709 0.794098 19.5116 0.872395 18.2751 1.07793C16.0444 1.4199 13.9267 2.28645 12.0961 3.60632C9.87435 5.23754 7.67547 6.89485 5.4668 8.54238V11.6776C6.84355 10.0692 8.14852 8.38905 9.81889 7.05471C11.1728 5.97158 12.543 4.96675 14.2101 4.35015C16.7092 3.43015 19.1462 2.34375 21.6028 1.31282C21.9236 1.15411 22.2342 0.975416 22.5326 0.777785C22.4098 0.699468 22.2672 0.65761 22.1215 0.657074H22.0204" fill="white"/>
</mask>
<g mask="url(#mask11_774_1240)">
<path d="M12.0443 -7.64802L0.101562 7.43076L15.9527 19.9852L27.8954 4.90642L12.0443 -7.64802Z" fill="#111025"/>
</g>
<mask id="mask12_774_1240" style="mask-type:luminance" maskUnits="userSpaceOnUse" x="5" y="2" width="5" height="5">
<path d="M8.47803 3.24106L5.4668 3.98816V6.92436C6.60865 5.9913 7.77008 5.07782 8.88583 4.10887C9.15524 3.80063 9.38134 3.45708 9.5579 3.08773L9.43066 2.97681C9.10441 3.06489 8.79775 3.16277 8.47803 3.24433" fill="white"/>
</mask>
<g mask="url(#mask12_774_1240)">
<path d="M7.04509 0.980157L3.54492 5.39944L7.98211 8.9138L11.4823 4.49451L7.04509 0.980157Z" fill="#111025"/>
</g>
<mask id="mask13_774_1240" style="mask-type:luminance" maskUnits="userSpaceOnUse" x="15" y="13" width="25" height="31">
<path d="M24.1474 15.2436C21.8637 16.3169 19.8149 17.7067 18.2228 19.6837C15.8738 22.6199 15.2311 26.0781 15.2246 29.6994C15.2603 31.0406 15.3856 32.3779 15.5998 33.7024C15.8704 35.8497 16.4312 37.9503 17.2669 39.9467C17.5205 40.6211 17.9648 41.2072 18.5458 41.6334C19.6909 42.3251 20.973 42.7883 22.1964 43.3429L22.3172 43.2385C21.9909 42.648 21.7038 42.0249 21.3189 41.4703C19.9036 39.3864 18.7704 37.1244 17.9487 34.7431C17.4444 33.178 17.1557 31.5514 17.0907 29.9082C17.0711 29.6309 17.0907 29.3732 17.4626 29.3895H17.6258C17.8411 29.3732 18.0597 29.3536 18.1314 29.7157C18.3468 30.7858 18.5556 31.8591 18.8394 32.9097C19.593 35.7121 20.6631 38.3808 22.3922 40.7395C23.0447 41.6171 23.7657 42.3936 25.0021 42.2304C25.3969 42.1782 25.9352 42.051 26.4278 41.9564C26.2939 41.6807 26.1321 41.4194 25.945 41.1767C25.2925 40.1327 24.6759 39.0789 23.9875 38.0708C21.7038 34.7725 19.7039 31.3633 19.1656 27.3048C18.9992 26.039 18.8916 24.7699 19.2733 23.5106C19.9062 21.4161 21.3254 19.9545 23.074 18.767C25.282 17.3097 27.796 16.3809 30.421 16.0526C31.9332 15.7821 33.4906 15.9322 34.9232 16.4865C36.0063 16.9368 37.0895 17.3772 38.1856 17.7915C38.5658 17.895 38.9545 17.9637 39.3471 17.9971C39.1905 16.3038 38.3194 15.2533 36.9883 14.5193C35.6084 13.8085 34.0776 13.4403 32.5253 13.446C32.3491 13.446 32.1697 13.446 31.9935 13.446C29.2794 13.4649 26.604 14.0914 24.1637 15.2794" fill="white"/>
</mask>
<g mask="url(#mask13_774_1240)">
<path d="M24.5255 1.66681L0.65625 31.8039L30.0517 55.0857L53.9209 24.9486L24.5255 1.66681Z" fill="#111025"/>
</g>
<mask id="mask14_774_1240" style="mask-type:luminance" maskUnits="userSpaceOnUse" x="23" y="17" width="17" height="20">
<path d="M28.2641 17.9644C26.9805 18.3129 25.8383 19.0548 24.998 20.0859C24.1578 21.1169 23.6616 22.3853 23.5792 23.7128C23.3971 26.0986 24.0372 28.4749 25.3931 30.4465C27.0244 32.8966 29.2135 34.7268 31.5918 36.3547C32.5509 37.0072 33.36 36.8963 34.1593 35.973C34.1079 35.8896 34.0478 35.812 33.9799 35.7414C33.0925 34.9976 32.2214 34.2309 31.3014 33.5262C29.9279 32.4724 28.6915 31.3241 27.8759 29.7483C26.6883 27.4091 26.4632 24.9068 26.597 22.3458C26.6408 21.8947 26.7763 21.4574 26.995 21.0604C27.2048 20.5841 27.5856 20.2039 28.0623 19.9949C28.5389 19.7859 29.0766 19.7633 29.5691 19.9316C30.0682 20.0784 30.1237 20.2089 29.7616 20.5548C29.423 20.9042 29.0376 21.205 28.6164 21.4487C28.3373 21.5876 28.101 21.7996 27.9326 22.0622C27.7643 22.3247 27.6703 22.6279 27.6605 22.9396C27.4154 25.1994 27.9644 27.474 29.2134 29.3731C30.4864 31.264 32.0913 32.9088 33.9505 34.2276C34.8085 34.8801 35.0532 34.8801 35.908 34.2831C36.0156 34.2113 36.1168 34.1232 36.2505 34.0188C35.1283 32.5442 33.36 31.758 32.4465 30.0484C32.6158 30.0537 32.7831 30.0857 32.9424 30.1431C33.5949 30.5052 34.2833 30.7955 34.8151 31.2882C35.7514 32.1397 36.1722 32.1788 37.4576 31.647C37.5106 31.6356 37.5603 31.6123 37.603 31.5789C37.6457 31.5455 37.6802 31.5029 37.7041 31.4543C37.7279 31.4056 37.7405 31.3522 37.7407 31.298C37.741 31.2438 37.729 31.1902 37.7056 31.1414C37.5066 30.3975 37.1738 29.9277 36.2995 29.7418C34.5182 29.3633 33.0664 28.29 31.6962 27.1318C30.912 26.5451 30.3029 25.7555 29.9345 24.8481C29.6082 23.9314 29.9345 23.1745 30.7729 22.8711C31.0401 22.7749 31.3209 22.722 31.6048 22.7145C32.6693 22.7136 33.709 23.0355 34.5867 23.6378C35.6959 24.3327 36.7758 25.0798 37.8948 25.7616C38.385 26.0094 38.8932 26.2199 39.4151 26.3913C39.3205 25.6083 39.2683 24.9982 39.1671 24.3946C39.1165 24.0767 38.9861 23.7768 38.7881 23.5229C38.5902 23.2691 38.3311 23.0695 38.0351 22.9429C37.5502 22.7107 37.0537 22.5038 36.5474 22.323C35.2539 21.9018 34.0203 21.3151 32.8772 20.5776C32.7434 20.4862 32.6227 20.3721 32.4074 20.1959C34.0712 20.0817 35.5328 20.2677 36.8998 20.9919C37.6562 21.4139 38.5135 21.6214 39.3792 21.5922C39.3368 21.1485 39.2944 20.7668 39.265 20.3851C39.2669 20.078 39.1739 19.7778 38.9987 19.5255C38.8235 19.2732 38.5747 19.0812 38.2863 18.9757C37.8948 18.8289 37.5098 18.6495 37.1151 18.519C35.3698 17.873 33.5276 17.5278 31.6668 17.4978C30.5192 17.4947 29.3769 17.6539 28.2739 17.9709" fill="white"/>
</mask>
<g mask="url(#mask14_774_1240)">
<path d="M29.5759 9.69877L13.9082 29.4807L33.24 44.7919L48.9078 25.01L29.5759 9.69877Z" fill="#111025"/>
</g>
<mask id="mask15_774_1240" style="mask-type:luminance" maskUnits="userSpaceOnUse" x="7" y="6" width="33" height="30">
<path d="M27.6129 6.51322C26.1742 6.95365 24.7485 7.45606 23.3718 8.02373C21.7622 8.6436 20.1893 9.35488 18.6608 10.1541C16.9807 11.0774 15.6724 12.49 14.4197 13.9287C11.9712 16.6683 10.1034 19.8757 8.92897 23.3572C8.03202 26.1781 7.6529 29.1381 7.80995 32.094C7.86867 33.4544 9.28783 34.9323 10.7461 35.1737C10.7266 35.0367 10.7135 34.9062 10.694 34.7757C10.5374 33.5947 10.2698 32.417 10.2405 31.2327C10.0985 27.6808 10.7157 24.1395 12.0511 20.8451C12.945 18.6984 14.1391 16.6822 15.9269 15.1978C19.3977 12.3425 23.3524 10.1326 27.6032 8.67295C29.2929 8.02252 31.1275 7.84323 32.9111 8.15423C34.1574 8.40217 35.371 8.80671 36.6108 9.09381C37.4949 9.3026 38.3986 9.44615 39.3936 9.63863C39.3447 9.21452 39.2957 8.93721 39.2892 8.6599C39.2664 7.83777 38.8096 7.43323 38.043 7.26032C37.1915 7.06783 36.3563 6.82641 35.5146 6.60783C34.1343 6.21702 32.7079 6.01294 31.2734 6.00102C30.0345 5.98744 28.8006 6.1601 27.6129 6.51322Z" fill="white"/>
</mask>
<g mask="url(#mask15_774_1240)">
<path d="M19.658 -8.72085L-6.73633 24.485L26.7876 51.1321L53.1819 17.9263L19.658 -8.72085Z" fill="#111025"/>
</g>
<mask id="mask16_774_1240" style="mask-type:luminance" maskUnits="userSpaceOnUse" x="11" y="9" width="29" height="31">
<path d="M24.8004 11.1034C22.6368 12.0725 20.5983 13.2993 18.729 14.7573C17.2283 15.8861 15.8189 17.103 14.814 18.7147C12.9609 21.6925 11.9152 25.1016 11.78 28.6064C11.6974 30.7388 11.7224 32.8741 11.855 35.004C11.9725 37.2649 13.4862 39.0168 15.8124 39.7378C15.7504 39.4572 15.6982 39.1962 15.6329 38.9385C14.8068 35.823 14.2835 32.6349 14.0702 29.4187C13.9665 27.57 14.1325 25.716 14.5628 23.915C15.171 21.0807 16.7015 18.5279 18.9149 16.6561C21.0169 14.9422 23.4342 13.6565 26.0303 12.8716C28.1212 12.1333 30.3577 11.9029 32.5552 12.1996C34.1081 12.441 35.6317 12.8521 37.165 13.2044C37.8762 13.3675 38.5776 13.5698 39.3345 13.7688C39.3606 12.0887 38.5581 10.8652 37.1095 10.2845C35.8894 9.79842 34.6007 9.7397 33.3088 9.63204C32.8749 9.60268 32.4475 9.58636 32.0038 9.58636C29.5246 9.59163 27.0724 10.1023 24.7971 11.0871" fill="white"/>
</mask>
<g mask="url(#mask16_774_1240)">
<path d="M22.0716 -3.13238L-3.22852 28.6967L28.2876 53.748L53.5877 21.9189L22.0716 -3.13238Z" fill="#111025"/>
</g>
<mask id="mask17_774_1240" style="mask-type:luminance" maskUnits="userSpaceOnUse" x="5" y="4" width="22" height="26">
<path d="M25.7465 4.85904C24.0224 4.96624 22.321 5.3087 20.6897 5.87692C14.0115 8.2324 9.34293 12.7933 6.40673 19.1616C5.97727 20.1063 5.70402 21.1144 5.59764 22.1467C5.50571 23.4585 5.497 24.7748 5.57155 26.0877C5.60847 27.3008 5.8432 28.4998 6.26645 29.6373C6.59462 28.9781 6.85478 28.2873 7.04291 27.5754C7.44419 25.7419 7.6954 23.879 8.14235 22.0553C8.72307 19.602 9.99542 17.4684 11.4048 15.4065C13.943 11.6938 17.2772 9.10021 21.6162 7.76913C22.8418 7.37154 24.0406 6.89532 25.2049 6.34344C25.4881 6.20279 25.735 5.99857 25.9263 5.74673C26.1176 5.4949 26.2481 5.20226 26.3076 4.89166C26.1282 4.89166 25.9814 4.85577 25.8248 4.85577H25.7465" fill="white"/>
</mask>
<g mask="url(#mask17_774_1240)">
<path d="M13.5057 -5.28734L-6.58789 20.0826L18.2783 39.7772L38.3719 14.4072L13.5057 -5.28734Z" fill="#111025"/>
</g>
<path d="M50.507 6.27342C50.507 4.67327 51.8321 3.56066 53.7573 3.56066C55.6075 3.56066 56.7826 4.58576 56.8326 6.23592H55.2324C55.1949 5.44834 54.6324 4.9858 53.7323 4.9858C52.7447 4.9858 52.1071 5.46084 52.1071 6.22342C52.1071 6.87348 52.4572 7.23601 53.2197 7.41103L54.6574 7.72356C56.22 8.06109 56.9826 8.86116 56.9826 10.2238C56.9826 11.924 55.6575 13.0241 53.6448 13.0241C51.6946 13.0241 50.4195 11.9865 50.382 10.3488H51.9821C51.9946 11.1239 52.6197 11.5864 53.6448 11.5864C54.7074 11.5864 55.3824 11.1239 55.3824 10.3613C55.3824 9.74875 55.0699 9.38621 54.3198 9.2237L52.8697 8.89867C51.3196 8.56114 50.507 7.67355 50.507 6.27342ZM60.9679 13.0241C59.1303 13.0241 57.8426 11.6864 57.8426 9.77375C57.8426 7.83607 59.1053 6.49844 60.9179 6.49844C62.7681 6.49844 63.9432 7.73606 63.9432 9.66124V10.1238L59.2928 10.1363C59.4053 11.2239 59.9803 11.7739 60.9929 11.7739C61.8305 11.7739 62.3806 11.4489 62.5556 10.8614H63.9682C63.7057 12.2115 62.5806 13.0241 60.9679 13.0241ZM60.9304 7.74856C60.0303 7.74856 59.4803 8.23611 59.3303 9.16119H62.4306C62.4306 8.31111 61.843 7.74856 60.9304 7.74856ZM64.8013 9.76125C64.8013 7.84857 66.0639 6.49844 67.8891 6.49844C69.5768 6.49844 70.7269 7.43603 70.8894 8.92367H69.3642C69.1892 8.2236 68.6767 7.86107 67.9516 7.86107C66.9765 7.86107 66.3265 8.59864 66.3265 9.76125C66.3265 10.9239 66.9265 11.6489 67.9016 11.6489C68.6642 11.6489 69.2017 11.2739 69.3642 10.5988H70.9019C70.7144 12.0365 69.5143 13.0241 67.9016 13.0241C66.0264 13.0241 64.8013 11.7239 64.8013 9.76125ZM76.2249 6.68596H77.7501V12.8615H76.3375L76.2249 12.0365C75.8499 12.624 75.0498 13.0241 74.2248 13.0241C72.7996 13.0241 71.962 12.0615 71.962 10.5488V6.68596H73.4872V10.0113C73.4872 11.1864 73.9497 11.6614 74.7998 11.6614C75.7624 11.6614 76.2249 11.0989 76.2249 9.92376V6.68596ZM83.2007 6.66096V8.07359H82.6381C81.538 8.07359 80.8505 8.66115 80.8505 9.86126V12.8615H79.3253V6.69846H80.763L80.8505 7.59855C81.113 6.98599 81.7006 6.57345 82.5256 6.57345C82.7382 6.57345 82.9507 6.59845 83.2007 6.66096ZM84.9956 5.44834C84.4705 5.44834 84.058 5.0358 84.058 4.52325C84.058 4.01071 84.4705 3.61067 84.9956 3.61067C85.4956 3.61067 85.9082 4.01071 85.9082 4.52325C85.9082 5.0358 85.4956 5.44834 84.9956 5.44834ZM84.233 12.8615V6.68596H85.7582V12.8615H84.233ZM89.4341 12.8615H87.909V7.96108H86.7213V6.68596H87.909V4.76078H89.4341V6.68596H90.6342V7.96108H89.4341V12.8615ZM91.0448 15.7243V14.4492H91.9574C92.5574 14.4492 92.9325 14.3117 93.195 13.5866L93.37 13.1241L90.8823 6.68596H92.4949L94.0826 11.1864L95.7577 6.68596H97.3329L94.3076 14.2367C93.8451 15.3868 93.195 15.8618 92.1824 15.8618C91.7574 15.8618 91.3823 15.8118 91.0448 15.7243ZM103.344 12.8615H101.794V3.72318H103.344L106.294 10.9989L109.244 3.72318H110.82V12.8615H109.269V10.0488C109.269 8.2111 109.269 7.67355 109.357 7.02349L107.032 12.8615H105.557L103.244 7.03599C103.331 7.58604 103.344 8.44863 103.344 9.58623V12.8615ZM114.455 13.0241C113.142 13.0241 112.342 12.2615 112.342 11.0989C112.342 9.96127 113.167 9.2487 114.63 9.13619L116.48 8.99868V8.86116C116.48 8.02359 115.98 7.68605 115.205 7.68605C114.305 7.68605 113.805 8.06109 113.805 8.71115H112.505C112.505 7.37352 113.605 6.49844 115.28 6.49844C116.942 6.49844 117.968 7.39853 117.968 9.11119V12.8615H116.63L116.517 11.949C116.255 12.5865 115.417 13.0241 114.455 13.0241ZM114.955 11.8739C115.892 11.8739 116.492 11.3114 116.492 10.3613V10.0363L115.205 10.1363C114.255 10.2238 113.892 10.5363 113.892 11.0364C113.892 11.5989 114.267 11.8739 114.955 11.8739ZM121.481 12.8615H119.955V7.96108H118.768V6.68596H119.955V4.76078H121.481V6.68596H122.681V7.96108H121.481V12.8615ZM125.9 12.8615H124.375V7.96108H123.187V6.68596H124.375V4.76078H125.9V6.68596H127.1V7.96108H125.9V12.8615ZM130.75 13.0241C128.912 13.0241 127.625 11.6864 127.625 9.77375C127.625 7.83607 128.887 6.49844 130.7 6.49844C132.55 6.49844 133.725 7.73606 133.725 9.66124V10.1238L129.075 10.1363C129.187 11.2239 129.762 11.7739 130.775 11.7739C131.612 11.7739 132.163 11.4489 132.338 10.8614H133.75C133.488 12.2115 132.363 13.0241 130.75 13.0241ZM130.712 7.74856C129.812 7.74856 129.262 8.23611 129.112 9.16119H132.213C132.213 8.31111 131.625 7.74856 130.712 7.74856ZM138.821 6.66096V8.07359H138.259C137.159 8.07359 136.471 8.66115 136.471 9.86126V12.8615H134.946V6.69846H136.383L136.471 7.59855C136.733 6.98599 137.321 6.57345 138.146 6.57345C138.359 6.57345 138.571 6.59845 138.821 6.66096ZM144.663 12.8615H139.675V11.6114L142.75 7.96108H139.675V6.68596H144.663V7.94858L141.538 11.5864H144.663V12.8615Z" fill="#111025"/>
<path d="M57.6148 26.8387L57.8918 25.965C58.7229 25.965 59.4367 25.9437 60.0334 25.9011C60.6371 25.8585 61.1308 25.791 61.5143 25.6986C61.905 25.5992 62.1927 25.4678 62.3773 25.3044C62.5691 25.134 62.665 24.928 62.665 24.6865C62.665 24.4166 62.6153 24.104 62.5158 23.7489C62.4164 23.3937 62.2885 23.0137 62.1323 22.6089L62.9527 22.3212C63.045 22.5485 63.1302 22.7935 63.2084 23.0564C63.2936 23.3121 63.3646 23.5678 63.4215 23.8235C63.4783 24.0721 63.5067 24.3029 63.5067 24.516C63.5067 24.9351 63.4108 25.2938 63.219 25.5921C63.0273 25.8833 62.7076 26.1213 62.2601 26.306C61.8126 26.4906 61.2089 26.6256 60.4489 26.7108C59.696 26.7961 58.7513 26.8387 57.6148 26.8387ZM57.6148 26.8387C56.9826 26.8387 56.4251 26.7961 55.9421 26.7108C55.4662 26.6327 55.0684 26.5084 54.7488 26.3379C54.4291 26.1674 54.1876 25.9473 54.0243 25.6773C53.8609 25.4003 53.7792 25.0665 53.7792 24.6758C53.7792 24.4983 53.7934 24.3171 53.8218 24.1325C53.8502 23.9407 53.8858 23.7489 53.9284 23.5571C53.9781 23.3653 54.0278 23.1807 54.0775 23.0031L54.8766 23.2055C54.8482 23.3121 54.8162 23.4399 54.7807 23.5891C54.7452 23.7311 54.7133 23.8767 54.6848 24.0259C54.6635 24.1751 54.6529 24.31 54.6529 24.4308C54.6529 24.8001 54.7452 25.0985 54.9299 25.3257C55.1217 25.5459 55.452 25.7093 55.9208 25.8158C56.3896 25.9153 57.0466 25.965 57.8918 25.965L58.1049 26.4977L57.6148 26.8387ZM59.3941 22.3425C59.2449 22.3425 59.1171 22.2928 59.0105 22.1933C58.9111 22.0868 58.8614 21.9625 58.8614 21.8204C58.8614 21.6784 58.9111 21.5541 59.0105 21.4475C59.1171 21.341 59.2449 21.2877 59.3941 21.2877C59.5362 21.2877 59.6569 21.341 59.7563 21.4475C59.8629 21.5541 59.9162 21.6784 59.9162 21.8204C59.9162 21.9625 59.8629 22.0868 59.7563 22.1933C59.6569 22.2928 59.5362 22.3425 59.3941 22.3425ZM57.9344 22.3425C57.7853 22.3425 57.6574 22.2928 57.5509 22.1933C57.4514 22.0868 57.4017 21.9625 57.4017 21.8204C57.4017 21.6784 57.4514 21.5541 57.5509 21.4475C57.6574 21.341 57.7853 21.2877 57.9344 21.2877C58.0765 21.2877 58.1972 21.341 58.2967 21.4475C58.4032 21.5541 58.4565 21.6784 58.4565 21.8204C58.4565 21.9625 58.4032 22.0868 58.2967 22.1933C58.1972 22.2928 58.0765 22.3425 57.9344 22.3425ZM67.1416 26.6682C66.5734 26.6682 66.1365 26.6043 65.8311 26.4764C65.5328 26.3486 65.3268 26.1497 65.2132 25.8798C65.0995 25.6099 65.0356 25.2618 65.0214 24.8356L64.8083 19.0077H65.6819L65.895 24.4947C65.9092 24.8427 65.9412 25.1127 65.9909 25.3044C66.0477 25.4891 66.1685 25.617 66.3532 25.688C66.545 25.759 66.8433 25.7945 67.2481 25.7945C67.3973 25.7945 67.5039 25.8372 67.5678 25.9224C67.6388 26.0005 67.6743 26.0964 67.6743 26.2101C67.6743 26.3237 67.6246 26.4303 67.5252 26.5297C67.4257 26.622 67.2979 26.6682 67.1416 26.6682ZM67.1418 26.6682L67.2483 25.7945C67.4472 25.7945 67.6141 25.7519 67.7491 25.6667C67.884 25.5815 68.0154 25.4394 68.1433 25.2405C68.2711 25.0416 68.4096 24.7753 68.5588 24.4414C68.7648 23.9868 68.9672 23.6423 69.1661 23.408C69.3721 23.1736 69.5745 23.0137 69.7734 22.9285C69.9794 22.8433 70.1818 22.8006 70.3807 22.8006C70.6222 22.8006 70.846 22.8646 71.0519 22.9924C71.2579 23.1132 71.439 23.2765 71.5953 23.4825C71.7516 23.6885 71.8723 23.9158 71.9576 24.1644C72.0499 24.4059 72.0961 24.6474 72.0961 24.8889C72.0961 25.3151 72.0215 25.656 71.8723 25.9117C71.7232 26.1603 71.5314 26.3415 71.297 26.4551C71.0697 26.5617 70.8317 26.6149 70.5831 26.6149C70.363 26.6149 70.0788 26.5723 69.7308 26.4871C69.3898 26.4018 68.9566 26.1852 68.431 25.8372L68.8465 25.1659C69.1945 25.3861 69.507 25.5388 69.7841 25.6241C70.0682 25.7022 70.3026 25.7413 70.4873 25.7413C70.6932 25.7413 70.8566 25.7129 70.9774 25.656C71.0981 25.5921 71.1869 25.5033 71.2437 25.3897C71.3005 25.276 71.329 25.1482 71.329 25.0061C71.329 24.8001 71.2792 24.5941 71.1798 24.3882C71.0803 24.1822 70.9525 24.0117 70.7962 23.8767C70.6471 23.7418 70.4873 23.6743 70.3168 23.6743C70.1889 23.6743 70.0646 23.7098 69.9439 23.7809C69.8231 23.8519 69.6988 23.9833 69.571 24.1751C69.4431 24.3668 69.2975 24.6439 69.1341 25.0061C68.9637 25.3897 68.8003 25.6951 68.644 25.9224C68.4949 26.1426 68.3422 26.306 68.1859 26.4125C68.0296 26.519 67.8663 26.5865 67.6958 26.6149C67.5324 26.6504 67.3478 26.6682 67.1418 26.6682ZM73.3575 29.0654L73.1657 28.1918C73.5918 28.135 73.9825 28.0533 74.3377 27.9467C74.6999 27.8473 75.0089 27.7017 75.2646 27.5099C75.5274 27.3181 75.7298 27.066 75.8719 26.7534C76.014 26.4409 76.085 26.0502 76.085 25.5815C76.085 25.0985 75.9962 24.6971 75.8186 24.3775C75.641 24.0579 75.4102 23.8981 75.1261 23.8981C74.9769 23.8981 74.8384 23.9549 74.7106 24.0685C74.5827 24.1822 74.4762 24.3349 74.3909 24.5267C74.3128 24.7184 74.2737 24.928 74.2737 25.1553C74.2737 25.2831 74.3021 25.3897 74.359 25.4749C74.4158 25.553 74.4975 25.617 74.604 25.6667C74.7177 25.7093 74.8597 25.7413 75.0302 25.7626C75.2007 25.7839 75.3995 25.7945 75.6268 25.7945H77.8749C78.0241 25.7945 78.1306 25.8372 78.1946 25.9224C78.2656 26.0005 78.3011 26.0964 78.3011 26.2101C78.3011 26.3237 78.2514 26.4303 78.1519 26.5297C78.0525 26.622 77.9246 26.6682 77.7684 26.6682H75.222C74.9023 26.6682 74.604 26.622 74.327 26.5297C74.0571 26.4374 73.8369 26.2953 73.6664 26.1035C73.5031 25.9046 73.4214 25.6454 73.4214 25.3257C73.4214 25.0274 73.4675 24.7433 73.5599 24.4734C73.6522 24.1964 73.7765 23.9513 73.9328 23.7382C74.0962 23.518 74.2844 23.344 74.4975 23.2162C74.7177 23.0883 74.9556 23.0244 75.2113 23.0244C75.5381 23.0244 75.8293 23.1203 76.085 23.3121C76.3407 23.5038 76.5431 23.7951 76.6923 24.1857C76.8414 24.5693 76.916 25.0558 76.916 25.6454C76.916 26.306 76.7811 26.8742 76.5112 27.3501C76.2483 27.8331 75.8506 28.2166 75.3179 28.5008C74.7922 28.7849 74.1388 28.9731 73.3575 29.0654ZM77.765 26.6682L77.8609 25.7945C78.2657 25.7945 78.5498 25.7555 78.7132 25.6773C78.8766 25.5992 78.9689 25.4607 78.9902 25.2618C79.0186 25.0629 79.0257 24.7859 79.0115 24.4308L78.8304 19.0077H79.7147L79.8852 24.4095C79.8994 24.7717 79.9562 25.0558 80.0557 25.2618C80.1622 25.4607 80.3043 25.5992 80.4818 25.6773C80.6594 25.7555 80.8547 25.7945 81.0678 25.7945C81.217 25.7945 81.3235 25.8372 81.3875 25.9224C81.4585 26.0005 81.494 26.0964 81.494 26.2101C81.494 26.3237 81.4443 26.4303 81.3449 26.5297C81.2454 26.622 81.1176 26.6682 80.9613 26.6682C80.663 26.6682 80.4144 26.622 80.2155 26.5297C80.0237 26.4303 79.871 26.306 79.7573 26.1568C79.6508 26.0005 79.5798 25.8372 79.5443 25.6667L79.768 25.688C79.697 25.9011 79.5798 26.0822 79.4164 26.2314C79.2601 26.3734 79.047 26.4835 78.7771 26.5617C78.5072 26.6327 78.1698 26.6682 77.765 26.6682ZM80.9592 26.6682L81.0658 25.7945C81.4919 25.7945 81.8932 25.7555 82.2697 25.6773C82.6462 25.5921 82.9907 25.482 83.3032 25.3471C83.6228 25.205 83.8963 25.0452 84.1236 24.8676C84.3509 24.6829 84.5249 24.4947 84.6456 24.3029C84.7735 24.104 84.8374 23.9087 84.8374 23.7169C84.8374 23.6246 84.8055 23.5323 84.7415 23.4399C84.6776 23.3405 84.5675 23.2588 84.4112 23.1949C84.2621 23.1309 84.0596 23.099 83.8039 23.099C83.6477 23.099 83.4737 23.1203 83.2819 23.1629C83.0901 23.2055 82.9054 23.2659 82.7278 23.344C82.5574 23.4151 82.4153 23.4967 82.3017 23.5891C82.4934 23.7453 82.671 23.8981 82.8344 24.0472C83.0049 24.1964 83.1789 24.3597 83.3565 24.5373C83.534 24.7078 83.7258 24.9031 83.9318 25.1233C84.0952 25.2441 84.2763 25.3471 84.4752 25.4323C84.6812 25.5175 84.9013 25.5886 85.1357 25.6454C85.3772 25.6951 85.6223 25.7342 85.8709 25.7626C86.1195 25.7839 86.3681 25.7945 86.6167 25.7945C86.7659 25.7945 86.8724 25.8372 86.9363 25.9224C87.0074 26.0005 87.0429 26.0964 87.0429 26.2101C87.0429 26.3237 86.9932 26.4303 86.8937 26.5297C86.7943 26.622 86.6664 26.6682 86.5102 26.6682C86.1195 26.6682 85.7182 26.6327 85.3062 26.5617C84.9013 26.4835 84.5213 26.3699 84.1662 26.2207C83.811 26.0645 83.5092 25.8691 83.2606 25.6347C83.1398 25.4785 83.0049 25.3222 82.8557 25.1659C82.7065 25.0097 82.5432 24.8534 82.3656 24.6971C82.1951 24.5338 82.0104 24.3811 81.8116 24.239C81.7689 24.2035 81.7263 24.1396 81.6837 24.0472C81.6411 23.9549 81.6056 23.859 81.5772 23.7595C81.5488 23.6601 81.5345 23.5855 81.5345 23.5358C81.5345 23.4293 81.602 23.3014 81.737 23.1522C81.8719 23.0031 82.0531 22.861 82.2804 22.7261C82.5077 22.584 82.7669 22.4668 83.0581 22.3745C83.3493 22.2821 83.6512 22.236 83.9638 22.236C84.3686 22.236 84.6954 22.2963 84.944 22.4171C85.1997 22.5378 85.3843 22.6941 85.498 22.8859C85.6187 23.0706 85.6791 23.2694 85.6791 23.4825C85.6791 23.7951 85.601 24.1076 85.4447 24.4201C85.2885 24.7255 85.0647 25.0132 84.7735 25.2831C84.4823 25.553 84.1413 25.7945 83.7507 26.0076C83.36 26.2136 82.9267 26.377 82.4508 26.4977C81.982 26.6114 81.4848 26.6682 80.9592 26.6682ZM86.5153 26.6682L86.6219 25.7945C86.8207 25.7945 86.977 25.7519 87.0907 25.6667C87.2114 25.5815 87.3251 25.4394 87.4316 25.2405C87.5452 25.0416 87.6873 24.7753 87.8578 24.4414C88.0282 24.1005 88.1987 23.8235 88.3692 23.6104C88.5468 23.3902 88.7172 23.2197 88.8806 23.099C89.0511 22.9711 89.2109 22.8823 89.36 22.8326C89.5092 22.7829 89.6477 22.758 89.7756 22.758C90.01 22.758 90.2195 22.8113 90.4042 22.9178C90.5889 23.0173 90.7629 23.1913 90.9262 23.4399C91.0896 23.6814 91.2565 24.0153 91.427 24.4414C91.5904 24.8321 91.736 25.1269 91.8638 25.3257C91.9988 25.5175 92.1373 25.6454 92.2794 25.7093C92.4285 25.7661 92.5954 25.7945 92.7801 25.7945C92.9293 25.7945 93.0358 25.8372 93.0997 25.9224C93.1708 26.0005 93.2063 26.0964 93.2063 26.2101C93.2063 26.3237 93.1566 26.4303 93.0571 26.5297C92.9577 26.622 92.8298 26.6682 92.6736 26.6682C92.3966 26.6682 92.1409 26.622 91.9065 26.5297C91.6792 26.4374 91.4874 26.2917 91.3311 26.0929L91.4803 25.8691C91.4021 26.0893 91.2956 26.2704 91.1606 26.4125C91.0328 26.5475 90.8872 26.6469 90.7238 26.7108C90.5604 26.7818 90.3864 26.8174 90.2017 26.8174C89.9673 26.8174 89.7258 26.7676 89.4772 26.6682C89.2357 26.5688 89.0013 26.4267 88.7741 26.242C88.5468 26.0573 88.3479 25.8407 88.1774 25.5921C87.9927 25.9188 87.8152 26.1603 87.6447 26.3166C87.4813 26.4658 87.3108 26.5617 87.1333 26.6043C86.9557 26.6469 86.7497 26.6682 86.5153 26.6682ZM88.5823 24.7824C88.703 24.9813 88.8309 25.1553 88.9658 25.3044C89.1079 25.4536 89.25 25.5779 89.392 25.6773C89.5341 25.7697 89.6726 25.8407 89.8075 25.8904C89.9496 25.933 90.0774 25.9544 90.1911 25.9544C90.4397 25.9544 90.6208 25.8656 90.7345 25.688C90.8552 25.5104 90.8517 25.2618 90.7238 24.9422C90.6599 24.7788 90.5924 24.619 90.5214 24.4627C90.4575 24.3065 90.3864 24.1644 90.3083 24.0366C90.2302 23.9016 90.1414 23.7986 90.0419 23.7276C89.9425 23.6495 89.8324 23.6104 89.7116 23.6104C89.6051 23.6104 89.4915 23.6459 89.3707 23.7169C89.2571 23.788 89.1328 23.9087 88.9978 24.0792C88.8699 24.2496 88.7314 24.484 88.5823 24.7824ZM92.6749 26.6682L92.7708 25.7945C93.1757 25.7945 93.4598 25.7555 93.6231 25.6773C93.7865 25.5992 93.8789 25.4607 93.9002 25.2618C93.9286 25.0629 93.9357 24.7859 93.9215 24.4308L93.719 19.0077H94.582L94.7951 24.3349C94.8093 24.7113 94.7951 25.0452 94.7525 25.3364C94.717 25.6276 94.6247 25.8727 94.4755 26.0716C94.3334 26.2704 94.1168 26.4196 93.8256 26.519C93.5415 26.6185 93.1579 26.6682 92.6749 26.6682ZM96.4228 26.6149L96.2097 19.0077H97.0727L97.2858 26.6149H96.4228ZM101.256 26.6256C101.256 26.3699 101.291 26.0858 101.362 25.7732C101.433 25.4607 101.547 25.1162 101.703 24.7398L102.47 25.0381C102.357 25.3364 102.272 25.6099 102.215 25.8585C102.158 26.1071 102.13 26.3379 102.13 26.551C102.13 26.9417 102.225 27.2577 102.417 27.4992C102.616 27.7478 102.879 27.929 103.206 28.0426C103.539 28.1563 103.905 28.2131 104.303 28.2131C104.786 28.2131 105.191 28.1598 105.518 28.0533C105.844 27.9538 106.104 27.8153 106.295 27.6378C106.487 27.4602 106.622 27.2577 106.7 27.0305C106.786 26.8103 106.828 26.5794 106.828 26.3379C106.828 26.0254 106.803 25.7306 106.754 25.4536C106.711 25.1766 106.651 24.9067 106.572 24.6439C106.501 24.374 106.423 24.1005 106.338 23.8235L107.201 23.5891C107.279 23.859 107.34 24.0792 107.382 24.2496C107.425 24.413 107.457 24.5444 107.478 24.6439C107.506 24.7433 107.531 24.8321 107.553 24.9102C107.631 25.173 107.734 25.3684 107.862 25.4962C107.989 25.617 108.135 25.6986 108.298 25.7413C108.469 25.7768 108.643 25.7945 108.82 25.7945C108.97 25.7945 109.076 25.8372 109.14 25.9224C109.211 26.0005 109.247 26.0964 109.247 26.2101C109.247 26.3237 109.197 26.4303 109.098 26.5297C108.998 26.622 108.87 26.6682 108.714 26.6682C108.416 26.6682 108.167 26.6185 107.968 26.519C107.769 26.4125 107.613 26.2811 107.499 26.1248C107.393 25.9686 107.322 25.8052 107.286 25.6347L107.723 26.1781C107.702 26.5403 107.631 26.8919 107.51 27.2329C107.396 27.5809 107.212 27.8935 106.956 28.1705C106.7 28.4546 106.352 28.6783 105.912 28.8417C105.479 29.0051 104.932 29.0868 104.271 29.0868C103.866 29.0868 103.483 29.037 103.12 28.9376C102.758 28.8382 102.435 28.6854 102.151 28.4795C101.874 28.2806 101.654 28.0249 101.49 27.7123C101.334 27.4069 101.256 27.0447 101.256 26.6256ZM104.473 22.3745C104.324 22.3745 104.196 22.3248 104.09 22.2253C103.99 22.1188 103.941 21.9945 103.941 21.8524C103.941 21.7103 103.99 21.586 104.09 21.4795C104.196 21.373 104.324 21.3197 104.473 21.3197C104.616 21.3197 104.736 21.373 104.836 21.4795C104.942 21.586 104.996 21.7103 104.996 21.8524C104.996 21.9945 104.942 22.1188 104.836 22.2253C104.736 22.3248 104.616 22.3745 104.473 22.3745ZM108.719 26.6682L108.825 25.7945C109.024 25.7945 109.191 25.7519 109.326 25.6667C109.461 25.5815 109.593 25.4394 109.72 25.2405C109.848 25.0416 109.987 24.7753 110.136 24.4414C110.342 23.9868 110.544 23.6423 110.743 23.408C110.949 23.1736 111.152 23.0137 111.351 22.9285C111.557 22.8433 111.759 22.8006 111.958 22.8006C112.199 22.8006 112.423 22.8646 112.629 22.9924C112.835 23.1132 113.016 23.2765 113.172 23.4825C113.329 23.6885 113.45 23.9158 113.535 24.1644C113.627 24.4059 113.673 24.6474 113.673 24.8889C113.673 25.3151 113.599 25.656 113.45 25.9117C113.3 26.1603 113.109 26.3415 112.874 26.4551C112.647 26.5617 112.409 26.6149 112.16 26.6149C111.94 26.6149 111.656 26.5723 111.308 26.4871C110.967 26.4018 110.534 26.1852 110.008 25.8372L110.424 25.1659C110.772 25.3861 111.084 25.5388 111.361 25.6241C111.645 25.7022 111.88 25.7413 112.064 25.7413C112.27 25.7413 112.434 25.7129 112.555 25.656C112.675 25.5921 112.764 25.5033 112.821 25.3897C112.878 25.276 112.906 25.1482 112.906 25.0061C112.906 24.8001 112.856 24.5941 112.757 24.3882C112.658 24.1822 112.53 24.0117 112.373 23.8767C112.224 23.7418 112.064 23.6743 111.894 23.6743C111.766 23.6743 111.642 23.7098 111.521 23.7809C111.4 23.8519 111.276 23.9833 111.148 24.1751C111.02 24.3668 110.875 24.6439 110.711 25.0061C110.541 25.3897 110.377 25.6951 110.221 25.9224C110.072 26.1426 109.919 26.306 109.763 26.4125C109.607 26.519 109.443 26.5865 109.273 26.6149C109.11 26.6504 108.925 26.6682 108.719 26.6682ZM115.265 26.6149L115.084 19.7535H115.947L116.128 26.6149H115.265ZM114.562 19.1142L114.434 18.5389C114.619 18.4963 114.768 18.4608 114.881 18.4323C114.995 18.4039 115.123 18.372 115.265 18.3365L115.212 18.5602C115.027 18.5034 114.849 18.3826 114.679 18.1979C114.516 18.0133 114.434 17.8037 114.434 17.5693C114.434 17.3562 114.484 17.1787 114.583 17.0366C114.69 16.8874 114.825 16.7774 114.988 16.7063C115.158 16.6353 115.34 16.5998 115.531 16.5998C115.609 16.5998 115.691 16.6069 115.776 16.6211C115.869 16.6353 115.954 16.6566 116.032 16.685L115.947 17.2177C115.876 17.2035 115.808 17.1893 115.744 17.1751C115.68 17.1609 115.609 17.1538 115.531 17.1538C115.368 17.1538 115.24 17.1893 115.148 17.2604C115.055 17.3243 115.009 17.4166 115.009 17.5374C115.009 17.6865 115.055 17.8144 115.148 17.9209C115.247 18.0275 115.357 18.1127 115.478 18.1766C115.606 18.2335 115.709 18.2619 115.787 18.2619L115.35 18.3045C115.542 18.2548 115.72 18.205 115.883 18.1553C116.053 18.0985 116.206 18.0452 116.341 17.9955L116.511 18.5389C116.341 18.6028 116.139 18.6703 115.904 18.7413C115.677 18.8123 115.446 18.8798 115.212 18.9438C114.977 19.0077 114.761 19.0645 114.562 19.1142ZM120.099 26.6256C120.099 26.4551 120.113 26.274 120.141 26.0822C120.177 25.8833 120.227 25.6738 120.291 25.4536C120.362 25.2263 120.447 24.9884 120.546 24.7398L121.313 25.0381C121.242 25.237 121.178 25.4252 121.122 25.6028C121.072 25.7803 121.033 25.9473 121.004 26.1035C120.983 26.2598 120.972 26.4089 120.972 26.551C120.972 26.8919 121.061 27.1867 121.239 27.4353C121.423 27.6839 121.676 27.8757 121.995 28.0107C122.315 28.1456 122.688 28.2131 123.114 28.2131C123.632 28.2131 124.059 28.1385 124.393 27.9893C124.733 27.8402 124.996 27.6129 125.181 27.3075C125.373 27.002 125.501 26.6149 125.564 26.1461C125.628 25.6702 125.65 25.1127 125.628 24.4734L125.426 19.0077H126.31L126.491 24.6971C126.506 25.173 126.484 25.6312 126.427 26.0716C126.378 26.5048 126.278 26.9026 126.129 27.2648C125.98 27.6342 125.774 27.9538 125.511 28.2237C125.248 28.5008 124.918 28.7138 124.52 28.863C124.123 29.0122 123.643 29.0868 123.082 29.0868C122.706 29.0868 122.34 29.037 121.985 28.9376C121.629 28.8382 121.31 28.689 121.026 28.4901C120.742 28.2912 120.514 28.0355 120.344 27.723C120.18 27.4176 120.099 27.0518 120.099 26.6256ZM127.805 29.0654L127.613 28.1918C128.04 28.135 128.43 28.0533 128.785 27.9467C129.148 27.8473 129.457 27.7017 129.712 27.5099C129.975 27.3181 130.178 27.066 130.32 26.7534C130.462 26.4409 130.533 26.0502 130.533 25.5815C130.533 25.0985 130.444 24.6971 130.266 24.3775C130.089 24.0579 129.858 23.8981 129.574 23.8981C129.425 23.8981 129.286 23.9549 129.158 24.0685C129.031 24.1822 128.924 24.3349 128.839 24.5267C128.761 24.7184 128.722 24.928 128.722 25.1553C128.722 25.2831 128.75 25.3897 128.807 25.4749C128.864 25.553 128.945 25.617 129.052 25.6667C129.165 25.7093 129.308 25.7413 129.478 25.7626C129.648 25.7839 129.847 25.7945 130.075 25.7945H132.323C132.472 25.7945 132.578 25.8372 132.642 25.9224C132.713 26.0005 132.749 26.0964 132.749 26.2101C132.749 26.3237 132.699 26.4303 132.6 26.5297C132.5 26.622 132.372 26.6682 132.216 26.6682H129.67C129.35 26.6682 129.052 26.622 128.775 26.5297C128.505 26.4374 128.285 26.2953 128.114 26.1035C127.951 25.9046 127.869 25.6454 127.869 25.3257C127.869 25.0274 127.915 24.7433 128.008 24.4734C128.1 24.1964 128.224 23.9513 128.381 23.7382C128.544 23.518 128.732 23.344 128.945 23.2162C129.165 23.0883 129.403 23.0244 129.659 23.0244C129.986 23.0244 130.277 23.1203 130.533 23.3121C130.788 23.5038 130.991 23.7951 131.14 24.1857C131.289 24.5693 131.364 25.0558 131.364 25.6454C131.364 26.306 131.229 26.8742 130.959 27.3501C130.696 27.8331 130.298 28.2166 129.766 28.5008C129.24 28.7849 128.587 28.9731 127.805 29.0654ZM132.213 26.6682L132.309 25.7945C132.714 25.7945 132.998 25.7555 133.161 25.6773C133.324 25.5992 133.417 25.4607 133.438 25.2618C133.466 25.0629 133.474 24.7859 133.459 24.4308L133.278 19.0077H134.163L134.333 24.4095C134.347 24.7717 134.404 25.0558 134.503 25.2618C134.61 25.4607 134.752 25.5992 134.93 25.6773C135.107 25.7555 135.303 25.7945 135.516 25.7945C135.665 25.7945 135.771 25.8372 135.835 25.9224C135.906 26.0005 135.942 26.0964 135.942 26.2101C135.942 26.3237 135.892 26.4303 135.793 26.5297C135.693 26.622 135.565 26.6682 135.409 26.6682C135.111 26.6682 134.862 26.622 134.663 26.5297C134.471 26.4303 134.319 26.306 134.205 26.1568C134.099 26.0005 134.028 25.8372 133.992 25.6667L134.216 25.688C134.145 25.9011 134.028 26.0822 133.864 26.2314C133.708 26.3734 133.495 26.4835 133.225 26.5617C132.955 26.6327 132.618 26.6682 132.213 26.6682ZM135.407 26.6682L135.503 25.7945C135.872 25.7945 136.234 25.7661 136.59 25.7093C136.945 25.6525 137.293 25.5708 137.634 25.4643C137.975 25.3577 138.301 25.2299 138.614 25.0807C138.934 24.9244 139.235 24.7469 139.52 24.548C139.335 24.3846 139.122 24.2425 138.88 24.1218C138.639 24.001 138.372 23.9087 138.081 23.8448C137.797 23.7738 137.495 23.7382 137.176 23.7382C137.062 23.7382 136.955 23.7418 136.856 23.7489C136.757 23.756 136.657 23.7702 136.558 23.7915C136.458 23.8057 136.345 23.827 136.217 23.8554L136.046 23.0457C136.238 22.9889 136.43 22.9463 136.622 22.9178C136.813 22.8823 136.998 22.8646 137.176 22.8646C137.545 22.8646 137.879 22.9107 138.177 23.0031C138.475 23.0883 138.745 23.1949 138.987 23.3227C139.235 23.4506 139.466 23.5784 139.679 23.7063C139.9 23.8341 140.113 23.9442 140.319 24.0366C140.525 24.1218 140.738 24.1644 140.958 24.1644H141.182L141.256 24.9315C140.951 24.9315 140.67 24.9741 140.415 25.0594C140.159 25.1446 139.907 25.2547 139.658 25.3897C139.417 25.5175 139.161 25.656 138.891 25.8052C138.621 25.9473 138.323 26.0858 137.996 26.2207C137.669 26.3486 137.293 26.4551 136.867 26.5403C136.448 26.6256 135.961 26.6682 135.407 26.6682Z" fill="#111025"/>
<rect x="52.2539" y="37.3543" width="9.47559" height="0.568235" fill="#111025"/>
<path d="M66.2425 34.8493V40.1385H65.7106V34.8493H66.2425ZM66.9745 35.3369V34.8493H70.7641V35.3369H69.1315V40.1385H68.5997V35.3369H66.9745ZM73.2273 36.2233C73.2273 35.3369 73.9365 34.7533 75.0002 34.7533C75.9531 34.7533 76.581 35.2852 76.6623 36.1716H76.1231C76.064 35.5733 75.6577 35.2335 74.9928 35.2335C74.2467 35.2335 73.7592 35.6176 73.7592 36.2159C73.7592 36.6813 74.0325 36.9768 74.5865 37.1172L75.4952 37.3388C76.3225 37.5382 76.751 38.011 76.751 38.7275C76.751 39.6435 76.0418 40.2271 74.9485 40.2271C73.9217 40.2271 73.2273 39.6878 73.1608 38.8236H73.7075C73.737 39.3776 74.2246 39.7396 74.9485 39.7396C75.7242 39.7396 76.2191 39.3628 76.2191 38.7571C76.2191 38.2843 75.9531 37.974 75.3843 37.8411L74.4905 37.6195C73.6632 37.42 73.2273 36.9472 73.2273 36.2233ZM79.0962 40.2271C78.0472 40.2271 77.3454 39.4736 77.3454 38.3508C77.3454 37.2353 78.0398 36.4671 79.0592 36.4671C80.0269 36.4671 80.6844 37.1541 80.6844 38.1661V38.4173H77.8404C77.8773 39.2889 78.3353 39.7913 79.1036 39.7913C79.6871 39.7913 80.0639 39.5401 80.1968 39.0673H80.6844C80.4923 39.8208 79.9383 40.2271 79.0962 40.2271ZM79.0592 36.9029C78.387 36.9029 77.9438 37.3461 77.8551 38.0479H80.1747C80.1747 37.3609 79.7315 36.9029 79.0592 36.9029ZM81.2482 38.3582C81.2482 37.2353 81.9352 36.4671 82.9767 36.4671C83.8041 36.4671 84.4098 36.9472 84.5502 37.686H84.0405C83.9075 37.191 83.4791 36.9177 82.9841 36.9177C82.2602 36.9177 81.7505 37.4717 81.7505 38.3508C81.7505 39.2003 82.2233 39.7691 82.9472 39.7691C83.4791 39.7691 83.9075 39.4736 84.0479 39.0156H84.565C84.3951 39.7469 83.7598 40.2271 82.9472 40.2271C81.9352 40.2271 81.2482 39.481 81.2482 38.3582ZM87.8487 36.5631H88.3584V40.1385H87.9152L87.8487 39.5327C87.6493 39.9464 87.1544 40.2271 86.5929 40.2271C85.7508 40.2271 85.2928 39.6509 85.2928 38.7792V36.5557H85.8099V38.6167C85.8099 39.4662 86.1867 39.7691 86.7555 39.7691C87.4425 39.7691 87.8487 39.3111 87.8487 38.4616V36.5631ZM91.2891 36.5188V36.9768H91.0084C90.351 36.9768 89.9299 37.42 89.9299 38.0996V40.1385H89.4202V36.5631H89.9004L89.9373 37.1172C90.0777 36.733 90.4544 36.4819 90.9567 36.4819C91.0675 36.4819 91.1636 36.4893 91.2891 36.5188ZM92.2179 35.5806C92.0111 35.5806 91.8412 35.4107 91.8412 35.2039C91.8412 34.9971 92.0111 34.8198 92.2179 34.8198C92.4247 34.8198 92.602 34.9971 92.602 35.2039C92.602 35.4107 92.4247 35.5806 92.2179 35.5806ZM91.9667 40.1385V36.5631H92.4764V40.1385H91.9667ZM94.3593 40.1385H93.857V36.9916H93.1405V36.5631H93.857V35.4329H94.3593V36.5631H95.0759V36.9916H94.3593V40.1385ZM95.3777 41.6971V41.2761H95.7692C96.0794 41.2761 96.3897 41.2539 96.567 40.7737L96.7221 40.3527L95.2742 36.5631H95.8135L96.9659 39.6805L98.0961 36.5631H98.6206L96.9806 40.9584C96.7738 41.5198 96.4266 41.7488 95.9169 41.7488C95.7027 41.7488 95.5402 41.7341 95.3777 41.6971ZM101.059 36.2233C101.059 35.3369 101.768 34.7533 102.832 34.7533C103.784 34.7533 104.412 35.2852 104.494 36.1716H103.954C103.895 35.5733 103.489 35.2335 102.824 35.2335C102.078 35.2335 101.591 35.6176 101.591 36.2159C101.591 36.6813 101.864 36.9768 102.418 37.1172L103.326 37.3388C104.154 37.5382 104.582 38.011 104.582 38.7275C104.582 39.6435 103.873 40.2271 102.78 40.2271C101.753 40.2271 101.059 39.6878 100.992 38.8236H101.539C101.568 39.3776 102.056 39.7396 102.78 39.7396C103.555 39.7396 104.05 39.3628 104.05 38.7571C104.05 38.2843 103.784 37.974 103.216 37.8411L102.322 37.6195C101.494 37.42 101.059 36.9472 101.059 36.2233ZM105.177 38.3508C105.177 37.2575 105.945 36.4671 106.994 36.4671C108.043 36.4671 108.811 37.2575 108.811 38.3508C108.811 39.4367 108.043 40.2271 106.994 40.2271C105.945 40.2271 105.177 39.4367 105.177 38.3508ZM105.694 38.3434C105.694 39.1855 106.226 39.7691 106.994 39.7691C107.755 39.7691 108.294 39.1855 108.294 38.3434C108.294 37.5161 107.755 36.9251 106.994 36.9251C106.226 36.9251 105.694 37.5161 105.694 38.3434ZM110.158 40.1385H109.649V34.7533H110.158V40.1385ZM113.754 36.5631H114.264V40.1385H113.82L113.754 39.5327C113.554 39.9464 113.06 40.2271 112.498 40.2271C111.656 40.2271 111.198 39.6509 111.198 38.7792V36.5557H111.715V38.6167C111.715 39.4662 112.092 39.7691 112.661 39.7691C113.348 39.7691 113.754 39.3111 113.754 38.4616V36.5631ZM116.145 40.1385H115.643V36.9916H114.927V36.5631H115.643V35.4329H116.145V36.5631H116.862V36.9916H116.145V40.1385ZM117.777 35.5806C117.57 35.5806 117.4 35.4107 117.4 35.2039C117.4 34.9971 117.57 34.8198 117.777 34.8198C117.984 34.8198 118.161 34.9971 118.161 35.2039C118.161 35.4107 117.984 35.5806 117.777 35.5806ZM117.526 40.1385V36.5631H118.035V40.1385H117.526ZM118.847 38.3508C118.847 37.2575 119.615 36.4671 120.664 36.4671C121.713 36.4671 122.482 37.2575 122.482 38.3508C122.482 39.4367 121.713 40.2271 120.664 40.2271C119.615 40.2271 118.847 39.4367 118.847 38.3508ZM119.364 38.3434C119.364 39.1855 119.896 39.7691 120.664 39.7691C121.425 39.7691 121.964 39.1855 121.964 38.3434C121.964 37.5161 121.425 36.9251 120.664 36.9251C119.896 36.9251 119.364 37.5161 119.364 38.3434ZM123.807 40.1385H123.297V36.5631H123.74L123.814 37.1836C124.05 36.7256 124.523 36.4671 125.04 36.4671C126.023 36.4671 126.429 37.0507 126.429 37.9519V40.1385H125.919V38.0627C125.919 37.228 125.542 36.9325 124.952 36.9325C124.22 36.9325 123.807 37.4643 123.807 38.2695V40.1385ZM127.099 39.1338H127.586C127.586 39.5475 127.896 39.806 128.399 39.806C128.953 39.806 129.278 39.5697 129.278 39.1855C129.278 38.89 129.13 38.7201 128.709 38.6167L128.096 38.4616C127.475 38.3065 127.173 37.9814 127.173 37.4939C127.173 36.866 127.697 36.4671 128.465 36.4671C129.219 36.4671 129.706 36.8808 129.728 37.5456H129.234C129.219 37.1319 128.931 36.8882 128.451 36.8882C127.948 36.8882 127.667 37.1024 127.667 37.4865C127.667 37.7598 127.86 37.9519 128.251 38.0479L128.864 38.203C129.485 38.3582 129.765 38.6463 129.765 39.1634C129.765 39.806 129.219 40.2271 128.406 40.2271C127.601 40.2271 127.099 39.7987 127.099 39.1338Z" fill="#111025"/>
<rect x="133.412" y="37.3543" width="9.47559" height="0.568235" fill="#111025"/>
</svg>
