<?xml version="1.0" encoding="UTF-8"?>
<svg version="1.1" xmlns="http://www.w3.org/2000/svg" width="512" height="512">
<path d="M0 0 C0.69819282 -0.00696761 1.39638565 -0.01393521 2.11573583 -0.02111396 C4.46130219 -0.03839451 6.8052246 -0.01997548 9.15076447 -0.0017767 C10.84681687 -0.00682058 12.54286395 -0.01404818 14.23889875 -0.02327484 C18.90417422 -0.0422467 23.56892725 -0.02993567 28.23418975 -0.0125519 C33.26358448 0.0007928 38.29290129 -0.01460457 43.32228851 -0.02637386 C53.17667075 -0.04477648 63.03085502 -0.03622064 72.88523114 -0.01828564 C80.89233051 -0.0042739 88.89937605 -0.00036377 96.90648651 -0.00372791 C98.61431512 -0.00444408 98.61431512 -0.00444408 100.35664532 -0.00517471 C102.669416 -0.00620101 104.98218668 -0.00725637 107.29495734 -0.00834047 C127.7569018 -0.01691284 148.21875053 -0.0002151 168.68067169 0.02948856 C188.54692353 0.05832724 208.41303747 0.06541019 228.2793045 0.04999638 C249.89967518 0.03324463 271.51998035 0.02918954 293.14035273 0.04670674 C295.4447317 0.04855117 297.74911069 0.0503859 300.05348969 0.05221081 C301.75429592 0.05357894 301.75429592 0.05357894 303.48946187 0.05497472 C311.48919907 0.0605865 319.48890435 0.05726696 327.48863983 0.05066586 C337.23442479 0.04294343 346.98007386 0.04964588 356.72583139 0.0748409 C361.70060804 0.08736127 366.67517287 0.09345176 371.64995766 0.08229923 C376.20098482 0.07228915 380.75158874 0.08064718 385.3025642 0.10388041 C386.95188001 0.10905756 388.60123346 0.10744589 390.25053304 0.09848576 C392.48752491 0.08734074 394.72307317 0.10066825 396.9599762 0.12025452 C398.82584342 0.12204174 398.82584342 0.12204174 400.72940493 0.12386507 C404.58133325 0.71938168 406.23140374 1.91715156 408.9799881 4.62641239 C410.145038 6.95651219 410.1009239 8.29888316 410.09351349 10.89252567 C410.09343796 11.7732877 410.09336243 12.65404972 410.09328461 13.5615015 C410.08812332 14.51362522 410.08296204 15.46574894 410.07764435 16.44672489 C410.07552193 17.90741901 410.07552193 17.90741901 410.07335663 19.39762211 C410.06774783 22.51558312 410.05519383 25.63347299 410.0424881 28.75141239 C410.03747423 30.86208844 410.03291113 32.97276561 410.02881622 35.08344364 C410.01777554 40.2644576 410.00102883 45.44542992 409.9799881 50.62641239 C411.94004791 50.59499149 411.94004791 50.59499149 413.9397049 50.56293583 C418.79441084 50.49045686 423.64906908 50.44458364 428.50415802 50.40668583 C430.60417477 50.38658842 432.70413568 50.35930573 434.80396271 50.32465458 C437.82501768 50.27605469 440.84533186 50.25342478 443.86670685 50.23578739 C445.27166664 50.20481968 445.27166664 50.20481968 446.70500946 50.17322636 C450.99545102 50.17175425 453.33015102 50.22430212 457.04956818 52.52582645 C460.80045137 56.60734903 460.11694711 60.62506529 460.10024261 65.90232182 C460.10152425 67.36271328 460.10152425 67.36271328 460.10283178 68.85260761 C460.10448714 72.13546323 460.09896428 75.41826846 460.09351349 78.70111942 C460.0932316 81.04621218 460.09338938 83.39130503 460.09395599 85.73639774 C460.09424392 92.12038091 460.08834805 98.50434544 460.08138204 104.88832426 C460.07577869 110.87876757 460.07475996 116.86921089 460.07373016 122.85965632 C460.07154005 134.72706161 460.06488107 146.59446004 460.05542755 158.46186161 C460.04625238 169.99180918 460.03917206 181.52175488 460.03491974 193.05170536 C460.03452565 194.11727461 460.03452565 194.11727461 460.03412361 195.20437051 C460.0328186 198.76803819 460.03155488 202.33170588 460.0303117 205.89537358 C460.01994037 235.47239095 460.00224897 265.04940155 459.9799881 294.62641239 C460.87971344 295.0415308 460.87971344 295.0415308 461.79761505 295.46503544 C477.98921315 304.0815957 490.27822459 326.51594421 495.55420685 343.43500614 C503.83264919 371.8814468 502.12992562 402.25276084 487.95996857 428.51703739 C473.1298475 454.42649762 449.4763907 472.48730171 420.79859161 480.53119755 C403.59184824 484.83239059 382.9845136 484.73188736 365.9799881 479.62641239 C364.83272247 479.28609989 363.68545685 478.94578739 362.5034256 478.59516239 C345.61134952 473.0518647 331.13337985 463.81359103 318.3549881 451.50141239 C317.86498322 451.04226444 317.37497833 450.58311649 316.87012482 450.11005497 C313.97868478 447.21908816 312.05644416 444.79233181 310.31689072 441.01727867 C307.86530486 435.87668231 305.2341767 430.8371081 299.64600658 428.75807261 C292.3877189 427.34313179 284.98029576 427.70862456 277.62354279 427.86347294 C275.12935717 427.86111417 272.63517033 427.8521226 270.14102936 427.8370142 C264.7815017 427.8191986 259.42520501 427.84691378 254.0663147 427.91639614 C246.31245916 428.01666978 238.5602371 428.03156462 230.80582038 428.02579949 C218.2148936 428.01854796 205.62516858 428.0765837 193.0346756 428.17743778 C180.82438923 428.27507838 168.61445628 428.34694067 156.40381622 428.38056278 C155.651139 428.38264745 154.89846178 428.38473211 154.12297615 428.38687994 C146.63642234 428.40713525 139.14986041 428.42350609 131.66329668 428.43959203 C128.7506004 428.44589957 125.83790463 428.45241482 122.92520913 428.4590741 C121.48785457 428.46235811 120.05049987 428.46558048 118.61314502 428.4687402 C109.47618956 428.4893408 100.33961002 428.52994639 91.20284986 428.5931257 C85.96915382 428.62930903 80.73541418 428.6569565 75.50166702 428.68462849 C73.07241715 428.6995322 70.64318625 428.71801865 68.21399307 428.74032497 C64.90166265 428.77056292 61.58947405 428.78861929 58.2770462 428.8039484 C57.31304358 428.81611493 56.34904096 428.82828146 55.35582614 428.84081668 C49.39739301 428.85275941 44.42552376 428.62871376 39.62940216 424.70185184 C37.11829526 420.01973024 37.48615545 415.6485097 37.5893631 410.41938114 C37.59502289 409.33884968 37.60068268 408.25831821 37.60651398 407.14504337 C37.62886767 403.7008785 37.67906419 400.25776174 37.7299881 396.81391239 C37.75005431 394.47603681 37.76830487 392.13814489 37.7846756 389.80024052 C37.82872915 384.07527478 37.89563189 378.35091847 37.9799881 372.62641239 C36.67328156 372.64735966 35.36657501 372.66830692 34.0202713 372.68988895 C29.16556536 372.76236793 24.31090712 372.80824114 19.45581818 372.84613895 C17.35580143 372.86623636 15.25584052 372.89351905 13.15601349 372.9281702 C10.13495852 372.97677009 7.11464433 372.99940001 4.09326935 373.01703739 C2.68830956 373.0480051 2.68830956 373.0480051 1.25496674 373.07959843 C-3.03547482 373.08107054 -5.37017483 373.02852266 -9.08959198 370.72699833 C-12.21746626 367.32340274 -12.14733662 365.30124584 -12.15702629 360.75641251 C-12.16210083 359.4980081 -12.16717538 358.23960369 -12.17240369 356.94306582 C-12.17300542 355.5335749 -12.17350448 354.12408393 -12.17391205 352.71459293 C-12.17792513 351.22737618 -12.1823631 349.74016053 -12.18719161 348.2529462 C-12.19917996 344.1511506 -12.20481077 340.04936678 -12.20937276 335.94755709 C-12.21532021 331.52958788 -12.22693211 327.11163282 -12.23766327 322.69367313 C-12.26220565 312.01734793 -12.27681644 301.34101804 -12.28972334 290.6646733 C-12.29343371 287.65087421 -12.29740706 284.63707558 -12.301476 281.62327695 C-12.32670924 262.92070425 -12.34876924 244.21813086 -12.36120415 225.51554489 C-12.36413399 221.18181385 -12.36709564 216.84808283 -12.37010956 212.51435184 C-12.37085561 211.43718247 -12.37160166 210.36001309 -12.37237032 209.25020222 C-12.38503081 191.79080275 -12.41826223 174.33150497 -12.45991139 156.87215307 C-12.50229106 138.96023835 -12.52589453 121.04837575 -12.53112471 103.13641101 C-12.53454317 93.07409138 -12.54634959 83.01193069 -12.57922745 72.9496603 C-12.60717457 64.38225647 -12.61825081 55.81504414 -12.60703199 47.24759825 C-12.60183174 42.87426142 -12.60482017 38.50132598 -12.62949753 34.12804699 C-12.65188993 30.12640713 -12.65132907 26.12545929 -12.63229366 22.12380812 C-12.62947949 20.67425017 -12.63517044 19.22464628 -12.65010659 17.77516254 C-12.66914013 15.8081749 -12.65446725 13.84094686 -12.63804436 11.8739357 C-12.64007915 10.23346135 -12.64007915 10.23346135 -12.64215505 8.5598461 C-11.15720026 1.55821563 -6.57331972 0.00142514 0 0 Z " fill="#FEFEFE" transform="translate(12.020011901855469,14.373587608337402)"/>
<path d="M0 0 C0.69819282 -0.00696761 1.39638565 -0.01393521 2.11573583 -0.02111396 C4.46130219 -0.03839451 6.8052246 -0.01997548 9.15076447 -0.0017767 C10.84681687 -0.00682058 12.54286395 -0.01404818 14.23889875 -0.02327484 C18.90417422 -0.0422467 23.56892725 -0.02993567 28.23418975 -0.0125519 C33.26358448 0.0007928 38.29290129 -0.01460457 43.32228851 -0.02637386 C53.17667075 -0.04477648 63.03085502 -0.03622064 72.88523114 -0.01828564 C80.89233051 -0.0042739 88.89937605 -0.00036377 96.90648651 -0.00372791 C98.61431512 -0.00444408 98.61431512 -0.00444408 100.35664532 -0.00517471 C102.669416 -0.00620101 104.98218668 -0.00725637 107.29495734 -0.00834047 C127.7569018 -0.01691284 148.21875053 -0.0002151 168.68067169 0.02948856 C188.54692353 0.05832724 208.41303747 0.06541019 228.2793045 0.04999638 C249.89967518 0.03324463 271.51998035 0.02918954 293.14035273 0.04670674 C295.4447317 0.04855117 297.74911069 0.0503859 300.05348969 0.05221081 C301.75429592 0.05357894 301.75429592 0.05357894 303.48946187 0.05497472 C311.48919907 0.0605865 319.48890435 0.05726696 327.48863983 0.05066586 C337.23442479 0.04294343 346.98007386 0.04964588 356.72583139 0.0748409 C361.70060804 0.08736127 366.67517287 0.09345176 371.64995766 0.08229923 C376.20098482 0.07228915 380.75158874 0.08064718 385.3025642 0.10388041 C386.95188001 0.10905756 388.60123346 0.10744589 390.25053304 0.09848576 C392.48752491 0.08734074 394.72307317 0.10066825 396.9599762 0.12025452 C398.82584342 0.12204174 398.82584342 0.12204174 400.72940493 0.12386507 C404.58133325 0.71938168 406.23140374 1.91715156 408.9799881 4.62641239 C410.145038 6.95651219 410.1009239 8.29888316 410.09351349 10.89252567 C410.09343796 11.7732877 410.09336243 12.65404972 410.09328461 13.5615015 C410.08812332 14.51362522 410.08296204 15.46574894 410.07764435 16.44672489 C410.07552193 17.90741901 410.07552193 17.90741901 410.07335663 19.39762211 C410.06774783 22.51558312 410.05519383 25.63347299 410.0424881 28.75141239 C410.03747423 30.86208844 410.03291113 32.97276561 410.02881622 35.08344364 C410.01777554 40.2644576 410.00102883 45.44542992 409.9799881 50.62641239 C411.94004791 50.59499149 411.94004791 50.59499149 413.9397049 50.56293583 C418.79441084 50.49045686 423.64906908 50.44458364 428.50415802 50.40668583 C430.60417477 50.38658842 432.70413568 50.35930573 434.80396271 50.32465458 C437.82501768 50.27605469 440.84533186 50.25342478 443.86670685 50.23578739 C445.27166664 50.20481968 445.27166664 50.20481968 446.70500946 50.17322636 C450.99545102 50.17175425 453.33015102 50.22430212 457.04956818 52.52582645 C460.80045137 56.60734903 460.11694711 60.62506529 460.10024261 65.90232182 C460.10152425 67.36271328 460.10152425 67.36271328 460.10283178 68.85260761 C460.10448714 72.13546323 460.09896428 75.41826846 460.09351349 78.70111942 C460.0932316 81.04621218 460.09338938 83.39130503 460.09395599 85.73639774 C460.09424392 92.12038091 460.08834805 98.50434544 460.08138204 104.88832426 C460.07577869 110.87876757 460.07475996 116.86921089 460.07373016 122.85965632 C460.07154005 134.72706161 460.06488107 146.59446004 460.05542755 158.46186161 C460.04625238 169.99180918 460.03917206 181.52175488 460.03491974 193.05170536 C460.03452565 194.11727461 460.03452565 194.11727461 460.03412361 195.20437051 C460.0328186 198.76803819 460.03155488 202.33170588 460.0303117 205.89537358 C460.01994037 235.47239095 460.00224897 265.04940155 459.9799881 294.62641239 C460.87971344 295.0415308 460.87971344 295.0415308 461.79761505 295.46503544 C477.98921315 304.0815957 490.27822459 326.51594421 495.55420685 343.43500614 C503.83264919 371.8814468 502.12992562 402.25276084 487.95996857 428.51703739 C473.1298475 454.42649762 449.4763907 472.48730171 420.79859161 480.53119755 C403.59184824 484.83239059 382.9845136 484.73188736 365.9799881 479.62641239 C364.83272247 479.28609989 363.68545685 478.94578739 362.5034256 478.59516239 C345.61134952 473.0518647 331.13337985 463.81359103 318.3549881 451.50141239 C317.86498322 451.04226444 317.37497833 450.58311649 316.87012482 450.11005497 C313.97868478 447.21908816 312.05644416 444.79233181 310.31689072 441.01727867 C307.86530486 435.87668231 305.2341767 430.8371081 299.64600658 428.75807261 C292.3877189 427.34313179 284.98029576 427.70862456 277.62354279 427.86347294 C275.12935717 427.86111417 272.63517033 427.8521226 270.14102936 427.8370142 C264.7815017 427.8191986 259.42520501 427.84691378 254.0663147 427.91639614 C246.31245916 428.01666978 238.5602371 428.03156462 230.80582038 428.02579949 C218.2148936 428.01854796 205.62516858 428.0765837 193.0346756 428.17743778 C180.82438923 428.27507838 168.61445628 428.34694067 156.40381622 428.38056278 C155.651139 428.38264745 154.89846178 428.38473211 154.12297615 428.38687994 C146.63642234 428.40713525 139.14986041 428.42350609 131.66329668 428.43959203 C128.7506004 428.44589957 125.83790463 428.45241482 122.92520913 428.4590741 C121.48785457 428.46235811 120.05049987 428.46558048 118.61314502 428.4687402 C109.47618956 428.4893408 100.33961002 428.52994639 91.20284986 428.5931257 C85.96915382 428.62930903 80.73541418 428.6569565 75.50166702 428.68462849 C73.07241715 428.6995322 70.64318625 428.71801865 68.21399307 428.74032497 C64.90166265 428.77056292 61.58947405 428.78861929 58.2770462 428.8039484 C57.31304358 428.81611493 56.34904096 428.82828146 55.35582614 428.84081668 C49.39739301 428.85275941 44.42552376 428.62871376 39.62940216 424.70185184 C37.11829526 420.01973024 37.48615545 415.6485097 37.5893631 410.41938114 C37.59502289 409.33884968 37.60068268 408.25831821 37.60651398 407.14504337 C37.62886767 403.7008785 37.67906419 400.25776174 37.7299881 396.81391239 C37.75005431 394.47603681 37.76830487 392.13814489 37.7846756 389.80024052 C37.82872915 384.07527478 37.89563189 378.35091847 37.9799881 372.62641239 C36.67328156 372.64735966 35.36657501 372.66830692 34.0202713 372.68988895 C29.16556536 372.76236793 24.31090712 372.80824114 19.45581818 372.84613895 C17.35580143 372.86623636 15.25584052 372.89351905 13.15601349 372.9281702 C10.13495852 372.97677009 7.11464433 372.99940001 4.09326935 373.01703739 C2.68830956 373.0480051 2.68830956 373.0480051 1.25496674 373.07959843 C-3.03547482 373.08107054 -5.37017483 373.02852266 -9.08959198 370.72699833 C-12.21746626 367.32340274 -12.14733662 365.30124584 -12.15702629 360.75641251 C-12.16210083 359.4980081 -12.16717538 358.23960369 -12.17240369 356.94306582 C-12.17300542 355.5335749 -12.17350448 354.12408393 -12.17391205 352.71459293 C-12.17792513 351.22737618 -12.1823631 349.74016053 -12.18719161 348.2529462 C-12.19917996 344.1511506 -12.20481077 340.04936678 -12.20937276 335.94755709 C-12.21532021 331.52958788 -12.22693211 327.11163282 -12.23766327 322.69367313 C-12.26220565 312.01734793 -12.27681644 301.34101804 -12.28972334 290.6646733 C-12.29343371 287.65087421 -12.29740706 284.63707558 -12.301476 281.62327695 C-12.32670924 262.92070425 -12.34876924 244.21813086 -12.36120415 225.51554489 C-12.36413399 221.18181385 -12.36709564 216.84808283 -12.37010956 212.51435184 C-12.37085561 211.43718247 -12.37160166 210.36001309 -12.37237032 209.25020222 C-12.38503081 191.79080275 -12.41826223 174.33150497 -12.45991139 156.87215307 C-12.50229106 138.96023835 -12.52589453 121.04837575 -12.53112471 103.13641101 C-12.53454317 93.07409138 -12.54634959 83.01193069 -12.57922745 72.9496603 C-12.60717457 64.38225647 -12.61825081 55.81504414 -12.60703199 47.24759825 C-12.60183174 42.87426142 -12.60482017 38.50132598 -12.62949753 34.12804699 C-12.65188993 30.12640713 -12.65132907 26.12545929 -12.63229366 22.12380812 C-12.62947949 20.67425017 -12.63517044 19.22464628 -12.65010659 17.77516254 C-12.66914013 15.8081749 -12.65446725 13.84094686 -12.63804436 11.8739357 C-12.64007915 10.23346135 -12.64007915 10.23346135 -12.64215505 8.5598461 C-11.15720026 1.55821563 -6.57331972 0.00142514 0 0 Z M57.9799881 70.62641239 C57.9799881 181.83641239 57.9799881 293.04641239 57.9799881 407.62641239 C135.5299881 407.62641239 213.0799881 407.62641239 292.9799881 407.62641239 C292.22955327 399.80461201 292.22955327 399.80461201 290.9174881 392.25141239 C286.4698379 365.73526887 293.50700387 339.93339726 307.9799881 317.62641239 C323.17861434 296.7386078 343.92782222 282.00500813 368.9799881 275.62641239 C370.01768341 275.32863895 371.05537872 275.03086552 372.12451935 274.72406864 C394.19638797 269.0424607 415.07870598 273.60829978 436.01563263 281.01557255 C437.95543078 281.72539129 437.95543078 281.72539129 439.9799881 281.62641239 C439.9799881 211.99641239 439.9799881 142.36641239 439.9799881 70.62641239 C313.9199881 70.62641239 187.8599881 70.62641239 57.9799881 70.62641239 Z " fill="#062A75" transform="translate(12.020011901855469,14.373587608337402)"/>
<path d="M0 0 C2.54627164 1.97738198 4.98945298 4.02729272 7.41015625 6.15625 C8.16039062 6.81109375 8.910625 7.4659375 9.68359375 8.140625 C26.05092293 23.41679891 34.9592494 44.71095977 35.9140625 66.91235352 C36.41020857 90.67568319 27.42597815 112.60528037 11.12695312 129.84155273 C5.45460948 135.64520063 -0.45494962 140.21719386 -7.58984375 144.15625 C-8.35296875 144.60355469 -9.11609375 145.05085937 -9.90234375 145.51171875 C-28.94518395 155.96598069 -52.87865365 158.39641975 -73.68408203 152.5612793 C-86.26605747 148.63387343 -97.87287236 142.05914357 -107.58984375 133.15625 C-108.34394531 132.49367188 -109.09804688 131.83109375 -109.875 131.1484375 C-123.19155669 118.76837965 -130.94533315 101.74953499 -134.58984375 84.15625 C-134.77289063 83.40988281 -134.9559375 82.66351563 -135.14453125 81.89453125 C-138.56575081 60.857032 -133.12935096 39.34703371 -121.38671875 21.73828125 C-107.15329305 2.10511188 -86.84315053 -11.54698182 -62.79882812 -15.55078125 C-40.87840464 -18.45799922 -18.01593939 -12.82582714 0 0 Z " fill="#FCFDFD" transform="translate(456.58984375,321.84375)"/>
<path d="M0 0 C126.06 0 252.12 0 382 0 C382 11.55 382 23.1 382 35 C379.57558563 34.97255707 377.15117126 34.94511414 374.65328979 34.9168396 C351.78889194 34.66665924 328.92539464 34.51675694 306.05969048 34.45853233 C294.30432075 34.42620192 282.55094458 34.36041845 270.79638672 34.21484375 C260.54646337 34.08798925 250.29843316 34.02495786 240.04769814 34.03737414 C234.62293363 34.04174705 229.20249273 34.01497955 223.77862167 33.91166306 C200.79596695 32.16305289 200.79596695 32.16305289 180.30534363 39.95133972 C177.06757495 43.59728224 174.83815798 47.43379268 172.93827248 51.90892982 C171.65674003 54.76500239 169.83712916 57.00704855 167.81640625 59.37890625 C167.26146484 60.09240234 166.70652344 60.80589844 166.13476562 61.54101562 C161.25390625 67.81640625 161.25390625 67.81640625 159.69777012 69.74753666 C157.96236967 71.95015865 157.96236967 71.95015865 156.66623592 74.34138393 C154.27167955 78.22286003 152.46683273 80.60800804 147.95465279 81.81382942 C144.06778226 82.10951671 140.23560105 82.11478419 136.34399414 82.02172852 C134.85529739 82.01918735 133.36658938 82.02061976 131.87789917 82.02571106 C127.85058584 82.02828657 123.8257 81.97549489 119.79894948 81.91254544 C115.58569202 81.85616428 111.37237472 81.85098767 107.15879822 81.84031677 C99.18636207 81.81237786 91.21504076 81.73857138 83.24309486 81.64817137 C72.46616342 81.52862452 61.68892565 81.48015621 50.91149807 81.42765141 C33.94016415 81.34310213 16.97118247 81.16378718 0 81 C0 54.27 0 27.54 0 0 Z " fill="#FBCA51" transform="translate(70,85)"/>
<path d="M0 0 C126.06 0 252.12 0 382 0 C382 9.9 382 19.8 382 30 C375.53337517 30.00546844 375.53337517 30.00546844 368.93611145 30.01104736 C329.4248473 30.04630587 289.91364978 30.10131126 250.4024434 30.17792095 C245.22654784 30.1879387 240.05065196 30.19778278 234.87475586 30.20751953 C233.84430532 30.2094609 232.81385477 30.21140228 231.75217845 30.21340248 C215.05575493 30.24444421 198.35934517 30.26140919 181.66289822 30.27319422 C164.53749683 30.28559453 147.41216776 30.31307055 130.28681201 30.35461307 C119.71506325 30.37978059 109.14343438 30.39311491 98.57165524 30.39142957 C91.32735646 30.39139987 84.08318003 30.40598145 76.83892892 30.43216428 C72.65605764 30.44684743 68.47343726 30.45498153 64.29054451 30.44580269 C60.46279806 30.43754506 56.6355568 30.44758906 52.80788549 30.47233662 C51.42154499 30.47804311 50.03515696 30.47696955 48.64883051 30.46851245 C46.76697707 30.45801404 44.88503075 30.47441333 43.003232 30.49219131 C41.95710249 30.4937102 40.91097298 30.49522908 39.83314258 30.49679399 C36.27036185 31.12959401 34.588341 32.52293663 32 35 C30.76615153 37.46769695 30.86953098 39.09227887 30.8613348 41.85321999 C30.85312313 43.40059567 30.85312313 43.40059567 30.84474558 44.97923148 C30.84376747 46.12123554 30.84278936 47.26323961 30.84178162 48.43984985 C30.83684364 49.64620665 30.83190566 50.85256345 30.82681805 52.09547651 C30.8140743 55.45443114 30.80580885 58.813344 30.79939139 62.17231321 C30.79140226 65.79059259 30.77769939 69.40885073 30.76467896 73.02711487 C30.74289505 79.29948895 30.72475758 85.57186516 30.70907402 91.84425735 C30.68639279 100.91316133 30.65824756 109.98204182 30.62875474 119.0509259 C30.58105737 133.76343243 30.53779902 148.47594855 30.49731445 163.18847656 C30.45797043 177.48308051 30.41654684 191.77767593 30.37231445 206.07226562 C30.36959018 206.95290387 30.36686591 207.83354212 30.36405908 208.74086638 C30.35037979 213.15862624 30.33665948 217.57638596 30.32291877 221.99414563 C30.20892031 258.66274621 30.10239114 295.33136531 30 332 C20.1 332 10.2 332 0 332 C0 222.44 0 112.88 0 0 Z " fill="#FC8E01" transform="translate(20,35)"/>
<path d="M0 0 C0.33 0 0.66 0 1 0 C1 57.75 1 115.5 1 175 C-9 172 -9 172 -13.4140625 170.6484375 C-14.81764176 170.22373824 -16.22128687 169.79925658 -17.625 169.375 C-18.32367188 169.1584375 -19.02234375 168.941875 -19.7421875 168.71875 C-35.64936418 163.946597 -54.12778875 164.44536547 -70 169 C-71.04800781 169.26683594 -72.09601563 169.53367187 -73.17578125 169.80859375 C-98.66989531 176.81247124 -121.57969091 194.42347859 -134.87597656 217.24511719 C-141.49983573 229.03736871 -145.30145275 240.83939263 -148 254 C-148.19464844 254.79792969 -148.38929688 255.59585938 -148.58984375 256.41796875 C-150.48800097 268.36732039 -149.11250912 280.75155785 -146.65625 292.49609375 C-146 296 -146 296 -146 301 C-157.88 301 -169.76 301 -182 301 C-184.72754562 288.72604472 -185.13003371 277.45434017 -185 265 C-185.99 265.33 -186.98 265.66 -188 266 C-190.06642535 266.10001811 -192.13595849 266.13936406 -194.20478821 266.14717102 C-195.50443512 266.15432632 -196.80408203 266.16148163 -198.14311218 266.16885376 C-199.5867002 266.17169399 -201.03028848 266.17440573 -202.47387695 266.17700195 C-203.99166011 266.18326728 -205.50944173 266.18991414 -207.02722168 266.19691467 C-212.01423069 266.2179472 -217.00123998 266.22831549 -221.98828125 266.23828125 C-223.70525822 266.24232894 -225.42223502 266.24644587 -227.13921165 266.25063133 C-235.20484761 266.2696803 -243.27047441 266.28391261 -251.33612853 266.2922433 C-260.6466191 266.30201859 -269.95687212 266.32834685 -279.26727897 266.36874419 C-286.4639787 266.39889894 -293.6606103 266.41371152 -300.85737199 266.41702431 C-305.15567101 266.41937532 -309.45371615 266.42834235 -313.7519474 266.45348549 C-317.79609222 266.47676047 -321.83981589 266.48100194 -325.88401031 266.47072411 C-327.36667214 266.47022851 -328.84935466 266.4765561 -330.33195305 266.49028015 C-332.35931178 266.50799404 -334.38685331 266.49850927 -336.41426086 266.48774719 C-338.11465499 266.49132972 -338.11465499 266.49132972 -339.84940052 266.49498463 C-343.7405687 265.88365068 -345.93245162 264.42372387 -349 262 C-350.13624119 259.72751762 -350.26446843 258.21697236 -350.375 255.6875 C-350.42398438 254.92824219 -350.47296875 254.16898438 -350.5234375 253.38671875 C-349.72792922 249.75943845 -347.81954531 248.33756874 -345 246 C-341.90997887 245.38476086 -341.90997887 245.38476086 -338.38265991 245.39872742 C-337.73121966 245.39445529 -337.07977941 245.39018317 -336.40859854 245.38578159 C-334.23311757 245.37756782 -332.05957957 245.40500525 -329.88427734 245.43237305 C-328.32192531 245.43378393 -326.75956996 245.43299075 -325.19721985 245.43016052 C-320.95955553 245.42872615 -316.72259916 245.45812199 -312.48509932 245.49303031 C-308.05159576 245.52430634 -303.61807562 245.52722608 -299.18447876 245.53315735 C-290.78739549 245.54869816 -282.39063769 245.58972433 -273.99369776 245.6399048 C-264.44571063 245.69573269 -254.89770832 245.72327787 -245.34959865 245.74838197 C-226.51234335 245.7984983 -207.67536219 245.88087272 -188.83833885 245.98603344 C-186.89224389 245.99560955 -184.94611852 246 -183 246 C-182.67128906 244.31197266 -182.67128906 244.31197266 -182.3359375 242.58984375 C-174.73637092 205.17028331 -152.53391914 173.31680967 -121 152 C-90.04767453 131.68169782 -54.07555695 126.66488242 -18 132 C-9.09 134.475 -9.09 134.475 0 137 C0 91.79 0 46.58 0 0 Z " fill="#D1DBFC" transform="translate(451,121)"/>
<path d="M0 0 C7.68327231 4.33327412 12.25888681 10.027765 15.75390625 18.08203125 C16.94176419 22.71627521 16.83828682 27.09477161 16.75 31.85546875 C16.74097656 32.78230469 16.73195313 33.70914063 16.72265625 34.6640625 C16.69922937 36.93646952 16.66642748 39.20833055 16.625 41.48046875 C17.841875 41.52171875 19.05875 41.56296875 20.3125 41.60546875 C23.64777078 41.71852878 24.72827716 42.56601937 27.35742188 44.74389648 C31.03454347 49.53838869 30.29902137 55.37176138 30.21875 61.140625 C30.21879028 62.36325546 30.21883057 63.58588593 30.21887207 64.8455658 C30.21352004 67.42517245 30.19595127 70.00477886 30.16699219 72.58422852 C30.1251103 76.53257041 30.12592796 80.47920761 30.1328125 84.42773438 C30.12232077 86.93620977 30.10938276 89.44467638 30.09375 91.953125 C30.09344788 93.72357933 30.09344788 93.72357933 30.09313965 95.52980042 C30.07722778 96.63121872 30.06131592 97.73263702 30.04492188 98.86743164 C30.03650269 99.83306534 30.0280835 100.79869904 30.01940918 101.79359436 C29.4472426 105.69142387 28.08255837 108.38226965 24.90843201 110.77381897 C21.64816684 111.78276763 18.47031744 111.78368792 15.09008789 111.78686523 C14.33675674 111.79518875 13.5834256 111.80351227 12.80726624 111.81208801 C10.3206768 111.83615443 7.83434974 111.84495518 5.34765625 111.8515625 C3.61657127 111.86053021 1.88548708 111.86965208 0.15440369 111.87892151 C-3.47284834 111.89540407 -7.10000813 111.90311049 -10.72729492 111.90600586 C-15.3724944 111.91139413 -20.01682612 111.94909504 -24.66178036 111.99475002 C-28.23660951 112.02450611 -31.81122911 112.03172907 -35.38617134 112.03273201 C-37.09859766 112.03693592 -38.81102451 112.04937715 -40.52332878 112.07024956 C-42.91976528 112.09714025 -45.31418248 112.09234753 -47.71069336 112.07983398 C-48.41579041 112.09466827 -49.12088745 112.10950256 -49.84735107 112.12478638 C-53.68109456 112.0678477 -55.26779416 111.56684894 -58.29151917 109.13050842 C-61.18549096 105.4495818 -61.50413847 102.82192419 -61.55200195 98.27807617 C-61.56483719 97.21654831 -61.57767242 96.15502045 -61.59089661 95.06132507 C-61.59828354 93.91444717 -61.60567047 92.76756927 -61.61328125 91.5859375 C-61.621353 90.40582596 -61.62942474 89.22571442 -61.63774109 88.00984192 C-61.65157914 85.51072661 -61.66230254 83.01159242 -61.67016602 80.51245117 C-61.68738496 76.69348316 -61.73127612 72.87537936 -61.77539062 69.05664062 C-61.78551705 66.62891262 -61.79403331 64.20117725 -61.80078125 61.7734375 C-61.81828934 60.63263229 -61.83579742 59.49182709 -61.85383606 58.31645203 C-61.83678622 52.07488838 -61.6725483 48.16742319 -57.375 43.48046875 C-53.9397952 41.19033222 -52.389669 41.30203902 -48.375 41.48046875 C-48.42720703 39.68802734 -48.42720703 39.68802734 -48.48046875 37.859375 C-48.74587399 24.97367998 -47.97774657 16.00026345 -39.125 5.91796875 C-27.53094284 -4.35858191 -14.29872161 -6.78808991 0 0 Z " fill="#082C76" transform="translate(422.375,332.51953125)"/>
<path d="M0 0 C9.9 0 19.8 0 30 0 C30 83.16 30 166.32 30 252 C20.1 252 10.2 252 0 252 C0 168.84 0 85.68 0 0 Z " fill="#D1DBFC" transform="translate(20,115)"/>
<path d="M0 0 C0.97504368 -0.01064158 0.97504368 -0.01064158 1.96978521 -0.02149814 C4.14049872 -0.03905274 6.30941538 -0.02098957 8.48010254 -0.00291443 C10.03921828 -0.0080543 11.59832822 -0.0153361 13.15742493 -0.02459717 C17.38688741 -0.04311107 21.61571948 -0.030173 25.84515572 -0.01050687 C30.27242896 0.00588119 34.69966232 -0.00293348 39.12695312 -0.00802612 C46.56166654 -0.01254691 53.99612835 0.00332177 61.43078613 0.03126526 C70.02476678 0.06331717 78.61829364 0.06330143 87.2123065 0.04605049 C95.481424 0.03018351 103.75037524 0.03692004 112.01948547 0.0539875 C115.53774952 0.06085788 119.05588029 0.05982571 122.57414246 0.05244255 C126.71770203 0.04477808 130.86074556 0.05691071 135.00421715 0.08429146 C136.5243597 0.09117474 138.04455045 0.09127382 139.56469154 0.08407593 C141.64111453 0.07537738 143.7159463 0.09134034 145.79223633 0.11352539 C146.95365395 0.11633231 148.11507156 0.11913923 149.31168365 0.12203121 C153.04738147 0.73506185 154.7098531 2.01305418 157.39611816 4.62818909 C159.14455493 8.12506262 158.37562143 11.93368685 157.39611816 15.62818909 C154.47108137 18.62822682 151.97055048 20.54844579 147.74608994 20.76241016 C146.61270313 20.76668365 145.47931633 20.77095713 144.31158447 20.77536011 C143.01331223 20.78251541 141.71503998 20.78967072 140.37742615 20.79704285 C138.93020654 20.79988326 137.48298667 20.80259497 136.0357666 20.80519104 C134.51813094 20.8114546 133.00049681 20.8181013 131.48286438 20.82510376 C127.35255173 20.84252441 123.22225066 20.8530686 119.09191036 20.86130929 C116.51186611 20.86645762 113.93182546 20.87253345 111.35178375 20.87882042 C103.28080501 20.89787622 95.20983545 20.91210604 87.13883853 20.92043239 C77.81984787 20.93020463 68.50109475 20.95652208 59.1821878 20.99693328 C51.98126197 21.02708898 44.78040426 21.04190077 37.57941651 21.0452134 C33.27774924 21.04756469 28.97633561 21.05653497 24.67473602 21.08167458 C20.6265007 21.10495066 16.57868611 21.10919057 12.53040123 21.09891319 C11.04612771 21.09841759 9.56183352 21.10474535 8.07762337 21.11846924 C6.04802151 21.13618308 4.01823705 21.12669838 1.98858643 21.11593628 C0.85369152 21.11832463 -0.28120338 21.12071299 -1.45048904 21.12317371 C-5.34344875 20.51210007 -7.53516202 19.05322328 -10.60388184 16.62818909 C-11.74012302 14.35570671 -11.86835027 12.84516145 -11.97888184 10.31568909 C-12.02786621 9.55643127 -12.07685059 8.79717346 -12.12731934 8.01490784 C-10.73538283 1.66809286 -5.87630209 0.00296649 0 0 Z " fill="#6B67F7" transform="translate(112.6038818359375,321.37181091308594)"/>
<path d="M0 0 C0.65002912 -0.00779995 1.30005824 -0.01559991 1.96978521 -0.02363622 C4.14047346 -0.04352589 6.30940239 -0.02780641 8.48010254 -0.01205444 C10.03922039 -0.01883202 11.59833023 -0.02773595 13.15742493 -0.03860474 C17.38686839 -0.06138839 21.61570166 -0.05256588 25.84515572 -0.03670931 C30.27243818 -0.02404537 34.6996686 -0.03579179 39.12695312 -0.04364014 C46.56165949 -0.05273528 53.99611748 -0.04075242 61.43078613 -0.01693726 C70.02482874 0.01027387 78.61827826 0.0014596 87.2123065 -0.02606928 C94.59251845 -0.04876328 101.97255192 -0.05195905 109.35278749 -0.03887594 C113.7600047 -0.03108298 118.16694318 -0.03003543 122.57414246 -0.04655838 C126.71778293 -0.06100825 130.86065919 -0.05097273 135.00421715 -0.0220871 C136.52436237 -0.01547893 138.04457198 -0.01736948 139.56469154 -0.02840042 C141.6414061 -0.04208033 143.71567727 -0.02491744 145.79223633 0 C147.53436275 0.00282769 147.53436275 0.00282769 149.31168365 0.00571251 C153.3070505 0.82074282 154.79434862 2.58164808 157.39611816 5.63491821 C157.72611816 5.96491821 158.05611816 6.29491821 158.39611816 6.63491821 C158.48385996 9.7246828 158.17652843 12.64421846 157.39611816 15.63491821 C154.47108137 18.63495595 151.97055048 20.55517491 147.74608994 20.76913929 C146.61270313 20.77341277 145.47931633 20.77768625 144.31158447 20.78208923 C143.01331223 20.78924454 141.71503998 20.79639984 140.37742615 20.80377197 C138.93020654 20.80661239 137.48298667 20.8093241 136.0357666 20.81192017 C134.51813094 20.81818372 133.00049681 20.82483042 131.48286438 20.83183289 C127.35255173 20.84925354 123.22225066 20.85979773 119.09191036 20.86803842 C116.51186611 20.87318675 113.93182546 20.87926258 111.35178375 20.88554955 C103.28080501 20.90460535 95.20983545 20.91883516 87.13883853 20.92716151 C77.81984787 20.93693376 68.50109475 20.96325121 59.1821878 21.00366241 C51.98126197 21.03381811 44.78040426 21.0486299 37.57941651 21.05194253 C33.27774924 21.05429381 28.97633561 21.0632641 24.67473602 21.0884037 C20.6265007 21.11167978 16.57868611 21.1159197 12.53040123 21.10564232 C11.04612771 21.10514672 9.56183352 21.11147447 8.07762337 21.12519836 C6.04802151 21.1429122 4.01823705 21.1334275 1.98858643 21.12266541 C0.85369152 21.12505376 -0.28120338 21.12744211 -1.45048904 21.12990284 C-5.34344875 20.5188292 -7.53516202 19.0599524 -10.60388184 16.63491821 C-11.74012302 14.36243584 -11.86835027 12.85189058 -11.97888184 10.32241821 C-12.02786621 9.5631604 -12.07685059 8.80390259 -12.12731934 8.02163696 C-10.73572874 1.67639923 -5.87495583 0.0095358 0 0 Z " fill="#6A66F7" transform="translate(112.6038818359375,366.3650817871094)"/>
<path d="M0 0 C3.60672329 0.96642498 5.17070051 2.54122595 7.23046875 5.59765625 C7.9017512 9.69993787 7.70127768 11.78257541 5.6171875 15.390625 C2.85272946 19.1052241 -0.20542169 22.25323553 -3.51953125 25.47265625 C-4.12152344 26.065625 -4.72351563 26.65859375 -5.34375 27.26953125 C-6.8144507 28.71688749 -8.29135795 30.15793255 -9.76953125 31.59765625 C-8.41890838 34.62262206 -6.91923888 36.67822565 -4.546875 38.98046875 C-3.92619141 39.59019531 -3.30550781 40.19992187 -2.66601562 40.828125 C-2.01955078 41.45332031 -1.37308594 42.07851563 -0.70703125 42.72265625 C0.57770805 43.97301699 1.86036556 45.22552141 3.140625 46.48046875 C3.99346069 47.30635498 3.99346069 47.30635498 4.86352539 48.14892578 C7.03069059 50.44575705 7.24143311 51.69450808 7.60546875 54.91015625 C7.23046875 58.59765625 7.23046875 58.59765625 4.85546875 61.47265625 C1.7176826 64.01276884 -0.54470452 65.29076319 -4.68359375 65.1640625 C-9.05240847 63.97777386 -11.98772672 60.40982181 -15.10009766 57.27734375 C-17.1022698 55.26287397 -19.12965318 53.27504719 -21.15625 51.28515625 C-24.21536444 48.26478504 -27.27019445 45.24043485 -30.3046875 42.1953125 C-30.94801025 41.55086182 -31.59133301 40.90641113 -32.25415039 40.24243164 C-35.12771454 37.12350113 -35.31155904 34.24335355 -35.21386719 30.12744141 C-34.69079473 27.14937722 -33.86063087 26.07242157 -31.81640625 23.87890625 C-31.18089844 23.1916748 -30.54539062 22.50444336 -29.890625 21.79638672 C-29.19066406 21.07080566 -28.49070312 20.34522461 -27.76953125 19.59765625 C-27.03863281 18.83984863 -26.30773437 18.08204102 -25.5546875 17.30126953 C-23.22797375 14.92270838 -20.87809187 12.56961739 -18.51953125 10.22265625 C-17.71773437 9.41699219 -16.9159375 8.61132812 -16.08984375 7.78125 C-14.93355469 6.62689453 -14.93355469 6.62689453 -13.75390625 5.44921875 C-13.06006836 4.75650879 -12.36623047 4.06379883 -11.65136719 3.35009766 C-7.55118592 -0.46815626 -5.30670203 -0.75315347 0 0 Z " fill="#FD6353" transform="translate(135.76953125,216.40234375)"/>
<path d="M0 0 C2.57197982 1.55661671 4.4899512 3.5235205 6.53125 5.71484375 C7.09324097 6.28578262 7.65523193 6.8567215 8.23425293 7.44496155 C10.00921403 9.25779083 11.75404195 11.09676826 13.5 12.9375 C14.70130653 14.17039429 15.90441678 15.40153379 17.109375 16.63085938 C26.94764646 26.73118486 26.94764646 26.73118486 27.07981873 29.93444824 C26.63561755 36.26525678 24.86562707 39.26437172 20.28515625 43.53125 C19.71421738 44.09324097 19.1432785 44.65523193 18.55503845 45.23425293 C16.74220917 47.00921403 14.90323174 48.75404195 13.0625 50.5 C11.82960571 51.70130653 10.59846621 52.90441678 9.36914062 54.109375 C-0.62165713 63.84096044 -0.62165713 63.84096044 -5.25 64.375 C-10.13275687 63.88672431 -11.85859952 62.75435667 -15 59 C-15.96813402 55.77697156 -15.88873211 53.23869248 -15 50 C-13.08934744 46.88230027 -10.63075667 44.5197933 -8 42 C-7.11183594 41.10152344 -6.22367188 40.20304687 -5.30859375 39.27734375 C-2.89080689 36.83204296 -0.45365486 34.40922248 2 32 C-2.35707621 26.72564459 -7.03009718 21.91531621 -11.92578125 17.13671875 C-15.09300344 13.87406237 -15.33431878 11.58756589 -15.29296875 7.0390625 C-14.83745033 3.86865433 -13.24684343 2.1807598 -11 0 C-7.45636804 -1.77181598 -3.7410577 -0.97375809 0 0 Z " fill="#FD6151" transform="translate(244,217)"/>
<path d="M0 0 C16.5 0 33 0 50 0 C50 9.9 50 19.8 50 30 C33.5 30 17 30 0 30 C0 20.1 0 10.2 0 0 Z " fill="#BB99F3" transform="translate(382,394)"/>
<path d="M0 0 C3.92751783 1.25792386 5.12344033 3.16089193 7.1953125 6.703125 C7.7434662 11.65443854 6.60449795 14.46307552 4.1171875 18.7109375 C3.79436295 19.27034027 3.47153839 19.82974304 3.13893127 20.40609741 C2.0870624 22.22117716 1.0169489 24.02465753 -0.0546875 25.828125 C-0.78711624 27.07955061 -1.51863635 28.33150845 -2.24926758 29.58398438 C-3.72109203 32.10133356 -5.20106253 34.61361305 -6.68798828 37.12207031 C-8.60183444 40.35261065 -10.48556446 43.59986721 -12.36328125 46.8515625 C-13.40507676 48.63610211 -14.44796594 50.42000391 -15.4921875 52.203125 C-15.95979492 53.01410645 -16.42740234 53.82508789 -16.90917969 54.66064453 C-19.39038012 58.8329173 -21.60032651 62.06077701 -25.8046875 64.703125 C-30.0903855 65.31536757 -32.0310315 65.20768326 -35.6796875 62.828125 C-38.39198581 60.11582669 -38.7371035 59.17676244 -39.28515625 55.3359375 C-39.18571207 48.92827326 -35.36182031 43.88326689 -32.1171875 38.578125 C-31.09060292 36.85594192 -30.0640269 35.13375357 -29.03825378 33.41108704 C-27.98943781 31.65555375 -26.93279534 29.90491956 -25.875 28.15478516 C-23.89292747 24.8653071 -21.96826663 21.54469633 -20.0546875 18.21484375 C-18.90888431 16.23175342 -17.76305242 14.24867967 -16.6171875 12.265625 C-16.08971924 11.34313965 -15.56225098 10.4206543 -15.01879883 9.47021484 C-14.5214624 8.62023926 -14.02412598 7.77026367 -13.51171875 6.89453125 C-12.86940308 5.78380249 -12.86940308 5.78380249 -12.21411133 4.65063477 C-8.704018 -0.1995323 -5.66129961 -0.85947123 0 0 Z " fill="#FD6252" transform="translate(201.8046875,216.296875)"/>
<path d="M0 0 C4.15542704 1.79438895 6.57518223 4.20111882 9 8 C9.47585229 10.96105959 9.37926883 13.82358735 9.25 16.8125 C9.1675 19.514375 9.085 22.21625 9 25 C0.75 25 -7.5 25 -16 25 C-16.12375 21.225625 -16.12375 21.225625 -16.25 17.375 C-16.28641602 16.59431152 -16.32283203 15.81362305 -16.36035156 15.00927734 C-16.45547883 8.96562728 -14.38768073 5.55822935 -10.25 1.125 C-6.87744148 -0.56127926 -3.65142378 -0.53204378 0 0 Z " fill="#FDFDFD" transform="translate(410,349)"/>
<path d="M0 0 C3.64051176 0.81120099 5.09653944 2.45526886 7.15625 5.48046875 C8.21875 8.91796875 8.21875 8.91796875 8.15625 12.48046875 C5.21954114 17.94882318 5.21954114 17.94882318 2.15625 19.48046875 C-0.9266053 19.95894727 -3.76722221 20.02681765 -6.84375 19.48046875 C-10.01832096 16.88898225 -11.38955349 15.4061118 -12.31640625 11.4765625 C-12.59299348 7.73908893 -11.92337876 5.6037649 -9.90625 2.48046875 C-6.33358656 0.14730079 -4.19648565 -0.25878328 0 0 Z " fill="#FEFDFA" transform="translate(197.84375,110.51953125)"/>
<path d="M0 0 C3.0625 1.9375 3.0625 1.9375 5 5 C6.03945854 9.75058323 5.669717 12.94141507 3.0625 17.0625 C-1.05858493 19.669717 -4.24941677 20.03945854 -9 19 C-12.0625 17.0625 -12.0625 17.0625 -14 14 C-15.03945854 9.24941677 -14.669717 6.05858493 -12.0625 1.9375 C-7.94141507 -0.669717 -4.75058323 -1.03945854 0 0 Z " fill="#FEFEFB" transform="translate(155,111)"/>
<path d="M0 0 C3.0625 2 3.0625 2 5 5 C5.73301898 9.61801955 5.71565523 12.58960049 3.0625 16.5 C-0.5145404 19.42003298 -2.33554105 19.85371888 -6.83984375 19.5078125 C-10.57700553 18.62927537 -11.96994762 17.20879247 -14 14 C-15.03945854 9.24941677 -14.669717 6.05858493 -12.0625 1.9375 C-7.94608077 -0.66676523 -4.7460093 -1.04704003 0 0 Z " fill="#FEFEFB" transform="translate(110,111)"/>
</svg>
