<?xml version="1.0" encoding="UTF-8"?>
<svg version="1.1" xmlns="http://www.w3.org/2000/svg" width="512" height="512">
<path d="M0 0 C1.39278207 -0.00668677 1.39278207 -0.00668677 2.81370115 -0.01350862 C3.82526164 -0.01332426 4.83682212 -0.01313989 5.87903595 -0.01294994 C6.96036065 -0.01662663 8.04168534 -0.02030332 9.15577745 -0.02409142 C12.7859065 -0.0351208 16.41600692 -0.03897087 20.04615021 -0.04278088 C22.64645224 -0.04904614 25.24675337 -0.055693 27.84705353 -0.0626936 C35.65525558 -0.0824315 43.46345888 -0.0925213 51.27167964 -0.10142139 C54.95293814 -0.1058091 58.63419521 -0.11117469 62.31545258 -0.11641026 C74.56037599 -0.13342066 86.80529852 -0.14791311 99.05023193 -0.155159 C102.2259547 -0.15706875 105.40167747 -0.1589891 108.57740021 -0.16094494 C109.36666619 -0.16142868 110.15593218 -0.16191242 110.96911532 -0.16241082 C123.74438282 -0.17070472 136.51955649 -0.19603165 149.29478306 -0.22852562 C162.42462008 -0.26164796 175.5544095 -0.27961247 188.6842885 -0.28280324 C196.05060935 -0.28496366 203.41679342 -0.29364345 210.78307343 -0.31926441 C217.71716645 -0.34332709 224.65101021 -0.34676469 231.58513641 -0.33650303 C234.12430387 -0.33600836 236.66348356 -0.3423083 239.20261383 -0.35605907 C270.21114574 -0.51453383 270.21114574 -0.51453383 282.10669708 9.85297108 C289.15870016 17.3002944 292.6148542 25.71981119 292.46216583 35.93890858 C292.45792099 37.02487827 292.45792099 37.02487827 292.45359039 38.13278675 C292.4424742 40.42510598 292.41738645 42.71702171 292.39185333 45.00922108 C292.38181243 46.5717154 292.37268853 48.1342159 292.36450958 49.69672108 C292.34256306 53.50937445 292.30809346 57.32172956 292.26685333 61.13422108 C293.38390656 61.24669178 294.50095978 61.35916248 295.6518631 61.47504139 C307.25997925 62.66018603 318.84567007 63.9812037 330.41260529 65.5189867 C332.28519116 65.76397039 334.15894186 66.00019835 336.03369904 66.22797108 C349.70776642 67.8941837 363.64170468 69.78726466 372.96216583 81.21234608 C383.23889505 96.82398937 381.10090492 111.06215249 378.65235138 128.84149647 C378.35824362 131.04359017 378.06523939 133.24583149 377.77324867 135.4482069 C377.14197971 140.19198291 376.50313986 144.93465464 375.85832405 149.67660809 C374.82269908 157.29261516 373.80332572 164.91074476 372.78630829 172.52925587 C371.71450311 180.55126571 370.64134861 188.57308338 369.56174564 196.59404755 C367.07341674 215.08268034 364.61576525 233.57514211 362.18335724 252.0712328 C361.51209991 257.1744584 360.84081748 262.27768069 360.16947174 267.38089466 C360.00379586 268.64038303 359.83811997 269.89987141 359.66742361 271.1975261 C357.49729518 287.68746747 355.30776119 304.17483637 353.11800575 320.6621809 C351.31336694 334.25238327 349.51535267 347.84342835 347.72746424 361.43584298 C346.28528692 372.39846917 344.83348968 383.3597949 343.37317389 394.32002026 C342.56658368 400.37592745 341.76411593 406.43230908 340.97236824 412.4901762 C340.24013829 418.09170574 339.49624511 423.6915618 338.74332809 429.2903471 C338.47133113 431.32835528 338.20355414 433.36693208 337.94043922 435.406106 C335.84599739 451.60894707 333.49519506 466.0837161 320.26685333 477.13422108 C317.69683425 478.76830801 315.09166324 480.00543158 312.26685333 481.13422108 C311.23560333 481.54672108 310.20435333 481.95922108 309.14185333 482.38422108 C295.37046538 485.049651 280.91637087 482.01385076 267.20996857 480.15253162 C264.79563183 479.83151097 262.38118985 479.51128106 259.96665192 479.19177723 C254.11850352 478.41574057 248.27153094 477.63122603 242.42507463 476.84256896 C235.60116975 475.92239219 228.77601439 475.01165744 221.95081414 474.10114763 C209.76451551 472.47508102 197.57945098 470.83994503 185.39502716 469.19989491 C173.60044849 467.61232189 161.80491441 466.03209905 150.00830841 464.45966053 C137.12879981 462.7428646 124.24982498 461.02216122 111.371759 459.29457408 C109.99586407 459.1100015 108.61996903 458.92542981 107.24407387 458.74085903 C106.56729772 458.65006553 105.89052157 458.55927203 105.19323705 458.46572721 C100.44804192 457.82936658 95.70249915 457.19564158 90.95682335 456.5628767 C84.5578343 455.70953349 78.15978241 454.84937629 71.7623024 453.98479176 C69.42176788 453.66946037 67.08095312 453.35620062 64.73983574 453.0452261 C35.04461383 449.09735706 35.04461383 449.09735706 28.08716583 445.48187733 C23.86978334 443.46664608 19.75985964 443.64230196 15.14185333 443.57172108 C13.36823187 443.53717001 11.5947457 443.49450017 9.82154083 443.44281483 C8.65340851 443.42432484 8.65340851 443.42432484 7.46167755 443.40546131 C4.9914267 443.10018337 3.37481402 442.44525568 1.26685333 441.13422108 C0.06414369 438.72880179 0.0636867 437.03055517 -0.04955292 434.34515858 C-0.09144745 433.40414295 -0.13334198 432.46312733 -0.17650604 431.49359608 C-0.21582245 430.50875233 -0.25513885 429.52390858 -0.29564667 428.50922108 C-0.36042206 427.02035389 -0.36042206 427.02035389 -0.42650604 425.50140858 C-0.53275735 423.0458227 -0.6347963 420.59013404 -0.73314667 418.13422108 C-1.98418182 417.89638905 -1.98418182 417.89638905 -3.26049042 417.65375233 C-13.15552174 415.60220517 -20.94131209 412.89631774 -27.73314667 405.13422108 C-28.43439667 404.35047108 -29.13564667 403.56672108 -29.85814667 402.75922108 C-34.74669966 395.91524689 -35.76052416 389.00145088 -36.29564667 380.82172108 C-36.37943573 379.56746326 -36.46322479 378.31320545 -36.54955292 377.02093983 C-36.61013885 376.06832264 -36.67072479 375.11570545 -36.73314667 374.13422108 C-37.15088348 374.57290516 -37.5686203 375.01158924 -37.99901581 375.46356678 C-39.92036281 377.46869268 -41.85770391 379.45763563 -43.79564667 381.44672108 C-44.78081268 382.48216053 -44.78081268 382.48216053 -45.78588104 383.53851795 C-50.71242173 388.56213333 -54.62417542 391.54571036 -61.76049042 392.56781483 C-68.17389625 392.57642343 -73.65141947 392.37655584 -78.73314667 388.13422108 C-83.91971977 382.13724592 -87.13890075 375.69079592 -86.60814667 367.63422108 C-85.71653361 358.07612908 -78.36169423 352.92564371 -71.53392792 347.22406483 C-44.94707755 325.48499319 -44.94707755 325.48499319 -33.30503082 294.70845509 C-33.03966206 284.77381065 -33.99977449 274.90679527 -35.73314667 265.13422108 C-36.65547089 264.72816639 -36.65547089 264.72816639 -37.59642792 264.31390858 C-41.11633151 262.37056144 -43.15356016 259.01787722 -44.32689667 255.20453358 C-45.58137947 248.81149619 -45.04446355 243.72349946 -41.99877167 237.95843983 C-40.73314667 236.13422108 -40.73314667 236.13422108 -38.68521976 234.52298641 C-35.9673621 231.19712521 -36.18158275 228.19866119 -36.23435211 224.08975697 C-36.22896756 223.2726009 -36.223583 222.45544483 -36.21803528 221.61352646 C-36.20474522 218.87126022 -36.21992121 216.12988607 -36.23485565 213.38763905 C-36.23103319 211.42299964 -36.22541478 209.45836303 -36.21813202 207.49373341 C-36.20616711 203.25993211 -36.20668211 199.02637874 -36.2167263 194.79257298 C-36.23227258 188.09363079 -36.21861763 181.3949437 -36.20069122 174.69601917 C-36.169842 161.67675429 -36.16837035 148.65756696 -36.17034149 135.63827229 C-36.17173323 119.08816299 -36.16133749 102.53811386 -36.12176377 85.98804867 C-36.10685122 79.33389314 -36.10708538 72.67996317 -36.1192416 66.02580428 C-36.12396446 61.8767745 -36.11641378 57.72783035 -36.10569763 53.57881451 C-36.10329858 51.66084257 -36.10600169 49.74285609 -36.1143055 47.82490063 C-36.17384552 33.19216805 -35.36640556 21.35031601 -24.88158417 10.15765858 C-17.82326139 3.54926873 -9.70525328 0.02172262 0 0 Z " fill="#EFEFF0" transform="translate(106.73314666748047,17.865778923034668)"/>
<path d="M0 0 C1.39278207 -0.00668677 1.39278207 -0.00668677 2.81370115 -0.01350862 C3.82526164 -0.01332426 4.83682212 -0.01313989 5.87903595 -0.01294994 C6.96036065 -0.01662663 8.04168534 -0.02030332 9.15577745 -0.02409142 C12.7859065 -0.0351208 16.41600692 -0.03897087 20.04615021 -0.04278088 C22.64645224 -0.04904614 25.24675337 -0.055693 27.84705353 -0.0626936 C35.65525558 -0.0824315 43.46345888 -0.0925213 51.27167964 -0.10142139 C54.95293814 -0.1058091 58.63419521 -0.11117469 62.31545258 -0.11641026 C74.56037599 -0.13342066 86.80529852 -0.14791311 99.05023193 -0.155159 C102.2259547 -0.15706875 105.40167747 -0.1589891 108.57740021 -0.16094494 C109.36666619 -0.16142868 110.15593218 -0.16191242 110.96911532 -0.16241082 C123.74438282 -0.17070472 136.51955649 -0.19603165 149.29478306 -0.22852562 C162.42462008 -0.26164796 175.5544095 -0.27961247 188.6842885 -0.28280324 C196.05060935 -0.28496366 203.41679342 -0.29364345 210.78307343 -0.31926441 C217.71716645 -0.34332709 224.65101021 -0.34676469 231.58513641 -0.33650303 C234.12430387 -0.33600836 236.66348356 -0.3423083 239.20261383 -0.35605907 C270.21114574 -0.51453383 270.21114574 -0.51453383 282.10669708 9.85297108 C289.15870016 17.3002944 292.6148542 25.71981119 292.46216583 35.93890858 C292.45792099 37.02487827 292.45792099 37.02487827 292.45359039 38.13278675 C292.4424742 40.42510598 292.41738645 42.71702171 292.39185333 45.00922108 C292.38181243 46.5717154 292.37268853 48.1342159 292.36450958 49.69672108 C292.34256306 53.50937445 292.30809346 57.32172956 292.26685333 61.13422108 C293.38390656 61.24669178 294.50095978 61.35916248 295.6518631 61.47504139 C307.25997925 62.66018603 318.84567007 63.9812037 330.41260529 65.5189867 C332.28519116 65.76397039 334.15894186 66.00019835 336.03369904 66.22797108 C349.70776642 67.8941837 363.64170468 69.78726466 372.96216583 81.21234608 C383.23889505 96.82398937 381.10090492 111.06215249 378.65235138 128.84149647 C378.35824362 131.04359017 378.06523939 133.24583149 377.77324867 135.4482069 C377.14197971 140.19198291 376.50313986 144.93465464 375.85832405 149.67660809 C374.82269908 157.29261516 373.80332572 164.91074476 372.78630829 172.52925587 C371.71450311 180.55126571 370.64134861 188.57308338 369.56174564 196.59404755 C367.07341674 215.08268034 364.61576525 233.57514211 362.18335724 252.0712328 C361.51209991 257.1744584 360.84081748 262.27768069 360.16947174 267.38089466 C360.00379586 268.64038303 359.83811997 269.89987141 359.66742361 271.1975261 C357.49729518 287.68746747 355.30776119 304.17483637 353.11800575 320.6621809 C351.31336694 334.25238327 349.51535267 347.84342835 347.72746424 361.43584298 C346.28528692 372.39846917 344.83348968 383.3597949 343.37317389 394.32002026 C342.56658368 400.37592745 341.76411593 406.43230908 340.97236824 412.4901762 C340.24013829 418.09170574 339.49624511 423.6915618 338.74332809 429.2903471 C338.47133113 431.32835528 338.20355414 433.36693208 337.94043922 435.406106 C335.84599739 451.60894707 333.49519506 466.0837161 320.26685333 477.13422108 C317.69683425 478.76830801 315.09166324 480.00543158 312.26685333 481.13422108 C311.23560333 481.54672108 310.20435333 481.95922108 309.14185333 482.38422108 C295.37046538 485.049651 280.91637087 482.01385076 267.20996857 480.15253162 C264.79563183 479.83151097 262.38118985 479.51128106 259.96665192 479.19177723 C254.11850352 478.41574057 248.27153094 477.63122603 242.42507463 476.84256896 C235.60116975 475.92239219 228.77601439 475.01165744 221.95081414 474.10114763 C209.76451551 472.47508102 197.57945098 470.83994503 185.39502716 469.19989491 C173.60044849 467.61232189 161.80491441 466.03209905 150.00830841 464.45966053 C137.12879981 462.7428646 124.24982498 461.02216122 111.371759 459.29457408 C109.99586407 459.1100015 108.61996903 458.92542981 107.24407387 458.74085903 C106.56729772 458.65006553 105.89052157 458.55927203 105.19323705 458.46572721 C100.44804192 457.82936658 95.70249915 457.19564158 90.95682335 456.5628767 C84.5578343 455.70953349 78.15978241 454.84937629 71.7623024 453.98479176 C69.42176788 453.66946037 67.08095312 453.35620062 64.73983574 453.0452261 C35.04461383 449.09735706 35.04461383 449.09735706 28.08716583 445.48187733 C23.86978334 443.46664608 19.75985964 443.64230196 15.14185333 443.57172108 C13.36823187 443.53717001 11.5947457 443.49450017 9.82154083 443.44281483 C8.65340851 443.42432484 8.65340851 443.42432484 7.46167755 443.40546131 C4.9914267 443.10018337 3.37481402 442.44525568 1.26685333 441.13422108 C0.06414369 438.72880179 0.0636867 437.03055517 -0.04955292 434.34515858 C-0.09144745 433.40414295 -0.13334198 432.46312733 -0.17650604 431.49359608 C-0.21582245 430.50875233 -0.25513885 429.52390858 -0.29564667 428.50922108 C-0.36042206 427.02035389 -0.36042206 427.02035389 -0.42650604 425.50140858 C-0.53275735 423.0458227 -0.6347963 420.59013404 -0.73314667 418.13422108 C-1.98418182 417.89638905 -1.98418182 417.89638905 -3.26049042 417.65375233 C-13.15552174 415.60220517 -20.94131209 412.89631774 -27.73314667 405.13422108 C-28.43439667 404.35047108 -29.13564667 403.56672108 -29.85814667 402.75922108 C-34.74669966 395.91524689 -35.76052416 389.00145088 -36.29564667 380.82172108 C-36.37943573 379.56746326 -36.46322479 378.31320545 -36.54955292 377.02093983 C-36.61013885 376.06832264 -36.67072479 375.11570545 -36.73314667 374.13422108 C-37.15088348 374.57290516 -37.5686203 375.01158924 -37.99901581 375.46356678 C-39.92036281 377.46869268 -41.85770391 379.45763563 -43.79564667 381.44672108 C-44.78081268 382.48216053 -44.78081268 382.48216053 -45.78588104 383.53851795 C-50.71242173 388.56213333 -54.62417542 391.54571036 -61.76049042 392.56781483 C-68.17389625 392.57642343 -73.65141947 392.37655584 -78.73314667 388.13422108 C-83.91971977 382.13724592 -87.13890075 375.69079592 -86.60814667 367.63422108 C-85.71653361 358.07612908 -78.36169423 352.92564371 -71.53392792 347.22406483 C-44.94707755 325.48499319 -44.94707755 325.48499319 -33.30503082 294.70845509 C-33.03966206 284.77381065 -33.99977449 274.90679527 -35.73314667 265.13422108 C-36.65547089 264.72816639 -36.65547089 264.72816639 -37.59642792 264.31390858 C-41.11633151 262.37056144 -43.15356016 259.01787722 -44.32689667 255.20453358 C-45.58137947 248.81149619 -45.04446355 243.72349946 -41.99877167 237.95843983 C-40.73314667 236.13422108 -40.73314667 236.13422108 -38.68521976 234.52298641 C-35.9673621 231.19712521 -36.18158275 228.19866119 -36.23435211 224.08975697 C-36.22896756 223.2726009 -36.223583 222.45544483 -36.21803528 221.61352646 C-36.20474522 218.87126022 -36.21992121 216.12988607 -36.23485565 213.38763905 C-36.23103319 211.42299964 -36.22541478 209.45836303 -36.21813202 207.49373341 C-36.20616711 203.25993211 -36.20668211 199.02637874 -36.2167263 194.79257298 C-36.23227258 188.09363079 -36.21861763 181.3949437 -36.20069122 174.69601917 C-36.169842 161.67675429 -36.16837035 148.65756696 -36.17034149 135.63827229 C-36.17173323 119.08816299 -36.16133749 102.53811386 -36.12176377 85.98804867 C-36.10685122 79.33389314 -36.10708538 72.67996317 -36.1192416 66.02580428 C-36.12396446 61.8767745 -36.11641378 57.72783035 -36.10569763 53.57881451 C-36.10329858 51.66084257 -36.10600169 49.74285609 -36.1143055 47.82490063 C-36.17384552 33.19216805 -35.36640556 21.35031601 -24.88158417 10.15765858 C-17.82326139 3.54926873 -9.70525328 0.02172262 0 0 Z M-16.54564667 19.44672108 C-17.08834198 19.99972889 -17.63103729 20.5527367 -18.19017792 21.12250233 C-22.10185957 26.22254297 -23.17082418 30.71206344 -23.09391022 37.03091908 C-23.09647349 37.80783702 -23.09903677 38.58475497 -23.10167772 39.38521588 C-23.10660426 41.97868519 -23.09014164 44.57156745 -23.07372284 47.1649828 C-23.07287632 49.02791295 -23.07335219 50.89084411 -23.07505035 52.75377369 C-23.07591077 57.80499805 -23.05827743 62.8560085 -23.03732848 67.90718317 C-23.01856945 73.18826525 -23.01681185 78.46935228 -23.01325226 83.75046253 C-23.00392954 93.74823755 -22.97931262 103.74591411 -22.94920379 113.74364579 C-22.91566691 125.12686766 -22.89917555 136.51009424 -22.88411748 147.89335322 C-22.85276331 171.30703042 -22.79999833 194.72062023 -22.73314667 218.13422108 C-19.16267391 216.45895159 -16.92813607 214.52345433 -14.17845917 211.66937733 C-13.31607635 210.78701405 -12.45369354 209.90465076 -11.56517792 208.9955492 C-9.76621736 207.13558493 -7.96932676 205.27361627 -6.17455292 203.4096117 C-5.30959198 202.52595936 -4.44463104 201.64230701 -3.55345917 200.73187733 C-2.38194305 199.5177013 -2.38194305 199.5177013 -1.18675995 198.27899647 C3.75504296 193.95922148 8.24448194 192.50697044 14.66919708 192.72015858 C19.76403358 193.53226785 24.20634967 195.85742144 27.68091583 199.69672108 C29.33556039 202.07750461 30.35084116 204.38618456 31.26685333 207.13422108 C31.09469299 208.04406757 30.92253265 208.95391407 30.74515533 209.89133167 C29.50865631 218.21099819 31.45779872 223.45927835 36.17038155 230.39494228 C40.11077269 235.67242946 44.37017186 240.59059202 48.88404083 245.37640858 C49.36237413 245.88705026 49.84070743 246.39769195 50.33353567 246.92380762 C66.71175828 264.18438918 82.42429797 270.84803899 106.14446521 271.56513667 C119.64704496 271.81629004 133.10998001 271.38403579 146.59112525 270.65118957 C156.23078421 270.13593083 165.87442976 269.92512748 175.52466583 269.71234608 C185.37388924 269.48905293 195.2168718 269.2413368 205.05887604 268.79611683 C206.55050286 268.73197021 208.04213581 268.66796602 209.53377533 268.60411549 C212.29395415 268.48548918 215.05217093 268.34714193 217.8108139 268.1973772 C219.02044296 268.14488316 220.23007202 268.09238911 221.47635651 268.03830433 C223.05482707 267.95754752 223.05482707 267.95754752 224.66518593 267.87515926 C227.26685333 268.13422108 227.26685333 268.13422108 229.14438438 269.44490337 C230.26685333 271.13422108 230.26685333 271.13422108 230.01685333 274.25922108 C229.26685333 277.13422108 229.26685333 277.13422108 228.26685333 278.13422108 C226.71106737 278.24224265 225.15042475 278.28105632 223.59093475 278.29243946 C222.07432503 278.30712269 222.07432503 278.30712269 220.52707672 278.32210255 C219.40858337 278.32785801 218.29009003 278.33361347 217.13770294 278.33954334 C215.96712845 278.34944294 214.79655396 278.35934254 213.59050751 278.36954212 C210.37167404 278.39579162 207.15284608 278.4176281 203.93396831 278.43754411 C200.57334989 278.45936679 197.21277726 278.4867736 193.85219574 278.51360035 C187.48446313 278.56357768 181.11670518 278.60849773 174.74892288 278.65162271 C167.50112353 278.70095211 160.25337009 278.75588613 153.00561512 278.8113023 C138.09273729 278.92519968 123.17981625 279.03202174 108.26685333 279.13422108 C108.92169708 280.27890858 109.57654083 281.42359608 110.25122833 282.60297108 C112.49084451 287.08220343 112.75438318 290.70090876 112.51685333 295.63422108 C112.49880646 296.36125233 112.48075958 297.08828358 112.46216583 297.83734608 C112.41568653 299.6035595 112.34397115 301.36908 112.26685333 303.13422108 C112.86284269 303.13753122 113.45883205 303.14084137 114.0728817 303.14425182 C128.56093541 303.22539987 143.04888912 303.31746517 157.53679466 303.42174816 C164.54298332 303.47191374 171.54916004 303.51835608 178.55542755 303.55609608 C185.31169743 303.59249982 192.06782329 303.63919607 198.82398605 303.69228458 C201.40685662 303.71087565 203.98975474 303.725966 206.57266617 303.73756504 C210.17903401 303.754347 213.78510487 303.78336235 217.39136505 303.81537342 C219.00760773 303.8186137 219.00760773 303.8186137 220.65650177 303.82191944 C221.63529297 303.83308292 222.61408417 303.84424641 223.62253571 303.85574818 C224.47611601 303.86127893 225.32969631 303.86680969 226.20914268 303.87250805 C228.26685333 304.13422108 228.26685333 304.13422108 230.26685333 306.13422108 C230.01685333 309.69672108 230.01685333 309.69672108 229.26685333 313.13422108 C226.75900906 314.38814321 225.21532911 314.18974807 222.41353607 314.08383656 C221.38698914 314.04882542 220.3604422 314.01381428 219.30278778 313.9777422 C218.17113693 313.93479527 217.03948608 313.89184834 215.87354279 313.84759998 C203.59338115 313.43562325 191.31803116 313.17454922 179.03253651 313.00132656 C171.60207478 312.89182587 164.18117861 312.72536828 156.755867 312.42328358 C119.59830409 309.6176187 119.59830409 309.6176187 87.18085384 324.13838482 C81.88249521 329.29383102 77.12530133 334.98743245 73.00624657 341.12901402 C70.25284453 345.22192814 68.03375815 347.31741866 63.26685333 349.13422108 C57.499397 350.05701409 51.92986504 350.00129514 46.76685333 347.07172108 C42.15285922 343.7047524 40.05978536 339.51301715 38.26685333 334.13422108 C38.17437952 332.65735997 38.13686262 331.17646607 38.14185333 329.69672108 C38.13798615 328.55396717 38.13798615 328.55396717 38.13404083 327.38812733 C38.26409318 325.18106249 38.65829134 323.25452832 39.26685333 321.13422108 C38.73575958 320.67531483 38.20466583 320.21640858 37.65747833 319.74359608 C34.08360634 316.63928391 30.54831274 313.55240796 27.26685333 310.13422108 C18.53828659 313.93929396 11.38819588 322.7744653 4.55421066 329.3354845 C1.77938572 331.99776249 -1.0138177 334.6296065 -3.87230682 337.20209217 C-18.14729745 349.46547563 -18.14729745 349.46547563 -25.28978729 366.18109608 C-25.80143452 376.63355086 -24.64465851 387.98515622 -18.91674042 396.98968983 C-16.38799586 399.47319745 -13.97799044 400.89367311 -10.79564667 402.44672108 C-9.77599823 402.95847889 -8.75634979 403.4702367 -7.70580292 403.99750233 C-4.77919264 405.11661349 -2.82699865 405.37922225 0.26685333 405.13422108 C0.31583771 404.44715076 0.36482208 403.76008045 0.41529083 403.05218983 C0.49005646 402.15113514 0.56482208 401.25008045 0.64185333 400.32172108 C0.71146271 399.42840076 0.78107208 398.53508045 0.85279083 397.61468983 C1.26685333 395.13422108 1.26685333 395.13422108 3.26685333 392.13422108 C5.60523224 391.70184803 5.60523224 391.70184803 8.49341583 391.62250233 C10.04029083 391.5693285 10.04029083 391.5693285 11.61841583 391.51508045 C12.69865021 391.49252186 13.77888458 391.46996326 14.89185333 391.44672108 C15.97982208 391.41256092 17.06779083 391.37840076 18.18872833 391.34320545 C20.88133396 391.26053774 23.57360624 391.19145021 26.26685333 391.13422108 C26.29263458 389.99984608 26.31841583 388.86547108 26.34497833 387.69672108 C26.90580784 370.72315969 26.90580784 370.72315969 32.91138458 364.40375233 C37.49831423 360.19656849 41.80297724 357.89252842 48.14217377 357.86679554 C49.57396217 357.85400059 49.57396217 357.85400059 51.0346756 357.84094715 C52.07011505 357.84185352 53.1055545 357.8427599 54.17237091 357.84369373 C55.27215775 357.83697651 56.37194458 357.83025928 57.50505829 357.82333851 C61.14054636 357.80434184 64.77584997 357.80043337 68.41138458 357.79828358 C70.94098232 357.79185662 73.47057931 357.78512833 76.00017548 357.77811146 C81.30368828 357.76613435 86.60713246 357.76234536 91.91065216 357.76361561 C98.02680177 357.76481612 104.14259799 357.74372892 110.25865823 357.71212828 C116.15704167 357.68274627 122.05531799 357.67564164 127.95377922 357.67683506 C130.45636881 357.67447759 132.95896113 357.66564593 135.46150398 357.65017033 C138.96568315 357.63053055 142.4689578 357.63634158 145.97315216 357.64838123 C147.00251892 357.63714222 148.03188568 357.62590321 149.09244537 357.61432362 C155.27405959 357.66817432 160.15428955 358.47274803 165.26685333 362.13422108 C165.99178986 363.02858875 166.71672638 363.92295643 167.46363068 364.84442616 C172.10663916 368.63703864 177.3129278 367.81984689 183.11841583 367.77093983 C184.36940063 367.78131779 185.62038544 367.79169575 186.90927887 367.80238819 C190.22608049 367.8270578 193.54155109 367.83152299 196.85834503 367.82452869 C201.53761981 367.81806813 206.21669255 367.84198387 210.89585114 367.87318897 C213.38541217 367.88815295 215.87507056 367.89187882 218.36466217 367.88341236 C219.48947998 367.88714359 220.61429779 367.89087482 221.77320099 367.89471912 C222.76405701 367.89296177 223.75491302 367.89120441 224.77579498 367.88939381 C227.26685333 368.13422108 227.26685333 368.13422108 230.26685333 370.13422108 C230.0112401 372.47734238 229.67414561 374.81265511 229.26685333 377.13422108 C226.75751034 378.38889257 224.98307979 378.29295666 222.17456818 378.33954334 C221.11361938 378.35948856 220.05267059 378.37943378 218.95957184 378.39998341 C217.81058411 378.4166959 216.66159637 378.43340839 215.47779083 378.45062733 C214.30423035 378.47140842 213.13066986 378.49218952 211.92154694 378.51360035 C208.16171029 378.57914091 204.40180211 378.63800184 200.64185333 378.69672108 C198.09757501 378.739902 195.55330401 378.78351615 193.00904083 378.82758045 C186.76171886 378.93482693 180.51432474 379.03608169 174.26685333 379.13422108 C174.26685333 383.09422108 174.26685333 387.05422108 174.26685333 391.13422108 C175.90396271 391.18320545 177.54107208 391.23218983 179.22779083 391.28265858 C181.36582934 391.35767747 183.50384932 391.43322567 185.64185333 391.50922108 C186.72208771 391.54015858 187.80232208 391.57109608 188.91529083 391.60297108 C189.94654083 391.64164295 190.97779083 391.68031483 192.04029083 391.72015858 C192.99339142 391.75157948 193.946492 391.78300037 194.92847443 391.81537342 C197.26685333 392.13422108 197.26685333 392.13422108 199.26685333 394.13422108 C199.68091583 396.73578358 199.68091583 396.73578358 199.89185333 399.75922108 C199.96661896 400.7621117 200.04138458 401.76500233 200.11841583 402.79828358 C200.16740021 403.56914295 200.21638458 404.34000233 200.26685333 405.13422108 C208.1778478 405.25063221 216.08847793 405.33919518 224.00012016 405.39328194 C227.67479059 405.41925545 231.34887039 405.45442411 235.02320099 405.51141834 C238.57645758 405.56618274 242.12915007 405.59573344 245.68279648 405.60860729 C247.68238962 405.62219384 249.68175922 405.66115512 251.68100739 405.70070362 C259.55666823 405.70310121 265.77582752 404.85322265 272.26685333 400.13422108 C277.66307168 394.42160168 280.51247079 388.94001612 280.52691555 380.98713112 C280.53398114 379.74325404 280.54104673 378.49937696 280.54832643 377.21780664 C280.54607515 375.84023845 280.54362866 374.46267057 280.541008 373.08510303 C280.54546076 371.61948297 280.55077493 370.15386532 280.55687672 368.6882512 C280.57106276 364.65987525 280.5727199 360.63157644 280.57227981 356.6031791 C280.5739275 352.25877893 280.58699316 347.9144106 280.5984726 343.57002735 C280.62132597 334.06995543 280.62924364 324.56990584 280.63429904 315.06981015 C280.6375558 309.13734527 280.64407818 303.20488687 280.65130043 297.27242565 C280.67086715 280.84554503 280.68727082 264.41867044 280.69017696 247.99177742 C280.69045832 246.41485985 280.69045832 246.41485985 280.69074536 244.80608536 C280.69111161 242.67490272 280.69147531 240.54372008 280.69183647 238.41253743 C280.69201928 237.35462126 280.69220209 236.29670508 280.69239044 235.20673084 C280.69257099 234.1475226 280.69275154 233.08831435 280.69293756 231.99700888 C280.69647893 214.83539833 280.72349868 197.67391328 280.76088833 180.51234625 C280.79897289 162.89071956 280.81833445 145.26915514 280.81863648 127.64748639 C280.81922103 117.75440947 280.82771159 107.86148225 280.85663414 97.96844387 C280.88115004 89.54397756 280.88842952 81.11971553 280.87338661 72.69522319 C280.86621845 68.39820967 280.86707092 64.10159951 280.88979721 59.80463123 C280.91042321 55.86698432 280.90775366 51.93004994 280.88692237 47.99241044 C280.88343433 46.57179382 280.88830848 45.15112542 280.90262681 43.73057667 C280.9893065 34.5345087 280.19651415 26.62356605 273.82418627 19.52776223 C267.09001695 13.53146906 261.05855044 12.69661598 252.42484283 12.75327015 C250.78403175 12.74625019 250.78403175 12.74625019 249.11007297 12.73908842 C245.44362263 12.72711979 241.77754476 12.73660333 238.11109161 12.74603748 C235.48282401 12.74197258 232.85455812 12.73663116 230.22629547 12.73010731 C223.8275276 12.71677178 217.42886533 12.71964714 211.03009333 12.72834523 C205.82816015 12.73512327 200.62625655 12.73603797 195.42432022 12.73277378 C194.68364613 12.73231408 193.94297204 12.73185438 193.17985328 12.73138075 C191.67511233 12.73042156 190.17037138 12.72944892 188.66563044 12.72846298 C174.55693621 12.71990931 160.44830045 12.72974223 146.33961581 12.74586408 C134.2406253 12.7592617 122.14172118 12.75694373 110.04273224 12.7431078 C95.98726412 12.727042 81.93184729 12.72073912 67.87637126 12.72994459 C66.37658684 12.73090021 64.87680241 12.73184333 63.37701797 12.73277378 C62.27018908 12.73346802 62.27018908 12.73346802 61.14100001 12.73417629 C55.94792397 12.73676359 50.75488053 12.73240066 45.56180954 12.72533512 C38.56699293 12.7160273 31.57234193 12.72268413 24.57754135 12.74001789 C22.010483 12.74398404 19.44341092 12.74284653 16.87635803 12.7362299 C13.37166396 12.72802957 9.86749195 12.73831864 6.36283112 12.75327015 C5.34745242 12.74657798 4.33207373 12.73988582 3.28592598 12.73299086 C-4.1787073 12.79473645 -11.15109635 13.73716052 -16.54564667 19.44672108 Z " fill="#020203" transform="translate(106.73314666748047,17.865778923034668)"/>
<path d="M0 0 C2.95183505 1.58839024 5.60664162 3.52839169 8.3125 5.5 C29.81730645 20.46667471 56.17179672 29.76818568 82.58349609 29.40917969 C86.19704821 29.45447365 87.93884225 29.95677203 90.91796875 32.0625 C93.44034783 35.62127874 93.77937825 38.34115751 93.8125 42.5625 C93.83546143 43.32771973 93.85842285 44.09293945 93.88208008 44.88134766 C93.95038625 47.58774897 93.97559096 50.29285652 94 53 C94.01901367 54.07459473 94.03802734 55.14918945 94.05761719 56.25634766 C94.31726354 71.29668178 94.10324908 86.09375146 92 101 C91.79866455 102.44632813 91.79866455 102.44632813 91.59326172 103.921875 C85.44167626 146.86716266 66.81447246 184.42227208 31.89624023 211.09204102 C23.71354894 217.14800495 14.94497361 222.16666859 6 227 C4.42798828 227.89332031 4.42798828 227.89332031 2.82421875 228.8046875 C-0.49546959 230.20970082 -2.42488608 230.47304306 -6 230 C-8.51950052 228.92592722 -10.76038775 227.84091192 -13.125 226.5 C-13.78097168 226.1376123 -14.43694336 225.77522461 -15.11279297 225.40185547 C-21.30397822 221.92992411 -27.22040579 218.12170264 -33 214 C-34.00160156 213.29746094 -35.00320312 212.59492188 -36.03515625 211.87109375 C-50.51254699 201.26869235 -63.5435967 188.30202827 -73 173 C-73.39123047 172.36739258 -73.78246094 171.73478516 -74.18554688 171.08300781 C-85.75005306 152.06811069 -93.79895097 130.04929599 -97 108 C-97.1544458 106.97181152 -97.1544458 106.97181152 -97.31201172 105.92285156 C-99.3094409 91.72942905 -99.18357723 77.42641776 -99.1875 63.125 C-99.18849701 62.14439606 -99.18949402 61.16379211 -99.19052124 60.1534729 C-99.19019469 57.31317783 -99.18109569 54.47307492 -99.16796875 51.6328125 C-99.16676025 50.7814119 -99.16555176 49.93001129 -99.16430664 49.05281067 C-99.06045102 35.6656712 -99.06045102 35.6656712 -96.42578125 31.52734375 C-93.06697627 29.41254061 -90.0298807 29.53768331 -86.1875 29.5625 C-59.93928863 28.87696294 -31.31312621 19.68563766 -10.69067383 3.14941406 C-6.97503361 0.27096587 -4.66861936 -0.93489249 0 0 Z " fill="#FDCE63" transform="translate(238,41)"/>
<path d="M0 0 C5.41170671 -0.03846055 10.55024212 0.2075047 15.91015625 1.0234375 C16.64012314 1.12967438 17.37009003 1.23591125 18.12217712 1.34536743 C20.43643992 1.68323965 22.74946851 2.02880893 25.0625 2.375 C27.34200307 2.71108525 29.62173934 3.04553935 31.90156555 3.37942505 C33.40323969 3.59983846 34.90469704 3.8217341 36.40592957 4.0451355 C40.02290967 4.58041314 43.63968561 5.08931527 47.26879883 5.53564453 C47.94474594 5.61988678 48.62069305 5.70412903 49.31712341 5.79092407 C51.14608452 6.01560516 52.97608793 6.23175562 54.80615234 6.44726562 C61.79581276 7.65691179 67.10317059 10.41170363 71.5 16 C78.4829997 26.61258147 75.84708479 37.83526666 74.3125 49.9375 C74.13194753 51.39573555 73.95153072 52.8539879 73.77124023 54.31225586 C72.39858463 65.30447119 70.84691515 76.26851037 69.2460022 87.22946167 C67.50882817 99.1354106 65.96216041 111.0573282 64.5 123 C62.87888354 136.23655617 61.11772369 149.44134198 59.1875 162.63623047 C57.4696126 174.40644336 55.94615596 186.19349238 54.5 198 C52.87897213 211.23417283 51.11853419 224.43665992 49.18850708 237.62918091 C47.32345267 250.40665933 45.69342045 263.20657883 44.12011719 276.02294922 C42.84921301 286.36527621 41.51660607 296.69015036 40 307 C37.92794411 321.08913042 36.18562023 335.21617036 34.44676208 349.34945679 C34.05979667 352.48860507 33.66974541 355.62736171 33.27810669 358.76593018 C33.09409987 360.2440826 32.9113611 361.72239347 32.72994995 363.2008667 C32.4771833 365.25304722 32.21799244 367.30431633 31.95703125 369.35546875 C31.81241455 370.51071045 31.66779785 371.66595215 31.51879883 372.85620117 C30.11188418 381.38177288 26.88281264 387.69419154 20 393 C9.18941186 399.98183817 -8.54885093 395.42917904 -20.625 393.8125 C-22.39093763 393.58317588 -24.15697179 393.35459399 -25.9230957 393.12670898 C-31.28391352 392.43149368 -36.64211028 391.71738073 -42 391 C-43.57827833 390.78964275 -45.15656573 390.57935355 -46.73486328 390.36914062 C-54.2547154 389.36584828 -61.77243255 388.34744196 -69.2890625 387.3203125 C-76.30265903 386.36212202 -83.31856972 385.42234608 -90.3359375 384.4921875 C-91.29954697 384.36442429 -92.26315643 384.23666107 -93.25596619 384.10502625 C-95.21201423 383.84571169 -97.16806383 383.58640894 -99.12411499 383.32711792 C-112.05051832 381.61312933 -124.97269267 379.888483 -137.875 378 C-152.92230582 375.79939653 -168.01228987 373.92398155 -183.09912109 372.01757812 C-184.09601456 371.89154709 -185.09290802 371.76551605 -186.12001038 371.63566589 C-187.99853995 371.3984561 -189.87714656 371.16185528 -191.75584412 370.92597961 C-196.51085128 370.32657209 -201.25778246 369.69356089 -206 369 C-206 368.67 -206 368.34 -206 368 C-205.43585483 367.99761165 -204.87170965 367.99522329 -204.29046917 367.99276257 C-190.56978286 367.93365181 -176.84927495 367.85793751 -163.12877941 367.76428509 C-156.49366144 367.71949948 -149.85860604 367.68026143 -143.22338867 367.65356445 C-136.82368073 367.62761323 -130.42421253 367.58726898 -124.02465248 367.53681374 C-121.57937914 367.52008955 -119.13406429 367.50861 -116.68874168 367.50238609 C-113.27164771 367.4928054 -109.85517487 367.46481811 -106.43823242 367.43237305 C-105.42043701 367.43380814 -104.4026416 367.43524323 -103.35400391 367.4367218 C-101.9594825 367.41791458 -101.9594825 367.41791458 -100.53678894 367.39872742 C-99.72837649 367.39411845 -98.91996405 367.38950949 -98.08705425 367.38476086 C-95.48501875 366.90506015 -94.59592455 366.07512897 -93 364 C-92.49753325 361.68749164 -92.49753325 361.68749164 -92.48828125 359.11328125 C-92.43510742 357.7065918 -92.43510742 357.7065918 -92.38085938 356.27148438 C-92.35830078 355.29501953 -92.33574219 354.31855469 -92.3125 353.3125 C-92.27833984 352.32443359 -92.24417969 351.33636719 -92.20898438 350.31835938 C-92.12649462 347.87901947 -92.05734932 345.44003937 -92 343 C-91.22485046 342.99857498 -90.44970093 342.99714996 -89.65106201 342.99568176 C-82.29639416 342.97774962 -74.94241705 342.93583759 -67.58805466 342.86790943 C-63.80829907 342.83381896 -60.02893994 342.80855778 -56.24902344 342.80444336 C-52.59168368 342.80012132 -48.9352355 342.77134204 -45.27817535 342.72656822 C-43.89260326 342.71371636 -42.50692378 342.70924117 -41.12129974 342.71384621 C-29.70055558 342.7429243 -19.005897 340.80991272 -10.45703125 332.65625 C-2.17621395 323.24320298 -0.55173165 313.21517619 -0.60127258 300.99705505 C-0.59462576 299.70712979 -0.58797893 298.41720452 -0.58113068 297.08819062 C-0.56318283 293.52837232 -0.56365284 289.96876346 -0.56726015 286.40891063 C-0.56788588 282.56237316 -0.55124637 278.71590482 -0.53674316 274.86940002 C-0.5139857 268.21189799 -0.50207698 261.55444818 -0.49761391 254.89690971 C-0.49114532 245.27133536 -0.46819547 235.64585529 -0.44127061 226.02031899 C-0.39802842 210.40214977 -0.368047 194.78398452 -0.34643555 179.16577148 C-0.32541816 163.99745734 -0.29813643 148.82917571 -0.26245117 133.66088867 C-0.26025235 132.72533657 -0.25805352 131.78978447 -0.25578807 130.82588231 C-0.24471822 126.1323194 -0.23352545 121.43875679 -0.22227156 116.74519432 C-0.12912282 77.83015789 -0.05750799 38.91510446 0 0 Z " fill="#5FB5FD" transform="translate(399,92)"/>
<path d="M0 0 C2.95183505 1.58839024 5.60664162 3.52839169 8.3125 5.5 C29.81730645 20.46667471 56.17179672 29.76818568 82.58349609 29.40917969 C86.19704821 29.45447365 87.93884225 29.95677203 90.91796875 32.0625 C93.44034783 35.62127874 93.77937825 38.34115751 93.8125 42.5625 C93.83546143 43.32771973 93.85842285 44.09293945 93.88208008 44.88134766 C93.95038625 47.58774897 93.97559096 50.29285652 94 53 C94.01901367 54.07459473 94.03802734 55.14918945 94.05761719 56.25634766 C94.31726354 71.29668178 94.10324908 86.09375146 92 101 C91.79866455 102.44632813 91.79866455 102.44632813 91.59326172 103.921875 C85.44167626 146.86716266 66.81447246 184.42227208 31.89624023 211.09204102 C23.71354894 217.14800495 14.94497361 222.16666859 6 227 C4.42798828 227.89332031 4.42798828 227.89332031 2.82421875 228.8046875 C-0.49546959 230.20970082 -2.42488608 230.47304306 -6 230 C-8.51950052 228.92592722 -10.76038775 227.84091192 -13.125 226.5 C-13.78097168 226.1376123 -14.43694336 225.77522461 -15.11279297 225.40185547 C-21.30397822 221.92992411 -27.22040579 218.12170264 -33 214 C-34.00160156 213.29746094 -35.00320312 212.59492188 -36.03515625 211.87109375 C-50.51254699 201.26869235 -63.5435967 188.30202827 -73 173 C-73.39123047 172.36739258 -73.78246094 171.73478516 -74.18554688 171.08300781 C-85.75005306 152.06811069 -93.79895097 130.04929599 -97 108 C-97.1544458 106.97181152 -97.1544458 106.97181152 -97.31201172 105.92285156 C-99.3094409 91.72942905 -99.18357723 77.42641776 -99.1875 63.125 C-99.18849701 62.14439606 -99.18949402 61.16379211 -99.19052124 60.1534729 C-99.19019469 57.31317783 -99.18109569 54.47307492 -99.16796875 51.6328125 C-99.16676025 50.7814119 -99.16555176 49.93001129 -99.16430664 49.05281067 C-99.06045102 35.6656712 -99.06045102 35.6656712 -96.42578125 31.52734375 C-93.06697627 29.41254061 -90.0298807 29.53768331 -86.1875 29.5625 C-59.93928863 28.87696294 -31.31312621 19.68563766 -10.69067383 3.14941406 C-6.97503361 0.27096587 -4.66861936 -0.93489249 0 0 Z M-10.625 18 C-31.917838 31.1082816 -54.23955185 38.25370598 -78.99609375 41.078125 C-79.77110229 41.16787598 -80.54611084 41.25762695 -81.34460449 41.35009766 C-83.22956925 41.56818074 -85.11476112 41.78429945 -87 42 C-87.07747717 48.45133563 -87.12918165 54.90254715 -87.16479492 61.35424805 C-87.17967585 63.53886394 -87.19998702 65.7234511 -87.22631836 67.90795898 C-87.44720299 86.73512507 -86.01901398 104.83763155 -81.3125 123.125 C-80.93339478 124.61447144 -80.93339478 124.61447144 -80.54663086 126.1340332 C-77.96030431 135.84422404 -74.3460068 144.95303366 -70 154 C-69.70480469 154.61939453 -69.40960938 155.23878906 -69.10546875 155.87695312 C-57.66082702 179.47172819 -38.5600612 197.1773322 -16.5 210.6875 C-15.66339844 211.20513916 -14.82679688 211.72277832 -13.96484375 212.25610352 C-9.36648876 214.98291695 -5.48935145 217.1693857 0 217 C2.96139421 215.88510027 5.52688619 214.32447353 8.1875 212.625 C8.9307251 212.16746338 9.6739502 211.70992676 10.43969727 211.23852539 C20.7740836 204.78106664 30.13702213 197.36489316 39 189 C39.74894531 188.31550781 40.49789062 187.63101563 41.26953125 186.92578125 C58.60185974 170.50408298 68.40529239 148.55773588 75 126 C75.32613281 124.90300781 75.65226563 123.80601562 75.98828125 122.67578125 C80.83580873 104.85179558 82.18229088 86.34246908 82.13037109 67.95288086 C82.12496704 65.67359902 82.13037319 63.39451061 82.13671875 61.11523438 C82.13605855 59.64322874 82.13477858 58.17122322 82.1328125 56.69921875 C82.13112061 54.73214966 82.13112061 54.73214966 82.12939453 52.7253418 C82.0017405 49.05010993 81.59010104 45.62293914 81 42 C80.38817871 41.94054199 79.77635742 41.88108398 79.14599609 41.81982422 C51.95687343 39.07104492 22.8368822 32.63654594 0.8046875 15.26953125 C-3.48959573 12.24866101 -6.8690993 15.60697546 -10.625 18 Z " fill="#030405" transform="translate(238,41)"/>
<path d="M0 0 C3.07993867 1.51356986 5.96468792 3.30472239 8.86328125 5.1328125 C20.98332102 12.56256291 33.4421462 17.92522199 47.05078125 22.0078125 C48.41976562 22.43707031 48.41976562 22.43707031 49.81640625 22.875 C60.59427794 25.93188174 71.95039717 26.75154632 83.05078125 28.0078125 C83.83792805 32.88341153 84.18960211 37.54314705 84.21875 42.49609375 C84.22293945 43.19236374 84.22712891 43.88863373 84.23144531 44.60600281 C84.24116365 46.84416455 84.2412445 49.08213327 84.23828125 51.3203125 C84.23787338 52.46705444 84.23787338 52.46705444 84.23745728 53.63696289 C84.21899923 64.89135303 83.80374846 75.87979912 82.05078125 87.0078125 C81.86378688 88.4281107 81.67895149 89.84869455 81.49609375 91.26953125 C77.24625466 122.23215346 64.67811303 150.41669588 43.05078125 173.0078125 C42.04337891 174.10996094 42.04337891 174.10996094 41.015625 175.234375 C32.05111884 184.71831984 21.11294408 191.94706203 10.05078125 198.7578125 C9.01050781 199.4218811 9.01050781 199.4218811 7.94921875 200.09936523 C4.56285475 202.11655624 2.57059659 203.00141656 -1.44140625 203.05078125 C-5.75283268 201.76887606 -9.25411562 199.91186417 -13.07421875 197.5703125 C-13.81631592 197.12292725 -14.55841309 196.67554199 -15.32299805 196.21459961 C-50.26162039 174.76158679 -70.87178296 143.06660847 -80.63671875 103.6328125 C-80.94065552 102.43156738 -80.94065552 102.43156738 -81.25073242 101.20605469 C-85.1920205 84.55957971 -85.20875054 67.9559683 -85.07421875 50.9453125 C-85.06416058 48.71029051 -85.05503979 46.47526409 -85.046875 44.24023438 C-85.02510547 38.82932861 -84.99185643 33.41859203 -84.94921875 28.0078125 C-84.15451172 27.91282471 -83.35980469 27.81783691 -82.54101562 27.7199707 C-60.85278113 25.12733712 -60.85278113 25.12733712 -39.94921875 19.0078125 C-38.73105469 18.56695312 -37.51289063 18.12609375 -36.2578125 17.671875 C-25.33381611 13.61256064 -14.18798635 8.49732276 -4.703125 1.671875 C-1.94921875 0.0078125 -1.94921875 0.0078125 0 0 Z M-8.44921875 20.0703125 C-24.05322281 31.58146303 -41.33383788 36.05927394 -60.37084961 37.93261719 C-61.3119458 38.03219727 -62.25304199 38.13177734 -63.22265625 38.234375 C-64.06231934 38.31252441 -64.90198242 38.39067383 -65.76708984 38.47119141 C-68.3782065 39.11330759 -69.34277474 39.87259771 -70.94921875 42.0078125 C-74.50848532 59.33094806 -72.98737411 80.63362601 -69.94921875 98.0078125 C-69.83094727 98.69520508 -69.71267578 99.38259766 -69.59082031 100.09082031 C-65.94756625 120.14262322 -57.1852982 139.52790244 -43.94921875 155.0078125 C-43.34464844 155.75804687 -42.74007812 156.50828125 -42.1171875 157.28125 C-33.37611479 167.77053726 -21.72348331 175.30839521 -9.94921875 182.0078125 C-8.97855469 182.57628906 -8.00789063 183.14476562 -7.0078125 183.73046875 C-3.30454259 185.27704507 -0.93483719 185.46431505 3.05078125 185.0078125 C6.48953937 183.58920738 6.48953937 183.58920738 9.80078125 181.5078125 C10.70812012 180.9653186 10.70812012 180.9653186 11.63378906 180.41186523 C38.9496865 163.81591122 57.87782653 140.18361959 66.05078125 109.0078125 C67.31284067 103.38717227 68.25725121 97.71190927 69.05078125 92.0078125 C69.14794434 91.36553711 69.24510742 90.72326172 69.34521484 90.06152344 C70.27454218 83.11706326 70.20199419 76.14460977 70.18115234 69.15136719 C70.17579249 67.0122977 70.18112498 64.87343812 70.1875 62.734375 C71.07271598 50.90983097 71.07271598 50.90983097 67.63330078 40.33984375 C64.37145227 37.59429524 61.66843771 37.85046147 57.48828125 37.6953125 C38.9863642 36.69313473 18.30476737 30.51796214 4.01953125 18.265625 C-0.6298761 15.29517031 -4.480056 16.89078953 -8.44921875 20.0703125 Z " fill="#5EB3F9" transform="translate(235.94921875,54.9921875)"/>
<path d="M0 0 C2.35225534 1.29561188 4.39646185 2.57607199 6.5625 4.125 C17.68690682 11.63121009 28.98545243 16.00726795 42 19 C43.22009766 19.28617188 43.22009766 19.28617188 44.46484375 19.578125 C49.10362057 20.35006321 53.81201876 20.402542 58.50390625 20.62109375 C61.61860023 20.95866394 63.44513171 21.25719254 66 23 C69.67081557 30.34163114 68.2431005 41.18220813 68.25 49.1875 C68.25067474 49.89253662 68.25134949 50.59757324 68.25204468 51.32397461 C68.22441713 69.58604057 66.36929481 86.81241042 60 104 C59.61972656 105.0415625 59.23945313 106.083125 58.84765625 107.15625 C48.05101732 134.78401293 27.30349214 154.84825393 1 168 C-12.48250867 169.00591521 -25.91617954 156.72655302 -35.9765625 148.59375 C-59.11790441 128.51619138 -71.00737373 98.42906273 -73.69140625 68.37109375 C-76.37979472 29.49227464 -76.37979472 29.49227464 -71.75317383 23.34277344 C-69.53328856 21.64254102 -68.04718729 21.4847219 -65.2734375 21.2265625 C-64.33250244 21.12706299 -63.39156738 21.02756348 -62.42211914 20.92504883 C-61.41656982 20.82603271 -60.41102051 20.7270166 -59.375 20.625 C-41.20579752 18.51249947 -21.6707707 13.77612142 -7.7734375 1.03125 C-5.01095079 -0.57512994 -3.14730851 -0.40734396 0 0 Z M-7.8125 15.625 C-22.6992801 25.71572016 -39.47859669 30.15404786 -57.0546875 32.421875 C-60.76328683 32.56424868 -60.76328683 32.56424868 -62 34 C-62.91583054 48.64097499 -62.36466999 63.52580982 -60 78 C-59.82855469 79.20785156 -59.65710938 80.41570312 -59.48046875 81.66015625 C-55.20924384 107.42528718 -41.53221765 130.27588372 -20.3828125 145.62109375 C-19.25725846 146.4169698 -18.12962367 147.20991078 -17 148 C-16.42217773 148.41008301 -15.84435547 148.82016602 -15.24902344 149.24267578 C-13.53777263 150.44074159 -11.8070863 151.6011507 -10.0625 152.75 C-9.04285156 153.42546875 -8.02320313 154.1009375 -6.97265625 154.796875 C-4.06761737 156.27780341 -4.06761737 156.27780341 -1.07421875 155.48828125 C2.57555548 153.72136386 5.89939819 151.71435683 9.25 149.4375 C10.23734131 148.77041016 10.23734131 148.77041016 11.24462891 148.08984375 C16.93851316 144.17051399 22.1074792 139.8925208 27 135 C27.76828125 134.23171875 28.5365625 133.4634375 29.328125 132.671875 C51.31702641 109.48629868 56.24534231 78.9537092 56.0625 48.25 C56.05746985 46.76302236 56.05290965 45.27604305 56.04882812 43.7890625 C56.03795432 40.19267294 56.0207752 36.59634763 56 33 C54.76765625 32.81824219 53.5353125 32.63648437 52.265625 32.44921875 C33.14564716 29.57589752 16.17691057 25.37687962 0.0390625 14.28515625 C-3.487902 12.06222268 -4.69323697 13.36801933 -7.8125 15.625 Z " fill="#030403" transform="translate(238,72)"/>
<path d="M0 0 C58.08 0 116.16 0 176 0 C176 8.91 176 17.82 176 27 C117.92 27 59.84 27 0 27 C0 18.09 0 9.18 0 0 Z " fill="#86D3EC" transform="translate(119,421)"/>
<path d="M0 0 C5.66144244 4.67473251 10.84576021 9.72485737 16.0127964 14.93763161 C17.48589115 16.42364423 18.96222267 17.9063746 20.43937683 19.38835144 C23.56659736 22.5269089 26.68982383 25.66942202 29.8125 28.8125 C33.45071759 32.47434238 37.09056663 36.13453268 40.73462486 39.79056358 C42.18913995 41.25156022 43.64061406 42.71553273 45.09199524 44.17964172 C46.40927864 45.50187996 46.40927864 45.50187996 47.75317383 46.85083008 C48.91397209 48.01948357 48.91397209 48.01948357 50.09822083 49.21174622 C51.88235442 51.06072112 51.88235442 51.06072112 54 52 C52.35503261 56.15125625 49.34271245 58.99807357 46.2578125 62.11328125 C45.41064163 62.97399483 45.41064163 62.97399483 44.5463562 63.85209656 C43.35378977 65.05913623 42.15842146 66.26341323 40.96044922 67.46508789 C39.12604751 69.31144566 37.3111236 71.1756365 35.49609375 73.04101562 C34.33448555 74.21208154 33.17176243 75.38204281 32.0078125 76.55078125 C31.46601349 77.11211258 30.92421448 77.67344391 30.36599731 78.25178528 C28.80908203 79.7902832 28.80908203 79.7902832 26 82 C21.837844 81.86041905 19.65909284 79.02042274 16.86425781 76.20483398 C16.11723351 75.4584668 16.11723351 75.4584668 15.3551178 74.69702148 C13.71390739 73.05372425 12.08357337 71.40006365 10.453125 69.74609375 C9.31606506 68.60343749 8.17834012 67.46144262 7.03997803 66.32008362 C4.04786524 63.31652494 1.06487141 60.30406586 -1.9163208 57.28967285 C-4.96089934 54.21438808 -8.0140045 51.14759455 -11.06640625 48.08007812 C-17.05265518 42.06166955 -23.02929845 36.03383283 -29 30 C-25.28984473 25.5733929 -21.47851707 21.35785124 -17.3828125 17.28515625 C-16.88079315 16.78455185 -16.3787738 16.28394745 -15.86154175 15.76817322 C-14.28506329 14.19721402 -12.70511427 12.62980123 -11.125 11.0625 C-10.04403726 9.98656273 -8.96330617 8.91039269 -7.8828125 7.83398438 C-5.25787359 5.21996708 -2.62981372 2.60911404 0 0 Z " fill="#948794" transform="translate(129,248)"/>
<path d="M0 0 C0.91266632 -0.00571014 1.82533264 -0.01142029 2.76565552 -0.01730347 C3.76984024 -0.01842133 4.77402496 -0.01953918 5.80863953 -0.02069092 C7.3917392 -0.02813828 7.3917392 -0.02813828 9.00682068 -0.03573608 C12.51067244 -0.05038359 16.01447893 -0.05716416 19.51835632 -0.06268311 C21.94732668 -0.06843259 24.37629702 -0.07419035 26.80526733 -0.07995605 C31.90388705 -0.09047353 37.00249095 -0.09631126 42.10112 -0.09979248 C48.63835013 -0.10527759 55.17537201 -0.12930304 61.71253681 -0.15776443 C66.73193982 -0.17637721 71.75129255 -0.1815957 76.77072716 -0.18312836 C79.18089626 -0.18615867 81.59106439 -0.19419989 84.00119972 -0.20731354 C87.37207045 -0.2243446 90.74243088 -0.22250068 94.11332703 -0.21600342 C95.11143906 -0.2252182 96.10955109 -0.23443298 97.13790894 -0.243927 C105.74233167 -0.19190442 105.74233167 -0.19190442 109.65507507 3.14044189 C112.65507507 7.14044189 112.65507507 7.14044189 112.65507507 22.14044189 C71.73507507 22.14044189 30.81507507 22.14044189 -11.34492493 22.14044189 C-11.34492493 7.14044189 -11.34492493 7.14044189 -8.96992493 3.26544189 C-5.64513638 0.57394641 -4.16830165 0.01558746 0 0 Z " fill="#85D1EA" transform="translate(156.3449249267578,386.85955810546875)"/>
<path d="M0 0 C1.1244006 0.96331863 2.24873732 1.92671182 3.37304688 2.89013672 C3.9991687 3.42661835 4.62529053 3.96309998 5.27038574 4.51583862 C8.06477674 6.91367223 10.57736729 9.21397238 13 12 C12.72592072 15.2825674 11.42248064 16.95246167 9.14202881 19.23219299 C8.5336467 19.84758942 7.92526459 20.46298584 7.29844666 21.09703064 C6.62729324 21.76054031 5.95613983 22.42404999 5.26464844 23.10766602 C4.56052322 23.81544189 3.85639801 24.52321777 3.13093567 25.25244141 C0.79776174 27.59373111 -1.54611317 29.92397425 -3.890625 32.25390625 C-5.51440672 33.87716941 -7.13767054 35.50095079 -8.76043701 37.12522888 C-12.16550702 40.53020911 -15.57569255 43.92995557 -18.98974609 47.32592773 C-23.36413931 51.67766097 -27.72740423 56.04034926 -32.08710098 60.40680027 C-35.43930381 63.76234655 -38.79647924 67.1128808 -42.15526581 70.46183586 C-43.76573524 72.06845748 -45.37486003 73.67642813 -46.98261261 75.28576851 C-49.23253899 77.53606613 -51.48886004 79.77974802 -53.74707031 82.02172852 C-54.4101268 82.68726242 -55.07318329 83.35279633 -55.7563324 84.03849792 C-63.3658035 91.56096725 -63.3658035 91.56096725 -69 92.5 C-73.02581176 91.82903137 -74.43224045 90.08131146 -77 87 C-78.50889469 83.98221063 -78.50026276 82.37677363 -78 79 C-76.67699337 77.18147278 -76.67699337 77.18147278 -74.92576599 75.25317383 C-74.28756361 74.54955719 -73.64936123 73.84594055 -72.99181938 73.1210022 C-69.94754586 69.87928717 -66.84103982 66.70976534 -63.68774414 63.57421875 C-62.99421844 62.88054703 -62.30069275 62.18687531 -61.58615112 61.47218323 C-59.32151826 59.20824012 -57.05337751 56.94784741 -54.78515625 54.6875 C-53.20310434 53.1073156 -51.62127488 51.52690847 -50.03965759 49.94628906 C-45.89746722 45.80789763 -41.75228143 41.67251946 -37.60644531 37.53778076 C-33.36796357 33.30956981 -29.13234829 29.07848948 -24.89648438 24.84765625 C-16.60044488 16.56230775 -8.30123518 8.28014262 0 0 Z " fill="#928692" transform="translate(111,306)"/>
<path d="M0 0 C1.8125 1.125 1.8125 1.125 3 3 C3.37035368 6.46486446 3.44050683 8.33812699 1.4838562 11.27804565 C0.77359283 11.99308258 0.06332947 12.70811951 -0.66845703 13.44482422 C-1.46994171 14.26522186 -2.27142639 15.08561951 -3.09719849 15.93087769 C-3.97520111 16.79673492 -4.85320374 17.66259216 -5.7578125 18.5546875 C-6.6536203 19.45623566 -7.5494281 20.35778381 -8.47238159 21.28665161 C-10.37048013 23.18883337 -12.27348648 25.08379097 -14.1875 26.96972656 C-16.63601006 29.38405007 -19.0565883 31.82431858 -21.47000313 34.27366447 C-23.78054361 36.61113875 -26.11386974 38.92558955 -28.4453125 41.2421875 C-29.74409836 42.55919144 -29.74409836 42.55919144 -31.06912231 43.90280151 C-31.88951996 44.70428619 -32.7099176 45.50577087 -33.55517578 46.33154297 C-34.27021271 47.04180634 -34.98524963 47.7520697 -35.72195435 48.4838562 C-38.69115418 50.45999479 -40.49861323 50.44276214 -44 50 C-46.29060339 48.29473128 -48.08973002 46.73019903 -50.0546875 44.70703125 C-50.60109894 44.16398849 -51.14751038 43.62094574 -51.71047974 43.06144714 C-52.85889643 41.91273215 -53.9998838 40.75654753 -55.13378906 39.59350586 C-56.87118528 37.8164019 -58.63606083 36.07054579 -60.40625 34.32617188 C-61.51999112 33.20487233 -62.63203089 32.0818798 -63.7421875 30.95703125 C-64.27020966 30.43599319 -64.79823181 29.91495514 -65.34225464 29.37812805 C-67.60929475 27.02162012 -68.92458945 25.52670867 -69.39501953 22.2409668 C-69 20 -69 20 -67.9375 18.1875 C-64.68258845 16.19255421 -62.77915689 16.41887965 -59 17 C-55.64568187 19.47779767 -52.89251373 22.44930825 -50.0625 25.5 C-49.28326172 26.31082031 -48.50402344 27.12164062 -47.70117188 27.95703125 C-45.78403718 29.95649688 -43.88512377 31.97040405 -42 34 C-39.05594663 32.67376757 -36.99518106 31.23786345 -34.73193359 28.94311523 C-33.81110489 28.0172184 -33.81110489 28.0172184 -32.87167358 27.07261658 C-32.22050568 26.40798904 -31.56933777 25.74336151 -30.8984375 25.05859375 C-29.88192612 24.03428001 -29.88192612 24.03428001 -28.84487915 22.98927307 C-26.68344708 20.81004522 -24.52882592 18.62424361 -22.375 16.4375 C-20.21317054 14.2480717 -18.04990831 12.06010899 -15.88369751 9.87501526 C-14.5365137 8.51555439 -13.19201179 7.1534297 -11.85043335 5.78843689 C-10.93906113 4.8672683 -10.93906113 4.8672683 -10.00927734 3.92749023 C-9.47507172 3.38503159 -8.94086609 2.84257294 -8.39047241 2.28367615 C-5.71055255 -0.19041049 -3.55566422 -0.34689407 0 0 Z " fill="#050402" transform="translate(268,131)"/>
<path d="M0 0 C3.21142855 2.37366458 4.71584605 3.93442268 5.75 7.8125 C4.95146261 11.20628391 4.2071368 12.18023053 1.93164062 14.70141602 C1.29621338 15.40614044 0.66078613 16.11086487 0.00610352 16.83694458 C-5.29536676 22.553187 -10.75996967 28.10580727 -16.24267578 33.64770508 C-17.75383685 35.1806036 -19.25869244 36.7197426 -20.75732422 38.26489258 C-22.9384412 40.5128464 -25.13855382 42.74053691 -27.34375 44.96484375 C-28.33936951 46.00220924 -28.33936951 46.00220924 -29.35510254 47.06053162 C-32.53211431 50.22371785 -34.38290149 51.83258464 -38.79492188 53.02954102 C-42 53 -42 53 -44.9375 51.5625 C-47.21707118 48.73030551 -47.7216621 46.91792422 -47.60968018 43.29467773 C-46.26192901 38.22209261 -41.89213001 34.80654102 -38.2421875 31.25 C-37.3463797 30.35128174 -36.4505719 29.45256348 -35.52761841 28.52661133 C-33.63145282 26.63376255 -31.72951207 24.75072538 -29.8125 22.87939453 C-27.36048636 20.48423623 -24.94095323 18.05911434 -22.52999687 15.62271118 C-20.22013349 13.29557266 -17.88670807 10.99240254 -15.5546875 8.6875 C-14.68883026 7.81577148 -13.82297302 6.94404297 -12.93087769 6.04589844 C-11.70028122 4.85335449 -11.70028122 4.85335449 -10.44482422 3.63671875 C-9.72978729 2.93248779 -9.01475037 2.22825684 -8.27804565 1.50268555 C-5.31164403 -0.45406577 -3.48919346 -0.43298891 0 0 Z " fill="#938693" transform="translate(122,222)"/>
<path d="M0 0 C3.04907227 0.64111328 3.04907227 0.64111328 5.48657227 2.14111328 C7.23523926 4.93898047 7.70319504 7.07763208 7.62322998 10.37332153 C6.3767061 15.29680596 2.14785035 18.51912656 -1.41186523 21.91845703 C-2.70321884 23.19638878 -2.70321884 23.19638878 -4.0206604 24.50013733 C-6.7708735 27.21225983 -9.547895 29.89502405 -12.32592773 32.57861328 C-14.18967453 34.41080132 -16.05167568 36.24476687 -17.91186523 38.08056641 C-21.31227742 41.42249404 -24.71644919 44.76014677 -28.14379883 48.07446289 C-28.83218842 48.74094345 -29.520578 49.40742401 -30.22982788 50.09410095 C-32.50321859 52.13754047 -33.70197196 52.60791918 -36.76342773 53.01611328 C-39.95092773 52.64111328 -39.95092773 52.64111328 -42.82592773 50.51611328 C-45.35711873 47.09156076 -45.43608747 45.80362592 -44.95092773 41.64111328 C-43.44151306 39.36306763 -43.44151306 39.36306763 -41.29833984 37.19628906 C-40.50008286 36.37589142 -39.70182587 35.55549377 -38.87937927 34.7102356 C-38.0045137 33.84437836 -37.12964813 32.97852112 -36.22827148 32.08642578 C-35.33483536 31.18487762 -34.44139923 30.28332947 -33.52088928 29.35446167 C-31.62707749 27.45218399 -29.72824861 25.55728477 -27.81835938 23.67138672 C-25.37709231 21.25869092 -22.96634359 18.81790654 -20.56305599 16.36744881 C-18.25978904 14.02790012 -15.93031606 11.71478822 -13.60327148 9.39892578 C-12.74257553 8.52092316 -11.88187958 7.64292053 -10.99510193 6.73831177 C-4.21588112 0.11476531 -4.21588112 0.11476531 0 0 Z " fill="#948794" transform="translate(200.950927734375,303.35888671875)"/>
<path d="M0 0 C1.07607513 -0.00788544 1.07607513 -0.00788544 2.17388916 -0.01593018 C4.54583492 -0.02913686 6.91710988 -0.02039017 9.2890625 -0.01025391 C10.93668751 -0.01227446 12.58431165 -0.01518574 14.23193359 -0.01895142 C17.68530796 -0.02337566 21.13844956 -0.01694062 24.59179688 -0.00292969 C29.0206861 0.01416241 33.44902996 0.00432175 37.87789917 -0.01364708 C41.28023394 -0.0244823 44.68243919 -0.02103981 48.08477783 -0.0132637 C49.71787582 -0.01126096 51.35098552 -0.01372357 52.98406982 -0.02070236 C55.26573888 -0.02831274 57.54652202 -0.0167195 59.828125 0 C61.7764624 0.00358017 61.7764624 0.00358017 63.76416016 0.00723267 C66.9140625 0.38818359 66.9140625 0.38818359 68.86474609 1.68978882 C69.9140625 3.38818359 69.9140625 3.38818359 69.7890625 6.95068359 C68.9140625 10.38818359 68.9140625 10.38818359 65.9140625 12.38818359 C62.84681702 12.65560913 62.84681702 12.65560913 59.02758789 12.67871094 C58.3313179 12.68542816 57.63504791 12.69214539 56.91767883 12.69906616 C54.61561959 12.71806684 52.31385152 12.72197122 50.01171875 12.72412109 C48.41132995 12.73054717 46.81094234 12.73727539 45.21055603 12.74429321 C41.85559363 12.75627083 38.50073423 12.7599735 35.14575195 12.75878906 C30.84691386 12.75858575 26.54873592 12.78589828 22.25005436 12.82033348 C18.94462551 12.84257088 15.6393564 12.8466276 12.3338604 12.84556961 C10.74901489 12.84792995 9.16416527 12.85677783 7.57939339 12.87223434 C5.36243562 12.89183338 3.14691254 12.88608207 0.92993164 12.87402344 C-0.96178017 12.87829849 -0.96178017 12.87829849 -2.89170837 12.88265991 C-6.65229037 12.30051046 -7.83665713 11.40325226 -10.0859375 8.38818359 C-10.56583638 5.57734731 -10.59340051 4.15002071 -9.00146484 1.76010132 C-6.07240908 -0.33771447 -3.56836472 0.00655705 0 0 Z " fill="#080808" transform="translate(268.0859375,356.61181640625)"/>
<path d="M0 0 C2.74855025 1.88563331 4.94113319 4.12214985 7.265625 6.5078125 C8.15765625 7.41789062 9.0496875 8.32796875 9.96875 9.265625 C10.64421875 9.96429688 11.3196875 10.66296875 12.015625 11.3828125 C8.14644819 16.11180638 4.01260464 20.49550572 -0.296875 24.8203125 C-0.83666992 25.36461914 -1.37646484 25.90892578 -1.93261719 26.46972656 C-5.86064807 30.3828125 -5.86064807 30.3828125 -6.984375 30.3828125 C-6.984375 20.4828125 -6.984375 10.5828125 -6.984375 0.3828125 C-1.984375 -0.6171875 -1.984375 -0.6171875 0 0 Z " fill="#EEEEEF" transform="translate(90.984375,285.6171875)"/>
</svg>
