<svg xmlns="http://www.w3.org/2000/svg" viewBox="0 0 100 100" fill="none">
  <defs>
    <linearGradient id="dbGrad" x1="0%" y1="0%" x2="100%" y2="100%">
      <stop offset="0%" style="stop-color:#66FF99;stop-opacity:1" />
      <stop offset="50%" style="stop-color:#33DD66;stop-opacity:1" />
      <stop offset="100%" style="stop-color:#00AA33;stop-opacity:1" />
    </linearGradient>
    <linearGradient id="dbShadow" x1="0%" y1="0%" x2="100%" y2="100%">
      <stop offset="0%" style="stop-color:#004422;stop-opacity:0.8" />
      <stop offset="100%" style="stop-color:#002211;stop-opacity:0.9" />
    </linearGradient>
    <radialGradient id="dbTop" cx="50%" cy="20%" r="50%">
      <stop offset="0%" style="stop-color:#99FFBB;stop-opacity:1" />
      <stop offset="100%" style="stop-color:#66FF99;stop-opacity:1" />
    </radialGradient>
  </defs>
  <!-- 3D Shadows -->
  <ellipse cx="52" cy="22" rx="22" ry="8" fill="url(#dbShadow)"/>
  <rect x="30" y="22" width="44" height="24" fill="url(#dbShadow)"/>
  <ellipse cx="52" cy="46" rx="22" ry="8" fill="url(#dbShadow)"/>
  <rect x="30" y="46" width="44" height="24" fill="url(#dbShadow)"/>
  <ellipse cx="52" cy="78" rx="22" ry="8" fill="url(#dbShadow)"/>
  
  <!-- Database Cylinders -->
  <!-- Top Database -->
  <ellipse cx="50" cy="20" rx="22" ry="8" fill="url(#dbTop)" stroke="#66FF99" stroke-width="1"/>
  <rect x="28" y="20" width="44" height="24" fill="url(#dbGrad)"/>
  <ellipse cx="50" cy="44" rx="22" ry="8" fill="url(#dbGrad)" stroke="#66FF99" stroke-width="1"/>
  
  <!-- Middle Database -->
  <rect x="28" y="44" width="44" height="24" fill="url(#dbGrad)"/>
  <ellipse cx="50" cy="68" rx="22" ry="8" fill="url(#dbGrad)" stroke="#66FF99" stroke-width="1"/>
  
  <!-- Bottom Database -->
  <rect x="28" y="68" width="44" height="8" fill="url(#dbGrad)"/>
  <ellipse cx="50" cy="76" rx="22" ry="8" fill="url(#dbGrad)" stroke="#66FF99" stroke-width="1"/>
  
  <!-- Data Lines -->
  <rect x="35" y="25" width="30" height="2" fill="#FFFFFF" opacity="0.6" rx="1"/>
  <rect x="35" y="30" width="25" height="2" fill="#FFFFFF" opacity="0.4" rx="1"/>
  <rect x="35" y="35" width="28" height="2" fill="#FFFFFF" opacity="0.5" rx="1"/>
  
  <rect x="35" y="49" width="30" height="2" fill="#FFFFFF" opacity="0.6" rx="1"/>
  <rect x="35" y="54" width="25" height="2" fill="#FFFFFF" opacity="0.4" rx="1"/>
  <rect x="35" y="59" width="28" height="2" fill="#FFFFFF" opacity="0.5" rx="1"/>
  
  <!-- Highlights -->
  <ellipse cx="50" cy="20" rx="18" ry="5" fill="#FFFFFF" opacity="0.3"/>
  <ellipse cx="50" cy="44" rx="18" ry="5" fill="#FFFFFF" opacity="0.2"/>
  <ellipse cx="50" cy="68" rx="18" ry="5" fill="#FFFFFF" opacity="0.2"/>
</svg>