<?xml version="1.0" encoding="UTF-8"?>
<svg version="1.1" xmlns="http://www.w3.org/2000/svg" width="512" height="512">
<path d="M0 0 C1.94339767 -0.01045349 1.94339767 -0.01045349 3.92605591 -0.02111816 C8.0913331 -0.04042666 12.25655794 -0.04529421 16.421875 -0.046875 C17.1297541 -0.04746414 17.83763321 -0.04805328 18.5669632 -0.04866028 C39.58309015 -0.0610224 60.3222716 0.23830245 81.171875 3.203125 C82.24147461 3.34234375 83.31107422 3.4815625 84.41308594 3.625 C117.22833679 7.9247235 159.94459996 15.06731992 183.171875 41.203125 C187.63734494 47.57665927 189.29840724 52.80927988 189.29212952 60.56854248 C189.29419151 62.53308128 189.29419151 62.53308128 189.29629517 64.53730774 C189.29275622 65.98678612 189.28912141 67.43626426 189.28540039 68.88574219 C189.28511829 70.41340635 189.2852767 71.94107065 189.2858429 73.46873474 C189.28612998 77.61507172 189.28024755 81.76137981 189.27326894 85.90771008 C189.26702067 90.24122662 189.26643043 94.57474381 189.26524353 98.90826416 C189.26213457 107.11401696 189.25392703 115.31975646 189.24389404 123.5255034 C189.23271942 132.86761731 189.22721905 142.20973186 189.22219861 151.5518508 C189.21174407 170.76894975 189.19415302 189.9860363 189.171875 209.203125 C189.94400833 209.17647766 190.71614166 209.14983032 191.51167297 209.12237549 C198.87821449 208.87941438 206.24274946 208.69800739 213.61228657 208.58137894 C217.39913989 208.51939255 221.18261874 208.43572557 224.9675293 208.29785156 C242.83705448 207.66383549 257.04599337 207.74518483 271.43351555 219.81740952 C275.37389633 222.95844382 280.06435842 224.96313415 284.609375 227.078125 C285.56618164 227.52736328 286.52298828 227.97660156 287.50878906 228.43945312 C300.85346774 234.53206823 314.43291674 238.41529481 328.99511719 240.1796875 C333.341775 240.73417596 336.69007844 241.32006729 340.171875 244.203125 C342.78276748 248.89469532 342.45381539 253.67635885 342.43066406 258.89257812 C342.43592102 260.35000175 342.43592102 260.35000175 342.44128418 261.83686829 C342.45009076 265.05277647 342.44424869 268.26846451 342.4375 271.484375 C342.4388487 273.73620648 342.44079094 275.98803768 342.44329834 278.23986816 C342.4462496 282.97097533 342.44195827 287.70200707 342.43261719 292.43310547 C342.42132732 298.43840946 342.42771496 304.44353258 342.43976212 310.44882965 C342.44707066 315.10944928 342.44465029 319.77002777 342.43950653 324.4306488 C342.43818924 326.64057945 342.43974885 328.85051406 342.44446564 331.06044006 C342.51714457 374.75375845 332.94818869 409.81548599 302.171875 442.203125 C300.95660245 443.61384344 299.74766895 445.03006219 298.546875 446.453125 C295.05823304 450.44129537 291.2688241 453.84986844 287.171875 457.203125 C286.67800293 457.60934082 286.18413086 458.01555664 285.67529297 458.43408203 C268.64549873 472.36662384 249.68116618 484.33050395 228.921875 491.890625 C228.26791748 492.13449951 227.61395996 492.37837402 226.94018555 492.62963867 C219.03984307 495.31023831 212.03290825 494.71780296 204.359375 491.828125 C203.64434814 491.56628418 202.92932129 491.30444336 202.19262695 491.03466797 C188.37385268 485.78409832 175.11078774 478.92639935 163.171875 470.203125 C162.16898437 469.48382813 161.16609375 468.76453125 160.1328125 468.0234375 C154.28675267 463.74619372 148.79355034 459.22995916 143.47265625 454.31640625 C141.39402266 452.40716895 139.26766754 450.58335856 137.109375 448.765625 C129.82762277 442.41064124 123.88477418 434.95393786 118.171875 427.203125 C117.24366943 427.36917236 116.31546387 427.53521973 115.35913086 427.70629883 C38.48746282 441.36861125 -65.96898842 450.40600841 -134.828125 406.203125 C-143.22173778 399.93461266 -151.36999271 391.97476791 -153.3627367 381.35371876 C-154.13196887 375.71743635 -153.96910268 370.03308126 -153.96183777 364.35612488 C-153.9652361 362.40988243 -153.9652361 362.40988243 -153.96870309 360.42432195 C-153.97480571 356.83373665 -153.97468931 353.24317469 -153.97350872 349.65258539 C-153.97330432 345.77585835 -153.97882716 341.89913873 -153.98356628 338.02241516 C-153.99186487 330.43133574 -153.99462076 322.84026409 -153.99517866 315.24918052 C-153.99565418 309.07761634 -153.99771073 302.90605472 -154.00087929 296.73449135 C-154.00968357 279.22916969 -154.014299 261.72385415 -154.01354881 244.21853026 C-154.01350886 243.27525072 -154.0134689 242.33197119 -154.01342773 241.36010742 C-154.01338685 240.41567354 -154.01334597 239.47123966 -154.01330385 238.49818657 C-154.01289741 223.19264202 -154.02246712 207.88712208 -154.0365661 192.58158465 C-154.05093537 176.85832046 -154.05783599 161.13506827 -154.05697232 145.41179734 C-154.05664055 136.58744506 -154.05937896 127.76311857 -154.07015038 118.9387722 C-154.07926259 111.42568761 -154.08142468 103.91264051 -154.07464095 96.39955278 C-154.07137945 92.56845993 -154.07130571 88.73743898 -154.0799942 84.906353 C-154.08932797 80.74787312 -154.08307357 76.58955923 -154.07536316 72.43107605 C-154.08050672 71.22765774 -154.08565029 70.02423944 -154.09094971 68.78435391 C-154.03634779 55.4471508 -151.82276694 46.59897509 -142.765625 36.640625 C-113.56870087 9.0939618 -63.80676458 4.94276474 -25.828125 1.203125 C-24.95276093 1.11577087 -24.07739685 1.02841675 -23.17550659 0.93841553 C-15.44213296 0.22495424 -7.76355294 0.02806515 0 0 Z " fill="#010202" transform="translate(161.828125,8.796875)"/>
<path d="M0 0 C3.77003326 0.05131855 7.53208293 0.00719487 11.30157852 -0.06152058 C27.80527904 -0.31905369 41.09349051 0.33518058 54.48028564 11.06918335 C58.1629285 13.9025478 62.458537 15.73053921 66.65625 17.67114258 C67.96613892 18.2823999 67.96613892 18.2823999 69.30249023 18.90600586 C81.12541534 24.30470945 92.95464971 28.07253263 105.71484375 30.52270508 C106.62842651 30.70164307 107.54200928 30.88058105 108.48327637 31.06494141 C110.70690071 31.49991928 112.93118897 31.93108615 115.15625 32.35864258 C115.27285477 45.94693188 115.36132262 59.53509929 115.41531086 73.12378979 C115.44124171 79.43573554 115.47633344 85.74733531 115.53344727 92.05908203 C115.58836157 98.16700379 115.61779415 104.27459589 115.63063622 110.38274574 C115.63977062 112.69599906 115.65760264 115.00923736 115.68490028 117.32234764 C115.9244351 138.48996772 112.84300355 157.40410397 103.15625 176.35864258 C102.70209717 177.25655518 102.70209717 177.25655518 102.23876953 178.17260742 C92.53279389 197.02449976 77.82523976 213.41595455 61.15625 226.35864258 C60.40472656 226.99930664 59.65320313 227.6399707 58.87890625 228.30004883 C47.11590081 238.25336112 33.13307086 245.98006985 19.15625 252.35864258 C18.021875 252.88844727 16.8875 253.41825195 15.71875 253.96411133 C14.605 254.44493164 13.49125 254.92575195 12.34375 255.42114258 C11.36792969 255.84524414 10.39210938 256.2693457 9.38671875 256.70629883 C1.76494409 258.24539964 -5.58446614 254.4839464 -12.40625 251.35864258 C-13.2725 250.96418945 -14.13875 250.56973633 -15.03125 250.16333008 C-31.06749765 242.67503823 -45.55585129 232.4648122 -58.54296875 220.47192383 C-60.62160234 218.56268653 -62.74795746 216.73887614 -64.90625 214.92114258 C-85.59378567 196.71115609 -104.11289654 166.86176976 -106.02344131 138.71099472 C-106.08742504 135.87784776 -106.09152383 133.05131938 -106.07080078 130.2175293 C-106.07109283 129.15292984 -106.07138489 128.08833038 -106.07168579 126.99147034 C-106.07030338 123.50700448 -106.05479373 120.02275813 -106.0390625 116.53833008 C-106.0353285 114.1088167 -106.03248335 111.67930181 -106.03048706 109.24978638 C-106.02288113 102.88106061 -106.00325887 96.51242726 -105.9810791 90.14373779 C-105.96055502 83.63465627 -105.95147134 77.12555969 -105.94140625 70.61645508 C-105.92001001 57.86381167 -105.88629994 45.11123206 -105.84375 32.35864258 C-104.97887042 32.18921992 -104.97887042 32.18921992 -104.09651852 32.01637459 C-101.46158669 31.49884352 -98.8273517 30.9778455 -96.19311523 30.45678711 C-94.83251102 30.19035149 -94.83251102 30.19035149 -93.44441986 29.91853333 C-87.44799974 28.72913393 -81.64568035 27.36657446 -75.90625 25.23364258 C-74.69630371 24.79532104 -74.69630371 24.79532104 -73.46191406 24.34814453 C-67.21749446 22.01760787 -61.13200463 19.36477122 -55.09375 16.54614258 C-54.30363525 16.18053223 -53.51352051 15.81492188 -52.69946289 15.43823242 C-48.71375203 13.51119124 -45.24932381 11.69433159 -41.81591797 8.85253906 C-29.45753397 -1.08247075 -15.08323293 -0.20936895 0 0 Z " fill="#4EBDE5" transform="translate(373.84375,231.641357421875)"/>
<path d="M0 0 C0.95887115 0.55098862 1.91774231 1.10197723 2.90567017 1.66966248 C4.17747994 2.39888766 5.44932206 3.12805644 6.72119141 3.85717773 C7.351548 4.21959312 7.9819046 4.58200851 8.63136292 4.95540619 C51.84250708 29.7070358 106.10431813 33.22713176 154.8125 33.25 C156.10312347 33.25067474 157.39374695 33.25134949 158.72348022 33.25204468 C194.17908424 33.22264055 229.75276757 30.94851684 264 21 C264.73299316 20.78762695 265.46598633 20.57525391 266.22119141 20.35644531 C281.09713038 15.99365701 296.04361341 11.25781489 308.8984375 2.3828125 C311 1 311 1 314 0 C314.11605943 10.68357305 314.20479935 21.36699512 314.25906086 32.05107117 C314.28510922 37.01262749 314.32042003 41.97375121 314.37719727 46.93505859 C314.43168721 51.72670723 314.46145633 56.51794083 314.47438622 61.30987549 C314.48359568 63.13428273 314.50157984 64.9586683 314.52865028 66.78289795 C314.56516753 69.3466426 314.56993607 71.90869169 314.56762695 74.47265625 C314.58560333 75.22000534 314.60357971 75.96735443 314.62210083 76.73735046 C314.55653819 83.50384749 311.55921538 87.96166211 307.2890625 93.03125 C288.59206551 109.53376377 260.88357302 115.6763637 237 120 C236.1745166 120.15162598 235.3490332 120.30325195 234.49853516 120.45947266 C225.54139047 122.07208448 216.55646751 123.23515039 207.5 124.125 C206.73091309 124.20065186 205.96182617 124.27630371 205.16943359 124.35424805 C189.16656167 125.80206461 173.12363646 126.23469707 157.0625 126.25 C156.12054779 126.25167175 155.17859558 126.25334351 154.20809937 126.25506592 C135.35572174 126.25704665 116.73476453 125.03496807 98 123 C97.28182098 122.92444885 96.56364197 122.84889771 95.82369995 122.77105713 C87.0788977 121.84636241 78.49339246 120.71624093 69.9375 118.625 C68.54265381 118.29302612 68.54265381 118.29302612 67.11962891 117.9543457 C65.26386505 117.51110426 63.4090033 117.06406452 61.55517578 116.61279297 C59.29036554 116.06963668 57.02214722 115.55977832 54.74609375 115.06640625 C36.45374439 110.91324923 13.19805856 103.47466585 1.41996765 87.91230774 C-0.42691383 84.12441354 -0.39778177 80.74980373 -0.34057617 76.62963867 C-0.34101425 75.79985504 -0.34145233 74.97007141 -0.34190369 74.11514282 C-0.33981982 71.38250905 -0.3165079 68.65049486 -0.29296875 65.91796875 C-0.28737136 64.01939733 -0.28310194 62.12082157 -0.28010559 60.22224426 C-0.26866806 55.23267591 -0.2392102 50.24337081 -0.20599365 45.25390625 C-0.17526928 40.15954143 -0.16159519 35.06513395 -0.14648438 29.97070312 C-0.11433952 19.98035328 -0.06315629 9.99019856 0 0 Z " fill="#E2E6E9" transform="translate(23,93)"/>
<path d="M0 0 C0.95642395 0.55017288 1.9128479 1.10034576 2.89825439 1.66719055 C4.16813567 2.39578511 5.43805551 3.12431245 6.70800781 3.8527832 C7.33659698 4.21460945 7.96518616 4.5764357 8.61282349 4.94922638 C13.22793059 7.59400877 17.87687769 10.04713907 22.75 12.1875 C23.49677002 12.51717773 24.24354004 12.84685547 25.01293945 13.18652344 C32.45199958 16.36346807 40.07510235 18.5089744 47.90966797 20.46630859 C49.8458646 20.96064705 51.76945061 21.50368488 53.69140625 22.05078125 C73.73681719 27.74975099 94.29940791 30.0968911 115 32 C115.9394043 32.09716309 116.87880859 32.19432617 117.84667969 32.29443359 C129.57017467 33.38531009 141.36164998 33.24208181 153.125 33.25 C154.29796631 33.25133942 155.47093262 33.25267883 156.67944336 33.25405884 C176.60454158 33.24913898 196.21927223 32.3760135 216 30 C217.04397949 29.8772168 218.08795898 29.75443359 219.16357422 29.62792969 C236.65814294 27.50861434 254.20465131 24.40232553 271 19 C271.75249023 18.75910645 272.50498047 18.51821289 273.28027344 18.27001953 C282.41830916 15.31039789 291.3307204 12.10076188 299.9375 7.8125 C300.58122559 7.4918457 301.22495117 7.17119141 301.88818359 6.84082031 C305.61846061 4.90837528 308.74134325 2.62907727 312 0 C312.66 0 313.32 0 314 0 C314.4614674 5.81661905 314.72392558 11.61367501 314.59765625 17.44921875 C314.57968994 18.40658936 314.56172363 19.36395996 314.54321289 20.3503418 C313.85580443 23.70335036 312.56526268 25.08991934 310.0625 27.375 C308.06882757 28.31023398 306.04294811 29.17795659 304 30 C302.72947309 30.69270749 301.46953871 31.40506947 300.21875 32.1328125 C289.94466772 38.0465905 279.20198529 42.20442847 268 46 C267.24138672 46.26506348 266.48277344 46.53012695 265.70117188 46.80322266 C261.00777465 48.41994821 256.38321499 49.67548597 251.5 50.625 C250.21609375 50.87507813 248.9321875 51.12515625 247.609375 51.3828125 C244.64256272 51.89012456 241.74619441 52.25521287 238.75 52.5 C235.18591571 52.69568366 235.18591571 52.69568366 233.29264832 54.13703918 C231.40301124 56.86037839 231.59949347 59.01237515 231.56762695 62.30737305 C231.53793571 64.25905647 231.53793571 64.25905647 231.50764465 66.25016785 C231.50087483 67.67068335 231.49442797 69.09120042 231.48828125 70.51171875 C231.47143671 71.96476261 231.45328676 73.41779188 231.43388367 74.87080383 C231.38635258 78.69299764 231.35656365 82.5151323 231.33044434 86.33752441 C231.30065427 90.23880701 231.25411868 94.13988571 231.20898438 98.04101562 C231.12291604 105.69390932 231.05558681 113.34681778 231 121 C229.95351791 121.12721939 228.90703583 121.25443878 227.82884216 121.38551331 C226.81877027 121.50832247 226.81877027 121.50832247 225.78829288 121.63361263 C224.31658988 121.81250374 222.84487639 121.99130858 221.37315273 122.17002964 C218.3578271 122.53628665 215.34257703 122.90297133 212.32791138 123.27462769 C194.07480217 125.52422526 176.04526625 126.18662621 157.65429688 126.18530273 C154.26940285 126.18748748 150.88483672 126.20571201 147.5 126.22460938 C134.67397404 126.25738815 122.08605772 125.71922298 109.34231567 124.2598877 C106.03537595 123.89297176 102.72355965 123.58577914 99.41052246 123.27960205 C91.68385917 122.54564538 84.18140067 121.41003782 76.58984375 119.7734375 C74.21484927 119.26174119 71.83154234 118.78708675 69.44140625 118.3515625 C48.83278527 114.58034015 27.15706304 108.38787943 10 96 C9.38640625 95.58105469 8.7728125 95.16210938 8.140625 94.73046875 C3.57667105 91.35269095 0.62029673 86.54930651 -0.35895538 80.94607544 C-0.48748395 78.777888 -0.49588839 76.64421066 -0.45410156 74.47265625 C-0.45468567 73.66194168 -0.45526978 72.85122711 -0.45587158 72.01594543 C-0.45310827 69.36434519 -0.42210113 66.71390127 -0.390625 64.0625 C-0.38315633 62.21305963 -0.37746636 60.3636113 -0.37347412 58.51416016 C-0.358267 53.66755989 -0.31902808 48.82144593 -0.2746582 43.97503662 C-0.23359885 39.02118507 -0.2154404 34.06725425 -0.1953125 29.11328125 C-0.15252868 19.40864155 -0.08433752 9.70436136 0 0 Z " fill="#C8CED5" transform="translate(23,199)"/>
<path d="M0 0 C1.09145325 -0.00133942 2.18290649 -0.00267883 3.30743408 -0.00405884 C21.66013365 0.00079912 39.60333754 0.87707921 57.8125 3.25 C58.76560059 3.36746582 59.71870117 3.48493164 60.70068359 3.60595703 C90.01462988 7.26686979 133.41047147 13.58596534 153.390625 37.859375 C155.42065487 41.27250214 155.87893205 43.90080333 155.51953125 47.8359375 C153.14482091 55.94406453 144.72072192 61.16997632 137.8125 65.25 C132.90913042 67.83489772 127.92526921 70.11284986 122.8125 72.25 C121.60722656 72.75402344 120.40195312 73.25804688 119.16015625 73.77734375 C93.00212748 84.07286688 64.60982962 87.0886746 36.8125 89.25 C35.79135101 89.33051605 35.79135101 89.33051605 34.74957275 89.41265869 C23.00158087 90.30682379 11.27110805 90.40491634 -0.50683594 90.38037109 C-3.55148321 90.37501936 -6.59598222 90.38034715 -9.640625 90.38671875 C-27.67277514 90.39520683 -45.44640055 89.70386955 -63.3125 87.1875 C-64.07087158 87.08184723 -64.82924316 86.97619446 -65.6105957 86.86734009 C-136.67722086 76.8094027 -136.67722086 76.8094027 -157.1875 51.8125 C-158.60916556 48.169482 -159.02354347 45.04381071 -158.1875 41.25 C-151.39490935 27.29189215 -132.41885646 20.72017877 -118.6953125 15.81030273 C-99.38786194 9.23348767 -79.32491044 6.0714974 -59.1875 3.25 C-58.39585449 3.13527344 -57.60420898 3.02054688 -56.78857422 2.90234375 C-37.96457657 0.18308283 -18.98780944 0.01389237 0 0 Z " fill="#F3F5F7" transform="translate(181.1875,22.75)"/>
<path d="M0 0 C1.44041405 0.82906609 1.44041405 0.82906609 2.90992737 1.67488098 C4.18283168 2.40547506 5.45577803 3.1359959 6.72875977 3.86645508 C7.67581661 4.41194378 7.67581661 4.41194378 8.64200592 4.96845245 C52.16911269 29.91902573 107.63226641 33.45017293 156.625 33.3125 C158.45271439 33.3117598 158.45271439 33.3117598 160.31735229 33.31100464 C177.96978862 33.28918064 195.2461266 32.61440926 212.75830078 30.36376953 C218.82134116 29.68340124 224.91022603 29.35296176 231 29 C231.02187378 30.55557617 231.02187378 30.55557617 231.04418945 32.14257812 C231.10313185 36.07176486 231.18033631 40.00043426 231.26245117 43.92919922 C231.29525768 45.61433377 231.32341961 47.29956658 231.34643555 48.98486328 C231.55855166 64.12183052 233.26195112 78.22127616 238.25 92.625 C238.54720947 93.50309326 238.84441895 94.38118652 239.15063477 95.28588867 C241.80439042 102.89656774 245.16257091 109.92210475 249 117 C203.56803689 127.97029123 151.33687339 130.26742387 105 124 C103.96037109 123.86577637 102.92074219 123.73155273 101.84960938 123.59326172 C24.06872288 113.40229531 24.06872288 113.40229531 4 91 C0.52212174 85.49949638 -0.57807079 80.91501913 -0.45410156 74.47265625 C-0.45468567 73.66194168 -0.45526978 72.85122711 -0.45587158 72.01594543 C-0.45310827 69.36434519 -0.42210113 66.71390127 -0.390625 64.0625 C-0.38315633 62.21305963 -0.37746636 60.3636113 -0.37347412 58.51416016 C-0.358267 53.66755989 -0.31902808 48.82144593 -0.2746582 43.97503662 C-0.23359885 39.02118507 -0.2154404 34.06725425 -0.1953125 29.11328125 C-0.15252868 19.40864155 -0.08433752 9.70436136 0 0 Z " fill="#A8AFBA" transform="translate(23,305)"/>
<path d="M0 0 C7.58975176 5.507365 12.20294655 12.25167647 15.125 21.1875 C15.67899726 25.77867653 15.60594492 30.25960929 15.4375 34.875 C15.41494141 36.06544922 15.39238281 37.25589844 15.36914062 38.48242188 C15.31084624 41.3854822 15.22907882 44.28578237 15.125 47.1875 C15.87265625 47.14109375 16.6203125 47.0946875 17.390625 47.046875 C18.86789062 46.99273437 18.86789062 46.99273437 20.375 46.9375 C21.34953125 46.89109375 22.3240625 46.8446875 23.328125 46.796875 C26.94800898 47.30244539 27.87552961 48.35130765 30.125 51.1875 C30.63293457 53.90356445 30.63293457 53.90356445 30.64257812 57.05078125 C30.65518677 58.2330127 30.66779541 59.41524414 30.68078613 60.63330078 C30.67268921 61.90931152 30.66459229 63.18532227 30.65625 64.5 C30.66199036 66.4797583 30.66199036 66.4797583 30.66784668 68.49951172 C30.67374285 71.29722788 30.66518694 74.09443317 30.64648438 76.89208984 C30.62387048 80.44479387 30.63670258 83.99627726 30.66077423 87.54893494 C30.67538204 90.30658787 30.67055578 93.0639624 30.66026306 95.82162476 C30.65636026 97.75780031 30.66834244 99.69398746 30.68078613 101.63012695 C30.52691095 116.3657649 25.55922129 129.87379818 15.25 140.5625 C4.34030001 150.82281309 -8.71964386 155.61892323 -23.75390625 155.39453125 C-38.96101866 154.38579914 -50.35483646 148.716954 -60.75390625 137.65234375 C-68.77263714 128.33407636 -72.93388273 116.56569037 -73.05200195 104.26733398 C-73.06483719 103.09939804 -73.07767242 101.9314621 -73.09089661 100.72813416 C-73.09828354 99.47593582 -73.10567047 98.22373749 -73.11328125 96.93359375 C-73.121353 95.64058853 -73.12942474 94.34758331 -73.13774109 93.01539612 C-73.15271817 90.28443537 -73.16258251 87.55350019 -73.17016602 84.82250977 C-73.18126654 81.32635491 -73.21572872 77.83083019 -73.25533772 74.33489895 C-73.2877557 70.99282214 -73.29227568 67.65081566 -73.30078125 64.30859375 C-73.32704338 62.4272599 -73.32704338 62.4272599 -73.35383606 60.50791931 C-73.35091049 59.34313553 -73.34798492 58.17835175 -73.3449707 56.97827148 C-73.35083694 55.95410629 -73.35670319 54.9299411 -73.36274719 53.8747406 C-72.74418039 50.46675006 -71.58149132 49.28475503 -68.875 47.1875 C-66.078125 46.796875 -66.078125 46.796875 -63.125 46.9375 C-62.14015625 46.97359375 -61.1553125 47.0096875 -60.140625 47.046875 C-59.39296875 47.09328125 -58.6453125 47.1396875 -57.875 47.1875 C-57.89594727 46.44701416 -57.91689453 45.70652832 -57.93847656 44.94360352 C-58.02229899 41.54587718 -58.07386924 38.14836928 -58.125 34.75 C-58.15851563 33.58533203 -58.19203125 32.42066406 -58.2265625 31.22070312 C-58.35041729 20.22859033 -55.29425743 12.32046676 -47.875 4.1875 C-34.07820756 -9.2527153 -16.01724576 -10.04106331 0 0 Z " fill="#020202" transform="translate(399.875,276.8125)"/>
<path d="M0 0 C3.77003326 0.05131855 7.53208293 0.00719487 11.30157852 -0.06152058 C27.80527904 -0.31905369 41.09349051 0.33518058 54.48028564 11.06918335 C58.1629285 13.9025478 62.458537 15.73053921 66.65625 17.67114258 C67.96613892 18.2823999 67.96613892 18.2823999 69.30249023 18.90600586 C81.12541534 24.30470945 92.95464971 28.07253263 105.71484375 30.52270508 C106.62842651 30.70164307 107.54200928 30.88058105 108.48327637 31.06494141 C110.70690071 31.49991928 112.93118897 31.93108615 115.15625 32.35864258 C115.27285477 45.94693188 115.36132262 59.53509929 115.41531086 73.12378979 C115.44124171 79.43573554 115.47633344 85.74733531 115.53344727 92.05908203 C115.58836157 98.16700379 115.61779415 104.27459589 115.63063622 110.38274574 C115.63977062 112.69599906 115.65760264 115.00923736 115.68490028 117.32234764 C115.9244351 138.48996772 112.84300355 157.40410397 103.15625 176.35864258 C102.70209717 177.25655518 102.70209717 177.25655518 102.23876953 178.17260742 C92.53279389 197.02449976 77.82523976 213.41595455 61.15625 226.35864258 C60.40472656 226.99930664 59.65320313 227.6399707 58.87890625 228.30004883 C47.11590081 238.25336112 33.13307086 245.98006985 19.15625 252.35864258 C18.021875 252.88844727 16.8875 253.41825195 15.71875 253.96411133 C14.605 254.44493164 13.49125 254.92575195 12.34375 255.42114258 C11.36792969 255.84524414 10.39210938 256.2693457 9.38671875 256.70629883 C1.76494409 258.24539964 -5.58446614 254.4839464 -12.40625 251.35864258 C-13.2725 250.96418945 -14.13875 250.56973633 -15.03125 250.16333008 C-31.06749765 242.67503823 -45.55585129 232.4648122 -58.54296875 220.47192383 C-60.62160234 218.56268653 -62.74795746 216.73887614 -64.90625 214.92114258 C-85.59378567 196.71115609 -104.11289654 166.86176976 -106.02344131 138.71099472 C-106.08742504 135.87784776 -106.09152383 133.05131938 -106.07080078 130.2175293 C-106.07109283 129.15292984 -106.07138489 128.08833038 -106.07168579 126.99147034 C-106.07030338 123.50700448 -106.05479373 120.02275813 -106.0390625 116.53833008 C-106.0353285 114.1088167 -106.03248335 111.67930181 -106.03048706 109.24978638 C-106.02288113 102.88106061 -106.00325887 96.51242726 -105.9810791 90.14373779 C-105.96055502 83.63465627 -105.95147134 77.12555969 -105.94140625 70.61645508 C-105.92001001 57.86381167 -105.88629994 45.11123206 -105.84375 32.35864258 C-104.97887042 32.18921992 -104.97887042 32.18921992 -104.09651852 32.01637459 C-101.46158669 31.49884352 -98.8273517 30.9778455 -96.19311523 30.45678711 C-94.83251102 30.19035149 -94.83251102 30.19035149 -93.44441986 29.91853333 C-87.44799974 28.72913393 -81.64568035 27.36657446 -75.90625 25.23364258 C-74.69630371 24.79532104 -74.69630371 24.79532104 -73.46191406 24.34814453 C-67.21749446 22.01760787 -61.13200463 19.36477122 -55.09375 16.54614258 C-54.30363525 16.18053223 -53.51352051 15.81492188 -52.69946289 15.43823242 C-48.71375203 13.51119124 -45.24932381 11.69433159 -41.81591797 8.85253906 C-29.45753397 -1.08247075 -15.08323293 -0.20936895 0 0 Z M-37.84375 22.35864258 C-40.07568359 23.66943359 -40.07568359 23.66943359 -42.12109375 24.67895508 C-42.72840332 24.98325439 -43.33571289 25.28755371 -43.96142578 25.60107422 C-44.56196777 25.89232178 -45.16250977 26.18356934 -45.78125 26.48364258 C-46.79034424 26.97755493 -46.79034424 26.97755493 -47.81982422 27.48144531 C-49.82232528 28.45253344 -51.83115041 29.40868742 -53.84375 30.35864258 C-54.95105469 30.88329102 -56.05835938 31.40793945 -57.19921875 31.94848633 C-65.4156868 35.64933275 -73.809955 38.34769642 -82.46923828 40.82373047 C-83.38044434 41.09564209 -84.29165039 41.36755371 -85.23046875 41.64770508 C-86.04733154 41.88183105 -86.86419434 42.11595703 -87.70581055 42.35717773 C-90.49434123 43.66339594 -91.31571532 44.66350833 -92.84375 47.35864258 C-93.12924262 50.17347758 -93.24373263 52.76388227 -93.21606445 55.5769043 C-93.21971512 56.40356094 -93.22336578 57.23021759 -93.22712708 58.08192444 C-93.23523706 60.81760162 -93.22160719 63.55268671 -93.20703125 66.28833008 C-93.2065122 68.19963582 -93.20703163 70.1109421 -93.20854187 72.02224731 C-93.20845209 76.03550149 -93.19802088 80.04855505 -93.17993164 84.06176758 C-93.15739773 89.16989131 -93.15667203 94.27771803 -93.16344929 99.38587761 C-93.16681801 103.33937142 -93.16010252 107.29279942 -93.15032005 111.24628067 C-93.14650597 113.12706277 -93.14530385 115.00785226 -93.1469059 116.88863754 C-93.14890172 130.91912858 -92.88788633 144.6041858 -87.71875 157.85864258 C-87.41308105 158.66052002 -87.10741211 159.46239746 -86.79248047 160.28857422 C-79.93250527 177.70943781 -68.65053482 191.92013294 -55.84375 205.35864258 C-55.17730469 206.07793945 -54.51085937 206.79723633 -53.82421875 207.53833008 C-41.25051416 220.72086668 -25.09020911 230.51916287 -8.84375 238.48364258 C-8.06692871 238.87430908 -7.29010742 239.26497559 -6.48974609 239.66748047 C-0.82027835 242.34862309 3.86265664 243.62551633 10.10400391 241.78393555 C12.1078987 241.0164544 14.03124002 240.15557242 15.96875 239.23364258 C16.66597168 238.91306885 17.36319336 238.59249512 18.08154297 238.26220703 C20.11704324 237.31485695 22.13840174 236.34294616 24.15625 235.35864258 C25.14238281 234.88040039 26.12851562 234.4021582 27.14453125 233.90942383 C57.86730566 218.02461158 87.26158147 188.70239167 98.15625 155.35864258 C101.89368812 141.72198552 102.74629608 128.36149606 102.65234375 114.29614258 C102.65249927 112.36132757 102.65399691 110.42651227 102.65675354 108.49169922 C102.65812213 104.48496323 102.64582355 100.47859203 102.62280273 96.47192383 C102.59411242 91.33851793 102.59725877 86.20570216 102.60989285 81.07225037 C102.61683527 77.09858131 102.60908233 73.12504926 102.59663582 69.15139771 C102.59212889 67.25677006 102.59177788 65.36212772 102.59570122 63.46749878 C102.59860709 60.83585073 102.58214785 58.20502979 102.56030273 55.57348633 C102.56480438 54.79642334 102.56930603 54.01936035 102.57394409 53.21875 C102.52967971 50.01425211 102.36905533 47.73773766 100.7848053 44.91552734 C98.61186884 42.8382189 96.65460261 42.2214187 93.78125 41.35864258 C92.70359375 41.02348633 91.6259375 40.68833008 90.515625 40.34301758 C88.38319072 39.71816474 86.24803196 39.10247851 84.109375 38.49926758 C67.23831047 33.61779206 50.43008219 25.70989109 35.89070129 15.81713867 C32.81722172 14.17781236 30.93068763 13.9527819 27.47070312 13.89111328 C26.35183716 13.86551834 25.23297119 13.8399234 24.0802002 13.81355286 C22.2770636 13.79913399 22.2770636 13.79913399 20.4375 13.78442383 C19.18803589 13.76969528 17.93857178 13.75496674 16.65124512 13.73979187 C14.00479658 13.71584253 11.3593346 13.69926607 8.71289062 13.69287109 C6.02176977 13.68420834 3.33305347 13.64965179 0.64257812 13.59033203 C-20.15321144 12.78673869 -20.15321144 12.78673869 -37.84375 22.35864258 Z " fill="#64D0ED" transform="translate(373.84375,231.641357421875)"/>
<path d="M0 0 C1.09311996 -0.03850571 2.18623993 -0.07701141 3.31248474 -0.11668396 C5.08571861 -0.14992516 5.08571861 -0.14992516 6.89477539 -0.18383789 C8.12668106 -0.20805313 9.35858673 -0.23226837 10.62782288 -0.25721741 C13.24621951 -0.29874551 15.86477869 -0.33090969 18.48339844 -0.35449219 C21.12956807 -0.38078423 23.76419325 -0.44952814 26.41015625 -0.5390625 C44.34280759 -1.14543702 56.54712182 0.62041874 71.33381653 11.05715942 C74.92506903 13.44017626 78.76715184 15.24214156 82.67993164 17.03100586 C83.41280396 17.36633835 84.14567627 17.70167084 84.90075684 18.04716492 C93.84098803 22.09471997 102.90189917 25.00825579 112.39086914 27.50366211 C115.4910382 28.51026021 117.89029713 29.6657617 120.55493164 31.53100586 C122.12977558 34.68069374 121.7200729 38.05947461 121.73193359 41.51879883 C121.73850479 42.34527924 121.74507599 43.17175964 121.75184631 44.02328491 C121.77163165 46.77325536 121.78326554 49.52317052 121.79321289 52.27319336 C121.79728842 53.2172617 121.80136395 54.16133003 121.80556297 55.1340065 C121.8264652 60.14963818 121.84073794 65.16524233 121.85009766 70.1809082 C121.86105388 75.311032 121.89531392 80.44070891 121.93526936 85.5706768 C121.96172532 89.5535652 121.96981576 93.53635296 121.97337914 97.51932144 C121.97818621 99.40634233 121.98962699 101.29336058 122.00841713 103.18029404 C122.18715459 122.35158465 119.67678889 139.52754387 110.55493164 156.53100586 C109.82790039 157.98893555 109.82790039 157.98893555 109.08618164 159.47631836 C102.86010028 171.61717701 93.96944355 181.77464414 84.55493164 191.53100586 C83.75901611 192.36523071 83.75901611 192.36523071 82.94702148 193.21630859 C78.72901133 197.55105335 74.25346779 201.32593879 69.42993164 204.96850586 C68.68420898 205.5327124 67.93848633 206.09691895 67.17016602 206.67822266 C35.04337112 230.70105419 35.04337112 230.70105419 19.55493164 228.53100586 C15.72751832 227.24174873 12.16599746 225.51832411 8.55493164 223.71850586 C7.54253418 223.2222168 6.53013672 222.72592773 5.48706055 222.21459961 C-27.91822509 205.44047615 -57.29020543 176.33118092 -69.44506836 140.53100586 C-72.30751344 130.96707171 -73.58338017 121.66592364 -73.63793945 111.71582031 C-73.65020569 110.45327423 -73.65020569 110.45327423 -73.66271973 109.16522217 C-73.68733007 106.40825074 -73.70401686 103.6513295 -73.71850586 100.89428711 C-73.72382954 99.94803152 -73.72915321 99.00177593 -73.73463821 98.02684593 C-73.76124983 93.02848499 -73.78067191 88.03014812 -73.79516602 83.03173828 C-73.80855476 78.90065618 -73.83651476 74.77006222 -73.87719727 70.63916016 C-73.92644029 65.6372751 -73.95127438 60.63583558 -73.9583931 55.63371849 C-73.96510884 53.73148912 -73.98033932 51.82926985 -74.00428391 49.92717934 C-74.03585303 47.27025676 -74.03598641 44.61506816 -74.02856445 41.95800781 C-74.04496979 41.1750383 -74.06137512 40.39206879 -74.07827759 39.58537292 C-74.03192742 35.53265103 -73.62638059 33.75439747 -71.03799438 30.56529236 C-68.66657328 28.70478809 -67.19660036 27.758928 -64.32006836 27.04663086 C-63.54195801 26.83876953 -62.76384766 26.6309082 -61.9621582 26.41674805 C-61.13151855 26.20695312 -60.30087891 25.9971582 -59.44506836 25.78100586 C-42.31072137 21.02058931 -21.33016852 13.84555445 -7.67456055 1.99446106 C-4.93875121 0.19865553 -3.25523126 0.10033546 0 0 Z M-16.44506836 23.53100586 C-26.41971082 29.26572744 -37.16506809 33.26543118 -48.07397461 36.80834961 C-49.17326294 37.16989136 -50.27255127 37.53143311 -51.40515137 37.90393066 C-54.08367652 38.78415271 -56.76361688 39.65974787 -59.44506836 40.53100586 C-59.53828327 51.09372464 -59.60909223 61.65634347 -59.65231705 72.21939182 C-59.67307644 77.12573982 -59.70117768 82.03180372 -59.74682617 86.93798828 C-59.79070394 91.68426694 -59.81429273 96.43027461 -59.82457733 101.17674065 C-59.83189426 102.97580155 -59.84617932 104.77484982 -59.86798859 106.57379341 C-60.06129027 123.1992851 -57.20714092 136.58807873 -49.44506836 151.53100586 C-48.93202148 152.52745117 -48.41897461 153.52389648 -47.89038086 154.55053711 C-34.33747221 179.28945888 -11.08521725 197.73534669 13.55493164 210.53100586 C14.48950195 211.01956055 15.42407227 211.50811523 16.38696289 212.01147461 C20.68481181 214.09981579 22.82997119 214.92547843 27.55493164 213.53100586 C30.08654733 212.42218647 32.53242813 211.27988498 34.99243164 210.03100586 C35.69327881 209.67643311 36.39412598 209.32186035 37.11621094 208.95654297 C63.22649606 195.48776921 86.4321166 174.73317629 99.49243164 148.15600586 C99.84611816 147.45056641 100.19980469 146.74512695 100.56420898 146.01831055 C107.09254837 131.92210723 108.13666582 117.42312487 107.94555664 102.15209961 C107.93807116 100.36036316 107.93238919 98.56861838 107.92840576 96.77687073 C107.91333057 92.12273462 107.87421165 87.46911958 107.82958984 82.81518555 C107.78823969 78.04149418 107.770311 73.26771636 107.75024414 68.49389648 C107.7076944 59.1727074 107.63967098 49.85190041 107.55493164 40.53100586 C106.38493622 40.19195724 105.2149408 39.85290863 104.00949097 39.50358582 C102.46064154 39.05214045 100.91182533 38.60058109 99.36303711 38.14892578 C98.59352219 37.92625786 97.82400726 37.70358994 97.03117371 37.4741745 C91.74343754 35.92886803 86.67410995 34.18378208 81.67993164 31.84350586 C80.59591064 31.34911011 80.59591064 31.34911011 79.48999023 30.84472656 C56.91239913 20.38317937 56.91239913 20.38317937 51.74150085 15.99049377 C49.16304682 14.26943117 47.73177864 14.12153668 44.65722656 14.04760742 C43.68488571 14.01878479 42.71254486 13.98996216 41.71073914 13.96026611 C40.66287735 13.94751648 39.61501556 13.93476685 38.53540039 13.92163086 C37.44463699 13.90453064 36.3538736 13.88743042 35.23005676 13.86981201 C32.91599231 13.84146655 30.60180684 13.82186174 28.28759766 13.81030273 C24.79178147 13.78141368 21.30144037 13.6884814 17.80688477 13.59350586 C3.62629698 13.39237042 -5.16863485 14.94799094 -16.44506836 23.53100586 Z " fill="#010304" transform="translate(354.445068359375,245.468994140625)"/>
<path d="M0 0 C24.75 0 49.5 0 75 0 C75.103125 7.816875 75.20625 15.63375 75.3125 23.6875 C75.35802002 26.12729248 75.40354004 28.56708496 75.45043945 31.08081055 C75.60220866 45.0459679 74.97594531 56.99910289 65.734375 68.2890625 C57.67827839 76.23629294 48.33177067 79.92513533 37.1875 80.25 C26.91547038 80.14829674 17.48475151 76.1009181 10 69 C4.14435976 61.20737952 -0.13918099 53.8630422 -0.11352539 43.93432617 C-0.11340454 42.94009644 -0.11328369 41.9458667 -0.11315918 40.92150879 C-0.10804321 39.88909058 -0.10292725 38.85667236 -0.09765625 37.79296875 C-0.09614563 36.35564392 -0.09614563 36.35564392 -0.09460449 34.88928223 C-0.0893865 31.32200925 -0.07542525 27.75475338 -0.0625 24.1875 C-0.041875 16.205625 -0.02125 8.22375 0 0 Z " fill="#FBCB55" transform="translate(341,338)"/>
<path d="M0 0 C4.89903546 2.21216136 8.72311748 5.76761442 11.515625 10.34765625 C14.515625 18.34765625 14.515625 18.34765625 14.515625 38.34765625 C-0.994375 38.34765625 -16.504375 38.34765625 -32.484375 38.34765625 C-32.484375 12.62667411 -32.484375 12.62667411 -25.734375 5.5 C-18.29141862 -1.28528136 -9.86070138 -2.58920933 0 0 Z " fill="#4DBBE2" transform="translate(387.484375,285.65234375)"/>
<path d="M0 0 C3.07469523 1.70251719 5.40613254 3.81226508 7 7 C7.34733262 12.29682248 7.49299205 15.70093287 4 20 C3.34 20 2.68 20 2 20 C2.02094727 20.58491211 2.04189453 21.16982422 2.06347656 21.77246094 C2.14680115 24.43146465 2.19870897 27.09019355 2.25 29.75 C2.28351563 30.67039062 2.31703125 31.59078125 2.3515625 32.5390625 C2.45008521 39.33712941 2.45008521 39.33712941 0.20703125 42.640625 C-2 44 -2 44 -5.5625 44 C-9 43 -9 43 -10.68359375 41.52734375 C-12.69669417 37.66242989 -12.45438635 33.85995758 -12.5 29.5625 C-12.57338159 21.83186341 -12.57338159 21.83186341 -16 15 C-16.83389634 8.43306631 -16.83389634 8.43306631 -14.9453125 5.1875 C-10.5927004 -0.16956104 -6.65340041 -1.02703496 0 0 Z " fill="#060502" transform="translate(383,354)"/>
<path d="M0 0 C6.63608909 1.55735517 13.24395639 2.96632272 19.97680664 4.04418945 C22.25 4.5625 22.25 4.5625 24.9375 6.3125 C26.70627813 9.34469108 26.82581233 11.10762601 26.25 14.5625 C24.58984375 16.74609375 24.58984375 16.74609375 22.25 18.5625 C9.2194356 20.2311622 -10.62052744 15.26842035 -21.75 8.3125 C-23.49667398 5.25582054 -22.62559919 2.83140364 -21.75 -0.4375 C-17.02218437 -6.25635001 -6.26840931 -1.47264684 0 0 Z " fill="#060606" transform="translate(83.75,155.4375)"/>
<path d="M0 0 C6.79137147 1.62506605 6.79137147 1.62506605 13.67578125 2.75390625 C16.515625 3.171875 16.515625 3.171875 18.953125 4.859375 C21.01412191 7.90965043 21.11789322 9.55826569 20.515625 13.171875 C18.44400655 15.87272336 17.31911537 17.05399767 13.90625 17.5546875 C5.71169151 16.88199986 -2.06826668 15.25373367 -10.046875 13.296875 C-11.61743652 12.91233154 -11.61743652 12.91233154 -13.21972656 12.52001953 C-14.21584961 12.26333496 -15.21197266 12.00665039 -16.23828125 11.7421875 C-17.12845947 11.51289551 -18.0186377 11.28360352 -18.93579102 11.04736328 C-23.28583495 9.55303839 -25.91669057 8.02340164 -28.484375 4.171875 C-28.34337352 0.78783951 -28.05535397 -1.14734238 -25.859375 -3.765625 C-18.88186619 -6.8871421 -7.0548105 -1.67670384 0 0 Z " fill="#050505" transform="translate(89.484375,262.828125)"/>
<path d="M0 0 C2.21193155 0.56343531 4.43015457 1.08664357 6.65429688 1.59960938 C7.37931396 1.77000732 8.10433105 1.94040527 8.85131836 2.1159668 C10.24221316 2.44182083 11.63492204 2.76005284 13.02954102 3.06958008 C16.5097878 3.90015924 19.08136646 4.52584247 21.16992188 7.55273438 C21.69972066 11.10995478 21.6019642 12.86866736 19.66992188 15.92773438 C14.3324181 19.39711183 8.20397664 17.46488735 2.29492188 16.36523438 C-0.42125431 15.78378158 -3.12593701 15.1849736 -5.83007812 14.55273438 C-6.61463379 14.37049316 -7.39918945 14.18825195 -8.20751953 14.00048828 C-10.65141645 13.41856176 -13.08471776 12.80408121 -15.51757812 12.17773438 C-16.28376465 11.99315674 -17.04995117 11.8085791 -17.83935547 11.6184082 C-22.61785569 10.33295435 -25.21743399 9.01973544 -27.83007812 4.55273438 C-27.83007812 1.1149083 -27.43626486 -0.66427442 -25.33007812 -3.38476562 C-17.89832054 -6.5432626 -7.53516893 -1.97201391 0 0 Z " fill="#040404" transform="translate(88.830078125,368.447265625)"/>
</svg>
