<?xml version="1.0" encoding="UTF-8"?>
<svg version="1.1" xmlns="http://www.w3.org/2000/svg" width="512" height="512">
<path d="M0 0 C0.62825684 0.20898926 1.25651367 0.41797852 1.90380859 0.63330078 C17.56903011 5.95063379 30.29706058 14.43576209 42 26 C42.71542969 26.64324219 43.43085938 27.28648438 44.16796875 27.94921875 C59.91416469 42.43823338 70.98751336 66.89394574 72.17700195 88.1652832 C72.71682185 117.98871936 72.71682185 117.98871936 68 132 C67.63777344 133.12664062 67.27554688 134.25328125 66.90234375 135.4140625 C62.68119969 147.40497342 56.18460653 158.2997256 48 168 C47.2575 168.9590625 47.2575 168.9590625 46.5 169.9375 C33.41704239 186.16036743 12.95614604 197.01096349 -7 202 C-7 208.27 -7 214.54 -7 221 C-3.43554077 221.86165771 -3.43554077 221.86165771 0.20092773 222.74072266 C8.07992398 224.6481418 15.95398336 226.57535105 23.82580471 228.51215553 C28.59541593 229.68504619 33.3664316 230.8513606 38.14135742 232.00244141 C42.75536095 233.11498966 47.36475019 234.24507722 51.97154427 235.38709641 C53.72374554 235.81825492 55.47748079 236.24323124 57.23275566 236.6617012 C79.5914158 242.00260866 79.5914158 242.00260866 86 252 C88.51159944 256.77028515 88.29578759 261.37458447 88.29052734 266.6328125 C88.29724457 267.59777145 88.30396179 268.56273041 88.31088257 269.55693054 C88.32987346 272.74633954 88.33378818 275.93553797 88.3359375 279.125 C88.34236764 281.35115647 88.34909616 283.57731209 88.35610962 285.8034668 C88.36808725 290.47397823 88.37179024 295.1444157 88.37060547 299.81494141 C88.37040294 305.77184519 88.39763484 311.72826835 88.43214989 317.68505859 C88.45450243 322.28702935 88.45844035 326.8888863 88.45738602 331.49090576 C88.45973211 333.68513638 88.46849913 335.87937061 88.48405075 338.07354736 C88.63899785 362.20653699 82.34670659 375.87223635 66.98828125 394.3984375 C66.4773291 395.02073242 65.96637695 395.64302734 65.43994141 396.28417969 C64.18371055 397.78109228 62.86784526 399.22755093 61.54296875 400.6640625 C59.76413945 402.868966 59.76413945 402.868966 60.07421875 405.41015625 C61.17789384 408.49765239 62.45025457 411.45435495 63.8125 414.4375 C75.21744576 440.13723935 72 461.76991209 72 492 C24.48 492 -23.04 492 -72 492 C-72 433.45549738 -72 433.45549738 -64.875 416.6875 C-64.37742187 415.49511719 -63.87984375 414.30273438 -63.3671875 413.07421875 C-62 410 -62 410 -60.7578125 407.83203125 C-59.7624567 405.42573296 -60.16137121 404.4421887 -61 402 C-62.2477279 400.15251879 -62.2477279 400.15251879 -63.84375 398.3828125 C-64.71797607 397.35945801 -64.71797607 397.35945801 -65.60986328 396.31542969 C-66.54548096 395.23116699 -66.54548096 395.23116699 -67.5 394.125 C-71.94921358 388.82491823 -76.30285788 383.52490321 -80.125 377.75 C-80.78757813 376.75484375 -81.45015625 375.7596875 -82.1328125 374.734375 C-88.97892706 362.00720495 -88.59824294 349.0652965 -88.625 335 C-88.71717975 309.59257822 -88.71717975 309.59257822 -97.0625 285.8125 C-97.61744141 284.69552734 -98.17238281 283.57855469 -98.74414062 282.42773438 C-100.14698096 279.61009283 -101.5677405 276.80276075 -103 274 C-105.34174585 269.3165083 -104.4957366 263.07990768 -104 258 C-101.79215202 251.99025613 -97.62241581 248.3250855 -92.3203125 244.921875 C-89.05670691 243.62522362 -85.89959514 243.61687111 -82.4375 243.625 C-81.72803223 243.62661133 -81.01856445 243.62822266 -80.28759766 243.62988281 C-71.05291882 243.84294258 -64.64677293 246.90215138 -57 252 C-57 235.5 -57 219 -57 202 C-62.94 200.02 -68.88 198.04 -75 196 C-99.97210212 183.96798716 -120.16315926 164.264696 -130 138 C-137.39243853 115.7479594 -139.70355245 90.53469082 -132 68 C-131.79101074 67.37174316 -131.58202148 66.74348633 -131.36669922 66.09619141 C-126.04936621 50.43096989 -117.56423791 37.70293942 -106 26 C-105.35675781 25.28457031 -104.71351562 24.56914063 -104.05078125 23.83203125 C-79.27430612 -3.09424649 -33.83070901 -11.56513055 0 0 Z " fill="#000000" transform="translate(144,12)"/>
<path d="M0 0 C15.18 0 30.36 0 46 0 C51 17 51 17 51 21 C58.27927904 21.70413941 62.32082444 18.84567358 68.30273438 15.0234375 C69.31883789 14.4046875 69.31883789 14.4046875 70.35546875 13.7734375 C70.96028076 13.38591309 71.56509277 12.99838867 72.18823242 12.59912109 C74 12 74 12 75.91847229 12.78198242 C77.97971464 13.98812991 79.44004863 15.19829467 81.11621094 16.88916016 C81.98666046 17.75983627 81.98666046 17.75983627 82.87469482 18.64810181 C83.79523651 19.58412735 83.79523651 19.58412735 84.734375 20.5390625 C85.37240051 21.17991791 86.01042603 21.82077332 86.66778564 22.48104858 C88.69994069 24.52437821 90.72502218 26.57455982 92.75 28.625 C94.1284453 30.0134786 95.50734636 31.4015049 96.88671875 32.7890625 C100.26311894 36.18748697 103.63319288 39.59207254 107 43 C105.58863685 47.45309407 103.8922642 50.99585792 101.375 54.9375 C98.53094349 59.66581755 97.13138459 62.54013174 98 68 C98.67804688 68.10957031 99.35609375 68.21914062 100.0546875 68.33203125 C100.98539063 68.49058594 101.91609375 68.64914063 102.875 68.8125 C104.23238281 69.03873047 104.23238281 69.03873047 105.6171875 69.26953125 C110.14386222 70.24700027 114.56429937 71.66928981 119 73 C119 88.18 119 103.36 119 119 C101 124 101 124 98 124 C97.29586059 131.27927904 100.15432642 135.32082444 103.9765625 141.30273438 C104.5953125 142.31883789 104.5953125 142.31883789 105.2265625 143.35546875 C105.61408691 143.96028076 106.00161133 144.56509277 106.40087891 145.18823242 C107 147 107 147 106.21801758 148.91847229 C105.01187009 150.97971464 103.80170533 152.44004863 102.11083984 154.11621094 C101.24016373 154.98666046 101.24016373 154.98666046 100.35189819 155.87469482 C99.72788116 156.48838928 99.10386414 157.10208374 98.4609375 157.734375 C97.82008209 158.37240051 97.17922668 159.01042603 96.51895142 159.66778564 C94.47562179 161.69994069 92.42544018 163.72502218 90.375 165.75 C88.9865214 167.1284453 87.5984951 168.50734636 86.2109375 169.88671875 C82.81251303 173.26311894 79.40792746 176.63319288 76 180 C71.54690593 178.58863685 68.00414208 176.8922642 64.0625 174.375 C59.33418245 171.53094349 56.45986826 170.13138459 51 171 C50.89042969 171.67804688 50.78085937 172.35609375 50.66796875 173.0546875 C50.50941406 173.98539063 50.35085938 174.91609375 50.1875 175.875 C50.03667969 176.77992188 49.88585937 177.68484375 49.73046875 178.6171875 C48.75299973 183.14386222 47.33071019 187.56429937 46 192 C30.82 192 15.64 192 0 192 C-5 174 -5 174 -5 171 C-12.27927904 170.29586059 -16.32082444 173.15432642 -22.30273438 176.9765625 C-22.98013672 177.3890625 -23.65753906 177.8015625 -24.35546875 178.2265625 C-24.96028076 178.61408691 -25.56509277 179.00161133 -26.18823242 179.40087891 C-28 180 -28 180 -29.91847229 179.21801758 C-31.97971464 178.01187009 -33.44004863 176.80170533 -35.11621094 175.11083984 C-35.69651062 174.5303891 -36.2768103 173.94993835 -36.87469482 173.35189819 C-37.48838928 172.72788116 -38.10208374 172.10386414 -38.734375 171.4609375 C-39.37240051 170.82008209 -40.01042603 170.17922668 -40.66778564 169.51895142 C-42.69994069 167.47562179 -44.72502218 165.42544018 -46.75 163.375 C-48.1284453 161.9865214 -49.50734636 160.5984951 -50.88671875 159.2109375 C-54.26311894 155.81251303 -57.63319288 152.40792746 -61 149 C-59.58863685 144.54690593 -57.8922642 141.00414208 -55.375 137.0625 C-52.53094349 132.33418245 -51.13138459 129.45986826 -52 124 C-52.67804688 123.89042969 -53.35609375 123.78085938 -54.0546875 123.66796875 C-54.98539062 123.50941406 -55.91609375 123.35085937 -56.875 123.1875 C-58.23238281 122.96126953 -58.23238281 122.96126953 -59.6171875 122.73046875 C-64.14386222 121.75299973 -68.56429937 120.33071019 -73 119 C-73 103.82 -73 88.64 -73 73 C-55 68 -55 68 -52 68 C-51.29586059 60.72072096 -54.15432642 56.67917556 -57.9765625 50.69726562 C-58.3890625 50.01986328 -58.8015625 49.34246094 -59.2265625 48.64453125 C-59.61408691 48.03971924 -60.00161133 47.43490723 -60.40087891 46.81176758 C-61 45 -61 45 -60.21801758 43.08152771 C-59.01187009 41.02028536 -57.80170533 39.55995137 -56.11083984 37.88378906 C-55.5303891 37.30348938 -54.94993835 36.7231897 -54.35189819 36.12530518 C-53.41587265 35.20476349 -53.41587265 35.20476349 -52.4609375 34.265625 C-51.82008209 33.62759949 -51.17922668 32.98957397 -50.51895142 32.33221436 C-48.47562179 30.30005931 -46.42544018 28.27497782 -44.375 26.25 C-42.9865214 24.8715547 -41.5984951 23.49265364 -40.2109375 22.11328125 C-36.81251303 18.73688106 -33.40792746 15.36680712 -30 12 C-25.54690593 13.41136315 -22.00414208 15.1077358 -18.0625 17.625 C-13.33418245 20.46905651 -10.45986826 21.86861541 -5 21 C-4.89042969 20.32195313 -4.78085937 19.64390625 -4.66796875 18.9453125 C-4.43013672 17.54925781 -4.43013672 17.54925781 -4.1875 16.125 C-4.03667969 15.22007813 -3.88585937 14.31515625 -3.73046875 13.3828125 C-2.75299973 8.85613778 -1.33071019 4.43570063 0 0 Z M-2 76 C-7.95684175 84.77226447 -8.80860965 92.46529681 -8 103 C-5.81622185 112.24674063 -0.84101899 118.43138233 7.125 123.375 C14.98541912 127.95412267 24.04862774 128.40551976 32.89453125 126.31640625 C42.77805786 122.65752774 48.3956627 116.36318257 53 107 C55.77466577 98.8609804 54.86936703 88.85436893 51.25 81.17578125 C46.914007 73.62844344 40.44497274 68.1971498 32.109375 65.35546875 C18.81781294 63.1155944 7.03739294 65.71745515 -2 76 Z " fill="#F8D46E" transform="translate(385,16)"/>
<path d="M0 0 C14.35546434 11.70990834 26.06794902 27.89121936 28.30664062 46.72021484 C29.76540525 68.43149507 26.98673588 88.68958143 12.32470703 105.62963867 C7.79912338 110.59382164 2.87054504 114.96545304 -2.50195312 119.00146484 C-7.63658647 123.02862825 -9.76849743 126.16335774 -10.69335938 132.72021484 C-11.01340571 137.27956351 -11.0586345 141.84230544 -11.08398438 146.41162109 C-11.31169195 155.48197297 -13.69898579 163.4528805 -19.99023438 170.18896484 C-28.23520346 177.60187283 -36.97174874 179.30305391 -47.77539062 179.03271484 C-52.87378616 178.62606316 -56.42438402 177.46943498 -60.69335938 174.72021484 C-61.75296875 174.06666016 -61.75296875 174.06666016 -62.83398438 173.39990234 C-69.68219582 168.75833681 -73.60890678 162.70303111 -75.69335938 154.72021484 C-76.07721551 150.16864538 -76.10661044 145.6039858 -76.171875 141.03857422 C-76.37336474 133.89797454 -76.96471668 127.07001198 -81.61523438 121.36083984 C-82.64390625 120.54873047 -82.64390625 120.54873047 -83.69335938 119.72021484 C-84.37914062 119.17880859 -85.06492187 118.63740234 -85.77148438 118.07958984 C-86.8465625 117.28294922 -86.8465625 117.28294922 -87.94335938 116.47021484 C-99.64287723 107.41747316 -107.36379655 96.5419382 -112.69335938 82.72021484 C-113.17482422 81.47498047 -113.17482422 81.47498047 -113.66601562 80.20458984 C-119.37823492 62.03176196 -116.62353861 40.7617465 -108.13085938 24.03271484 C-98.45977191 6.24280365 -81.37313874 -6.27370949 -62.19335938 -12.27978516 C-40.8466211 -16.74770712 -17.56549074 -13.27541846 0 0 Z " fill="#010100" transform="translate(451.693359375,253.27978515625)"/>
<path d="M0 0 C4.07611376 0.84919037 5.40768683 2.40045047 8 5.625 C8.61523914 9.03574848 8.61523914 9.03574848 8.60127258 13.02180481 C8.60554471 13.75703281 8.60981683 14.4922608 8.61421841 15.24976844 C8.62244157 17.70855853 8.59497715 20.16563522 8.56762695 22.62426758 C8.56621633 24.38852905 8.56700875 26.15279346 8.56983948 27.91705322 C8.57127447 32.70405174 8.54187127 37.49042424 8.50696969 42.27727723 C8.47572003 47.28074106 8.47277654 52.28421914 8.46684265 57.2877655 C8.45130014 66.7615087 8.41026607 76.23496352 8.3600952 85.70857972 C8.3042145 96.4944231 8.27671843 107.28028023 8.25161803 118.06623232 C8.19935064 140.25265354 8.11039356 162.43879845 8 184.625 C13.28 184.625 18.56 184.625 24 184.625 C24 156.245 24 127.865 24 98.625 C29.28 99.945 34.56 101.265 40 102.625 C40 129.685 40 156.745 40 184.625 C45.28 184.625 50.56 184.625 56 184.625 C56 158.885 56 133.145 56 106.625 C61.28 107.945 66.56 109.265 72 110.625 C72 135.045 72 159.465 72 184.625 C77.28 184.625 82.56 184.625 88 184.625 C88 161.525 88 138.425 88 114.625 C100 117.625 100 117.625 104 121.625 C104.38948101 124.66062071 104.5370458 127.33139443 104.50170898 130.36572266 C104.50981346 131.68849716 104.50981346 131.68849716 104.51808167 133.03799438 C104.53059425 135.95535802 104.51405306 138.87173906 104.49609375 141.7890625 C104.49624876 143.82205253 104.49773811 145.85504285 104.50050354 147.88803101 C104.50188895 152.15351393 104.48931211 156.41866124 104.46655273 160.68408203 C104.43827613 166.13122963 104.44087415 171.57781496 104.45364285 177.02500343 C104.46062817 181.22712941 104.45277645 185.4291274 104.44038582 189.63123703 C104.43589134 191.63813154 104.43551687 193.64503989 104.43945122 195.65193558 C104.44238865 198.47087535 104.42573273 201.28906553 104.40405273 204.10791016 C104.41080521 205.33495667 104.41080521 205.33495667 104.41769409 206.58679199 C104.20296934 223.54142365 94.06822761 235.17378203 83.66577148 247.52026367 C82.01687605 249.48939772 82.01687605 249.48939772 81.04784679 251.32604218 C78.14172077 256.20941891 78.14172077 256.20941891 75.1388731 257.3024416 C72.85235259 257.58626817 70.64944929 257.65091137 68.34521484 257.6418457 C67.48433258 257.66535599 66.62345032 257.68886627 65.73648071 257.71308899 C62.89391081 257.77950861 60.05423478 257.79325103 57.2109375 257.80078125 C55.22660145 257.82328861 53.24227698 257.84683859 51.25796509 257.87138367 C47.09667072 257.91328997 42.93639281 257.92626784 38.77490234 257.92211914 C33.46322357 257.92140943 28.15813283 258.01675897 22.84801292 258.1375246 C18.74682266 258.21572316 14.64719682 258.22954338 10.54533768 258.22585106 C8.58927411 258.234067 6.63316181 258.26478519 4.67783737 258.31917763 C-10.13525853 258.69251219 -10.13525853 258.69251219 -14.85805511 255.28402328 C-18.13511465 252.06069647 -20.54858297 248.41644815 -22.86138535 244.46623802 C-24.43693138 241.91844431 -26.27894078 239.63176032 -28.16741371 237.31096363 C-37.15987977 226.25902756 -40.28705962 216.26510091 -40.2734375 202.14453125 C-40.29373345 199.90559402 -40.31458436 197.66666177 -40.3359375 195.42773438 C-40.35845646 191.93705018 -40.37498475 188.44656388 -40.38085938 184.95581055 C-40.43596632 165.48790561 -42.96023771 152.52598647 -52.37304688 135.33789062 C-56.01131525 128.42664187 -56.01131525 128.42664187 -55.94921875 124.02734375 C-55 121.625 -55 121.625 -53 120.625 C-45.83421851 119.8572377 -41.05884758 121.83035844 -35 125.625 C-29.94555158 129.78087982 -26.07284004 135.40647988 -24 141.625 C-23.91389486 143.05218637 -23.88228172 144.48306648 -23.88647461 145.9128418 C-23.88655014 146.77350754 -23.88662567 147.63417328 -23.88670349 148.5209198 C-23.89444542 149.90855278 -23.89444542 149.90855278 -23.90234375 151.32421875 C-23.9037587 152.27440384 -23.90517365 153.22458893 -23.90663147 154.2035675 C-23.91223125 157.23991029 -23.92478368 160.27617948 -23.9375 163.3125 C-23.94251503 165.37044164 -23.94707793 167.42838444 -23.95117188 169.48632812 C-23.9622006 174.53258046 -23.97946507 179.57877775 -24 184.625 C-18.72 184.625 -13.44 184.625 -8 184.625 C-8.01110306 182.39357742 -8.02220612 180.16215485 -8.03364563 177.8631134 C-8.135745 156.86478058 -8.2101944 135.86648043 -8.25906086 114.86795521 C-8.28485271 104.07161987 -8.32002209 93.27546656 -8.37719727 82.47924805 C-8.42700207 73.07027796 -8.45928387 63.66143969 -8.47044247 54.25234145 C-8.47696617 49.26930183 -8.49231917 44.28663933 -8.52865028 39.30372047 C-8.56256352 34.61447197 -8.57306241 29.92575628 -8.56553841 25.23639679 C-8.56691505 23.51464379 -8.57687551 21.79287315 -8.59602737 20.07122612 C-8.62089384 17.72076328 -8.61493048 15.37231389 -8.60127258 13.02180481 C-8.60588155 11.70640622 -8.61049051 10.39100763 -8.61523914 9.03574848 C-7.68954845 3.9039259 -5.13469111 1.06972732 0 0 Z " fill="#EFCFB3" transform="translate(112,151.375)"/>
<path d="M0 0 C15.18 0 30.36 0 46 0 C51 17 51 17 51 21 C58.27927904 21.70413941 62.32082444 18.84567358 68.30273438 15.0234375 C69.31883789 14.4046875 69.31883789 14.4046875 70.35546875 13.7734375 C70.96028076 13.38591309 71.56509277 12.99838867 72.18823242 12.59912109 C74 12 74 12 75.91847229 12.78198242 C77.97971464 13.98812991 79.44004863 15.19829467 81.11621094 16.88916016 C81.98666046 17.75983627 81.98666046 17.75983627 82.87469482 18.64810181 C83.79523651 19.58412735 83.79523651 19.58412735 84.734375 20.5390625 C85.37240051 21.17991791 86.01042603 21.82077332 86.66778564 22.48104858 C88.69994069 24.52437821 90.72502218 26.57455982 92.75 28.625 C94.1284453 30.0134786 95.50734636 31.4015049 96.88671875 32.7890625 C100.26311894 36.18748697 103.63319288 39.59207254 107 43 C105.58863685 47.45309407 103.8922642 50.99585792 101.375 54.9375 C98.53094349 59.66581755 97.13138459 62.54013174 98 68 C98.67804688 68.10957031 99.35609375 68.21914062 100.0546875 68.33203125 C100.98539063 68.49058594 101.91609375 68.64914063 102.875 68.8125 C104.23238281 69.03873047 104.23238281 69.03873047 105.6171875 69.26953125 C110.14386222 70.24700027 114.56429937 71.66928981 119 73 C119 88.18 119 103.36 119 119 C101 124 101 124 98 124 C97.29586059 131.27927904 100.15432642 135.32082444 103.9765625 141.30273438 C104.5953125 142.31883789 104.5953125 142.31883789 105.2265625 143.35546875 C105.61408691 143.96028076 106.00161133 144.56509277 106.40087891 145.18823242 C107 147 107 147 106.21801758 148.91847229 C105.01187009 150.97971464 103.80170533 152.44004863 102.11083984 154.11621094 C101.24016373 154.98666046 101.24016373 154.98666046 100.35189819 155.87469482 C99.72788116 156.48838928 99.10386414 157.10208374 98.4609375 157.734375 C97.82008209 158.37240051 97.17922668 159.01042603 96.51895142 159.66778564 C94.47562179 161.69994069 92.42544018 163.72502218 90.375 165.75 C88.9865214 167.1284453 87.5984951 168.50734636 86.2109375 169.88671875 C82.81251303 173.26311894 79.40792746 176.63319288 76 180 C71.54690593 178.58863685 68.00414208 176.8922642 64.0625 174.375 C59.33418245 171.53094349 56.45986826 170.13138459 51 171 C50.89042969 171.67804688 50.78085937 172.35609375 50.66796875 173.0546875 C50.50941406 173.98539063 50.35085938 174.91609375 50.1875 175.875 C50.03667969 176.77992188 49.88585937 177.68484375 49.73046875 178.6171875 C48.75299973 183.14386222 47.33071019 187.56429937 46 192 C30.82 192 15.64 192 0 192 C-5 174 -5 174 -5 171 C-12.27927904 170.29586059 -16.32082444 173.15432642 -22.30273438 176.9765625 C-22.98013672 177.3890625 -23.65753906 177.8015625 -24.35546875 178.2265625 C-24.96028076 178.61408691 -25.56509277 179.00161133 -26.18823242 179.40087891 C-28 180 -28 180 -29.91847229 179.21801758 C-31.97971464 178.01187009 -33.44004863 176.80170533 -35.11621094 175.11083984 C-35.69651062 174.5303891 -36.2768103 173.94993835 -36.87469482 173.35189819 C-37.48838928 172.72788116 -38.10208374 172.10386414 -38.734375 171.4609375 C-39.37240051 170.82008209 -40.01042603 170.17922668 -40.66778564 169.51895142 C-42.69994069 167.47562179 -44.72502218 165.42544018 -46.75 163.375 C-48.1284453 161.9865214 -49.50734636 160.5984951 -50.88671875 159.2109375 C-54.26311894 155.81251303 -57.63319288 152.40792746 -61 149 C-59.58863685 144.54690593 -57.8922642 141.00414208 -55.375 137.0625 C-52.53094349 132.33418245 -51.13138459 129.45986826 -52 124 C-52.67804688 123.89042969 -53.35609375 123.78085938 -54.0546875 123.66796875 C-54.98539062 123.50941406 -55.91609375 123.35085937 -56.875 123.1875 C-58.23238281 122.96126953 -58.23238281 122.96126953 -59.6171875 122.73046875 C-64.14386222 121.75299973 -68.56429937 120.33071019 -73 119 C-73 103.82 -73 88.64 -73 73 C-55 68 -55 68 -52 68 C-51.29586059 60.72072096 -54.15432642 56.67917556 -57.9765625 50.69726562 C-58.3890625 50.01986328 -58.8015625 49.34246094 -59.2265625 48.64453125 C-59.61408691 48.03971924 -60.00161133 47.43490723 -60.40087891 46.81176758 C-61 45 -61 45 -60.21801758 43.08152771 C-59.01187009 41.02028536 -57.80170533 39.55995137 -56.11083984 37.88378906 C-55.5303891 37.30348938 -54.94993835 36.7231897 -54.35189819 36.12530518 C-53.41587265 35.20476349 -53.41587265 35.20476349 -52.4609375 34.265625 C-51.82008209 33.62759949 -51.17922668 32.98957397 -50.51895142 32.33221436 C-48.47562179 30.30005931 -46.42544018 28.27497782 -44.375 26.25 C-42.9865214 24.8715547 -41.5984951 23.49265364 -40.2109375 22.11328125 C-36.81251303 18.73688106 -33.40792746 15.36680712 -30 12 C-25.54690593 13.41136315 -22.00414208 15.1077358 -18.0625 17.625 C-13.33418245 20.46905651 -10.45986826 21.86861541 -5 21 C-4.89042969 20.32195313 -4.78085937 19.64390625 -4.66796875 18.9453125 C-4.43013672 17.54925781 -4.43013672 17.54925781 -4.1875 16.125 C-4.03667969 15.22007813 -3.88585937 14.31515625 -3.73046875 13.3828125 C-2.75299973 8.85613778 -1.33071019 4.43570063 0 0 Z M13 16 C10.60126854 23.01211799 10.60126854 23.01211799 8.8125 30.0625 C8.57466797 31.19365234 8.57466797 31.19365234 8.33203125 32.34765625 C8.22246094 32.89292969 8.11289062 33.43820313 8 34 C7.443125 34.09796875 6.88625 34.1959375 6.3125 34.296875 C1.30435667 35.27820038 -2.70326451 36.64748687 -7.078125 39.29296875 C-9.77658504 40.2856949 -11.26720443 39.84557352 -14 39 C-16.86408498 37.4968632 -19.60809752 35.84755295 -22.37890625 34.1796875 C-24.82135371 32.86668858 -24.82135371 32.86668858 -26.9765625 32.9921875 C-30.08009513 34.53796244 -32.3833588 36.83033529 -34.8125 39.25 C-35.32748047 39.72824219 -35.84246094 40.20648438 -36.37304688 40.69921875 C-39.31824298 43.59279569 -39.31824298 43.59279569 -40.01953125 47.515625 C-38.44857436 51.34370385 -36.3289771 54.75522651 -34.1796875 58.28125 C-32.77008698 61.52986576 -32.90132686 62.67843004 -34 66 C-35.23714764 69.12329076 -36.58815981 72.18329792 -37.94140625 75.2578125 C-39.18006823 77.97654583 -39.18006823 77.97654583 -39 81 C-40.13179688 81.27714844 -41.26359375 81.55429688 -42.4296875 81.83984375 C-43.91148902 82.20560488 -45.39325818 82.57149711 -46.875 82.9375 C-47.62136719 83.11990234 -48.36773437 83.30230469 -49.13671875 83.49023438 C-53.17039125 84.45209692 -53.17039125 84.45209692 -57 86 C-57 92.6 -57 99.2 -57 106 C-53.101875 107.2375 -53.101875 107.2375 -49.125 108.5 C-47.89934326 108.89155273 -47.89934326 108.89155273 -46.64892578 109.29101562 C-42.89807948 110.55056467 -42.89807948 110.55056467 -39 111 C-38.72736328 112.08667969 -38.72736328 112.08667969 -38.44921875 113.1953125 C-37.32975715 117.50093403 -36.30560642 121.41061619 -34.25 125.375 C-32.71105474 128.60678504 -33.02258421 129.6086634 -34 133 C-35.5031368 135.86408498 -37.15244705 138.60809752 -38.8203125 141.37890625 C-40.13331142 143.82135371 -40.13331142 143.82135371 -40.0078125 145.9765625 C-38.46203756 149.08009513 -36.16966471 151.3833588 -33.75 153.8125 C-33.27175781 154.32748047 -32.79351562 154.84246094 -32.30078125 155.37304688 C-29.40720431 158.31824298 -29.40720431 158.31824298 -25.484375 159.01953125 C-21.65629615 157.44857436 -18.24477349 155.3289771 -14.71875 153.1796875 C-10.50594629 151.35171808 -8.13988485 152.5618105 -3.9921875 154.15625 C-2.96351563 154.5996875 -1.93484375 155.043125 -0.875 155.5 C2.07422659 156.76500492 4.95517304 157.98505768 8 159 C9.1328125 162.0546875 9.1328125 162.0546875 10.125 165.875 C10.62386719 167.75832031 10.62386719 167.75832031 11.1328125 169.6796875 C11.41898437 170.77539062 11.70515625 171.87109375 12 173 C12.33 173.99 12.66 174.98 13 176 C19.6 176 26.2 176 33 176 C33.45375 174.494375 33.9075 172.98875 34.375 171.4375 C34.63023437 170.59058594 34.88546875 169.74367187 35.1484375 168.87109375 C36.08739156 165.90250364 36.08739156 165.90250364 36.64453125 162.37109375 C38 159 38 159 41.30078125 157.0390625 C42.62789487 156.53990932 43.96597535 156.06913492 45.3125 155.625 C45.97701172 155.37878906 46.64152344 155.13257813 47.32617188 154.87890625 C49.19947534 154.20073704 51.09959078 153.59801684 53 153 C53.84820312 152.70867187 54.69640625 152.41734375 55.5703125 152.1171875 C59.26361808 151.93905379 61.43910156 153.61799862 64.5625 155.5 C68.54055712 158.08711527 68.54055712 158.08711527 73.0390625 159.046875 C76.07424412 157.42649915 78.39776762 155.1553121 80.8125 152.75 C81.32748047 152.27175781 81.84246094 151.79351562 82.37304688 151.30078125 C85.31824298 148.40720431 85.31824298 148.40720431 86.01953125 144.484375 C84.44857436 140.65629615 82.3289771 137.24477349 80.1796875 133.71875 C78.76041017 130.44783271 78.96872941 129.36414484 80 126 C80.4021875 124.22109375 80.4021875 124.22109375 80.8125 122.40625 C83.64111135 112.42774839 83.64111135 112.42774839 87.94824219 109.82080078 C92.91555041 107.79366077 97.64280322 107.03023015 103 106 C103 99.4 103 92.8 103 86 C100.298125 85.443125 97.59625 84.88625 94.8125 84.3125 C89.90731871 83.07288037 86.81286628 82.15497187 83.828125 77.9140625 C82.63064171 74.6246794 81.77100021 71.41069585 81 68 C80.61714844 67.31035156 80.23429688 66.62070313 79.83984375 65.91015625 C78.65256709 63.20979212 79.11941375 61.78852311 80 59 C81.5031368 56.13591502 83.15244705 53.39190248 84.8203125 50.62109375 C86.13331142 48.17864629 86.13331142 48.17864629 86.0078125 46.0234375 C84.46203756 42.91990487 82.16966471 40.6166412 79.75 38.1875 C79.27175781 37.67251953 78.79351562 37.15753906 78.30078125 36.62695312 C75.40720431 33.68175702 75.40720431 33.68175702 71.484375 32.98046875 C67.65629615 34.55142564 64.24477349 36.6710229 60.71875 38.8203125 C56.43572201 40.67875281 53.98852709 39.36107876 49.73828125 37.80859375 C48.60777344 37.35613281 47.47726562 36.90367188 46.3125 36.4375 C42.27152242 34.65438509 42.27152242 34.65438509 38 34 C37.70996094 32.67935547 37.70996094 32.67935547 37.4140625 31.33203125 C37.02347656 29.58986328 37.02347656 29.58986328 36.625 27.8125 C36.36976563 26.66394531 36.11453125 25.51539063 35.8515625 24.33203125 C34.99063971 20.66261322 34.99063971 20.66261322 33 16 C26.4 16 19.8 16 13 16 Z " fill="#010100" transform="translate(385,16)"/>
<path d="M0 0 C10.70827845 8.92656489 18.96444149 22.16259127 20.57421875 36.1875 C21.94191398 52.93650622 17.76982841 68.76939997 6.94921875 81.8125 C3.74361641 85.27085175 0.26494159 87.98737889 -3.55078125 90.75 C-13.28672188 97.87415807 -16.41269576 104.56053483 -19.42578125 116.1875 C-22.06578125 116.1875 -24.70578125 116.1875 -27.42578125 116.1875 C-27.62871345 109.15878666 -27.76875444 102.13082858 -27.86523438 95.09985352 C-27.90545322 92.70861585 -27.96003805 90.31757476 -28.02929688 87.92700195 C-28.1264147 84.48860233 -28.17172431 81.05280252 -28.20703125 77.61328125 C-28.24832153 76.54539871 -28.28961182 75.47751617 -28.33215332 74.37727356 C-28.33392938 71.43604053 -28.26311135 69.00860321 -27.42578125 66.1875 C-25.02726994 63.81149561 -22.44691892 62.61078595 -19.42578125 61.1875 C-14.41445072 56.17616947 -12.30006975 50.1866142 -11.98828125 43.1875 C-12.26628629 35.92600833 -15.00516215 31.24077721 -20.23828125 26.3125 C-25.94578886 21.69814302 -31.73514874 20.6862782 -38.94140625 20.8828125 C-46.12738991 21.76411238 -50.59193538 25.76208201 -55.015625 31.25390625 C-58.89124792 36.56812605 -59.16187592 41.76763637 -58.42578125 48.1875 C-56.66923785 55.3504105 -53.63128144 60.1593683 -47.42578125 64.1875 C-46.10578125 64.8475 -44.78578125 65.5075 -43.42578125 66.1875 C-43.42578125 82.6875 -43.42578125 99.1875 -43.42578125 116.1875 C-46.06578125 116.1875 -48.70578125 116.1875 -51.42578125 116.1875 C-51.64492188 115.341875 -51.8640625 114.49625 -52.08984375 113.625 C-56.05372201 99.44527288 -63.06012424 93.42073463 -74.61328125 84.8125 C-84.0560362 75.99926205 -91.0608097 62.01332093 -91.76171875 49.0234375 C-92.09560145 32.55861776 -87.96070649 17.42756817 -76.4609375 5.09375 C-54.87802906 -15.12210282 -24.0061458 -17.93695918 0 0 Z " fill="#FDE8A5" transform="translate(443.42578125,267.8125)"/>
<path d="M0 0 C2.84100433 -0.28618725 5.46310581 -0.37815744 8.30517578 -0.34057617 C9.16378204 -0.34101425 10.02238831 -0.34145233 10.90701294 -0.34190369 C13.75334178 -0.33980874 16.59908619 -0.31644467 19.4453125 -0.29296875 C21.41543252 -0.2873753 23.3855567 -0.28310402 25.35568237 -0.28010559 C30.5475003 -0.26863705 35.73906746 -0.23915262 40.93078613 -0.20599365 C46.22595833 -0.17533601 51.52117094 -0.16160948 56.81640625 -0.14648438 C67.21104783 -0.11428482 77.60550308 -0.06306426 88 0 C89.13184395 2.23987681 90.26110132 4.48099583 91.38891602 6.72290039 C91.70789101 7.3534861 92.026866 7.98407181 92.3555069 8.63376617 C101.44573299 26.73118743 100 42.97286698 100 64 C63.04 64 26.08 64 -12 64 C-12 18 -12 18 0 0 Z " fill="#FE816D" transform="translate(100,424)"/>
<path d="M0 0 C9.90782547 7.37711212 18.07480932 17.89456157 20.12890625 30.37890625 C21.49538613 45.6885419 18.94797401 59.18648799 9.21875 71.40625 C0.27759828 81.12553151 -11.50806206 87.04025013 -24.7109375 87.953125 C-39.92903227 88.41807267 -51.3682185 83.45891506 -62.3671875 73.125 C-72.22952863 62.87622983 -76.02865441 50.13982375 -75.87109375 36.1484375 C-75.08501123 23.45466051 -69.28821817 12.39159777 -60.0859375 3.74609375 C-42.49466141 -10.78582998 -19.32056806 -12.58811728 0 0 Z M-52.66015625 19.7421875 C-58.616998 28.51445197 -59.4687659 36.20748431 -58.66015625 46.7421875 C-56.4763781 55.98892813 -51.50117524 62.17356983 -43.53515625 67.1171875 C-35.67473713 71.69631017 -26.61152851 72.14770726 -17.765625 70.05859375 C-7.88209839 66.39971524 -2.26449355 60.10537007 2.33984375 50.7421875 C5.11450952 42.6031679 4.20921078 32.59655643 0.58984375 24.91796875 C-3.74614925 17.37063094 -10.21518351 11.9393373 -18.55078125 9.09765625 C-31.84234331 6.8577819 -43.62276331 9.45964265 -52.66015625 19.7421875 Z " fill="#020100" transform="translate(435.66015625,72.2578125)"/>
<path d="M0 0 C15.84 0 31.68 0 48 0 C48 47.52 48 95.04 48 144 C61.2 144 74.4 144 88 144 C88 149.28 88 154.56 88 160 C69.52 160 51.04 160 32 160 C32 112.48 32 64.96 32 16 C21.44 16 10.88 16 0 16 C0 10.72 0 5.44 0 0 Z " fill="#000000" transform="translate(232,152)"/>
<path d="M0 0 C18.48 0 36.96 0 56 0 C58.25197358 6.75592073 58.25197358 6.75592073 58.6328125 10.49609375 C58.71660156 11.30240234 58.80039063 12.10871094 58.88671875 12.93945312 C58.96535156 13.76380859 59.04398438 14.58816406 59.125 15.4375 C59.21136719 16.25798828 59.29773438 17.07847656 59.38671875 17.92382812 C59.86577634 22.68778972 60 27.166282 60 32 C38.88 32 17.76 32 -4 32 C-2.5 5 -2.5 5 0 0 Z " fill="#68D4F2" transform="translate(84,72)"/>
<path d="M0 0 C21.12 0 42.24 0 64 0 C63.10564001 16.09847974 61.11628665 30.5858202 57 46 C56.67 46 56.34 46 56 46 C55.97421875 45.2265625 55.9484375 44.453125 55.921875 43.65625 C55.42112425 34.46064536 53.97389377 28.52998792 47.1875 22.125 C41.47999239 17.51064302 35.69063251 16.4987782 28.484375 16.6953125 C21.30204014 17.57616489 17.00809902 21.56494463 12.4453125 26.90234375 C9.47251413 31.21691868 8.71649728 35.13312453 8.375 40.3125 C8.30023438 41.38113281 8.22546875 42.44976562 8.1484375 43.55078125 C8.09945312 44.35902344 8.05046875 45.16726562 8 46 C5.78056289 43.78056289 5.59388402 42.97685238 5 39.9921875 C4.8359668 39.17782227 4.67193359 38.36345703 4.50292969 37.52441406 C4.25397949 36.2129541 4.25397949 36.2129541 4 34.875 C3.82629883 33.98006836 3.65259766 33.08513672 3.47363281 32.16308594 C1.4406355 21.42596128 0 10.95716872 0 0 Z " fill="#67D2EF" transform="translate(80,120)"/>
<path d="M0 0 C0 5.28 0 10.56 0 16 C-1.17691406 15.80535156 -2.35382813 15.61070313 -3.56640625 15.41015625 C-9.32469621 14.86996449 -14.57617609 14.77108149 -20 17 C-23.40144419 20.00539434 -26.21883398 23.42549532 -29.09002686 26.92352295 C-35.14044168 34.28284665 -40.21902696 40.24965906 -50.12974548 41.36628723 C-60.129842 41.98070032 -70.0643207 41.10278049 -80 40 C-80 34.72 -80 29.44 -80 24 C-78.24558594 24.19464844 -76.49117187 24.38929687 -74.68359375 24.58984375 C-61.09051412 25.68240612 -61.09051412 25.68240612 -48.88378906 20.6953125 C-45.88457125 17.80700547 -43.20892114 14.64712679 -40.5625 11.4375 C-28.77954786 -2.84365717 -17.59601683 -2.57048376 0 0 Z " fill="#000000" transform="translate(312,48)"/>
<path d="M0 0 C11.22 0 22.44 0 34 0 C42 20 42 20 42 32 C29.13 32 16.26 32 3 32 C2.09292358 28.37169432 1.71822381 25.20061586 1.46484375 21.484375 C1.38613037 20.35741211 1.30741699 19.23044922 1.22631836 18.06933594 C1.1310083 16.64395508 1.03569824 15.21857422 0.9375 13.75 C0.628125 9.2125 0.31875 4.675 0 0 Z " fill="#68D3F1" transform="translate(157,72)"/>
<path d="M0 0 C11.22 0 22.44 0 34 0 C33.690625 4.5375 33.38125 9.075 33.0625 13.75 C32.96718994 15.17538086 32.87187988 16.60076172 32.77368164 18.06933594 C32.65561157 19.75978027 32.65561157 19.75978027 32.53515625 21.484375 C32.456604 22.63647461 32.37805176 23.78857422 32.29711914 24.97558594 C32 28 32 28 31 32 C18.13 32 5.26 32 -8 32 C-8 25.26036041 -7.76586474 20.93739341 -5.6875 14.875 C-5.36749023 13.87919922 -5.36749023 13.87919922 -5.04101562 12.86328125 C-3.58676202 8.42672251 -1.85680094 4.33253553 0 0 Z " fill="#68D4F1" transform="translate(33,72)"/>
<path d="M0 0 C12.87 0 25.74 0 39 0 C39 9.00550148 39 9.00550148 38.01171875 12.25390625 C37.79966797 12.96353516 37.58761719 13.67316406 37.36914062 14.40429688 C37.14419922 15.11650391 36.91925781 15.82871094 36.6875 16.5625 C36.36749023 17.63661133 36.36749023 17.63661133 36.04101562 18.73242188 C34.63065934 23.35923249 32.93257489 27.4906586 31 32 C19.78 32 8.56 32 -3 32 C-2.17831673 21.31811747 -1.12153407 10.65457362 0 0 Z " fill="#68D5F3" transform="translate(160,120)"/>
<path d="M0 0 C12.87 0 25.74 0 39 0 C39.495 3.980625 39.99 7.96125 40.5 12.0625 C40.65662109 13.30394775 40.81324219 14.54539551 40.97460938 15.82446289 C41.09642578 16.8221167 41.21824219 17.81977051 41.34375 18.84765625 C41.46943359 19.85836182 41.59511719 20.86906738 41.72460938 21.91040039 C42.02331467 25.26156663 42 28.63554759 42 32 C30.78 32 19.56 32 8 32 C7.05125 29.525 6.1025 27.05 5.125 24.5 C4.82996582 23.73751953 4.53493164 22.97503906 4.23095703 22.18945312 C1.2687415 14.3728844 0 8.52008587 0 0 Z " fill="#68D5F3" transform="translate(25,120)"/>
<path d="M0 0 C7.21736789 2.15583716 11.50310678 8.67745895 15.01953125 14.94921875 C21.40625 27.70466549 21.40625 27.70466549 21.40625 31.71875 C5.56625 31.71875 -10.27375 31.71875 -26.59375 31.71875 C-23.02171853 19.81197842 -16.10687087 -2.30098155 0 0 Z " fill="#67D3F1" transform="translate(114.59375,24.28125)"/>
<path d="M0 0 C21.12 0 42.24 0 64 0 C64 5.28 64 10.56 64 16 C42.88 16 21.76 16 0 16 C0 10.72 0 5.44 0 0 Z " fill="#000000" transform="translate(232,104)"/>
<path d="M0 0 C1.12591553 0.00523682 2.25183105 0.01047363 3.41186523 0.01586914 C4.62680664 0.0190918 5.84174805 0.02231445 7.09350586 0.02563477 C8.37290039 0.03401367 9.65229492 0.04239258 10.97045898 0.05102539 C12.2537207 0.05553711 13.53698242 0.06004883 14.85913086 0.06469727 C18.04211921 0.07652994 21.22501661 0.09301471 24.40795898 0.11352539 C13.98349304 12.52671224 1.90629648 21.7958114 -13.59204102 27.11352539 C-13.15613647 26.03216309 -13.15613647 26.03216309 -12.71142578 24.92895508 C-11.67324933 22.31777715 -10.67016118 19.6970515 -9.68188477 17.06665039 C-9.3319043 16.13981445 -8.98192383 15.21297852 -8.62133789 14.25805664 C-7.88782691 12.31339962 -7.15608209 10.36807559 -6.42602539 8.42211914 C-6.07733398 7.50043945 -5.72864258 6.57875977 -5.36938477 5.62915039 C-5.05219482 4.78642578 -4.73500488 3.94370117 -4.40820312 3.07543945 C-3.1868759 0.13957778 -3.1868759 0.13957778 0 0 Z " fill="#66D0ED" transform="translate(155.592041015625,167.886474609375)"/>
<path d="M0 0 C8.91 0 17.82 0 27 0 C28.65 3.96 30.3 7.92 32 12 C33.30033015 14.88962255 34.63605137 17.75767886 35.984375 20.625 C36.89391263 22.75191876 37.51933044 24.74294295 38 27 C22.83914248 21.40876177 10.12270846 12.65338558 0 0 Z " fill="#66D0ED" transform="translate(44,168)"/>
<path d="M0 0 C14.36334627 6.06877463 26.30585078 13.55229004 37 25 C37 25.66 37 26.32 37 27 C28.42 27 19.84 27 11 27 C9.55625 23.473125 8.1125 19.94625 6.625 16.3125 C6.17334473 15.20946533 5.72168945 14.10643066 5.25634766 12.9699707 C4.89589355 12.08913818 4.53543945 11.20830566 4.1640625 10.30078125 C3.79748535 9.40528564 3.4309082 8.50979004 3.05322266 7.5871582 C2.02528007 5.06209849 1.00975883 2.53237936 0 0 Z " fill="#66D1EF" transform="translate(142,29)"/>
<path d="M0 0 C0 3.07697203 -0.4833323 4.49629112 -1.6796875 7.2734375 C-2.20755859 8.5109375 -2.20755859 8.5109375 -2.74609375 9.7734375 C-3.11863281 10.63195313 -3.49117187 11.49046875 -3.875 12.375 C-4.60187247 14.07017962 -5.32844374 15.76548843 -6.0546875 17.4609375 C-6.37937012 18.21165527 -6.70405273 18.96237305 -7.03857422 19.73583984 C-8.06059903 22.14271087 -9.0288604 24.57215101 -10 27 C-18.58 27 -27.16 27 -36 27 C-29.32676884 13.65353767 -12.84173681 6.11831439 0 0 Z " fill="#67D2EF" transform="translate(81,29)"/>
<path d="M0 0 C10.56 0 21.12 0 32 0 C30.96399638 7.25202537 30.10415577 9.38254857 25 14 C20.78110425 16.62255682 15.8363346 16.69212562 11 16 C6.64319186 13.78049397 3.60292703 11.1454023 1 7 C0.67 4.69 0.34 2.38 0 0 Z " fill="#A6AEB8" transform="translate(392,400)"/>
<path d="M0 0 C4.0743356 0.84881992 5.54405875 2.30225596 8 5.625 C8.625 8.625 8.625 8.625 8 11.625 C5.54405875 14.94774404 4.0743356 16.40118008 0 17.25 C-4.0743356 16.40118008 -5.54405875 14.94774404 -8 11.625 C-8.625 8.625 -8.625 8.625 -8 5.625 C-5.54405875 2.30225596 -4.0743356 0.84881992 0 0 Z " fill="#F0CC6A" transform="translate(408,303.375)"/>
</svg>
