<svg xmlns="http://www.w3.org/2000/svg" viewBox="0 0 100 100" fill="none">
  <defs>
    <radialGradient id="globeGrad" cx="30%" cy="30%" r="80%">
      <stop offset="0%" style="stop-color:#66AAFF;stop-opacity:1" />
      <stop offset="50%" style="stop-color:#3388FF;stop-opacity:1" />
      <stop offset="100%" style="stop-color:#0066CC;stop-opacity:1" />
    </radialGradient>
    <linearGradient id="continentGrad" x1="0%" y1="0%" x2="100%" y2="100%">
      <stop offset="0%" style="stop-color:#004488;stop-opacity:1" />
      <stop offset="100%" style="stop-color:#002244;stop-opacity:1" />
    </linearGradient>
  </defs>
  <!-- 3D Shadow -->
  <circle cx="52" cy="52" r="32" fill="#003366" opacity="0.6"/>
  
  <!-- Main Globe -->
  <circle cx="50" cy="50" r="32" fill="url(#globeGrad)" stroke="#66AAFF" stroke-width="1"/>
  
  <!-- Continents -->
  <path d="M35 35 Q45 30 55 35 L60 40 Q55 45 50 40 L45 45 Q40 40 35 35 Z" fill="url(#continentGrad)"/>
  <path d="M25 55 Q35 50 45 55 L40 65 Q30 65 25 55 Z" fill="url(#continentGrad)"/>
  <path d="M60 55 Q70 60 75 65 L70 70 Q65 65 60 55 Z" fill="url(#continentGrad)"/>
  
  <!-- Latitude Lines -->
  <ellipse cx="50" cy="40" rx="28" ry="3" fill="none" stroke="#004488" stroke-width="1" opacity="0.5"/>
  <ellipse cx="50" cy="50" rx="30" ry="3" fill="none" stroke="#004488" stroke-width="1" opacity="0.5"/>
  <ellipse cx="50" cy="60" rx="28" ry="3" fill="none" stroke="#004488" stroke-width="1" opacity="0.5"/>
  
  <!-- Longitude Lines -->
  <ellipse cx="50" cy="50" rx="15" ry="30" fill="none" stroke="#004488" stroke-width="1" opacity="0.5"/>
  <ellipse cx="50" cy="50" rx="30" ry="30" fill="none" stroke="#004488" stroke-width="1" opacity="0.5"/>
  
  <!-- Highlight -->
  <circle cx="42" cy="42" r="8" fill="#FFFFFF" opacity="0.4"/>
  <circle cx="40" cy="40" r="3" fill="#FFFFFF" opacity="0.8"/>
</svg>