<?xml version="1.0" encoding="UTF-8"?>
<svg version="1.1" xmlns="http://www.w3.org/2000/svg" width="512" height="512">
<path d="M0 0 C1.46049774 0.00273422 1.46049774 0.00273422 2.95050049 0.00552368 C16.9687164 0.04974564 30.60882275 0.45111782 44.375 3.3125 C45.23996094 3.47878906 46.10492188 3.64507812 46.99609375 3.81640625 C84.98345612 11.17407328 120.14686397 27.18484564 150.375 51.3125 C150.9107666 51.73257324 151.4465332 52.15264648 151.99853516 52.58544922 C167.30881667 64.64970062 181.76654033 78.8797619 193.19677734 94.68994141 C194.38516421 96.32649738 195.60517469 97.93511288 196.83203125 99.54296875 C204.33930666 109.53148735 210.45650596 120.32650925 216.375 131.3125 C216.75398438 132.01149414 217.13296875 132.71048828 217.5234375 133.43066406 C236.52719892 169.13415944 242.76188228 210.37765151 242.375 250.3125 C243.20902344 250.36148438 244.04304688 250.41046875 244.90234375 250.4609375 C262.27568313 251.61517998 262.27568313 251.61517998 267.3125 255.6875 C270.22007016 259.38804383 271.62292163 261.99410884 271.63569641 266.72779846 C271.64278122 267.60615356 271.64986603 268.48450867 271.65716553 269.38948059 C271.65468811 270.34577866 271.65221069 271.30207672 271.6496582 272.28735352 C271.65476913 273.30105011 271.65988007 274.3147467 271.66514587 275.35916138 C271.67907264 278.71996942 271.67808069 282.0805727 271.67578125 285.44140625 C271.67967066 287.78913956 271.68400584 290.13687217 271.68876648 292.48460388 C271.69623835 297.41838858 271.69593344 302.35210178 271.69067383 307.28588867 C271.68492258 313.55939189 271.70169955 319.83259568 271.7250185 326.10604954 C271.7398832 330.96475391 271.74060962 335.82338865 271.73750877 340.68211174 C271.7380171 342.99138919 271.74316135 345.30067106 271.75332069 347.60992622 C271.90787325 387.70698103 261.10434501 426.47094806 234.375 457.3125 C231.94010262 458.52994869 230.97245125 458.15027159 228.3125 457.8125 C223.70920387 457.74524405 221.63717956 459.26600377 218.3125 462.375 C215.39701035 465.58254215 214.43915474 466.67095263 214 471.0625 C214.12375 472.135 214.2475 473.2075 214.375 474.3125 C207.31328947 489.3276729 182.96309688 497.71715398 168.73242188 504.2265625 C166.45222394 505.27692709 164.18674526 506.35456471 161.921875 507.4375 C160.53180835 508.08453423 159.14120976 508.73042727 157.75 509.375 C157.13592285 509.67414307 156.5218457 509.97328613 155.88916016 510.28149414 C149.38687783 513.22451199 144.35563593 513.34503016 137.74755859 511.0559082 C133.39286019 509.32454167 129.13383174 507.39039411 124.875 505.4375 C123.33693207 504.74377518 121.79884606 504.05009044 120.26074219 503.35644531 C103.43704106 495.70576611 88.33827324 486.96312561 74.47924805 474.62475586 C72.48126786 473.11031857 72.48126786 473.11031857 70.20556641 473.36914062 C69.42874512 473.56701172 68.65192383 473.76488281 67.8515625 473.96875 C66.97145508 474.17886719 66.09134766 474.38898438 65.18457031 474.60546875 C64.25741211 474.83878906 63.33025391 475.07210938 62.375 475.3125 C60.48843402 475.72545344 58.60036145 476.13157656 56.7109375 476.53125 C53.74741586 477.16768482 50.78433842 477.80493546 47.82421875 478.45703125 C32.26017467 481.77329162 17.1726869 482.68981468 1.3125 482.625 C0.36312561 482.62284485 -0.58624878 482.6206897 -1.56439209 482.61846924 C-15.7693888 482.5667473 -29.6658884 482.17795393 -43.625 479.3125 C-45.10178223 479.01448486 -45.10178223 479.01448486 -46.60839844 478.71044922 C-101.36377235 467.32085368 -153.0340355 437.81330838 -187.625 393.3125 C-188.41261719 392.33023437 -189.20023438 391.34796875 -190.01171875 390.3359375 C-223.73470578 347.94894194 -240.8348028 295.56827668 -240.875 241.625 C-240.87567474 240.80813721 -240.87634949 239.99127441 -240.87704468 239.1496582 C-240.85902631 225.3587044 -240.15398768 211.90065624 -237.625 198.3125 C-237.44275879 197.33216797 -237.26051758 196.35183594 -237.07275391 195.34179688 C-236.50333332 192.40573686 -235.8903091 189.48386297 -235.25 186.5625 C-235.06542236 185.6859375 -234.88084473 184.809375 -234.69067383 183.90625 C-233.74157927 179.95411484 -233.07468082 177.78109943 -230.2109375 174.796875 C-227.625 173.3125 -227.625 173.3125 -225.55615234 172.94458008 C-224.60023193 172.63170044 -224.60023193 172.63170044 -223.625 172.3125 C-222.49815047 169.58137259 -221.64336686 167.0794264 -220.875 164.25 C-220.54435547 163.11208008 -220.54435547 163.11208008 -220.20703125 161.95117188 C-219.66451101 160.07593887 -219.14276894 158.19471741 -218.625 156.3125 C-219.285 156.3125 -219.945 156.3125 -220.625 156.3125 C-222.38647329 153.7220981 -222.62887128 152.37176043 -222.421875 149.203125 C-221.48035033 144.60626928 -219.85674557 140.8251073 -217.8125 136.625 C-217.41579102 135.80338379 -217.01908203 134.98176758 -216.61035156 134.13525391 C-208.6398071 117.97054862 -198.95902071 103.29593829 -187.625 89.3125 C-186.93954102 88.45350098 -186.93954102 88.45350098 -186.24023438 87.57714844 C-175.52035061 74.18126406 -163.30807673 61.6796222 -149.625 51.3125 C-149.09680664 50.90257812 -148.56861328 50.49265625 -148.02441406 50.0703125 C-115.9138738 25.19154434 -77.77285753 8.61641225 -37.625 2.3125 C-36.47306152 2.12921143 -35.32112305 1.94592285 -34.13427734 1.75708008 C-22.75466337 0.13255402 -11.48169574 -0.04456327 0 0 Z " fill="#010202" transform="translate(240.625,-0.3125)"/>
<path d="M0 0 C0.88300781 0.60585938 1.76601563 1.21171875 2.67578125 1.8359375 C5.19945123 3.75910747 7.15786517 5.41288417 9 8 C9.36862549 10.90292577 9.19607361 13.47023773 8.92578125 16.37890625 C9.05392027 20.90423693 11.8937172 23.03856976 15 26 C15.66 26.99 16.32 27.98 17 29 C19.00280075 29.34996442 19.00280075 29.34996442 21.25 29.4375 C24.54669716 30.08837279 25.697997 30.61076638 27.78515625 33.30078125 C34.10559891 45.50521657 36.72590721 58.03056464 36.5625 71.6875 C36.54606445 73.65033936 36.54606445 73.65033936 36.52929688 75.65283203 C35.98226745 100.30258568 26.46519453 120.81502853 9.56640625 138.5546875 C-10.69861753 157.78815834 -34.77099759 163.81338387 -62.06982422 163.12744141 C-85.05343987 162.12782073 -105.38076053 150.45093486 -121 134 C-138.13401524 114.53814066 -145.23497354 90.28844454 -144.19091797 64.73291016 C-142.50941818 40.66295019 -129.3792391 19.44602513 -111.83056641 3.56445312 C-80.35687367 -23.33384283 -33.14407717 -24.15149809 0 0 Z " fill="#B9EA6B" transform="translate(440,285)"/>
<path d="M0 0 C2.33666667 0.85164922 3.95420127 1.92305014 5.93457031 3.42504883 C6.66168213 3.96750244 7.38879395 4.50995605 8.13793945 5.06884766 C8.90871826 5.64916748 9.67949707 6.2294873 10.47363281 6.82739258 C27.40386561 19.28363102 45.89343597 28.85221392 66.09863281 34.76489258 C67.30261719 35.12325195 68.50660156 35.48161133 69.74707031 35.85083008 C80.90265407 38.90999016 92.21167965 40.20367336 103.6953125 41.43945312 C105.89550801 41.73738695 107.95279134 42.20846562 110.09863281 42.76489258 C110.19198748 55.31013987 110.26272611 67.85530231 110.3058815 80.40082836 C110.32661101 86.22844544 110.35465583 92.05582204 110.40039062 97.88330078 C110.44437715 103.52437459 110.46787941 109.16521951 110.47814178 114.8064518 C110.48543965 116.94105945 110.49968509 119.07565692 110.52155304 121.21016502 C110.66229722 135.53943601 109.31627075 148.79633635 106.09863281 162.76489258 C105.86492981 163.82528244 105.63122681 164.8856723 105.39044189 165.97819519 C100.7506277 186.09568628 90.25887838 204.95472569 77.38769531 220.88208008 C75.53077526 223.59430876 75.76372984 225.549824 76.09863281 228.76489258 C76.75863281 230.08489258 77.41863281 231.40489258 78.09863281 232.76489258 C74.46863281 236.39489258 70.83863281 240.02489258 67.09863281 243.76489258 C65.44863281 243.10489258 63.79863281 242.44489258 62.09863281 241.76489258 C56.77412995 241.97288097 54.07984679 243.12493358 50.09863281 246.57739258 C38.04105914 256.05443421 23.52959888 262.46554252 9.53613281 268.57739258 C8.38649048 269.09281616 8.38649048 269.09281616 7.21362305 269.61865234 C6.49376221 269.92085693 5.77390137 270.22306152 5.03222656 270.53442383 C4.41404053 270.79843994 3.79585449 271.06245605 3.15893555 271.33447266 C-4.32983899 272.8989601 -12.16986639 267.81544931 -18.77636719 264.82739258 C-19.42587341 264.53521851 -20.07537964 264.24304443 -20.74456787 263.9420166 C-35.55718151 257.25038352 -48.65110489 249.56541969 -60.90136719 238.76489258 C-61.87589844 237.93473633 -62.85042969 237.10458008 -63.85449219 236.24926758 C-83.43993347 219.2603214 -96.62964126 196.36511123 -104.71386719 171.95239258 C-104.99182129 171.13706055 -105.26977539 170.32172852 -105.55615234 169.48168945 C-110.89537523 152.51836416 -111.33083095 134.99486154 -111.19433594 117.37426758 C-111.18872246 115.20567116 -111.18446068 113.03707087 -111.18147278 110.86846924 C-111.17016166 105.23304246 -111.14081718 99.5978574 -111.10736084 93.96252441 C-111.07635928 88.18313871 -111.06290396 82.40371293 -111.04785156 76.62426758 C-111.01593068 65.33770457 -110.96490628 54.05131887 -110.90136719 42.76489258 C-110.05051041 42.62521057 -109.19965363 42.48552856 -108.32301331 42.34161377 C-105.11228605 41.81348997 -101.90188157 41.28347805 -98.69166565 40.7522583 C-97.31233152 40.52438985 -95.9328791 40.29723604 -94.55329895 40.07086182 C-74.74504358 36.81919663 -57.06664041 32.4601538 -38.90136719 23.76489258 C-38.20817383 23.43618164 -37.51498047 23.1074707 -36.80078125 22.76879883 C-25.14116862 17.1516741 -13.86869489 9.91837289 -4.15917969 1.34301758 C-1.90136719 -0.23510742 -1.90136719 -0.23510742 0 0 Z M-71.90136719 77.76489258 C-87.02307468 97.07465321 -93.0730859 120.55137199 -90.90136719 144.76489258 C-90.12083602 150.27833348 -88.65403342 155.47825555 -86.90136719 160.76489258 C-86.52753906 161.90313477 -86.15371094 163.04137695 -85.76855469 164.21411133 C-77.01775335 188.69896938 -59.57278074 205.703366 -36.83886719 217.33129883 C-24.78285129 222.81875172 -12.59625842 224.01619643 0.47363281 224.07739258 C1.47168945 224.08295166 2.46974609 224.08851074 3.49804688 224.09423828 C26.97063774 223.86591328 47.9097889 213.26159776 64.66113281 197.32739258 C81.43546471 179.62115335 89.70506877 157.41921541 89.66113281 133.13989258 C89.66016602 131.83334717 89.65919922 130.52680176 89.65820312 129.18066406 C89.46268448 118.32335308 87.70865179 108.61982024 83.09863281 98.76489258 C82.63130737 97.76474121 82.63130737 97.76474121 82.15454102 96.74438477 C80.34085258 93.05782839 80.34085258 93.05782839 76.98535156 90.96020508 C75.89673828 90.92540039 75.89673828 90.92540039 74.78613281 90.88989258 C70.47325423 90.25543606 68.8067029 88.85283522 66.09863281 85.45239258 C62.92008271 81.11867496 61.79069744 77.80496442 62.59863281 72.45239258 C61.91586045 67.41694643 59.76689948 65.91918599 55.90332031 62.80786133 C14.63622136 32.74840067 -38.627806 38.94031695 -71.90136719 77.76489258 Z " fill="#D4CDD3" transform="translate(386.9013671875,224.235107421875)"/>
<path d="M0 0 C1.25746033 -0.0007251 2.51492065 -0.0014502 3.81048584 -0.00219727 C22.34110662 -0.00101954 40.73761118 0.34005441 59.1875 2.1875 C60.20621708 24.86208318 60.30292835 47.49428652 60.1875 70.1875 C57.5239683 70.67107249 54.85985913 71.15098491 52.1953125 71.62890625 C51.4525708 71.76413696 50.7098291 71.89936768 49.94458008 72.03869629 C44.99359524 72.92308918 40.06309473 73.58716437 35.0625 74.125 C28.55393872 74.96793469 23.83221042 75.91045298 19.54760742 81.21948242 C17.61457118 85.43774156 17.70863537 89.27242938 17.67578125 93.86328125 C17.64885445 95.25101997 17.64885445 95.25101997 17.62138367 96.66679382 C17.56735921 99.61115003 17.53341009 102.55534484 17.5 105.5 C17.46681999 107.50067346 17.4323297 109.50132565 17.39648438 111.50195312 C17.31163716 116.39701884 17.24478834 121.29203733 17.1875 126.1875 C9.67003395 126.23917771 2.15261534 126.27363197 -5.36499023 126.29736328 C-7.91025503 126.30728011 -10.45550889 126.32081764 -13.00073242 126.33837891 C-30.04651114 126.45284789 -46.84586725 125.87515921 -63.8125 124.1875 C-66.33600039 105.14942968 -66.00038694 85.90582881 -65.99780273 66.73803711 C-65.99772159 63.58823898 -66.00466068 60.43858665 -66.01831055 57.28881836 C-66.09724374 38.81987701 -65.8438309 20.5734729 -63.8125 2.1875 C-57.08313728 1.21978303 -50.40474242 0.87235893 -43.61328125 0.63671875 C-42.43429764 0.59487961 -41.25531403 0.55304047 -40.04060364 0.50993347 C-26.69461676 0.07057913 -13.35222242 -0.00794368 0 0 Z " fill="#B2D8FC" transform="translate(243.8125,177.8125)"/>
<path d="M0 0 C0.02770475 1.79157359 0.046704 3.58328184 0.0625 5.375 C0.07410156 6.37273437 0.08570313 7.37046875 0.09765625 8.3984375 C0.02436718 11.10133835 -0.17577675 13.61325155 -0.49780273 16.28442383 C-1.20301082 23.19825009 -1.144319 30.1083487 -1.1328125 37.05078125 C-1.13348921 38.51401282 -1.13446226 39.97724427 -1.13571167 41.44047546 C-1.13718024 44.50744701 -1.13506717 47.57438931 -1.13037109 50.64135742 C-1.12476935 54.47754896 -1.12798472 58.31366959 -1.13382339 62.14985847 C-1.15853284 81.45628783 -0.82669086 100.70928255 0 120 C-13.08997112 119.50139355 -25.99622654 118.18904806 -38.98681641 116.52587891 C-42.12693743 116.12475251 -45.26837595 115.73554848 -48.41015625 115.34765625 C-59.69306179 113.93471409 -70.85871771 112.28796015 -82 110 C-84.05806601 98.33762592 -85.15517408 86.98744719 -85.16796875 75.140625 C-85.17296135 73.4812088 -85.17296135 73.4812088 -85.17805481 71.78826904 C-85.18308907 69.45536714 -85.18546423 67.12245811 -85.18530273 64.78955078 C-85.18746835 61.30097865 -85.20560444 57.81273427 -85.22460938 54.32421875 C-85.25977593 39.77995069 -84.55582427 25.46179207 -83 11 C-73.63736148 8.30979007 -64.47534076 6.7250443 -54.80126953 5.69726562 C-51.71563049 5.3623137 -48.95504652 4.98501551 -46 4 C-43.39441283 3.64075337 -40.79689585 3.31786859 -38.18359375 3.02734375 C-37.41249771 2.93997452 -36.64140167 2.85260529 -35.84693909 2.7625885 C-34.21219632 2.57854912 -32.5772561 2.39625657 -30.94213867 2.21557617 C-28.47041856 1.94115477 -25.99988681 1.65744022 -23.52929688 1.37304688 C-15.6479154 0.48456977 -7.94562965 -0.2500655 0 0 Z " fill="#B2D9FD" transform="translate(165,181)"/>
<path d="M0 0 C3.53186047 -0.00218947 7.06340909 -0.02042916 10.59521484 -0.03930664 C24.08271402 -0.0714854 37.28448505 0.49952892 50.66943359 2.18530273 C52.55881466 10.98862855 54.09428783 19.67747181 55.02246094 28.63623047 C55.33927692 31.64669425 55.70820863 34.30162784 56.66943359 37.18530273 C57.02979716 39.94851708 57.35240628 42.70367158 57.64208984 45.47436523 C57.72945908 46.29222504 57.81682831 47.11008484 57.90684509 47.95272827 C58.09089616 49.68583369 58.27318817 51.41912667 58.45385742 53.15258789 C58.72876794 55.78004695 59.01221036 58.40648802 59.29638672 61.03295898 C59.4746439 62.72170596 59.65239402 64.41050656 59.82958984 66.09936523 C59.91394791 66.87470612 59.99830597 67.650047 60.08522034 68.44888306 C60.63089576 73.77693185 60.66943359 78.76967153 60.66943359 84.18530273 C21.39943359 84.18530273 -17.87056641 84.18530273 -58.33056641 84.18530273 C-58.33056641 73.83388388 -58.30720083 64.44330315 -56.90478516 54.35327148 C-56.75652786 53.22939529 -56.60827057 52.1055191 -56.45552063 50.94758606 C-56.1438617 48.60366924 -55.82688271 46.26045378 -55.50463867 43.91796875 C-55.01680364 40.3636022 -54.54842924 36.80705597 -54.08251953 33.24975586 C-53.77441484 30.95077465 -53.46520817 28.6519408 -53.15478516 26.35327148 C-52.94833626 24.78720406 -52.94833626 24.78720406 -52.73771667 23.1894989 C-51.74345192 16.04565634 -50.20697202 9.14823997 -48.33056641 2.18530273 C-32.37394879 -0.27860575 -16.10390082 -0.00111384 0 0 Z " fill="#B2D8FC" transform="translate(240.33056640625,79.814697265625)"/>
<path d="M0 0 C6.08046365 4.89841395 6.08046365 4.89841395 7.13671875 9.7734375 C6.20292592 13.50860883 5.53947689 14.90813609 2.32421875 17.0234375 C-1.73785955 17.66575735 -4.05378414 17.03041492 -7.375 14.79296875 C-8.71212975 13.81776635 -10.04126961 12.83153828 -11.36328125 11.8359375 C-17.55504959 7.39832712 -23.44673423 3.58793183 -30.67578125 1.0234375 C-31.743125 0.63414062 -32.81046875 0.24484375 -33.91015625 -0.15625 C-52.625632 -6.08145521 -72.41055615 -4.21350849 -89.98828125 4.2734375 C-96.17730971 7.54587758 -101.48998949 11.33540934 -106.67578125 16.0234375 C-107.38347656 16.64992188 -108.09117187 17.27640625 -108.8203125 17.921875 C-121.97934659 30.25060675 -130.39672155 49.22996856 -131.15014648 67.22192383 C-131.40734204 88.43198398 -124.11191916 108.43904905 -109.69140625 124.09375 C-95.25818779 137.91159868 -77.22322004 145.62008192 -57.23828125 145.3984375 C-55.6749707 145.41583984 -55.6749707 145.41583984 -54.08007812 145.43359375 C-37.75192295 145.37285666 -20.22070839 139.54250069 -7.94921875 128.46484375 C-6.84758457 127.32777689 -5.75975872 126.177349 -4.67578125 125.0234375 C-4.01578125 125.0234375 -3.35578125 125.0234375 -2.67578125 125.0234375 C-2.29679687 124.17072266 -2.29679687 124.17072266 -1.91015625 123.30078125 C-0.51798375 120.73231109 1.15709329 118.78914564 3.07421875 116.5859375 C7.7170302 110.88143051 10.5419244 104.79165196 13.32421875 98.0234375 C13.64261719 97.29125 13.96101562 96.5590625 14.2890625 95.8046875 C21.30896461 78.76134308 19.36120881 59.99360991 13.32421875 43.0234375 C12.65767495 41.69004274 11.9910239 40.35670158 11.32421875 39.0234375 C10.85021256 36.15184185 11.04151613 33.99181502 11.32421875 31.0234375 C13.51175158 28.3310894 14.9084583 28.08406923 18.32421875 27.5859375 C21.32421875 28.0234375 21.32421875 28.0234375 23.44921875 29.4609375 C31.82971822 40.91428677 34.05205143 55.89307917 33.88671875 69.7109375 C33.8702832 71.67377686 33.8702832 71.67377686 33.85351562 73.67626953 C33.3064862 98.32602318 23.78941328 118.83846603 6.890625 136.578125 C-13.37439878 155.81159584 -37.44677884 161.83682137 -64.74560547 161.15087891 C-87.72922112 160.15125823 -108.05654178 148.47437236 -123.67578125 132.0234375 C-140.80979649 112.56157816 -147.91075479 88.31188204 -146.86669922 62.75634766 C-145.18519943 38.68638769 -132.05502035 17.46946263 -114.50634766 1.58789062 C-81.35492349 -26.74424142 -34.05275777 -25.1542999 0 0 Z " fill="#030302" transform="translate(442.67578125,286.9765625)"/>
<path d="M0 0 C1.31299072 0.06566162 2.62598145 0.13132324 3.97875977 0.19897461 C20.2947466 0.97988735 36.60592077 1.30872713 52.9375 1.5625 C55.5787807 1.60583694 58.2200568 1.64945516 60.86132812 1.69335938 C67.24083623 1.79880347 73.62039155 1.90082205 80 2 C80.00142502 2.55391922 80.00285004 3.10783844 80.00431824 3.67854309 C79.784334 39.8829252 79.784334 39.8829252 85.44335938 75.50439453 C86.14467511 78.64862673 86.57281118 81.80827529 87 85 C79.39098047 85.05142332 71.78200699 85.08603105 64.17285156 85.10986328 C61.59340745 85.11981633 59.0139743 85.13338359 56.43457031 85.15087891 C41.15253548 85.25180921 26.167604 84.96289243 11 83 C6.87720768 64.70192792 4.39193919 46.43743925 2.40673828 27.81201172 C2.0499992 24.4685999 1.68222879 21.12671198 1.30859375 17.78515625 C1.12154406 16.08603105 0.93525921 14.38682135 0.75 12.6875 C0.66983643 11.95418457 0.58967285 11.22086914 0.50708008 10.46533203 C0.14126414 6.95672805 -0.02863267 3.52520861 0 0 Z " fill="#B2D8FC" transform="translate(181,317)"/>
<path d="M0 0 C3.22934076 0.43622049 6.45843454 0.87424668 9.6875 1.3125 C10.69425781 1.44857666 11.70101562 1.58465332 12.73828125 1.72485352 C17.43063457 2.36248141 22.12002956 3.0082734 26.80078125 3.7265625 C44.78860251 6.46408522 62.90228754 8.16684163 81 10 C81.10546143 10.92409668 81.21092285 11.84819336 81.31958008 12.80029297 C81.46806396 14.10111816 81.61654785 15.40194336 81.76953125 16.7421875 C81.8904715 17.80220474 81.8904715 17.80220474 82.01385498 18.88363647 C82.4628975 22.81808644 82.91301799 26.75240889 83.36499023 30.68652344 C84.20280179 37.98459688 85.03571528 45.28275837 85.828125 52.5859375 C86.95658203 62.8840274 88.13858155 73.03697469 90.44921875 83.14453125 C90.97230152 85.85640008 91.0407773 88.24999021 91 91 C82.11501931 90.54779169 73.80742472 89.03129208 65.1875 86.875 C63.93300049 86.5658667 62.67850098 86.2567334 61.38598633 85.93823242 C53.26746325 83.90461669 45.2039629 81.71724079 37.1875 79.3125 C35.8121106 78.90330322 35.8121106 78.90330322 34.40893555 78.48583984 C31.91525308 77.71364774 29.45785996 76.87894594 27 76 C26.25186035 75.75427246 25.5037207 75.50854492 24.73291016 75.25537109 C21.47529419 73.9683839 19.54366779 72.92313215 17.73657227 69.85473633 C16.67931194 67.26632347 15.81956062 64.6726077 15 62 C14.43465345 60.44610094 13.8644579 58.89395617 13.2890625 57.34375 C8.45407441 43.46228612 5.0413797 29.37106262 2 15 C1.79842285 14.07106934 1.5968457 13.14213867 1.38916016 12.18505859 C1.20530762 11.31316895 1.02145508 10.4412793 0.83203125 9.54296875 C0.67065674 8.78395264 0.50928223 8.02493652 0.34301758 7.24291992 C-0.03080039 4.79860275 -0.05793738 2.46900301 0 0 Z " fill="#B1D8FB" transform="translate(85,306)"/>
<path d="M0 0 C-0.12528076 0.81936035 -0.25056152 1.6387207 -0.37963867 2.48291016 C-4.33017424 28.57973602 -7.28241832 54.74868522 -10 81 C-10.71913574 81.05945801 -11.43827148 81.11891602 -12.17919922 81.18017578 C-33.73857464 83.00906828 -55.0866676 85.84720365 -76.48207092 89.04858398 C-81.3143051 89.76865768 -86.14998289 90.41089013 -91 91 C-89.216265 70.36403133 -83.76470166 49.94956161 -76.84277344 30.46655273 C-75.9573725 27.98463259 -75.9573725 27.98463259 -75.32128906 25.31665039 C-74.14058515 21.31279647 -73.21193262 18.76693189 -69.60302734 16.4831543 C-66.43801709 15.19960509 -63.29091054 14.22619147 -60 13.3125 C-58.8133374 12.95148193 -57.6266748 12.59046387 -56.40405273 12.21850586 C-52.61622434 11.08929106 -48.8151109 10.03306812 -45 9 C-43.11112061 8.48663086 -43.11112061 8.48663086 -41.18408203 7.96289062 C-10.50340432 -0.24614567 -10.50340432 -0.24614567 0 0 Z " fill="#B1D8FC" transform="translate(176,85)"/>
<path d="M0 0 C21.57475101 2.56200168 42.6395441 7.33298521 63 15 C64.1746582 15.38792725 64.1746582 15.38792725 65.37304688 15.78369141 C69.52498034 17.31747836 72.24311459 18.51038092 74.1640625 22.6328125 C74.6886384 24.11745492 75.17343939 25.61654516 75.625 27.125 C76.03455933 28.35669922 76.03455933 28.35669922 76.45239258 29.61328125 C77.35323211 32.39568608 78.18458612 35.19140386 79 38 C79.45270264 39.5483252 79.45270264 39.5483252 79.91455078 41.12792969 C83.1110311 52.22445006 85.99298724 63.40062946 88.4375 74.6875 C88.68342896 75.80801758 88.68342896 75.80801758 88.93432617 76.95117188 C89.85201035 81.41186589 90.14817766 85.47761795 90 90 C84.80438629 90.11368958 80.23816024 89.80172224 75.125 88.75 C53.4072445 84.59796439 31.01391716 82.80675778 9 81 C8.91081299 79.7771228 8.91081299 79.7771228 8.81982422 78.52954102 C7.32683354 58.67661436 5.03532027 39.06050495 1.98193359 19.38500977 C1.85146133 18.53699295 1.72098907 17.68897614 1.58656311 16.81526184 C1.34161361 15.23023481 1.09243895 13.64585226 0.83811951 12.06230164 C0.20739351 8.00046759 -0.12514804 4.1100399 0 0 Z " fill="#B1D8FC" transform="translate(307,85)"/>
<path d="M0 0 C-0.0707373 0.90234375 -0.14147461 1.8046875 -0.21435547 2.734375 C-1.13500369 15.58059048 -1.15257086 28.41246567 -1.13037109 41.28662109 C-1.12497028 45.02054834 -1.13036771 48.75435745 -1.13671875 52.48828125 C-1.13605856 54.8880211 -1.13477862 57.28776087 -1.1328125 59.6875 C-1.13483673 60.79077637 -1.13686096 61.89405273 -1.13894653 63.03076172 C-1.12062557 69.10793716 -0.76249257 74.97148467 0 81 C0.1091083 84.67040333 0.04646941 88.32891694 0 92 C-11.01746103 90.22342596 -21.51197097 87.12119689 -32.16748047 83.86083984 C-34.63842436 83.10988758 -37.11587253 82.38973435 -39.59765625 81.67578125 C-40.84417969 81.28777344 -42.09070313 80.89976562 -43.375 80.5 C-44.43460938 80.1803125 -45.49421875 79.860625 -46.5859375 79.53125 C-49 78 -49 78 -50.2890625 74.90625 C-51.92695719 65.9068286 -52.18632788 57.10762323 -52.18530273 47.9909668 C-52.18747804 45.83426831 -52.20565938 43.67809213 -52.22460938 41.52148438 C-52.31056562 22.17164021 -52.31056562 22.17164021 -50 15 C-46.94645172 12.53964735 -43.96016104 11.55931781 -40.18212891 10.58349609 C-37.59700092 9.892239 -35.060395 9.08491651 -32.51171875 8.26953125 C-6.45113851 0 -6.45113851 0 0 0 Z " fill="#88C6FA" transform="translate(67,195)"/>
<path d="M0 0 C1.29421875 0.00064453 2.5884375 0.00128906 3.921875 0.00195312 C29.83644183 0.11833591 29.83644183 0.11833591 34.625 2.1875 C35.71826172 4.03149414 35.71826172 4.03149414 36.5546875 6.47265625 C36.87244141 7.38499023 37.19019531 8.29732422 37.51757812 9.23730469 C37.84177734 10.23149414 38.16597656 11.22568359 38.5 12.25 C38.84224609 13.26610352 39.18449219 14.28220703 39.53710938 15.32910156 C48.625 42.97355098 48.625 42.97355098 48.625 52.1875 C47.50899414 52.1167627 46.39298828 52.04602539 45.24316406 51.97314453 C31.51579502 51.16402809 17.8180402 51.03336752 4.06933594 51.05712891 C0.36649522 51.06251236 -3.33622533 51.05713679 -7.0390625 51.05078125 C-19.18911647 51.04773184 -31.26304255 51.15903785 -43.375 52.1875 C-35.18309031 15.80368062 -35.18309031 15.80368062 -28.375 2.1875 C-19.12356134 -0.22555066 -9.48722856 -0.08923631 0 0 Z " fill="#B0D7FB" transform="translate(238.375,14.8125)"/>
<path d="M0 0 C1.35404497 -0.02763357 2.70826555 -0.04667422 4.0625 -0.0625 C4.81660156 -0.07410156 5.57070312 -0.08570313 6.34765625 -0.09765625 C9 0 9 0 12.25465393 0.49900818 C15.75520572 0.96725538 19.05030084 1.12062314 22.57788086 1.11352539 C24.46904884 1.11341209 24.46904884 1.11341209 26.39842224 1.11329651 C27.75389649 1.1081915 29.10937033 1.10297553 30.46484375 1.09765625 C31.86731414 1.09578854 33.26978519 1.0943663 34.67225647 1.09336853 C38.3432092 1.08957116 42.01412165 1.07976496 45.68505859 1.06866455 C49.43912206 1.05839031 53.19319211 1.05385809 56.94726562 1.04882812 C64.29819534 1.03813991 71.649092 1.02109732 79 1 C80.53183893 3.71112288 82.03393006 6.43765225 83.53125 9.16796875 C83.96469727 9.93427612 84.39814453 10.7005835 84.84472656 11.4901123 C88.73051825 18.63774198 88.73051825 18.63774198 87.5 23.3125 C86.69823155 25.22189672 85.85781797 27.11511889 85 29 C84.07259346 31.60321848 83.19535452 34.22128541 82.31445312 36.84057617 C81.40394754 39.53920305 80.47420797 42.22936803 79.5234375 44.9140625 C79.25450684 45.6767041 78.98557617 46.4393457 78.70849609 47.22509766 C78 49 78 49 77 50 C60.09546408 54.09173396 31.64308808 55.94228417 15 50 C13.67253634 47.41144585 12.69144757 45.04515244 11.75 42.3125 C11.45988037 41.50119629 11.16976074 40.68989258 10.87084961 39.85400391 C0 8.35589714 0 8.35589714 0 0 Z " fill="#B1D8FB" transform="translate(195,415)"/>
<path d="M0 0 C22.63931248 0.57679777 45.04500815 4.12385562 67.375 7.6875 C68.05896851 7.79582153 68.74293701 7.90414307 69.44763184 8.01574707 C71.3695394 8.32188855 73.29027426 8.63536526 75.2109375 8.94921875 C76.85521729 9.21738403 76.85521729 9.21738403 78.53271484 9.4909668 C81 10 81 10 82 11 C82.54004951 14.62574584 82.8012022 18.28679385 83.125 21.9375 C83.27388672 23.47954102 83.27388672 23.47954102 83.42578125 25.05273438 C83.51472656 26.03435547 83.60367188 27.01597656 83.6953125 28.02734375 C83.77797363 28.93218506 83.86063477 29.83702637 83.94580078 30.76928711 C84 33 84 33 83 35 C82.18595703 34.47599609 82.18595703 34.47599609 81.35546875 33.94140625 C80.64003906 33.48636719 79.92460937 33.03132813 79.1875 32.5625 C78.47980469 32.11003906 77.77210938 31.65757812 77.04296875 31.19140625 C72.97672832 28.82008057 69.63578291 28.62001779 65 29 C59.42577719 31.15245853 54.74798551 34.49130534 50.0625 38.125 C16.82197479 63 16.82197479 63 1 63 C0.32954606 41.99303752 -0.17489638 21.01985367 0 0 Z " fill="#B0D7FB" transform="translate(318,181)"/>
<path d="M0 0 C-1.44283363 5.33416988 -2.89463167 10.66418911 -4.4296875 15.97265625 C-7.95642436 28.31141072 -10.62456422 40.68126936 -12.921875 53.3046875 C-13.76931693 57.92890581 -14.79563918 62.4562751 -16 67 C-20.60813169 68.32785989 -25.22429749 69.6083469 -29.859375 70.83984375 C-30.48926331 71.00746719 -31.11915161 71.17509064 -31.76812744 71.34779358 C-33.76192522 71.87829864 -35.75594431 72.40796528 -37.75 72.9375 C-46.50746295 75.26457523 -55.26189353 77.60101333 -64 80 C-63.86980469 79.03578125 -63.73960938 78.0715625 -63.60546875 77.078125 C-63.46753906 75.81484375 -63.32960938 74.5515625 -63.1875 73.25 C-63.03667969 71.99703125 -62.88585937 70.7440625 -62.73046875 69.453125 C-62.63423204 65.824679 -62.63423204 65.824679 -65.48828125 63.546875 C-66.73158203 62.78117187 -66.73158203 62.78117187 -68 62 C-64.92482916 50.47835991 -64.92482916 50.47835991 -63 45 C-61.7625 44.95875 -60.525 44.9175 -59.25 44.875 C-55.92467116 44.42578891 -55.24169102 44.26301669 -52.875 41.6875 C-51.69604349 39.6043438 -50.80653592 37.51283502 -49.921875 35.28515625 C-45.80992696 25.6617116 -39.6421659 21.21417929 -31 16 C-29.84153564 15.29713867 -29.84153564 15.29713867 -28.65966797 14.58007812 C-4.42246638 0 -4.42246638 0 0 0 Z " fill="#88C7FB" transform="translate(85,112)"/>
<path d="M0 0 C0.55945313 0.17015625 1.11890625 0.3403125 1.6953125 0.515625 C4.46122367 1.35162387 7.2307351 2.17517594 10 3 C10.9998291 3.30309082 11.9996582 3.60618164 13.02978516 3.91845703 C22.35142442 6.67654505 31.72369553 8.72393572 41.25 10.625 C42.73968594 10.92657691 44.2292698 11.22865858 45.71875 11.53125 C49.81112986 12.36109937 53.90529641 13.18169281 58 14 C59.07958984 14.21624023 60.15917969 14.43248047 61.27148438 14.65527344 C63.51417063 15.10428416 65.75698593 15.55263037 68 16 C68.15033691 16.69335449 68.30067383 17.38670898 68.45556641 18.10107422 C71.15540264 30.44522343 73.85221031 42.67164989 78.17041016 54.56591797 C79.39820116 57.97260567 80 60.31854581 80 64 C67.01689941 63.29183088 54.78993165 58.53717886 42.9375 53.5 C42.06963867 53.13261719 41.20177734 52.76523437 40.30761719 52.38671875 C31.01619785 48.32732597 24.63973252 44.65118309 19.1875 35.9375 C18.68686035 35.16180664 18.1862207 34.38611328 17.67041016 33.58691406 C3.02779954 10.54626808 3.02779954 10.54626808 0 0 Z " fill="#B0D7FA" transform="translate(112,397)"/>
<path d="M0 0 C13.36992501 2.94953353 26.21187513 7.1282238 39 12 C39.80131348 12.2985791 40.60262695 12.5971582 41.42822266 12.90478516 C52.38836641 17.12169035 58.06805863 22.45765055 63.72119141 32.68847656 C65.1625813 35.29387548 66.66237919 37.86087928 68.16796875 40.4296875 C71.17182753 45.58750022 74.12428113 50.76963466 77 56 C77.63035156 57.13308594 78.26070313 58.26617187 78.91015625 59.43359375 C80 62 80 62 79 65 C77.93007813 64.63648437 76.86015625 64.27296875 75.7578125 63.8984375 C57.06388609 57.69420323 37.9387813 53.28972071 18.4375 50.54296875 C15 50 15 50 13 49 C12.32228889 46.90928093 11.75236219 44.78339085 11.23046875 42.6484375 C10.98614861 41.67180649 10.98614861 41.67180649 10.7368927 40.67544556 C10.21265113 38.5771364 9.69911861 36.47641981 9.1875 34.375 C8.5215899 31.65179352 7.8493015 28.93032795 7.16796875 26.2109375 C6.99909149 25.53609314 6.83021423 24.86124878 6.65621948 24.16595459 C5.07293282 17.99434342 3.06340819 12.005483 0.9465332 5.99853516 C0 3 0 3 0 0 Z " fill="#B0D7FA" transform="translate(290,20)"/>
<path d="M0 0 C13.41641646 5.61050143 26.13991772 12.59198778 38 21 C38.57645264 21.35344482 39.15290527 21.70688965 39.74682617 22.07104492 C44.68193952 25.2309093 46.80026408 28.47165078 49.0625 33.8125 C49.55991699 34.92975464 49.55991699 34.92975464 50.06738281 36.06958008 C56.21486528 50.08483426 62.05728797 64.74682532 64 80 C57.23129735 79.34934996 51.01840404 77.25041036 44.5625 75.1875 C34.77253034 72.11053465 25.00261604 69.29667317 15 67 C14.80422363 65.90667358 14.80422363 65.90667358 14.60449219 64.79125977 C11.23089221 46.03705709 7.63043943 27.69910845 1.92993164 9.50805664 C1.67977295 8.70360107 1.42961426 7.89914551 1.171875 7.0703125 C0.9459668 6.35633301 0.72005859 5.64235352 0.48730469 4.90673828 C0 3 0 3 0 0 Z " fill="#B0D7FA" transform="translate(398,112)"/>
<path d="M0 0 C-0.23783203 0.78697266 -0.23783203 0.78697266 -0.48046875 1.58984375 C-0.99627515 3.30254897 -1.508855 5.01622688 -2.01953125 6.73046875 C-2.71473982 9.04875389 -3.4216683 11.36353909 -4.13671875 13.67578125 C-6.9900864 23.01438715 -9.3151373 32.38860168 -11.30029297 41.95214844 C-11.49381348 42.85481445 -11.68733398 43.75748047 -11.88671875 44.6875 C-12.05389404 45.49574219 -12.22106934 46.30398437 -12.39331055 47.13671875 C-12.59351807 47.75160156 -12.79372559 48.36648437 -13 49 C-15.64817516 50.32408758 -18.05571708 50.44787237 -21 50.8125 C-29.02008612 51.91843629 -36.83999865 53.63156232 -44.71972656 55.47216797 C-46.94299266 55.98680408 -49.16974797 56.48210502 -51.3984375 56.97265625 C-59.83774771 58.85675468 -67.962731 61.17457762 -76.12109375 64.046875 C-79 65 -79 65 -81 65 C-77.32168451 51.89736139 -68.74996039 39.18677082 -61.25 27.9375 C-60.83951416 27.30215332 -60.42902832 26.66680664 -60.00610352 26.01220703 C-54.92157932 18.64510073 -47.24705678 15.39227791 -39.1875 12.0625 C-38.37434326 11.72331543 -37.56118652 11.38413086 -36.72338867 11.03466797 C-9.69701219 0 -9.69701219 0 0 0 Z " fill="#B0D7FB" transform="translate(193,20)"/>
<path d="M0 0 C3.83755752 0.56254472 7.29850633 1.3586225 10.9375 2.6875 C23.35930053 6.95309943 36.26351816 9.83097016 49 13 C49.13051758 13.78947021 49.26103516 14.57894043 49.39550781 15.39233398 C52.5891309 34.60021504 55.98373466 53.3925582 62.07006836 71.93603516 C64 77.81719882 64 77.81719882 64 80 C58.91693058 78.49183654 54.45994049 76.30842498 49.8125 73.8125 C48.68593994 73.2103064 48.68593994 73.2103064 47.53662109 72.59594727 C41.49782012 69.3341652 35.70044798 65.82357767 30 62 C28.59814453 61.18402344 28.59814453 61.18402344 27.16796875 60.3515625 C11.4539314 50.50610545 6.654499 27.82800278 2 11 C1.21824425 7.34799042 0.55599033 3.69283395 0 0 Z " fill="#88C6FB" transform="translate(21,290)"/>
<path d="M0 0 C9.08248112 1.1696643 17.55761223 3.48150099 26.24755859 6.25854492 C28.38985511 6.94224088 30.53626891 7.6115818 32.68359375 8.27929688 C45.75771137 12.397063 45.75771137 12.397063 50 15 C53.50863887 21.83066589 52.22862159 31.68018766 52.125 39.125 C52.11597656 40.36765625 52.10695313 41.6103125 52.09765625 42.890625 C52.07429729 45.92729004 52.04154283 48.96353853 52 52 C35.87347101 49.63357078 22.34613463 43.45935382 8 36 C6.00180749 34.99639315 4.00245849 33.99506783 2 33 C1.93941406 31.70707031 1.87882812 30.41414063 1.81640625 29.08203125 C1.35187435 19.37266032 0.81242983 9.687193 0 0 Z " fill="#B0D7FA" transform="translate(415,195)"/>
<path d="M0 0 C1.875 0.2734375 1.875 0.2734375 3.875 1.2734375 C5.51924188 4.56192126 5.52901809 7.73381701 4.875 11.2734375 C3.21485819 14.36855416 1.02564196 16.92305395 -1.25 19.5859375 C-2.54673292 21.17377373 -3.84092937 22.76368418 -5.1328125 24.35546875 C-5.79829102 25.16709473 -6.46376953 25.9787207 -7.14941406 26.81494141 C-10.27474989 30.70423105 -13.19628324 34.73526372 -16.125 38.7734375 C-21.39459104 45.9937656 -26.81992683 53.0736889 -32.34301758 60.1015625 C-36.01897322 64.79566146 -39.51449134 69.54084386 -42.79296875 74.5234375 C-44.78116325 77.13549361 -46.60655196 78.17457768 -49.80859375 78.78515625 C-54.72902054 78.02593845 -57.49402246 75.28281302 -61.1875 72.0859375 C-61.88166016 71.50779297 -62.57582031 70.92964844 -63.29101562 70.33398438 C-65.26354085 68.67616403 -67.200953 66.98715101 -69.125 65.2734375 C-69.65520752 64.80679688 -70.18541504 64.34015625 -70.73168945 63.859375 C-72.1171875 62.57421875 -72.1171875 62.57421875 -74.125 60.2734375 C-74.19125411 56.4306992 -73.94399419 54.28143034 -71.5 51.2734375 C-68.91126065 50.18344199 -66.98467097 49.90573628 -64.20703125 50.4140625 C-59.56574249 52.32979144 -55.85197695 55.98139951 -52.125 59.2734375 C-49.20857628 56.47960681 -46.76377393 53.58944759 -44.375 50.3359375 C-40.11521493 44.58627686 -35.78619131 38.89362135 -31.4375 33.2109375 C-25.37860919 25.28634075 -19.41475045 17.29864251 -13.55395508 9.22631836 C-13.01407959 8.48647705 -12.4742041 7.74663574 -11.91796875 6.984375 C-11.4489917 6.33774902 -10.98001465 5.69112305 -10.49682617 5.02490234 C-7.14010745 0.73924651 -5.42686874 -0.2593724 0 0 Z " fill="#030402" transform="translate(425.125,318.7265625)"/>
<path d="M0 0 C-0.42602559 6.54734072 -0.99557935 12.99178321 -2.02734375 19.47265625 C-3.81327603 32.45492222 -3.25763982 45.70031278 -3.19561768 58.77844238 C-3.18475321 61.66806248 -3.18515079 64.5576353 -3.18575573 67.4472723 C-3.18548242 70.25874638 -3.17997731 73.07019065 -3.17275429 75.88165474 C-3.16809375 77.84956123 -3.16630557 79.81747386 -3.16459656 81.78538513 C-3.25043479 93.04756189 -3.25043479 93.04756189 -1 104 C-5.62 103.34 -10.24 102.68 -15 102 C-17.05988415 90.32732315 -18.15516615 78.99478692 -18.16796875 67.140625 C-18.17296135 65.4812088 -18.17296135 65.4812088 -18.17805481 63.78826904 C-18.18308907 61.45536714 -18.18546423 59.12245811 -18.18530273 56.78955078 C-18.18746835 53.30097865 -18.20560444 49.81273427 -18.22460938 46.32421875 C-18.25977593 31.77995069 -17.55582427 17.46179207 -16 3 C-14.88882813 2.68289062 -13.77765625 2.36578125 -12.6328125 2.0390625 C-10.71201812 1.489674 -8.79163815 0.9387171 -6.875 0.375 C-4.55970164 -0.08805967 -2.35604821 -0.02317424 0 0 Z " fill="#88C6FA" transform="translate(98,189)"/>
<path d="M0 0 C-0.61953304 3.7213871 -1.68301895 6.85774888 -3.22265625 10.296875 C-3.67495605 11.32538574 -4.12725586 12.35389648 -4.59326172 13.41357422 C-5.32053467 15.06510498 -5.32053467 15.06510498 -6.0625 16.75 C-14.33989825 35.95259425 -20.27144583 55.65357699 -25 76 C-23.515 76.495 -23.515 76.495 -22 77 C-24.77029586 77.50314563 -27.5411652 78.00263838 -30.3125 78.5 C-31.09818359 78.64308594 -31.88386719 78.78617187 -32.69335938 78.93359375 C-33.45068359 79.06894531 -34.20800781 79.20429688 -34.98828125 79.34375 C-36.03302612 79.53227539 -36.03302612 79.53227539 -37.09887695 79.72460938 C-39 80 -39 80 -42 80 C-40.21503728 59.34982789 -34.72764395 38.97882703 -27.8503418 19.46875 C-27.26274685 17.76281832 -26.73366694 16.03601188 -26.25317383 14.296875 C-25.0720234 10.5238227 -24.21640113 7.81836919 -20.85644531 5.55786133 C-18.24378705 4.45151157 -15.67200909 3.62907927 -12.9375 2.875 C-11.57141602 2.441875 -11.57141602 2.441875 -10.17773438 2 C-6.665744 0.91301698 -3.69237668 0 0 0 Z " fill="#88C5F9" transform="translate(127,96)"/>
<path d="M0 0 C0 4.29 0 8.58 0 13 C-2.52010237 13.46268709 -5.04085084 13.92086541 -7.5625 14.375 C-8.32739746 14.51365479 -9.09229492 14.65230957 -9.88037109 14.79516602 C-14.95393713 15.69521349 -20.00423993 16.36852666 -25.125 16.9375 C-31.63356128 17.78043469 -36.35528958 18.72295298 -40.63989258 24.03198242 C-42.57292882 28.25024156 -42.47886463 32.08492938 -42.51171875 36.67578125 C-42.52966995 37.6009404 -42.54762115 38.52609955 -42.56611633 39.47929382 C-42.62014079 42.42365003 -42.65408991 45.36784484 -42.6875 48.3125 C-42.72068001 50.31317346 -42.7551703 52.31382565 -42.79101562 54.31445312 C-42.87586284 59.20951884 -42.94271166 64.10453733 -43 69 C-46.96 69 -50.92 69 -55 69 C-55.09927816 62.73783939 -55.17166238 56.47614241 -55.21972656 50.21337891 C-55.23977468 48.08536798 -55.26702054 45.95741168 -55.30175781 43.82958984 C-55.35057548 40.76125567 -55.37303726 37.69365327 -55.390625 34.625 C-55.41127014 33.68197021 -55.43191528 32.73894043 -55.45318604 31.76733398 C-55.45560917 24.54638309 -53.67007753 19.61207568 -49.39453125 13.828125 C-48.87246094 13.30734375 -48.35039062 12.7865625 -47.8125 12.25 C-47.30332031 11.71890625 -46.79414063 11.1878125 -46.26953125 10.640625 C-39.69584549 5.888563 -32.67780896 4.29620965 -24.75 3.375 C-22.90617735 3.1372816 -21.06242713 2.89900068 -19.21875 2.66015625 C-17.88650391 2.49410889 -17.88650391 2.49410889 -16.52734375 2.32470703 C-13.09029712 1.88312357 -9.67272511 1.35392665 -6.25 0.8125 C-1.09756098 0 -1.09756098 0 0 0 Z " fill="#89C8FC" transform="translate(304,235)"/>
<path d="M0 0 C0.495 0.99 0.495 0.99 1 2 C0.34 2 -0.32 2 -1 2 C-1.23074219 2.54527344 -1.46148437 3.09054688 -1.69921875 3.65234375 C-3.3570864 6.64447125 -5.55003767 9.02465253 -7.8125 11.5625 C-18.27841721 23.62193524 -26.85709039 37.29727899 -35 51 C-33.515 51.495 -33.515 51.495 -32 52 C-32.76441406 52.15855469 -33.52882812 52.31710938 -34.31640625 52.48046875 C-41.44573321 54.03330651 -48.26634811 55.96543378 -55.14868164 58.3737793 C-59.81823156 60 -59.81823156 60 -62 60 C-58.32168451 46.89736139 -49.74996039 34.18677082 -42.25 22.9375 C-41.83951416 22.30215332 -41.42902832 21.66680664 -41.00610352 21.01220703 C-35.79206306 13.45744107 -27.88747476 10.26097332 -19.625 6.875 C-18.79444092 6.52953125 -17.96388184 6.1840625 -17.1081543 5.828125 C-11.48632511 3.52195924 -5.88360531 1.54324074 0 0 Z " fill="#88C6FA" transform="translate(174,25)"/>
<path d="M0 0 C0.495 8.415 0.495 8.415 1 17 C-0.835625 16.01 -2.67125 15.02 -4.5625 14 C-10.97347992 10.81508382 -10.97347992 10.81508382 -18 11 C-23.54507064 13.29850565 -28.22051894 16.46687987 -32.9375 20.125 C-66.17802521 45 -66.17802521 45 -82 45 C-82 36.75 -82 28.5 -82 20 C-81.67 20 -81.34 20 -81 20 C-81 23.63 -81 27.26 -81 31 C-64.45745839 24.59126717 -50.29248161 16.4485379 -36 6 C-24.07926333 -2.59566472 -14.2989449 -3.57473622 0 0 Z " fill="#88C6FA" transform="translate(401,199)"/>
<path d="M0 0 C3.96 0 7.92 0 12 0 C12.00410889 1.34296143 12.00821777 2.68592285 12.01245117 4.06958008 C11.99136397 39.14933051 11.99136397 39.14933051 17.46484375 73.68066406 C18.17851135 76.77365777 18.61614166 79.85061677 19 83 C15.04 83 11.08 83 7 83 C2.00383231 68.96314791 -0.16617876 55.46811186 -0.09765625 40.625 C-0.0962413 39.4599292 -0.09482635 38.2948584 -0.09336853 37.09448242 C-0.08779916 33.3962948 -0.07525231 29.69816913 -0.0625 26 C-0.05748104 23.48307379 -0.05291883 20.96614663 -0.04882812 18.44921875 C-0.03783976 12.29945553 -0.0205963 6.14973824 0 0 Z " fill="#89C7FC" transform="translate(249,319)"/>
<path d="M0 0 C4.62 0.66 9.24 1.32 14 2 C14.226875 3.85625 14.45375 5.7125 14.6875 7.625 C18.07293277 31.08628587 24.34142152 56.68284303 35 78 C31.64446329 77.06495914 28.32010839 76.05368709 25 75 C23.88625 74.649375 22.7725 74.29875 21.625 73.9375 C18.70471082 71.78204847 18.29779669 70.77759656 17.046875 67.47265625 C16.70414551 66.57232666 16.36141602 65.67199707 16.00830078 64.74438477 C15.67556152 63.83873779 15.34282227 62.93309082 15 62 C14.56469971 60.82812134 14.56469971 60.82812134 14.12060547 59.63256836 C8.82107134 45.04562401 5.20995734 30.1676221 2 15 C1.79842285 14.07106934 1.5968457 13.14213867 1.38916016 12.18505859 C1.20530762 11.31316895 1.02145508 10.4412793 0.83203125 9.54296875 C0.67065674 8.78395264 0.50928223 8.02493652 0.34301758 7.24291992 C0 5 0 5 0 0 Z " fill="#88C6FA" transform="translate(85,306)"/>
<path d="M0 0 C1.65 0.99 3.3 1.98 5 3 C19.0977074 11.20290631 33.83936266 18.98699982 50 22 C50 26.29 50 30.58 50 35 C33.9113828 32.98892285 20.21930056 26.39340573 6 19 C4.02 18.01 2.04 17.02 0 16 C0 10.72 0 5.44 0 0 Z " fill="#88C6FA" transform="translate(417,212)"/>
<path d="M0 0 C0.64066406 0.19335938 1.28132813 0.38671875 1.94140625 0.5859375 C6.95110985 2.0940748 11.96539857 3.57717786 17 5 C17.17414429 6.08982178 17.17414429 6.08982178 17.35180664 7.20166016 C18.01670078 10.07209956 18.9700979 12.18998554 20.37109375 14.7734375 C20.85843994 15.67400879 21.34578613 16.57458008 21.84790039 17.50244141 C22.37246826 18.45038574 22.89703613 19.39833008 23.4375 20.375 C23.9730249 21.35001465 24.5085498 22.3250293 25.06030273 23.32958984 C30.42440815 32.97244404 36.30073008 42.2245985 43 51 C42.505 51.99 42.505 51.99 42 53 C31.16952472 48.41282054 24.03463771 44.49444672 18 34 C17.28532566 32.85032099 16.56638042 31.70328869 15.84375 30.55859375 C11.59872442 23.75559791 7.71503341 16.75901851 3.9375 9.6875 C3.54312744 8.95192871 3.14875488 8.21635742 2.74243164 7.45849609 C0 2.24634046 0 2.24634046 0 0 Z " fill="#87C5F9" transform="translate(112,397)"/>
<path d="M0 0 C0 3.73608116 -1.16238561 5.74071896 -2.80859375 9.09375 C-3.09477066 9.68168335 -3.38094757 10.2696167 -3.67579651 10.87536621 C-4.59085833 12.75299439 -5.51378698 14.62661481 -6.4375 16.5 C-7.35624227 18.37403225 -8.2733075 20.24886148 -9.18849182 22.12463379 C-10.02013798 23.82750816 -10.85651324 25.52807052 -11.69311523 27.22851562 C-13.06329342 29.99221896 -13.06329342 29.99221896 -14 33 C-16.42370283 34.39532834 -18.78971951 35.61367548 -21.31640625 36.79296875 C-22.04746078 37.14386063 -22.77851532 37.4947525 -23.53172302 37.85627747 C-25.87086072 38.97631074 -28.21646343 40.08200132 -30.5625 41.1875 C-32.1482322 41.94372749 -33.73352477 42.70087759 -35.31835938 43.45898438 C-39.20721648 45.31673917 -43.10193106 47.16165768 -47 49 C-47 44.81807397 -44.69680576 42.92807416 -42.0625 39.9375 C-41.56250488 39.35967773 -41.06250977 38.78185547 -40.54736328 38.18652344 C-39.03978663 36.45029367 -37.52143387 34.72408907 -36 33 C-35.20207031 32.08863281 -34.40414062 31.17726563 -33.58203125 30.23828125 C-23.44460717 18.80900843 -12.60372906 8.68256891 0 0 Z " fill="#85C2F5" transform="translate(107,59)"/>
<path d="M0 0 C0.69206543 0.28020996 1.38413086 0.56041992 2.09716797 0.84912109 C4.07417622 1.63294085 6.06080509 2.3928217 8.05517578 3.13134766 C33.7747534 12.86277937 33.7747534 12.86277937 39.81591797 25.27099609 C41.44820862 29.29723187 42.91511245 33.33445005 44.18847656 37.48828125 C45.15968515 40.49423611 46.53902547 43.20509219 48 46 C48 46.66 48 47.32 48 48 C29.83997807 39.88684206 11.52409487 17.97658607 0 2 C0 1.34 0 0.68 0 0 Z " fill="#84C1F4" transform="translate(59,374)"/>
<path d="M0 0 C2.69220412 1.96708324 5.34900884 3.97776956 8 6 C8.763125 6.57234375 9.52625 7.1446875 10.3125 7.734375 C24.51165128 18.82746194 41.80487289 33.60974577 50 50 C46.4905647 48.63392435 43.08667075 47.1323312 39.69140625 45.50390625 C38.69689453 45.02759766 37.70238281 44.55128906 36.67773438 44.06054688 C35.64970703 43.56619141 34.62167969 43.07183594 33.5625 42.5625 C32.53833984 42.07201172 31.51417969 41.58152344 30.45898438 41.07617188 C28.4886534 40.13117818 26.52144603 39.17963603 24.55786133 38.22070312 C22.56390265 37.26911456 20.53020679 36.40065099 18.484375 35.56640625 C15.03478194 33.39142698 14.23738433 31.1155477 12.6875 27.375 C12.11134104 26.03318463 11.53039633 24.69341664 10.9453125 23.35546875 C10.63883789 22.65083496 10.33236328 21.94620117 10.01660156 21.22021484 C7.86212239 16.5149234 5.3266122 11.99883123 2.84448242 7.46044922 C0 2.20233525 0 2.20233525 0 0 Z " fill="#AED3F6" transform="translate(374,58)"/>
<path d="M0 0 C0.79921875 0.00902344 1.5984375 0.01804687 2.421875 0.02734375 C3.02515625 0.03894531 3.6284375 0.05054688 4.25 0.0625 C13.25 14.52012712 13.25 14.52012712 13.25 20.39453125 C12.46052799 23.10834128 11.47627437 25.51991014 10.25 28.0625 C9.82571805 29.44995074 9.42554821 30.84528269 9.0625 32.25 C8.794375 33.178125 8.52625 34.10625 8.25 35.0625 C7.82328003 34.18766968 7.82328003 34.18766968 7.38793945 33.29516602 C6.34611558 31.25108119 5.23192854 29.30092802 4.04296875 27.33984375 C-8.75 6.04851323 -8.75 6.04851323 -8.75 1.0625 C-5.75519083 0.1901588 -3.11424089 -0.04579766 0 0 Z " fill="#87C4F7" transform="translate(269.75,415.9375)"/>
<path d="M0 0 C2.93200474 2.85276137 5.64315404 5.65079784 8 9 C4.17010894 10.80230168 1.21878192 11.19622241 -3 11 C-2.01 7.37 -1.02 3.74 0 0 Z " fill="#7EB8E8" transform="translate(293,450)"/>
</svg>
