<?xml version="1.0" encoding="UTF-8"?>
<svg version="1.1" xmlns="http://www.w3.org/2000/svg" width="512" height="512">
<path d="M0 0 C1.05445313 0.56460937 2.10890625 1.12921875 3.1953125 1.7109375 C31.86109627 17.65300524 53.57144315 43.36839109 67 73 C67.27827637 73.61311035 67.55655273 74.2262207 67.84326172 74.85791016 C72.47322398 85.26065579 75.31624838 95.96811833 78 107 C79.09828125 106.25169922 79.09828125 106.25169922 80.21875 105.48828125 C88.03563365 100.30494292 96.06586687 95.65674512 104.3125 91.1875 C105.32570313 90.63682861 106.33890625 90.08615723 107.3828125 89.51879883 C121.6182579 81.87284409 135.37847938 76.51205094 151.6875 81.25 C176.18318938 90.75176672 200.00551865 106.95664143 219 125 C219.52706543 125.4945166 220.05413086 125.9890332 220.59716797 126.49853516 C249.88442363 154.13133244 269.05825473 191.41017256 276 231 C276.17732666 231.98226562 276.35465332 232.96453125 276.53735352 233.9765625 C278.17923801 244.04269545 278.35816181 253.94668857 278.3125 264.125 C278.31034485 264.98850067 278.3081897 265.85200134 278.30596924 266.7416687 C278.25534947 279.37393431 277.9310188 291.65706637 275 304 C274.80132324 304.86222168 274.60264648 305.72444336 274.39794922 306.61279297 C268.66675171 330.86412986 258.99186169 354.07428576 244.69140625 374.5546875 C243.01440399 376.97917576 241.49009458 379.45726979 240 382 C240.70125 382.55945313 241.4025 383.11890625 242.125 383.6953125 C252.86478884 392.77160144 260.14362672 403.73140537 262 418 C263.10631014 431.90789896 260.64896156 445.43135738 251.95703125 456.6328125 C242.60931166 467.41245471 231.39751972 475.0091606 217 477 C213.9375 477.125 213.9375 477.125 212 477 C211.9175 478.216875 211.835 479.43375 211.75 480.6875 C211.21448283 484.83959203 210.10514477 487.06270089 207 490 C201.24715484 493.89636386 195.44492614 493.43008873 188.75585938 493.40405273 C186.91094658 493.41434761 186.91094658 493.41434761 185.02876282 493.42485046 C181.66706451 493.43998588 178.30592209 493.44162104 174.94423103 493.43590808 C172.13357027 493.43281127 169.32295939 493.43891401 166.51230574 493.44494683 C159.88039443 493.45897756 153.24861199 493.45744244 146.61669922 493.44604492 C139.78305752 493.43456 132.94980811 493.44864861 126.11621809 493.4754414 C120.24001543 493.49761481 114.36393578 493.50423226 108.48769426 493.49836498 C104.98199087 493.49499869 101.47653903 493.49738853 97.97087097 493.51461601 C94.06180495 493.53298897 90.15321982 493.51888109 86.24414062 493.50170898 C85.08759476 493.51137695 83.93104889 493.52104492 82.73945618 493.53100586 C74.79914418 493.45790347 71.32980597 492.32980597 65.6875 486.6875 C63.64867518 483.4404827 63.29720795 480.78940134 63 477 C62.34773438 476.95101563 61.69546875 476.90203125 61.0234375 476.8515625 C60.14945312 476.77679688 59.27546875 476.70203125 58.375 476.625 C57.51648438 476.55539062 56.65796875 476.48578125 55.7734375 476.4140625 C53 476 53 476 47 474 C47 480.27 47 486.54 47 493 C-45.73 493 -138.46 493 -234 493 C-234 400.27 -234 307.54 -234 212 C-228.39 211.67 -222.78 211.34 -217 211 C-218.5778125 207.7515625 -218.5778125 207.7515625 -220.1875 204.4375 C-228.34695186 187.12520576 -234.02412058 167.46114747 -234.23828125 148.21484375 C-234.25304001 147.12032394 -234.25304001 147.12032394 -234.26809692 146.00369263 C-234.44289738 129.66277454 -234.34529537 113.88076002 -230 98 C-229.76394043 97.13455566 -229.52788086 96.26911133 -229.28466797 95.37744141 C-221.95242191 69.52311923 -208.73660565 47.17044891 -190 28 C-189.14019531 27.07832031 -188.28039062 26.15664063 -187.39453125 25.20703125 C-176.57629134 13.87744175 -163.87226785 5.20347172 -150 -2 C-149.35869141 -2.33628418 -148.71738281 -2.67256836 -148.05664062 -3.01904297 C-136.7909501 -8.84621866 -125.2873295 -12.89607104 -113 -16 C-112.32050293 -16.17934082 -111.64100586 -16.35868164 -110.94091797 -16.54345703 C-74.3300569 -25.79957983 -32.54631481 -17.92326468 0 0 Z " fill="#020202" transform="translate(234,19)"/>
<path d="M0 0 C1.73145753 -0.00457848 3.46291325 -0.00988889 5.19436646 -0.0158844 C8.799738 -0.02474842 12.40488725 -0.02247007 16.01025391 -0.01245117 C20.5810102 -0.00097349 25.15099243 -0.02118918 29.72164726 -0.05036831 C33.29095151 -0.06890591 36.86007624 -0.06840328 40.42941666 -0.06273079 C42.11235769 -0.06257969 43.7953126 -0.06844421 45.47820663 -0.08102226 C69.71679366 -0.23672483 91.50102917 7.01240486 111.6328125 20.43359375 C111.94021927 23.47493286 112.05245165 26.31380002 112.03686523 29.35864258 C112.04372849 30.28414917 112.05059174 31.20965576 112.05766296 32.16320801 C112.07603839 35.23916772 112.07207409 38.31462187 112.06640625 41.390625 C112.07096692 43.53138902 112.07627215 45.67215157 112.08229065 47.81291199 C112.09124579 52.31307901 112.08877604 56.81306887 112.07885742 61.31323242 C112.06743675 67.05166326 112.08746051 72.78947241 112.11677456 78.52782154 C112.13523096 82.95739068 112.13482413 87.38681398 112.12913704 91.81641197 C112.12898459 93.92969311 112.13496528 96.04298463 112.14742851 98.15622902 C112.25400006 119.21376824 108.25657243 134.31731857 94.09765625 150.51171875 C91.6328125 152.43359375 91.6328125 152.43359375 89.07421875 152.35546875 C86.6328125 151.43359375 86.6328125 151.43359375 84.79961205 150.39227009 C82.21574206 149.24906558 80.34383258 149.17936432 77.52261353 149.17289734 C75.97496056 149.16227013 75.97496056 149.16227013 74.39604187 149.15142822 C73.2697084 149.15390564 72.14337494 149.15638306 70.98291016 149.15893555 C69.79227463 149.15382462 68.6016391 149.14871368 67.37492371 149.14344788 C64.11241754 149.13192955 60.85006893 149.12947841 57.58754778 149.13201118 C54.86149807 149.13308163 52.13547174 149.1281955 49.40942705 149.12340575 C42.97605855 149.11231283 36.54274843 149.11187164 30.109375 149.11791992 C23.4791975 149.12395756 16.84923233 149.1116537 10.21909106 149.09034985 C4.52128551 149.07271697 -1.17645257 149.06673523 -6.87428439 149.0699876 C-10.27490488 149.07179825 -13.67537398 149.06918639 -17.0759697 149.05527306 C-20.87031174 149.04294483 -24.66416199 149.04967945 -28.45849609 149.0612793 C-29.5807811 149.05363556 -30.7030661 149.04599182 -31.85935974 149.03811646 C-37.56382809 149.07668654 -41.34871931 149.44647659 -46.3671875 152.43359375 C-52.43405059 151.10140423 -55.85713096 146.23577737 -59.3671875 141.43359375 C-68.62273614 125.95861084 -69.86853968 111.56182538 -69.94140625 93.91015625 C-69.9561501 91.8341767 -69.97102975 89.75819811 -69.98603821 87.68222046 C-70.01288696 83.35370794 -70.02654609 79.02536529 -70.03295898 74.69677734 C-70.04388628 69.15469971 -70.10583314 63.61441723 -70.1796751 58.07287025 C-70.22802951 53.7954189 -70.24048466 49.51840493 -70.24302101 45.24070358 C-70.25024282 43.19691422 -70.27068183 41.15312629 -70.30472374 39.1096077 C-70.34868049 36.25610124 -70.34201474 33.40690987 -70.32299805 30.55322266 C-70.34704712 29.71467743 -70.37109619 28.8761322 -70.39587402 28.01217651 C-70.32547173 24.42228402 -70.17566275 22.29395942 -67.65787697 19.61457443 C-65.62097361 18.05615052 -63.58827581 16.71351289 -61.3671875 15.43359375 C-60.68379146 15.03850428 -60.00039541 14.6434148 -59.2962904 14.23635292 C-57.43027502 13.19501096 -55.53938737 12.24192036 -53.6171875 11.30859375 C-52.92181885 10.96803955 -52.2264502 10.62748535 -51.51000977 10.27661133 C-34.83658024 2.27635591 -18.24758526 -0.04300895 0 0 Z " fill="#EFCFB3" transform="translate(350.3671875,214.56640625)"/>
<path d="M0 0 C0.97066406 -0.03738281 1.94132812 -0.07476562 2.94140625 -0.11328125 C27.01956912 2.81914306 52.96771823 24.31652862 70.4375 40.3125 C71.38109375 41.17230469 72.3246875 42.03210938 73.296875 42.91796875 C85.51379994 54.5876037 95.36376276 68.5190063 103.4375 83.3125 C103.78119629 83.93946777 104.12489258 84.56643555 104.47900391 85.21240234 C108.75498788 93.12026384 112.33479977 101.21109569 115.5 109.625 C115.81146973 110.44387695 116.12293945 111.26275391 116.44384766 112.10644531 C116.72147949 112.87182617 116.99911133 113.63720703 117.28515625 114.42578125 C117.53273682 115.10423096 117.78031738 115.78268066 118.03540039 116.48168945 C118.4375 118.3125 118.4375 118.3125 117.4375 121.3125 C117.02242187 120.85101563 116.60734375 120.38953125 116.1796875 119.9140625 C94.64715351 97.12020853 62.509051 84.62094307 31.55056763 83.12463379 C27.51272354 83.05112931 23.47966232 83.03361077 19.44140625 83.046875 C17.95417722 83.04552139 16.46694862 83.04357515 14.97972107 83.04107666 C11.88804848 83.03815708 8.79649279 83.04231875 5.70483398 83.05175781 C1.79108373 83.06314031 -2.12239167 83.05658009 -6.03613186 83.04461288 C-9.10010251 83.037299 -12.16401068 83.03972543 -15.22798347 83.04486847 C-16.66891578 83.04617934 -18.10985424 83.04465007 -19.55077934 83.03990936 C-32.66255795 83.00621835 -45.91515165 83.7759389 -58.5625 87.5 C-59.30612793 87.71503174 -60.04975586 87.93006348 -60.81591797 88.15161133 C-79.82175657 93.86788042 -96.04238106 103.63243585 -110.76953125 116.84375 C-113.5625 119.3125 -113.5625 119.3125 -116.5625 121.3125 C-106.57344786 79.16570983 -76.9960557 41.38415408 -40.48828125 18.7421875 C-9.85374122 0.24409528 -9.85374122 0.24409528 0 0 Z " fill="#959EA8" transform="translate(370.5625,115.6875)"/>
<path d="M0 0 C37.95 0 75.9 0 115 0 C115 27.06 115 54.12 115 82 C77.05 82 39.1 82 0 82 C0 54.94 0 27.88 0 0 Z " fill="#CBD0D8" transform="translate(314,380)"/>
<path d="M0 0 C29.04 0 58.08 0 88 0 C95.95981551 23.87944652 101 41.33038265 101 66 C63.38 66 25.76 66 -13 66 C-13 47.95212766 -13 47.95212766 -11.75 41.5625 C-11.61505127 40.86842041 -11.48010254 40.17434082 -11.34106445 39.45922852 C-10.91269205 37.30183345 -10.45871751 35.15112565 -10 33 C-9.85546387 32.29198242 -9.71092773 31.58396484 -9.56201172 30.85449219 C-7.33166434 20.01149663 -3.96409346 10.5709159 0 0 Z " fill="#68D4F1" transform="translate(113,83)"/>
<path d="M0 0 C37.62 0 75.24 0 114 0 C114 9.12301784 113.87823683 17.06625878 112.3125 25.875 C112.04566406 27.4223584 112.04566406 27.4223584 111.7734375 29.00097656 C110.21290353 37.62965321 107.90194215 45.73283922 105 54 C103.68 57.96 102.36 61.92 101 66 C71.96 66 42.92 66 13 66 C4.61583447 40.8475034 0 25.53740207 0 0 Z " fill="#68D5F2" transform="translate(100,165)"/>
<path d="M0 0 C19.14 0 38.28 0 58 0 C56 10 56 10 54.625 14 C49.76298465 28.16648127 48.19902914 42.62708994 47.23364258 57.49316406 C46.96774522 60.34607328 46.47104807 63.1737116 46 66 C24.22 66 2.44 66 -20 66 C-20 59.04998528 -19.79704777 53.41706643 -18.3125 46.8125 C-18.13170898 45.99225342 -17.95091797 45.17200684 -17.76464844 44.3269043 C-14.81206614 31.37603331 -10.1983764 19.63110611 -3.99560547 7.91186523 C-2.63098291 5.29137499 -1.32129965 2.6425993 0 0 Z " fill="#67D3F1" transform="translate(37,83)"/>
<path d="M0 0 C21.78 0 43.56 0 66 0 C66.99 10.89 66.99 10.89 68 22 C68.86421171 27.12354086 69.76781699 32.12568638 70.875 37.1875 C71.11863281 38.37923828 71.36226563 39.57097656 71.61328125 40.79882812 C72.99948397 47.33840107 74.73130506 53.48626986 77.23486328 59.6887207 C78 62 78 62 78 66 C58.86 66 39.72 66 20 66 C10.68406155 48.5326154 10.68406155 48.5326154 8.1875 41.8125 C7.90108643 41.05694824 7.61467285 40.30139648 7.31958008 39.52294922 C5.06480221 33.44766539 3.26006346 27.36243308 2 21 C1.79632812 19.98292969 1.59265625 18.96585938 1.3828125 17.91796875 C0.23756123 11.68184024 0 6.51592879 0 0 Z " fill="#68D4F2" transform="translate(17,165)"/>
<path d="M0 0 C19.14 0 38.28 0 58 0 C66.33144841 15.82975198 72.07940792 28.19393999 75.58496094 45.07470703 C75.9408539 46.72563167 76.35894725 48.36293336 76.7890625 49.99609375 C77.59008529 53.82785204 77.63487164 56.0184831 75.46229553 59.37730408 C71.23703697 63.96960031 68.19232788 66.55323248 61.83764648 67.02172852 C59.51497472 67.02031939 57.19196372 66.97038684 54.87109375 66.87890625 C53.64084976 66.86617172 52.41060577 66.85343719 51.14308167 66.84031677 C47.23915986 66.79019948 43.34000062 66.67732899 39.4375 66.5625 C36.78066702 66.51221524 34.12387876 66.47626841 31.46679688 66.43945312 C24.97625784 66.34057779 18.48846917 66.19025506 12 66 C11.91024902 65.16154541 11.82049805 64.32309082 11.72802734 63.45922852 C9.80638109 45.91194186 7.3348676 28.89298279 2.71435547 11.80883789 C1.71884923 7.89451825 0.87616627 3.94274822 0 0 Z " fill="#68D4F1" transform="translate(219,83)"/>
<path d="M0 0 C27.39 0 54.78 0 83 0 C83 16.17 83 32.34 83 49 C55.61 49 28.22 49 0 49 C0 32.83 0 16.66 0 0 Z " fill="#B17845" transform="translate(165,380)"/>
<path d="M0 0 C27.06 0 54.12 0 82 0 C82 16.17 82 32.34 82 49 C54.94 49 27.88 49 0 49 C0 32.83 0 16.66 0 0 Z " fill="#B27946" transform="translate(116,446)"/>
<path d="M0 0 C27.06 0 54.12 0 82 0 C82 16.17 82 32.34 82 49 C54.94 49 27.88 49 0 49 C0 32.83 0 16.66 0 0 Z " fill="#D3A06C" transform="translate(17,446)"/>
<path d="M0 0 C27.06 0 54.12 0 82 0 C82 16.17 82 32.34 82 49 C54.94 49 27.88 49 0 49 C0 32.83 0 16.66 0 0 Z " fill="#B27946" transform="translate(116,314)"/>
<path d="M0 0 C27.06 0 54.12 0 82 0 C82 16.17 82 32.34 82 49 C54.94 49 27.88 49 0 49 C0 32.83 0 16.66 0 0 Z " fill="#D3A06C" transform="translate(17,314)"/>
<path d="M0 0 C24.75 0 49.5 0 75 0 C75 16.5 75 33 75 50 C50.25 50 25.5 50 0 50 C0 33.5 0 17 0 0 Z " fill="#CE9C69" transform="translate(74,380)"/>
<path d="M0 0 C24.75 0 49.5 0 75 0 C75 16.17 75 32.34 75 49 C50.25 49 25.5 49 0 49 C0 32.83 0 16.66 0 0 Z " fill="#D19E6B" transform="translate(74,248)"/>
<path d="M0 0 C22.77 0 45.54 0 69 0 C68.43523965 7.3418845 67.81317072 14.68146356 67 22 C66.67 30.91 66.34 39.82 66 49 C44.22 49 22.44 49 0 49 C0 32.83 0 16.66 0 0 Z " fill="#B17845" transform="translate(165,248)"/>
<path d="M0 0 C10.89 0 21.78 0 33 0 C33.66 3.96 34.32 7.92 35 12 C38.24467622 20.57521573 42.49528709 28.49528709 49 35 C49 39.62 49 44.24 49 49 C32.83 49 16.66 49 0 49 C0 32.83 0 16.66 0 0 Z " fill="#D29F6B" transform="translate(215,446)"/>
<path d="M0 0 C13.53 0 27.06 0 41 0 C41 16.17 41 32.34 41 49 C27.47 49 13.94 49 0 49 C0 32.83 0 16.66 0 0 Z " fill="#B17845" transform="translate(17,380)"/>
<path d="M0 0 C13.53 0 27.06 0 41 0 C41 16.17 41 32.34 41 49 C27.47 49 13.94 49 0 49 C0 32.83 0 16.66 0 0 Z " fill="#B17845" transform="translate(17,248)"/>
<path d="M0 0 C4.37183048 2.29968034 7.21905846 5.40870008 10 9.4375 C10.61875 10.30375 11.2375 11.17 11.875 12.0625 C14.14947665 18.88592994 14.10300312 26.56782969 11.5 33.3125 C8.37404429 39.32140427 3.43277809 43.01455432 -2.3125 46.375 C-9.35670944 48.40468747 -15.57478288 48.44959079 -22.3125 45.375 C-29.21102576 41.48773549 -33.74363061 36.08408517 -36 28.4375 C-37.05872671 20.13237716 -36.0935129 13.22885054 -31 6.4375 C-22.37839717 -1.83682286 -11.51771205 -4.5992229 0 0 Z " fill="#020303" transform="translate(383,398.5625)"/>
<path d="M0 0 C14.50105659 5.27591633 26.96902302 27.95440508 34 41 C34.99 43.475 34.99 43.475 36 46 C12.9 46 -10.2 46 -34 46 C-28.53040127 32.32600318 -19.50407758 21.08396816 -10 10 C-9.16210938 9.01902344 -8.32421875 8.03804687 -7.4609375 7.02734375 C-2.36745084 1.18372542 -2.36745084 1.18372542 0 0 Z " fill="#68D4F2" transform="translate(156,20)"/>
<path d="M0 0 C37.95 0 75.9 0 115 0 C115 5.28 115 10.56 115 16 C77.05 16 39.1 16 0 16 C0 10.72 0 5.44 0 0 Z " fill="#AAB2BD" transform="translate(314,479)"/>
<path d="M0 0 C23.61702128 13.12056738 23.61702128 13.12056738 30 25 C30.53367187 25.96486328 30.53367187 25.96486328 31.078125 26.94921875 C34.40029017 34.15227688 34.08004329 43.25547786 31.875 50.75 C28.34130896 59.74935335 22.66357553 67.38284652 13.8046875 71.4765625 C5.00593575 75 5.00593575 75 0 75 C0 50.25 0 25.5 0 0 Z " fill="#949DA8" transform="translate(446,404)"/>
<path d="M0 0 C0 24.42 0 48.84 0 74 C-9.81267722 74 -16.28227473 71.30133184 -23.47265625 64.65234375 C-30.58821411 56.95443845 -33.71701187 47.19532419 -33.3359375 36.7890625 C-31.96535475 25.4100383 -25.98272425 17.84396708 -17.25 10.7734375 C-2.72401685 0 -2.72401685 0 0 0 Z " fill="#949DA8" transform="translate(297,404)"/>
<path d="M0 0 C13.53 0 27.06 0 41 0 C34 11 34 11 31.734375 14.328125 C26.87682009 21.48058774 22.92452149 28.89013323 19.1875 36.6875 C18.73149414 37.6372168 18.27548828 38.58693359 17.80566406 39.56542969 C13.75729612 48.18424692 10.61612148 56.84357484 8 66 C1.07 66 -5.86 66 -13 66 C-12.54109375 64.5459375 -12.0821875 63.091875 -11.609375 61.59375 C-5.30153034 41.11775385 -2.37138793 21.34249136 0 0 Z " fill="#67D3F0" transform="translate(231,165)"/>
<path d="M0 0 C33.14507443 3.36254378 60.6000288 22.58184829 83 46 C83 46.33 83 46.66 83 47 C65.51 47 48.02 47 30 47 C24.555 37.1 24.555 37.1 19 27 C13.80600484 19.36545289 8.41217165 12.07090972 2.49609375 4.98828125 C1 3 1 3 0 0 Z " fill="#67D3F1" transform="translate(181,19)"/>
<path d="M0 0 C-0.34144043 0.43119141 -0.68288086 0.86238281 -1.03466797 1.30664062 C-7.15109331 9.0684561 -13.14297896 16.85709648 -18.375 25.25 C-18.74222168 25.83716797 -19.10944336 26.42433594 -19.48779297 27.02929688 C-23.26612162 33.21843104 -26.5514878 39.5956202 -30 46 C-47.16 46 -64.32 46 -82 46 C-71.93724401 25.87448802 -43.1501395 11.37748515 -23 4 C-19.56667542 2.87694385 -16.11347175 1.87428131 -12.625 0.9375 C-11.82223633 0.72125977 -11.01947266 0.50501953 -10.19238281 0.28222656 C-6.41126999 -0.65940505 -3.7225921 -1.15509082 0 0 Z " fill="#67D3F0" transform="translate(133,20)"/>
<path d="M0 0 C5.50626565 5.44294116 5.50626565 5.44294116 7.640625 8.69921875 C8.07117188 9.35083984 8.50171875 10.00246094 8.9453125 10.67382812 C9.37585938 11.33833984 9.80640625 12.00285156 10.25 12.6875 C10.69601562 13.36361328 11.14203125 14.03972656 11.6015625 14.73632812 C19.67692872 27.03290851 17.22818659 49.21038187 14.55078125 63.50170898 C9.16633247 88.70293662 -0.72477092 119.88682374 -19 139 C-20.8984375 139.9921875 -20.8984375 139.9921875 -23 140 C-25.578125 138.56640625 -25.578125 138.56640625 -28.25 136.5625 C-29.14203125 135.90378906 -30.0340625 135.24507812 -30.953125 134.56640625 C-31.96632813 133.79103516 -31.96632813 133.79103516 -33 133 C-30.20064963 130.11316993 -27.36578077 127.47997711 -24.25 124.9375 C-10.66884519 113.07320816 -2.75867723 95.77231327 -1 78 C-0.89124015 75.30316696 -0.81683185 72.62839553 -0.79467773 69.93164062 C-0.78477814 69.16969391 -0.77487854 68.40774719 -0.76467896 67.62271118 C-0.73339068 65.1339211 -0.70843751 62.64511202 -0.68359375 60.15625 C-0.66299591 58.41889992 -0.64199874 56.68155453 -0.62062073 54.94421387 C-0.56569211 50.39379704 -0.51615526 45.8433372 -0.46777344 41.29284668 C-0.41734376 36.64050514 -0.36177027 31.9882253 -0.30664062 27.3359375 C-0.19941689 18.22401116 -0.09789398 9.11203102 0 0 Z " fill="#C9CDD5" transform="translate(479,251)"/>
<path d="M0 0 C6.82352614 5.36134197 12.80078036 11.13778223 16.5703125 19.01953125 C12.2803125 21.98953125 7.9903125 24.95953125 3.5703125 28.01953125 C-1.7396875 22.70953125 -1.7396875 22.70953125 -4.1171875 19.58203125 C-9.83238489 12.87033791 -17.71043482 8.90982772 -26.4296875 8.01953125 C-38.61943897 7.1098483 -47.18858942 9.36206406 -56.93359375 16.8125 C-60.36065944 19.8426911 -62.99657462 23.15940279 -65.4296875 27.01953125 C-69.19088226 26.39559474 -71.61928792 24.6717941 -74.6796875 22.45703125 C-76.01773437 21.49603516 -76.01773437 21.49603516 -77.3828125 20.515625 C-78.05828125 20.02191406 -78.73375 19.52820313 -79.4296875 19.01953125 C-75.77819116 8.23800785 -65.33584746 0.51327268 -55.6171875 -4.66796875 C-36.7506505 -13.54297098 -17.2140028 -11.79287655 0 0 Z " fill="#040403" transform="translate(403.4296875,306.98046875)"/>
<path d="M0 0 C0.33 0 0.66 0 1 0 C1.00142502 0.94974701 1.00285004 1.89949402 1.00431824 2.87802124 C1.02111979 11.90835478 1.06428873 20.93824527 1.13209057 29.96834373 C1.16611798 34.60884203 1.19143228 39.24901959 1.19555664 43.88964844 C1.19989235 48.38335828 1.22878225 52.8763476 1.27343178 57.36983109 C1.2862408 59.06863808 1.29077476 60.76753207 1.28615379 62.46638107 C1.23959834 84.81706968 7.33899999 105.42566551 23 122 C25.03880794 123.93243535 27.10491094 125.77770448 29.2734375 127.5625 C30.95134569 128.95949143 32.48049658 130.43388605 34 132 C32.42825925 133.20280161 30.84212442 134.38681275 29.25 135.5625 C28.36828125 136.22378906 27.4865625 136.88507813 26.578125 137.56640625 C24 139 24 139 21.875 138.9765625 C14.43935033 135.1038283 9.92590961 123.01340654 5.96435547 115.75732422 C5.07815204 114.14241479 4.16717778 112.54116376 3.25390625 110.94140625 C-7.48444367 91.07669888 -13.38622873 68.40724813 -15 46 C-15.07379883 44.98268799 -15.14759766 43.96537598 -15.22363281 42.91723633 C-16.00405411 30.35345395 -16.63471493 19.82614103 -8.3984375 9.703125 C-7.60695312 8.81109375 -6.81546875 7.9190625 -6 7 C-5.06027344 5.81664062 -5.06027344 5.81664062 -4.1015625 4.609375 C-2.5 2.625 -2.5 2.625 0 0 Z " fill="#C8CDD5" transform="translate(263,252)"/>
<path d="M0 0 C6.27 0 12.54 0 19 0 C19.51046875 2.44986328 19.51046875 2.44986328 20.03125 4.94921875 C23.04491801 18.92993508 26.79835391 32.07444919 32.36083984 45.2578125 C33 47 33 47 33 49 C22.11 49 11.22 49 0 49 C0 32.83 0 16.66 0 0 Z " fill="#D19E6B" transform="translate(215,314)"/>
<path d="M0 0 C2.79493035 0.47573282 4.60393888 0.9165121 6.9375 2.5 C9.28299674 6.01824511 9.51741403 7.35775694 8.9375 11.5 C6.875 14.375 6.875 14.375 3.9375 16.5 C-0.06057408 17.13127485 -2.06985985 17.17917484 -5.4375 14.875 C-7.49438056 11.86878996 -8.1357472 10.1623602 -8.0625 6.5 C-5.73882347 2.69762022 -4.49532828 0.73393115 0 0 Z " fill="#65CEEB" transform="translate(371.0625,412.5)"/>
<path d="M0 0 C3.39417765 3.12621626 5.6062718 5.56541027 7 10 C2.25 14 2.25 14 0 14 C0 9.38 0 4.76 0 0 Z " fill="#BB8E60" transform="translate(264,392)"/>
</svg>
