<?xml version="1.0" encoding="UTF-8"?>
<svg version="1.1" xmlns="http://www.w3.org/2000/svg" width="512" height="512">
<path d="M0 0 C0.98079588 -0.00594224 1.96159176 -0.01188449 2.97210872 -0.0180068 C6.25600716 -0.03533888 9.53975942 -0.03839371 12.82369995 -0.04138184 C15.17947195 -0.05064122 17.53524095 -0.06069095 19.89100647 -0.07147217 C26.95721515 -0.10043073 34.02339255 -0.11248539 41.08964998 -0.12226319 C44.42236836 -0.12742595 47.75508149 -0.13500561 51.08779526 -0.14250183 C62.17467961 -0.16688083 73.2615563 -0.18748008 84.34846687 -0.19425201 C85.05743171 -0.19469115 85.76639655 -0.19513028 86.49684518 -0.19558272 C87.56275771 -0.19623755 87.56275771 -0.19623755 88.65020382 -0.19690561 C90.09003457 -0.19779253 91.52986531 -0.19868565 92.96969604 -0.19958496 C94.04099218 -0.20024925 94.04099218 -0.20024925 95.13393067 -0.20092696 C106.69740819 -0.20881711 118.2606332 -0.24370996 129.82401325 -0.29030401 C141.71200161 -0.33781709 153.5998635 -0.36265964 165.4879483 -0.36498785 C172.15619802 -0.36681667 178.82416311 -0.37884551 185.4923439 -0.41462708 C191.76830177 -0.44764902 198.04363672 -0.45187071 204.31965065 -0.43434906 C206.61736408 -0.43281148 208.91511142 -0.4414522 211.21273994 -0.46126556 C235.23828124 -0.65622279 235.23828124 -0.65622279 245.40826225 8.19392109 C251.73193591 14.4221063 254.36866698 22.85964604 254.66403198 31.57849121 C254.66340885 33.84787688 254.64142156 36.11733477 254.60055542 38.38635254 C254.59489563 39.59157059 254.58923584 40.79678864 254.58340454 42.03852844 C254.56119897 45.84890208 254.51103043 49.65829933 254.45993042 53.46838379 C254.43984506 56.06797949 254.42159789 58.66759007 254.40524292 61.26721191 C254.36138607 67.60542986 254.29463349 73.94308704 254.20993042 80.28088379 C255.29532104 80.23447754 256.38071167 80.18807129 257.49899292 80.14025879 C258.94427773 80.10271892 260.38959253 80.06632115 261.83493042 80.03088379 C262.54778198 79.99736816 263.26063354 79.96385254 263.99508667 79.92932129 C269.19257887 79.83395446 272.13211859 80.77861897 276.20993042 84.28088379 C278.35034895 87.58054427 278.44489227 90.25462288 278.40524292 94.14025879 C278.39879761 95.25529785 278.39235229 96.37033691 278.38571167 97.51916504 C278.36895386 98.67803223 278.35219604 99.83689941 278.33493042 101.03088379 C278.32590698 102.20521973 278.31688354 103.37955566 278.30758667 104.58947754 C278.28403105 107.48681915 278.25113694 110.3837482 278.20993042 113.28088379 C278.83775925 113.27200134 279.46558807 113.2631189 280.11244202 113.25396729 C286.64980969 113.16543924 293.18700693 113.10512667 299.724823 113.06115723 C302.16434649 113.04104815 304.60382182 113.01375696 307.04318237 112.97912598 C310.5507089 112.9305789 314.05759785 112.90790747 317.56539917 112.89025879 C318.65515549 112.86961365 319.7449118 112.84896851 320.86769104 112.82769775 C328.38451416 112.82547276 328.38451416 112.82547276 332.31271362 114.99279785 C335.49859142 118.83503781 336.45956402 122.39100434 336.46389771 127.32824707 C336.46953735 128.32076477 336.475177 129.31328247 336.48098755 130.33587646 C336.47491486 131.95220978 336.47491486 131.95220978 336.46871948 133.60119629 C336.47397644 135.31662628 336.47397644 135.31662628 336.4793396 137.06671143 C336.48814114 140.84649732 336.48231318 144.626096 336.47555542 148.40588379 C336.47690252 151.032349 336.47884343 153.65881397 336.48135376 156.28527832 C336.48498936 161.78969348 336.48020498 167.29405492 336.47067261 172.79846191 C336.45978881 179.15655129 336.46331467 185.51451238 336.47432542 191.87259865 C336.48450466 197.99632082 336.48341491 204.11998626 336.47756195 210.24371338 C336.47622702 212.84645607 336.4778677 215.44920204 336.48252106 218.05194092 C336.4875954 221.68823949 336.47986291 225.32429113 336.46871948 228.96057129 C336.47276794 230.03812683 336.47681641 231.11568237 336.48098755 232.22589111 C336.4753479 233.21840881 336.46970825 234.21092651 336.46389771 235.23352051 C336.46276663 236.52212479 336.46276663 236.52212479 336.4616127 237.83676147 C336.03074331 242.02099526 334.95248942 244.49537394 332.05070496 247.56500244 C328.54341165 249.68347369 325.73256938 249.81864248 321.75753784 249.73498535 C321.02528992 249.73556946 320.29304199 249.73615356 319.53860474 249.73675537 C317.13037883 249.73397977 314.72340747 249.70291481 312.31539917 249.67150879 C310.64103369 249.66404448 308.96665945 249.65835244 307.2922821 249.65435791 C302.89442648 249.6391164 298.49710284 249.59984775 294.09945679 249.55554199 C289.60835974 249.51455705 285.11717637 249.49634004 280.62594604 249.47619629 C271.82036391 249.4333517 263.01521342 249.36511882 254.20993042 249.28088379 C254.21361759 250.49733235 254.21730476 251.71378092 254.22110367 252.96709156 C254.3078151 281.87087694 254.37373249 310.77466006 254.41419174 339.67854549 C254.41919431 343.23943258 254.42437162 346.80031938 254.42965698 350.36120605 C254.43070622 351.07008696 254.43175547 351.77896786 254.4328365 352.50933 C254.45022145 363.97355948 254.48174854 375.43770839 254.5185416 386.90189014 C254.55600433 398.6732774 254.57817751 410.44462259 254.5862844 422.21606702 C254.59127085 428.82452097 254.60372101 435.43282529 254.63285065 442.04122353 C254.66006298 448.26526871 254.66836351 454.48905672 254.66236115 460.71315575 C254.66345876 462.99354323 254.67137764 465.27393959 254.68675232 467.55427551 C254.86161739 494.83514479 254.86161739 494.83514479 245.32193565 504.50766945 C233.97656252 514.03310907 221.96294706 513.12720752 207.88327026 513.0255127 C205.52336486 513.03037436 203.16346359 513.03781866 200.80357361 513.04763794 C194.42136299 513.06638173 188.03976978 513.04766926 181.65760756 513.02097368 C175.64568101 513.00057463 169.63380922 513.00557787 163.62186261 513.00937872 C151.71035962 513.01574403 139.79909662 512.99250496 127.88766479 512.95324707 C116.34885352 512.91522769 104.81032329 512.90107819 93.27145386 512.91223145 C80.68082928 512.92436546 68.09032793 512.92396059 55.49971354 512.90125978 C54.15557711 512.8988454 52.81144067 512.89643343 51.46730423 512.8940239 C50.80610063 512.89281682 50.14489703 512.89160974 49.46365695 512.89036608 C44.81997838 512.88263059 40.1763474 512.88350655 35.53266525 512.88719559 C29.27637473 512.89097057 23.02044321 512.8746833 16.76423454 512.8430748 C14.47215828 512.83461068 12.18004552 512.83287347 9.88796043 512.8384552 C6.75192275 512.84493207 3.61694665 512.82665474 0.48101807 512.80227661 C-0.41938662 512.80983526 -1.31979131 512.81739391 -2.24748099 512.8251816 C-10.07522481 512.71801619 -16.49914372 510.432643 -23.04006958 506.15588379 C-31.9401211 496.85128447 -34.10465998 486.99332886 -34.03057861 474.52416992 C-34.03228746 473.46377801 -34.03399631 472.40338611 -34.03575695 471.31086111 C-34.03904194 467.7702002 -34.02806432 464.22973027 -34.01712036 460.68908691 C-34.01655603 458.14606735 -34.01687323 455.60304745 -34.01800537 453.06002808 C-34.01846029 447.59149257 -34.01280041 442.12301818 -34.00152969 436.65449524 C-33.98524499 428.74803533 -33.98006365 420.84159848 -33.97755371 412.93512362 C-33.97318126 400.10602796 -33.95988439 387.2769578 -33.94094849 374.44787598 C-33.92257802 361.9888929 -33.90842723 349.52991675 -33.89993286 337.07092285 C-33.89940741 336.30237978 -33.89888197 335.53383671 -33.8983406 334.74200445 C-33.89573044 330.88627919 -33.89320304 327.03055388 -33.89071679 323.17482853 C-33.86999831 291.21016175 -33.83478506 259.24552632 -33.79006958 227.28088379 C-34.87546021 227.32729004 -35.96085083 227.37369629 -37.07913208 227.42150879 C-38.52441689 227.45904865 -39.96973169 227.49544643 -41.41506958 227.53088379 C-42.12792114 227.56439941 -42.84077271 227.59791504 -43.57522583 227.63244629 C-48.78712896 227.72807754 -51.64504423 226.70736697 -55.79006958 223.28088379 C-58.64119059 218.8125561 -58.07824675 213.47361018 -58.05569458 208.34338379 C-58.05760803 207.38569092 -58.05952148 206.42799805 -58.06149292 205.44128418 C-58.06285118 203.42069231 -58.05917987 201.4000916 -58.05081177 199.3795166 C-58.04010726 196.29175156 -58.05071934 193.2045683 -58.06350708 190.11682129 C-58.06218542 188.15067418 -58.0596229 186.18452742 -58.05569458 184.21838379 C-58.05974304 183.2974292 -58.0637915 182.37647461 -58.06796265 181.4276123 C-58.02568403 175.63071382 -57.75044255 171.45169227 -53.71585083 166.98400879 C-49.7017291 164.64735048 -46.51988715 164.83443105 -41.97756958 165.03088379 C-39.27569458 165.11338379 -36.57381958 165.19588379 -33.79006958 165.28088379 C-33.79006958 157.69088379 -33.79006958 150.10088379 -33.79006958 142.28088379 C-39.48990762 142.47779414 -39.48990762 142.47779414 -45.18728638 142.73132324 C-49.47422947 142.80584115 -51.2725869 142.66983261 -54.80960083 140.01135254 C-57.5019716 136.29938573 -57.91037745 133.39517437 -57.95120239 128.88293457 C-57.96080994 128.02168976 -57.97041748 127.16044495 -57.98031616 126.27310181 C-57.98456604 125.35012299 -57.98881592 124.42714417 -57.99319458 123.47619629 C-57.99889465 122.51946014 -58.00459473 121.562724 -58.01046753 120.57699585 C-58.01990442 118.55463767 -58.0264463 116.53226421 -58.03030396 114.5098877 C-58.04001207 111.42416458 -58.07104902 108.33910701 -58.10256958 105.25354004 C-58.10909988 103.28609607 -58.11435025 101.31864734 -58.11819458 99.35119629 C-58.13054138 98.43226593 -58.14288818 97.51333557 -58.15560913 96.56655884 C-58.13781087 91.42148755 -57.84128578 87.63655727 -54.79006958 83.28088379 C-50.70922615 79.7735643 -46.61986391 79.91416173 -41.47756958 80.09338379 C-40.36671997 80.11368652 -40.36671997 80.11368652 -39.23342896 80.13439941 C-37.41865883 80.169524 -35.6042667 80.22332407 -33.79006958 80.28088379 C-33.79673141 79.63910187 -33.80339325 78.99731995 -33.81025696 78.33609009 C-33.87694269 71.61949708 -33.92200753 64.90299907 -33.9548645 58.18615723 C-33.96989392 55.68383968 -33.99032308 53.18154822 -34.01638794 50.67932129 C-34.05302836 47.06988054 -34.06985504 43.46078996 -34.08303833 39.85119629 C-34.09852219 38.74349884 -34.11400604 37.63580139 -34.12995911 36.49453735 C-34.13223339 25.85199472 -31.97567183 16.41523439 -24.79006958 8.28088379 C-17.05823862 1.80997867 -9.8879026 -0.01878764 0 0 Z " fill="#107295" transform="translate(116.79006958007813,-0.2808837890625)"/>
<path d="M0 0 C0.98079588 -0.00594224 1.96159176 -0.01188449 2.97210872 -0.0180068 C6.25600716 -0.03533888 9.53975942 -0.03839371 12.82369995 -0.04138184 C15.17947195 -0.05064122 17.53524095 -0.06069095 19.89100647 -0.07147217 C26.95721515 -0.10043073 34.02339255 -0.11248539 41.08964998 -0.12226319 C44.42236836 -0.12742595 47.75508149 -0.13500561 51.08779526 -0.14250183 C62.17467961 -0.16688083 73.2615563 -0.18748008 84.34846687 -0.19425201 C85.05743171 -0.19469115 85.76639655 -0.19513028 86.49684518 -0.19558272 C87.56275771 -0.19623755 87.56275771 -0.19623755 88.65020382 -0.19690561 C90.09003457 -0.19779253 91.52986531 -0.19868565 92.96969604 -0.19958496 C94.04099218 -0.20024925 94.04099218 -0.20024925 95.13393067 -0.20092696 C106.69740819 -0.20881711 118.2606332 -0.24370996 129.82401325 -0.29030401 C141.71200161 -0.33781709 153.5998635 -0.36265964 165.4879483 -0.36498785 C172.15619802 -0.36681667 178.82416311 -0.37884551 185.4923439 -0.41462708 C191.76830177 -0.44764902 198.04363672 -0.45187071 204.31965065 -0.43434906 C206.61736408 -0.43281148 208.91511142 -0.4414522 211.21273994 -0.46126556 C235.23099854 -0.6561637 235.23099854 -0.6561637 245.40826225 8.1921587 C252.77813575 15.45795518 254.53617699 24.63727302 254.66403198 34.60778809 C254.67831478 38.27422557 254.64189689 41.93893316 254.60055542 45.60510254 C254.59308254 47.56235675 254.58739457 49.51961852 254.58340454 51.47688293 C254.56823059 56.59468738 254.52902095 61.71202799 254.48458862 66.82965088 C254.44345696 72.06528451 254.42535551 77.30099407 254.40524292 82.53674316 C254.36251764 92.78502521 254.29223637 103.03284312 254.20993042 113.28088379 C245.62993042 113.28088379 237.04993042 113.28088379 228.20993042 113.28088379 C228.18487427 110.74674805 228.15981812 108.2126123 228.13400269 105.60168457 C228.05065318 97.24367012 227.9619514 88.8857187 227.87059116 80.52778816 C227.81534652 75.45869272 227.76192406 70.38959152 227.71261597 65.32043457 C227.66499515 60.43154641 227.61265318 55.54272982 227.55698967 50.65392685 C227.53655576 48.78556975 227.51784441 46.91719303 227.5008564 45.04880142 C227.47683531 42.43875252 227.44677767 39.82883958 227.41525269 37.21887207 C227.40949722 36.44060059 227.40374176 35.6623291 227.39781189 34.86047363 C227.41971151 30.94186114 227.41971151 30.94186114 226.20993042 27.28088379 C205.41993042 27.28088379 184.62993042 27.28088379 163.20993042 27.28088379 C160.30837542 33.08399378 157.83621698 38.62166147 155.55368042 44.64416504 C154.01735427 47.6587585 153.13869699 48.61838677 150.20993042 50.28088379 C147.55887183 50.58095763 145.14203413 50.71150784 142.49142456 50.70080566 C141.33216713 50.71350998 141.33216713 50.71350998 140.14949036 50.72647095 C137.59785451 50.74984679 135.04682144 50.75086301 132.49508667 50.74963379 C130.71915953 50.75673495 128.94323469 50.76443388 127.16731262 50.77270508 C123.44585797 50.78615115 119.72461546 50.78771808 116.00314331 50.78186035 C111.23684138 50.7759636 106.47155785 50.80655364 101.70545292 50.84697723 C98.03795397 50.87284117 94.37070067 50.87573287 90.70312309 50.87208557 C88.94605385 50.87377801 87.18897341 50.88343245 85.43199348 50.90122986 C82.97324818 50.92339535 80.51656974 50.91373207 78.05783081 50.89611816 C77.33403229 50.90938141 76.61023376 50.92264465 75.86450195 50.93630981 C71.9531071 50.87128397 70.35235781 50.39842833 67.29408264 47.87445068 C65.46048149 45.5926753 64.26393576 43.81598547 63.22555542 41.10900879 C62.78276245 39.98945801 62.78276245 39.98945801 62.33102417 38.84729004 C61.89983276 37.70066895 61.89983276 37.70066895 61.45993042 36.53088379 C59.88986066 31.54167418 59.88986066 31.54167418 57.20993042 27.28088379 C55.28231225 27.18167516 53.35103688 27.15289014 51.42086792 27.15148926 C50.18288452 27.1483371 48.94490112 27.14518494 47.66940308 27.14193726 C46.30791183 27.14372704 44.94642091 27.14577799 43.58493042 27.14807129 C42.19869978 27.1473982 40.81246925 27.14642813 39.42623901 27.14517212 C36.5175362 27.14369539 33.60886405 27.14584889 30.70016479 27.1505127 C26.96396444 27.15620998 23.2278359 27.15293084 19.49163818 27.14694023 C16.62813776 27.14333394 13.76465449 27.14447352 10.90115356 27.14706802 C9.5231831 27.1477371 8.1452111 27.14690952 6.76724243 27.14458847 C4.84449288 27.14206087 2.9217379 27.14659355 0.99899292 27.15148926 C-0.0971936 27.15228485 -1.19338013 27.15308044 -2.32278442 27.15390015 C-4.73430309 27.00184144 -4.73430309 27.00184144 -5.79006958 28.28088379 C-5.88975977 30.70410971 -5.92369819 33.0988739 -5.91591072 35.5226593 C-5.91736416 36.29341195 -5.9188176 37.0641646 -5.92031509 37.85827339 C-5.92400174 40.474179 -5.92047642 43.09002731 -5.91705322 45.70593262 C-5.91820399 47.58699225 -5.91979121 49.46805167 -5.92178047 51.3491106 C-5.92597989 56.54404434 -5.92388035 61.73895985 -5.92079425 66.93389368 C-5.91854284 72.52631413 -5.92201846 78.11873131 -5.92477417 83.71115112 C-5.92923366 94.67694048 -5.92825461 105.64272301 -5.92536153 116.60851264 C-5.92310819 125.51628154 -5.92279467 134.42404852 -5.92388535 143.33181763 C-5.9241152 145.2295284 -5.9241152 145.2295284 -5.92434969 147.16557676 C-5.9246694 149.73524149 -5.92499361 152.30490623 -5.92532228 154.87457097 C-5.92809611 178.31303495 -5.92521375 201.75149455 -5.91997968 225.18995769 C-5.91523376 246.60535954 -5.91565838 268.02075543 -5.92044067 289.43615723 C-5.9257905 313.47358514 -5.9279029 337.51100934 -5.92482841 361.54843807 C-5.92450984 364.10894203 -5.92419547 366.66944599 -5.92388535 369.22994995 C-5.92373107 370.48994853 -5.92357679 371.74994712 -5.92341784 373.04812747 C-5.92255242 381.95087852 -5.92401611 390.85362746 -5.9263649 399.75637817 C-5.92916212 410.59769494 -5.9284263 421.43900447 -5.92308415 432.28032041 C-5.92044607 437.8175339 -5.91944387 443.35473528 -5.92273331 448.8919487 C-5.9256941 453.95225944 -5.92410712 459.01254676 -5.91875575 464.07285535 C-5.91763063 465.9119964 -5.91822483 467.7511394 -5.92063154 469.59027922 C-5.92363371 472.07325114 -5.92059296 474.5561408 -5.91591072 477.03910828 C-5.91825189 477.76777694 -5.92059305 478.4964456 -5.92300516 479.24719512 C-6.19637342 482.54659344 -6.19637342 482.54659344 -4.79006958 485.28088379 C-1.81915827 485.37887292 1.12851473 485.41079902 4.09983826 485.40113831 C5.04399328 485.40199273 5.9881483 485.40284716 6.96091408 485.40372747 C10.15013951 485.40538516 13.33931328 485.3998562 16.52853394 485.39440918 C18.80451455 485.39412734 21.08049526 485.39428497 23.35647583 485.39485168 C29.55664 485.3951398 35.75678501 485.38924081 41.9569447 485.38227773 C48.42855563 485.37604652 54.90016694 485.37544058 61.3717804 485.37425232 C72.2409299 485.3714926 83.11007151 485.36523705 93.97921753 485.35632324 C105.17648279 485.34714987 116.37374614 485.34006867 127.5710144 485.33581543 C128.26074766 485.33555271 128.95048091 485.33528998 129.66111518 485.3350193 C133.12116499 485.3337143 136.58121482 485.33245058 140.04126465 485.33120739 C168.76415802 485.32083388 197.48704394 485.30314066 226.20993042 485.28088379 C227.9221267 481.85649122 227.36407393 477.92570208 227.3681488 474.15682983 C227.37555577 472.72093968 227.37555577 472.72093968 227.38311237 471.25604165 C227.39854647 468.02848434 227.40686395 464.80094701 227.41525269 461.57336426 C227.42482657 459.26767804 227.43483635 456.9619936 227.44525146 454.65631104 C227.47235969 448.37978144 227.49333715 442.10324428 227.51325345 435.82668829 C227.53507659 429.27365575 227.5624832 422.72064668 227.58930969 416.16763306 C227.63376686 405.16323939 227.6744285 394.15883606 227.71261597 383.15441895 C227.75196336 371.81847188 227.79338776 360.48253556 227.83761597 349.14660645 C227.84170237 348.09895917 227.84170237 348.09895917 227.84587134 347.0301473 C227.85955069 343.52641576 227.87327099 340.02268438 227.88701165 336.51895308 C228.0009997 307.43961919 228.10753155 278.36026073 228.20993042 249.28088379 C236.78993042 249.28088379 245.36993042 249.28088379 254.20993042 249.28088379 C254.30043681 279.41340747 254.37201251 309.5459161 254.41419174 339.67854549 C254.41919431 343.23943258 254.42437162 346.80031938 254.42965698 350.36120605 C254.43070622 351.07008696 254.43175547 351.77896786 254.4328365 352.50933 C254.45022145 363.97355948 254.48174854 375.43770839 254.5185416 386.90189014 C254.55600433 398.6732774 254.57817751 410.44462259 254.5862844 422.21606702 C254.59127085 428.82452097 254.60372101 435.43282529 254.63285065 442.04122353 C254.66006298 448.26526871 254.66836351 454.48905672 254.66236115 460.71315575 C254.66345876 462.99354323 254.67137764 465.27393959 254.68675232 467.55427551 C254.86161739 494.83514479 254.86161739 494.83514479 245.32193565 504.50766945 C233.97656252 514.03310907 221.96294706 513.12720752 207.88327026 513.0255127 C205.52336486 513.03037436 203.16346359 513.03781866 200.80357361 513.04763794 C194.42136299 513.06638173 188.03976978 513.04766926 181.65760756 513.02097368 C175.64568101 513.00057463 169.63380922 513.00557787 163.62186261 513.00937872 C151.71035962 513.01574403 139.79909662 512.99250496 127.88766479 512.95324707 C116.34885352 512.91522769 104.81032329 512.90107819 93.27145386 512.91223145 C80.68082928 512.92436546 68.09032793 512.92396059 55.49971354 512.90125978 C54.15557711 512.8988454 52.81144067 512.89643343 51.46730423 512.8940239 C50.80610063 512.89281682 50.14489703 512.89160974 49.46365695 512.89036608 C44.81997838 512.88263059 40.1763474 512.88350655 35.53266525 512.88719559 C29.27637473 512.89097057 23.02044321 512.8746833 16.76423454 512.8430748 C14.47215828 512.83461068 12.18004552 512.83287347 9.88796043 512.8384552 C6.75192275 512.84493207 3.61694665 512.82665474 0.48101807 512.80227661 C-0.41938662 512.80983526 -1.31979131 512.81739391 -2.24748099 512.8251816 C-10.07522481 512.71801619 -16.49914372 510.432643 -23.04006958 506.15588379 C-31.9401211 496.85128447 -34.10465998 486.99332886 -34.03057861 474.52416992 C-34.03228746 473.46377801 -34.03399631 472.40338611 -34.03575695 471.31086111 C-34.03904194 467.7702002 -34.02806432 464.22973027 -34.01712036 460.68908691 C-34.01655603 458.14606735 -34.01687323 455.60304745 -34.01800537 453.06002808 C-34.01846029 447.59149257 -34.01280041 442.12301818 -34.00152969 436.65449524 C-33.98524499 428.74803533 -33.98006365 420.84159848 -33.97755371 412.93512362 C-33.97318126 400.10602796 -33.95988439 387.2769578 -33.94094849 374.44787598 C-33.92257802 361.9888929 -33.90842723 349.52991675 -33.89993286 337.07092285 C-33.89940741 336.30237978 -33.89888197 335.53383671 -33.8983406 334.74200445 C-33.89573044 330.88627919 -33.89320304 327.03055388 -33.89071679 323.17482853 C-33.86999831 291.21016175 -33.83478506 259.24552632 -33.79006958 227.28088379 C-34.87546021 227.32729004 -35.96085083 227.37369629 -37.07913208 227.42150879 C-38.52441689 227.45904865 -39.96973169 227.49544643 -41.41506958 227.53088379 C-42.12792114 227.56439941 -42.84077271 227.59791504 -43.57522583 227.63244629 C-48.78712896 227.72807754 -51.64504423 226.70736697 -55.79006958 223.28088379 C-58.64119059 218.8125561 -58.07824675 213.47361018 -58.05569458 208.34338379 C-58.05760803 207.38569092 -58.05952148 206.42799805 -58.06149292 205.44128418 C-58.06285118 203.42069231 -58.05917987 201.4000916 -58.05081177 199.3795166 C-58.04010726 196.29175156 -58.05071934 193.2045683 -58.06350708 190.11682129 C-58.06218542 188.15067418 -58.0596229 186.18452742 -58.05569458 184.21838379 C-58.05974304 183.2974292 -58.0637915 182.37647461 -58.06796265 181.4276123 C-58.02568403 175.63071382 -57.75044255 171.45169227 -53.71585083 166.98400879 C-49.7017291 164.64735048 -46.51988715 164.83443105 -41.97756958 165.03088379 C-39.27569458 165.11338379 -36.57381958 165.19588379 -33.79006958 165.28088379 C-33.79006958 157.69088379 -33.79006958 150.10088379 -33.79006958 142.28088379 C-39.48990762 142.47779414 -39.48990762 142.47779414 -45.18728638 142.73132324 C-49.47422947 142.80584115 -51.2725869 142.66983261 -54.80960083 140.01135254 C-57.5019716 136.29938573 -57.91037745 133.39517437 -57.95120239 128.88293457 C-57.96080994 128.02168976 -57.97041748 127.16044495 -57.98031616 126.27310181 C-57.98456604 125.35012299 -57.98881592 124.42714417 -57.99319458 123.47619629 C-57.99889465 122.51946014 -58.00459473 121.562724 -58.01046753 120.57699585 C-58.01990442 118.55463767 -58.0264463 116.53226421 -58.03030396 114.5098877 C-58.04001207 111.42416458 -58.07104902 108.33910701 -58.10256958 105.25354004 C-58.10909988 103.28609607 -58.11435025 101.31864734 -58.11819458 99.35119629 C-58.13054138 98.43226593 -58.14288818 97.51333557 -58.15560913 96.56655884 C-58.13781087 91.42148755 -57.84128578 87.63655727 -54.79006958 83.28088379 C-50.70922615 79.7735643 -46.61986391 79.91416173 -41.47756958 80.09338379 C-40.36671997 80.11368652 -40.36671997 80.11368652 -39.23342896 80.13439941 C-37.41865883 80.169524 -35.6042667 80.22332407 -33.79006958 80.28088379 C-33.79673141 79.63910187 -33.80339325 78.99731995 -33.81025696 78.33609009 C-33.87694269 71.61949708 -33.92200753 64.90299907 -33.9548645 58.18615723 C-33.96989392 55.68383968 -33.99032308 53.18154822 -34.01638794 50.67932129 C-34.05302836 47.06988054 -34.06985504 43.46078996 -34.08303833 39.85119629 C-34.09852219 38.74349884 -34.11400604 37.63580139 -34.12995911 36.49453735 C-34.13223339 25.85199472 -31.97567183 16.41523439 -24.79006958 8.28088379 C-17.05823862 1.80997867 -9.8879026 -0.01878764 0 0 Z " fill="#786D79" transform="translate(116.79006958007813,-0.2808837890625)"/>
<path d="M0 0 C16 0 16 0 22 4 C24.29996286 7.17923924 24.23465832 10.00348428 24.1953125 13.859375 C24.18564453 15.53193359 24.18564453 15.53193359 24.17578125 17.23828125 C24.15064453 18.97658203 24.15064453 18.97658203 24.125 20.75 C24.11597656 21.92433594 24.10695313 23.09867188 24.09765625 24.30859375 C24.07410063 27.20593536 24.04120652 30.10286441 24 33 C24.62782883 32.99111755 25.25565765 32.98223511 25.9025116 32.9730835 C32.43987927 32.88455545 38.97707652 32.82424288 45.51489258 32.78027344 C47.95441607 32.76016436 50.3938914 32.73287317 52.83325195 32.69824219 C56.34077848 32.64969511 59.84766743 32.62702368 63.35546875 32.609375 C64.44522507 32.58872986 65.53498138 32.56808472 66.65776062 32.54681396 C74.17458374 32.54458897 74.17458374 32.54458897 78.1027832 34.71191406 C81.288661 38.55415402 82.2496336 42.11012055 82.25396729 47.04736328 C82.26242676 48.53613983 82.26242676 48.53613983 82.27105713 50.05499268 C82.26498444 51.67132599 82.26498444 51.67132599 82.25878906 53.3203125 C82.26404602 55.03574249 82.26404602 55.03574249 82.26940918 56.78582764 C82.27821072 60.56561353 82.27238276 64.34521221 82.265625 68.125 C82.2669721 70.75146521 82.26891301 73.37793018 82.27142334 76.00439453 C82.27505894 81.50880969 82.27027456 87.01317113 82.26074219 92.51757812 C82.24985839 98.8756675 82.25338425 105.23362859 82.264395 111.59171486 C82.27457424 117.71543704 82.27348449 123.83910247 82.26763153 129.96282959 C82.2662966 132.56557229 82.26793728 135.16831825 82.27259064 137.77105713 C82.27766498 141.4073557 82.26993249 145.04340734 82.25878906 148.6796875 C82.26283752 149.75724304 82.26688599 150.83479858 82.27105713 151.94500732 C82.26541748 152.93752502 82.25977783 153.93004272 82.25396729 154.95263672 C82.25283621 156.241241 82.25283621 156.241241 82.25168228 157.55587769 C81.82295473 161.71931175 80.74007811 164.20355185 77.88027954 167.28117466 C74.19097126 169.4827931 71.08810304 169.55446948 66.91552734 169.50120544 C65.70159585 169.50950704 65.70159585 169.50950704 64.46314049 169.51797634 C61.75375961 169.53157997 59.04530038 169.51661548 56.3359375 169.50170898 C54.39259449 169.50549227 52.44925417 169.51099239 50.50592041 169.51808167 C45.22907505 169.53205228 39.95255516 169.52085513 34.67572784 169.50437045 C29.15539794 169.49052801 23.63508709 169.49697911 18.11474609 169.50050354 C8.84402212 169.5032063 -0.42657244 169.48972438 -9.69726562 169.46655273 C-20.41790204 169.43994263 -31.13832205 169.43819568 -41.85898018 169.4499411 C-52.16877132 169.46071757 -62.47848412 169.45453282 -72.78826904 169.44038582 C-77.17732595 169.4346249 -81.56632555 169.43470955 -85.9553833 169.43945122 C-91.12316387 169.44422095 -96.29070724 169.43411932 -101.45844269 169.41249657 C-103.35593109 169.4069285 -105.25344229 169.40646358 -107.15093231 169.41144943 C-109.73939452 169.41739829 -112.32713058 169.40490497 -114.91552734 169.38768005 C-116.04417678 169.39669512 -116.04417678 169.39669512 -117.19562721 169.40589231 C-121.6372203 169.35207715 -124.48276594 168.7598497 -128 166 C-130.18064478 162.72903282 -130.25719961 161.76470107 -130.28761292 157.97209167 C-130.30047836 156.93328354 -130.31334381 155.8944754 -130.32659912 154.82418823 C-130.33040588 153.68490875 -130.33421265 152.54562927 -130.33813477 151.37182617 C-130.34967087 150.1715831 -130.36120697 148.97134003 -130.37309265 147.73472595 C-130.40154027 144.44115885 -130.42061508 141.1478468 -130.43330884 137.85420012 C-130.44139592 135.79559949 -130.45157657 133.73701889 -130.46232414 131.67843056 C-130.49504256 125.23489679 -130.51894281 118.79141171 -130.531138 112.34780616 C-130.54539056 104.91437803 -130.58925469 97.48189974 -130.65863949 90.04878634 C-130.71044748 84.30004636 -130.73531318 78.55157626 -130.73996013 72.8026064 C-130.74335614 69.37032741 -130.75817623 65.939009 -130.80124092 62.50697899 C-130.84256943 58.6760157 -130.83987422 54.84746591 -130.82641602 51.01635742 C-130.84844086 49.88315063 -130.8704657 48.74994385 -130.89315796 47.58239746 C-130.83441214 42.66569195 -130.74204969 38.94428607 -127.20370483 35.29154968 C-122.2042526 31.84382798 -116.77977159 32.2063759 -110.91430664 32.31884766 C-109.71359528 32.3179715 -108.51288391 32.31709534 -107.27578735 32.31619263 C-104.00088968 32.31964417 -100.72755239 32.3496239 -97.45296407 32.39163637 C-94.02441206 32.42927532 -90.59582574 32.432679 -87.167099 32.43978882 C-80.68237554 32.4583994 -74.19826271 32.50758385 -67.71380752 32.56788576 C-60.32814068 32.63506995 -52.94244388 32.66796961 -45.55654728 32.69805837 C-30.37063596 32.76068748 -15.18551722 32.87067124 0 33 C0 22.11 0 11.22 0 0 Z " fill="#63DFC3" transform="translate(371,80)"/>
<path d="M0 0 C2 0 2 0 3.5 1.4375 C3.995 1.953125 4.49 2.46875 5 3 C8.42589799 4.71294899 12.35958214 4.18119745 16.13134766 4.20532227 C17.55093025 4.22017166 17.55093025 4.22017166 18.99919128 4.23532104 C22.13745596 4.26699022 25.27573579 4.29171488 28.4140625 4.31640625 C30.58597209 4.3369711 32.75787764 4.35796744 34.92977905 4.37937927 C40.65410085 4.43464839 46.37845905 4.48403631 52.10284424 4.53222656 C57.94099173 4.58240628 63.77908617 4.63811074 69.6171875 4.69335938 C81.07807971 4.80100014 92.53901793 4.90243194 104 5 C104.04559772 34.75914301 104.08100515 64.51828485 104.10213066 94.27745526 C104.10463216 97.78856724 104.10722079 101.29967914 104.10986328 104.81079102 C104.1103879 105.50980794 104.11091252 106.20882487 104.11145304 106.92902412 C104.12016229 118.25636253 104.13593512 129.5836807 104.15430559 140.91100708 C104.1729902 152.52867823 104.18396391 164.14633754 104.18817699 175.76402301 C104.19079003 182.29169018 104.19695439 188.8193114 104.21146011 195.34696388 C104.22499134 201.48557284 104.22923171 207.62411673 104.22621536 213.76273918 C104.22676753 216.02067544 104.23077141 218.27861377 104.23841095 220.53653717 C104.24830241 223.60966971 104.24599014 226.68255372 104.24050903 229.75569153 C104.24633472 230.65743491 104.2521604 231.55917828 104.25816262 232.48824722 C104.25418052 233.30933493 104.25019842 234.13042264 104.24609566 234.97639179 C104.24723482 236.04093774 104.24723482 236.04093774 104.24839699 237.12698966 C104 239 104 239 102 242 C99.01904297 242.34057617 99.01904297 242.34057617 95.2421875 242.29296875 C94.57913605 242.28872391 93.91608459 242.28447906 93.23294067 242.28010559 C91.11321559 242.26329971 88.99443812 242.22564701 86.875 242.1875 C85.43881581 242.17245549 84.00261672 242.15876668 82.56640625 242.14648438 C79.04396236 242.1133909 75.52207364 242.0615968 72 242 C72.33 241.34 72.66 240.68 73 240 C73.10798425 237.25435958 73.15490729 234.53340589 73.15821838 231.78707886 C73.16315636 230.92782401 73.16809434 230.06856917 73.17318195 229.1832763 C73.18861084 226.28738805 73.19693212 223.39152205 73.20532227 220.49560547 C73.21489656 218.42636924 73.22490637 216.357135 73.23532104 214.28790283 C73.26242484 208.65598206 73.28340471 203.02405287 73.30332303 197.39210272 C73.32514889 191.51172177 73.35255417 185.63136696 73.37937927 179.75100708 C73.42935224 168.60922465 73.47427395 157.46742775 73.51740164 146.32561696 C73.56673472 133.64381152 73.62166739 120.96203231 73.67708123 108.28025222 C73.79097194 82.18685926 73.89779549 56.09344116 74 30 C73.18647064 30.00888245 72.37294128 30.01776489 71.53475952 30.0269165 C63.85483465 30.10718162 56.17511416 30.16802458 48.49487877 30.20724869 C44.54669627 30.22809247 40.59886137 30.25635049 36.65087891 30.30175781 C32.83830999 30.34533152 29.02607468 30.36916124 25.21327591 30.37950897 C23.76123429 30.38687981 22.30921021 30.40127356 20.85731125 30.42292023 C18.81772667 30.45210976 16.77950711 30.45594986 14.73974609 30.45410156 C13.00100723 30.46742523 13.00100723 30.46742523 11.22714233 30.48101807 C7.25603595 29.88910928 5.11656979 28.48876726 2 26 C-0.23413013 22.64880481 -0.23847762 21.5822245 -0.1953125 17.67578125 C-0.18886719 16.64775391 -0.18242187 15.61972656 -0.17578125 14.56054688 C-0.15064453 12.95276367 -0.15064453 12.95276367 -0.125 11.3125 C-0.11597656 10.22904297 -0.10695312 9.14558594 -0.09765625 8.02929688 C-0.0740734 5.3526429 -0.04116126 2.67643203 0 0 Z " fill="#0D5F7F" transform="translate(241,244)"/>
<path d="M0 0 C8.58 0 17.16 0 26 0 C26.09050639 30.13252369 26.16208209 60.26503231 26.20426132 90.3976617 C26.20926389 93.95854879 26.2144412 97.51943559 26.21972656 101.08032227 C26.2207758 101.78920317 26.22182505 102.49808407 26.22290608 103.22844621 C26.24029103 114.69267569 26.27181812 126.1568246 26.30861118 137.62100635 C26.34607391 149.39239361 26.36824709 161.1637388 26.37635398 172.93518323 C26.38134043 179.54363718 26.39379059 186.1519415 26.42292023 192.76033974 C26.45013256 198.98438492 26.45843309 205.20817293 26.45243073 211.43227196 C26.45352834 213.71265944 26.46144722 215.9930558 26.4768219 218.27339172 C26.65140796 245.51073252 26.65140796 245.51073252 17.12402344 255.2253418 C6.52517586 264.08086169 -4.19202491 263.75297525 -17.25 263.375 C-19.07417437 263.34484032 -20.89839718 263.31747519 -22.72265625 263.29296875 C-27.14965432 263.22749884 -31.57427961 263.12431799 -36 263 C-36 262.67 -36 262.34 -36 262 C-35.3709375 261.85304688 -34.741875 261.70609375 -34.09375 261.5546875 C-25.23080783 259.23216952 -19.48854794 255.83195463 -14.625 247.9375 C-13.18229121 245.38656519 -12.01646365 243.04946162 -11.08984375 240.265625 C-10 238 -10 238 -8.08984375 237.14453125 C-7.37957031 237.03496094 -6.66929687 236.92539062 -5.9375 236.8125 C-3.8289141 236.49823478 -3.8289141 236.49823478 -2 236 C-0.28780372 232.57560743 -0.84585649 228.64481829 -0.84178162 224.87594604 C-0.83684364 223.91868594 -0.83190566 222.96142584 -0.82681805 221.97515786 C-0.81138395 218.74760055 -0.80306647 215.52006322 -0.79467773 212.29248047 C-0.78510385 209.98679425 -0.77509407 207.68110981 -0.76467896 205.37542725 C-0.73757073 199.09889765 -0.71659327 192.82236049 -0.69667697 186.5458045 C-0.67485383 179.99277196 -0.64744722 173.43976289 -0.62062073 166.88674927 C-0.57616356 155.8823556 -0.53550192 144.87795227 -0.49731445 133.87353516 C-0.45796706 122.53758809 -0.41654266 111.20165177 -0.37231445 99.86572266 C-0.36959018 99.16729114 -0.36686591 98.46885962 -0.36405908 97.74926351 C-0.35037973 94.24553197 -0.33665943 90.74180059 -0.32291877 87.2380693 C-0.20893072 58.15873541 -0.10239887 29.07937694 0 0 Z " fill="#685E67" transform="translate(345,249)"/>
<path d="M0 0 C4.03833789 -0.0992502 8.07619872 -0.17164562 12.11547852 -0.21972656 C13.48800023 -0.2397799 14.86043717 -0.26703028 16.23266602 -0.30175781 C18.21072044 -0.35054552 20.18941119 -0.37088876 22.16796875 -0.390625 C23.35672607 -0.41157227 24.5454834 -0.43251953 25.77026367 -0.45410156 C29.70704017 0.09940999 31.26287049 1.15068557 34 4 C35.66758038 7.46086669 36.25061007 10.22258512 36.25396729 14.04736328 C36.25960693 15.03988098 36.26524658 16.03239868 36.27105713 17.05499268 C36.26700867 18.13254822 36.26296021 19.21010376 36.25878906 20.3203125 C36.2622937 21.4639325 36.26579834 22.60755249 36.26940918 23.78582764 C36.27821072 27.56561353 36.27238276 31.34521221 36.265625 35.125 C36.2669721 37.75146521 36.26891301 40.37793018 36.27142334 43.00439453 C36.27505894 48.50880969 36.27027456 54.01317113 36.26074219 59.51757812 C36.24985839 65.8756675 36.25338425 72.23362859 36.264395 78.59171486 C36.27457424 84.71543704 36.27348449 90.83910247 36.26763153 96.96282959 C36.2662966 99.56557229 36.26793728 102.16831825 36.27259064 104.77105713 C36.27766498 108.4073557 36.26993249 112.04340734 36.25878906 115.6796875 C36.26283752 116.75724304 36.26688599 117.83479858 36.27105713 118.94500732 C36.26259766 120.43378387 36.26259766 120.43378387 36.25396729 121.95263672 C36.25321323 122.81170624 36.25245918 123.67077576 36.25168228 124.55587769 C35.82908077 128.65982084 34.65374915 131.31945607 31.80200195 134.28808594 C28.3274159 136.41092269 26.21880882 136.46200544 22.16796875 136.390625 C20.87568359 136.37773437 19.58339844 136.36484375 18.25195312 136.3515625 C16.89712454 136.31814634 15.54230683 136.28428662 14.1875 136.25 C12.81317683 136.22992034 11.43882561 136.21167213 10.06445312 136.1953125 C6.70892144 136.14821732 3.35481873 136.08245135 0 136 C0.78375 135.4225 1.5675 134.845 2.375 134.25 C5.48527622 131.58404895 6.81149609 129.74248338 7.25447559 125.64769077 C7.25652846 124.77295077 7.25858133 123.89821077 7.26069641 122.9969635 C7.26778122 121.98899216 7.27486603 120.98102081 7.28216553 119.94250488 C7.27968811 118.84265259 7.27721069 117.74280029 7.2746582 116.60961914 C7.27976913 115.44663803 7.28488007 114.28365692 7.29014587 113.08543396 C7.30406317 109.23528926 7.3030835 105.38532313 7.30078125 101.53515625 C7.30368505 99.53778484 7.30659332 97.54041336 7.310188 95.54304308 C7.32127958 89.26313351 7.32172256 82.98328376 7.31567383 76.70336914 C7.30963343 70.22881201 7.32194736 63.75447217 7.3432439 57.27995211 C7.36086734 51.71719258 7.3668601 46.15450217 7.36360615 40.59171575 C7.36179432 37.27104121 7.36573403 33.95055616 7.37832069 30.62989998 C7.39063569 26.92635406 7.38392258 23.22331302 7.37231445 19.51977539 C7.37995819 18.42194733 7.38760193 17.32411926 7.39547729 16.19302368 C7.4298465 9.07604274 7.4298465 9.07604274 4 3 C1.93045153 1.21655822 1.93045153 1.21655822 0 0 Z " fill="#28D1B3" transform="translate(417,113)"/>
<path d="M0 0 C5.33435156 -0.14984134 10.66744264 -0.25790828 16.00341797 -0.32958984 C17.81320571 -0.35951167 19.62285163 -0.4002655 21.43212891 -0.45263672 C33.61743542 -0.79616941 43.31016703 -0.42498803 53.12402344 7.7746582 C61.95948524 16.78374764 62.50210131 27.74554213 62.45318604 39.66325378 C62.43276737 41.55024686 62.41190352 43.43723517 62.390625 45.32421875 C62.38315212 47.28147297 62.37746415 49.23873473 62.37347412 51.19599915 C62.35830017 56.31380359 62.31909053 61.4311442 62.2746582 66.54876709 C62.23352654 71.78440072 62.21542509 77.02011028 62.1953125 82.25585938 C62.15258722 92.50414142 62.08230595 102.75195933 62 113 C53.42 113 44.84 113 36 113 C35.98541748 110.47110107 35.97083496 107.94220215 35.95581055 105.33666992 C35.90552226 96.99056152 35.8389376 88.64464083 35.76428509 80.29871655 C35.71951617 75.23749056 35.68027453 70.17634629 35.65356445 65.11499023 C35.62759641 60.23246464 35.58724045 55.35025242 35.53681374 50.4679203 C35.52010092 48.60320235 35.50861422 46.73843014 35.50238609 44.87364769 C35.49279281 42.26593377 35.46479181 39.65902958 35.43237305 37.05151367 C35.43380814 36.27683746 35.43524323 35.50216125 35.4367218 34.70401001 C35.37529659 30.62378067 35.37529659 30.62378067 33.6587677 27.0136261 C31.89817444 25.76986017 31.89817444 25.76986017 29.02734375 25.73046875 C26 25 26 25 24.12890625 22.05078125 C23.58979907 20.81193563 23.06837904 19.56528148 22.5625 18.3125 C19.22122245 10.90929548 15.75973798 6.60813621 8.375 3.1875 C5.55847567 2.1965007 2.94546782 1.446283 0 1 C0 0.67 0 0.34 0 0 Z " fill="#685E67" transform="translate(309,0)"/>
<path d="M0 0 C4.23580253 -0.07407906 8.47126341 -0.12856696 12.70751953 -0.16479492 C14.14899258 -0.17989483 15.59041959 -0.20037658 17.03173828 -0.22631836 C19.10200343 -0.2626513 21.17166207 -0.27971329 23.2421875 -0.29296875 C24.4885498 -0.3086792 25.73491211 -0.32438965 27.01904297 -0.34057617 C28.00275879 -0.22818604 28.98647461 -0.1157959 30 0 C32.50816366 3.76224549 32.26746142 6.69786212 32.22705078 11.05151367 C32.22734283 11.87125168 32.22763489 12.69098969 32.22793579 13.53556824 C32.22654188 16.24647589 32.21097781 18.95710908 32.1953125 21.66796875 C32.19158259 23.54698028 32.18873551 25.42599376 32.18673706 27.30500793 C32.17909889 32.25179408 32.15944879 37.19846287 32.1373291 42.14520264 C32.11687466 47.19248873 32.1077362 52.23979378 32.09765625 57.28710938 C32.07620308 67.19146612 32.04101941 77.09570494 32 87 C22.1 87 12.2 87 2 87 C1.97494385 84.43557129 1.9498877 81.87114258 1.92407227 79.22900391 C1.84072384 70.77120517 1.75202192 62.31346874 1.66066074 53.85575294 C1.60541542 48.72612308 1.55199284 43.59648753 1.50268555 38.46679688 C1.45506574 33.51955462 1.4027238 28.57238312 1.34705925 23.62522507 C1.32662488 21.73453907 1.30791361 19.84383366 1.29092598 17.95311356 C1.26690591 15.31193247 1.23684813 12.67088579 1.20532227 10.02978516 C1.1995668 9.24216293 1.19381134 8.45454071 1.18788147 7.64305115 C1.21412356 3.69207078 1.21412356 3.69207078 0 0 Z " fill="#0D5F7F" transform="translate(313,26)"/>
<path d="M0 0 C1.29967712 -0.00730133 2.59935425 -0.01460266 3.93841553 -0.02212524 C7.49658957 -0.04090943 11.05366004 -0.02212409 14.61174774 0.00453901 C18.33833439 0.0272039 22.06486812 0.01895026 25.79150391 0.01504517 C32.04933663 0.01328031 38.30673561 0.03541741 44.56445312 0.07226562 C51.79518271 0.11460009 59.02527701 0.12162035 66.25610542 0.10914171 C73.21710711 0.09774458 80.17788549 0.10905706 87.13885498 0.1314888 C90.0988987 0.14076798 93.05880557 0.14253412 96.01885986 0.13831711 C100.15353559 0.13384344 104.28732488 0.16279457 108.421875 0.1953125 C109.64904236 0.19035767 110.87620972 0.18540283 112.14056396 0.18029785 C120.42575917 0.28445315 120.42575917 0.28445315 124.46875 2.65396118 C126.34084908 4.90052599 126.89243532 5.85194052 126.8359375 8.74462891 C126.84882813 9.40462891 126.86171875 10.06462891 126.875 10.74462891 C125.75712702 14.1113993 124.2924014 14.93734414 121.2109375 16.74462891 C116.98374525 17.35765225 112.77865893 17.29056374 108.51367188 17.26220703 C107.22374832 17.26921631 105.93382477 17.27622559 104.60481262 17.28344727 C101.07374041 17.3016561 97.54313657 17.29462358 94.01205635 17.28193092 C90.31348552 17.27179043 86.61495428 17.28119951 82.91638184 17.28747559 C76.70573745 17.29474897 70.49528344 17.28517254 64.28466797 17.26611328 C57.10849357 17.24434495 49.93277378 17.25139655 42.75661039 17.2734189 C36.59083784 17.29158185 30.425202 17.29412691 24.25941133 17.28366423 C20.57880485 17.27743414 16.89841191 17.2765801 13.21781921 17.28981018 C9.11434081 17.30353053 5.01164378 17.2845046 0.90820312 17.26220703 C-0.30961349 17.27030396 -1.52743011 17.27840088 -2.78215027 17.28674316 C-10.98986249 17.2039911 -10.98986249 17.2039911 -15.0123291 14.89196777 C-17.37779501 12.03309379 -17.9379773 10.4674989 -17.7890625 6.74462891 C-13.64156254 -0.89924968 -8.06024215 -0.10041072 0 0 Z " fill="#9DE042" transform="translate(186.7890625,375.25537109375)"/>
<path d="M0 0 C1.67190903 -0.01073296 1.67190903 -0.01073296 3.37759399 -0.02168274 C5.22049767 -0.02571609 5.22049767 -0.02571609 7.10063171 -0.02983093 C9.03485992 -0.03968773 9.03485992 -0.03968773 11.00816345 -0.04974365 C14.55164994 -0.06715789 18.09512292 -0.07770656 21.6386416 -0.08594918 C23.85216713 -0.09109847 26.06568847 -0.09717423 28.27921104 -0.10346031 C35.20382668 -0.12251362 42.12843164 -0.13674443 49.05306846 -0.14507228 C57.04824492 -0.15484615 65.04314463 -0.18116871 73.03822356 -0.22157317 C79.21663725 -0.25172606 85.39497157 -0.26654035 91.57345742 -0.26985329 C95.26421803 -0.27220475 98.95468303 -0.28117705 102.64536476 -0.30631447 C106.76344367 -0.33390952 110.88090376 -0.32976665 114.99906921 -0.32279968 C116.22159897 -0.33560974 117.44412872 -0.3484198 118.70370483 -0.36161804 C126.96156462 -0.31056041 126.96156462 -0.31056041 130.99899292 2.05154419 C132.87208235 4.30106305 133.42548931 5.25196233 133.36894226 8.14717102 C133.38183289 8.80717102 133.39472351 9.46717102 133.40800476 10.14717102 C132.29013178 13.51394142 130.82540616 14.33988626 127.74394226 16.14717102 C123.51675001 16.76019436 119.31166369 16.69310586 115.04667664 16.66474915 C113.75675308 16.67175842 112.46682953 16.6787677 111.13781738 16.68598938 C107.60674517 16.70419822 104.07614133 16.69716569 100.54506111 16.68447304 C96.84649028 16.67433254 93.14795904 16.68374162 89.4493866 16.6900177 C83.23874221 16.69729108 77.0282882 16.68771466 70.81767273 16.6686554 C63.64149833 16.64688706 56.46577854 16.65393867 49.28961515 16.67596102 C43.1238426 16.69412396 36.95820676 16.69666902 30.7924161 16.68620634 C27.11180961 16.67997626 23.43141667 16.67912221 19.75082397 16.69235229 C15.64734557 16.70607264 11.54464855 16.68704671 7.44120789 16.66474915 C6.22339127 16.67284607 5.00557465 16.68094299 3.75085449 16.68928528 C-4.45415086 16.6065605 -4.45415086 16.6065605 -8.48323059 14.29841614 C-10.80732064 11.47823857 -11.33067371 9.80335364 -11.25605774 6.14717102 C-7.96488195 1.0401741 -5.88583475 0.0258656 0 0 Z " fill="#9DDF43" transform="translate(180.2560577392578,342.8528289794922)"/>
<path d="M0 0 C1.59838715 -0.01292336 1.59838715 -0.01292336 3.22906494 -0.02610779 C6.74931161 -0.04879966 10.26876436 -0.04202293 13.7890625 -0.03295898 C16.23616778 -0.03819287 18.68327103 -0.04446848 21.13037109 -0.05174255 C26.25823461 -0.06215258 31.38582073 -0.05757596 36.51367188 -0.04296875 C43.08804133 -0.02577487 49.66153734 -0.04928175 56.23580933 -0.08445835 C61.28871462 -0.10640726 66.34141009 -0.10499693 71.39434814 -0.09669304 C73.81847085 -0.09587226 76.24260877 -0.10275967 78.66668701 -0.11746407 C82.05438114 -0.13486388 85.44049478 -0.12040373 88.828125 -0.09765625 C89.83087463 -0.10934845 90.83362427 -0.12104065 91.86676025 -0.13308716 C96.51345996 -0.06953455 98.7156042 0.01522493 102.53662109 2.85023499 C104.4140625 5.53344727 104.4140625 5.53344727 105.0390625 9.09594727 C104.4140625 12.53344727 104.4140625 12.53344727 102.5423584 14.71395874 C97.9767512 17.36942043 93.93266357 17.10820283 88.73632812 17.08276367 C87.66098312 17.09298553 86.58563812 17.1032074 85.47770691 17.11373901 C81.92501536 17.14152767 78.37309977 17.13961846 74.8203125 17.13500977 C72.35078645 17.14278303 69.88126307 17.15145223 67.41174316 17.16098022 C62.23680958 17.17590327 57.0621489 17.17532267 51.88720703 17.16479492 C45.25219393 17.15319649 38.61829578 17.18708814 31.9834671 17.23348427 C26.88423115 17.26293004 21.78526477 17.26470658 16.68595886 17.25846481 C14.23949472 17.25949242 11.79301571 17.26999009 9.34663391 17.29008865 C5.92761458 17.31473356 2.51078057 17.30129024 -0.90820312 17.27807617 C-1.9203035 17.29336365 -2.93240387 17.30865112 -3.97517395 17.32440186 C-10.63065276 17.22439612 -10.63065276 17.22439612 -13.34953308 15.25785446 C-15.6728132 12.63552679 -16.57031946 10.92389838 -16.7109375 7.40844727 C-13.63251218 -0.45863967 -7.33548188 -0.0477392 0 0 Z " fill="#26CDB1" transform="translate(185.5859375,309.466552734375)"/>
<path d="M0 0 C0 20.46 0 40.92 0 62 C-6.27 62 -12.54 62 -19 62 C-24.33835582 56.66164418 -25.09883785 55.48729826 -25.16113281 48.60205078 C-25.17074036 47.74080597 -25.1803479 46.87956116 -25.19024658 45.99221802 C-25.19449646 45.0692392 -25.19874634 44.14626038 -25.203125 43.1953125 C-25.20882507 42.23857635 -25.21452515 41.28184021 -25.22039795 40.29611206 C-25.22983484 38.27375388 -25.23637672 36.25138042 -25.24023438 34.22900391 C-25.24994249 31.14328079 -25.28097944 28.05822322 -25.3125 24.97265625 C-25.3190303 23.00521228 -25.32428067 21.03776355 -25.328125 19.0703125 C-25.3466452 17.69191696 -25.3466452 17.69191696 -25.36553955 16.28567505 C-25.34774129 11.14060376 -25.0512162 7.35567348 -22 3 C-17 0 -17 0 0 0 Z " fill="#B4ACB5" transform="translate(84,80)"/>
<path d="M0 0 C0 20.46 0 40.92 0 62 C-17 62 -17 62 -23 58 C-25.85112101 53.53167231 -25.28817717 48.19272639 -25.265625 43.0625 C-25.26753845 42.10480713 -25.2694519 41.14711426 -25.27142334 40.16040039 C-25.2727816 38.13980852 -25.26911029 36.11920781 -25.26074219 34.09863281 C-25.25003768 31.01086777 -25.26064976 27.92368451 -25.2734375 24.8359375 C-25.27211584 22.86979039 -25.26955332 20.90364363 -25.265625 18.9375 C-25.26967346 18.01654541 -25.27372192 17.09559082 -25.27789307 16.14672852 C-25.21585233 7.64020955 -25.21585233 7.64020955 -23 4 C-18 0 -18 0 0 0 Z " fill="#B4ACB5" transform="translate(84,165)"/>
<path d="M0 0 C0.82160614 -0.00700928 1.64321228 -0.01401855 2.48971558 -0.02124023 C5.20385608 -0.03883565 7.91695252 -0.02719124 10.63110352 -0.01367188 C12.51913147 -0.01636661 14.40715807 -0.02024888 16.29518127 -0.02526855 C20.25209771 -0.03116591 24.20865291 -0.022594 28.16552734 -0.00390625 C33.23438797 0.01886783 38.30240071 0.00577154 43.37123013 -0.01819611 C47.2703539 -0.03266101 51.1692772 -0.02804464 55.06840706 -0.01768494 C56.93709476 -0.01501876 58.80580073 -0.01828359 60.67446709 -0.02760315 C63.28867549 -0.03777846 65.90151814 -0.02225398 68.515625 0 C69.67145332 -0.01214539 69.67145332 -0.01214539 70.85063171 -0.02453613 C74.55676601 0.03382326 76.64880623 0.40631244 79.80018616 2.42492676 C81.82250977 4.51757812 81.82250977 4.51757812 82.48657227 6.51757812 C82.47368164 7.17757813 82.46079102 7.83757812 82.44750977 8.51757812 C82.4668457 9.50757813 82.4668457 9.50757813 82.48657227 10.51757812 C81.42870681 13.70361998 79.61669174 14.72278003 76.82250977 16.51757812 C73.95940554 16.9098315 71.48238555 17.07558747 68.62329102 17.05102539 C67.81129242 17.05964096 66.99929382 17.06825653 66.16268921 17.07713318 C63.48646911 17.09978169 60.81129702 17.09305708 58.13500977 17.08398438 C56.27083017 17.08922019 54.40665323 17.09549651 52.54248047 17.10276794 C48.63862629 17.11316986 44.73513668 17.10861329 40.83129883 17.09399414 C35.83071567 17.07679987 30.83128084 17.10031036 25.83082581 17.13548374 C21.98230386 17.15745201 18.13405699 17.15601778 14.28549194 17.14771843 C12.44191223 17.14689872 10.59831236 17.15376582 8.75479126 17.16848946 C6.17638689 17.18592689 3.60004999 17.17140172 1.02172852 17.14868164 C0.26209808 17.16037384 -0.49753235 17.17206604 -1.28018188 17.18411255 C-5.21527288 17.11362569 -7.0130158 16.64556422 -10.15478516 14.20079041 C-12.17749023 11.51757812 -12.17749023 11.51757812 -12.73999023 7.95507812 C-11.5076428 0.42406606 -6.76836988 -0.07093534 0 0 Z " fill="#61DCC2" transform="translate(192.177490234375,444.482421875)"/>
<path d="M0 0 C2.4375 1.5625 2.4375 1.5625 4 4 C4.44578334 8.05834975 4.54718736 10.20698558 2.19580078 13.61474609 C1.37063965 14.40961426 0.54547852 15.20448242 -0.3046875 16.0234375 C-1.19800781 16.89871094 -2.09132813 17.77398437 -3.01171875 18.67578125 C-3.95660156 19.56652344 -4.90148437 20.45726562 -5.875 21.375 C-6.81214844 22.28894531 -7.74929688 23.20289063 -8.71484375 24.14453125 C-15.5749328 30.7874664 -15.5749328 30.7874664 -18 32 C-16.39673852 36.27876789 -13.13582116 38.85786779 -9.8125 41.8125 C-8.63756332 42.88491563 -7.46308086 43.95782912 -6.2890625 45.03125 C-4.40456191 46.7407229 -2.50830757 48.42645169 -0.5859375 50.09375 C2.65325308 53.02635052 3.86371579 54.26902106 4.6875 58.6875 C4 62 4 62 2.4375 64.4375 C-1.09449535 66.70159958 -2.86141434 66.7587407 -7 66 C-10.02839805 64.02933765 -12.46797048 61.56396503 -15 59 C-15.80824219 58.19304687 -16.61648438 57.38609375 -17.44921875 56.5546875 C-19.15235368 54.8489444 -20.85027008 53.13797504 -22.54296875 51.421875 C-24.73278825 49.26338837 -26.97225326 47.24207443 -29.3125 45.25 C-37.49347394 38.16424773 -37.49347394 38.16424773 -38.6875 33.0625 C-37.20139155 26.44256236 -31.3954653 22.38097447 -26.41796875 18.1640625 C-22.6399481 14.78276454 -19.11277318 11.1541441 -15.56811523 7.53076172 C-7.25931303 -0.90741413 -7.25931303 -0.90741413 0 0 Z " fill="#0E6180" transform="translate(312,148)"/>
<path d="M0 0 C2.59887695 1.59301758 2.59887695 1.59301758 5.17578125 3.83203125 C6.12662598 4.65525879 7.0774707 5.47848633 8.05712891 6.32666016 C12.86157608 10.69107832 17.57158398 15.12392605 22.1875 19.6875 C23.13947266 20.59822266 24.09144531 21.50894531 25.07226562 22.44726562 C25.97009766 23.33478516 26.86792969 24.22230469 27.79296875 25.13671875 C28.6027417 25.92780029 29.41251465 26.71888184 30.24682617 27.53393555 C32.42582791 30.59898172 32.44467304 32.3146568 32 36 C30.75 38.08984375 30.75 38.08984375 29 39.9375 C28.35289062 40.62328125 27.70578125 41.3090625 27.0390625 42.015625 C24.57562706 44.41299129 22.01183336 46.64950718 19.38671875 48.8671875 C15.58640577 52.26321186 12.04367649 55.91571799 8.47998047 59.55737305 C2.27223503 65.86121072 2.27223503 65.86121072 -2.4375 66.375 C-6 66 -6 66 -8.4375 64.4375 C-10.05819237 61.9092199 -10.71031191 60.10924658 -10.63989258 57.09301758 C-9.11315772 52.09923736 -4.32098664 48.59795296 -0.625 45.125 C0.26445312 44.25875 1.15390625 43.3925 2.0703125 42.5 C8.57421875 36.21289062 8.57421875 36.21289062 11 35 C10.41890137 31.54700597 9.28785339 29.92870743 6.796875 27.50390625 C6.14589844 26.86259766 5.49492187 26.22128906 4.82421875 25.56054688 C4.13972656 24.90119141 3.45523437 24.24183594 2.75 23.5625 C2.08097656 22.90701172 1.41195313 22.25152344 0.72265625 21.57617188 C-2.89521135 18.02256692 -2.89521135 18.02256692 -6.57983398 14.53881836 C-9.25325513 12.02268532 -9.96569956 11.21723612 -10.5625 7.4375 C-10 4 -10 4 -8.375 1.5625 C-5.28461204 -0.47064997 -3.65702703 -0.38833943 0 0 Z " fill="#0E6180" transform="translate(387,148)"/>
<path d="M0 0 C1.30485352 -0.01253311 2.60970703 -0.02506622 3.95410156 -0.03797913 C5.37045289 -0.02571045 6.78679464 -0.01229037 8.203125 0.00219727 C9.66373878 0.00136805 11.12435245 -0.00109334 12.58496094 -0.00511169 C15.64156283 -0.00796597 18.69743044 0.00669358 21.75390625 0.03417969 C25.66486559 0.06826323 29.57451249 0.06224153 33.48553467 0.04351711 C36.50027333 0.03293027 39.51470848 0.04189994 42.52941895 0.05690193 C43.97106016 0.06207194 45.41273322 0.06161629 46.85437012 0.05535698 C48.87170527 0.04988554 50.88905599 0.07317461 52.90625 0.09765625 C54.05254883 0.10385483 55.19884766 0.11005341 56.37988281 0.11643982 C60.13263565 0.74489847 61.81266788 1.92665148 64.453125 4.63110352 C65.078125 8.06860352 65.078125 8.06860352 64.453125 11.63110352 C61.93323482 14.79711615 60.42980128 16.42896805 56.41784668 17.2592926 C54.72504578 17.26073524 54.72504578 17.26073524 52.99804688 17.26220703 C51.71321411 17.27474014 50.42838135 17.28727325 49.10461426 17.30018616 C47.7103575 17.28791745 46.31611047 17.27449737 44.921875 17.26000977 C43.48368144 17.26083901 42.04548799 17.26330049 40.6072998 17.26731873 C37.59777185 17.27017282 34.58898973 17.25551535 31.57958984 17.22802734 C27.72915812 17.19394372 23.88005946 17.19996562 20.0295639 17.21868992 C17.06114667 17.22927755 14.09303765 17.2203064 11.12464905 17.2053051 C9.70533667 17.20013566 8.28599194 17.20059005 6.86668396 17.20685005 C4.88048117 17.21232244 2.89426259 17.18903016 0.90820312 17.16455078 C-0.22033081 17.1583522 -1.34886475 17.15215363 -2.51159668 17.14576721 C-6.24013187 16.51355445 -7.90105437 15.29479175 -10.546875 12.63110352 C-11.671875 9.19360352 -11.671875 9.19360352 -11.546875 5.63110352 C-8.00365712 1.10091335 -5.69257412 0.00477615 0 0 Z " fill="#F3BE6E" transform="translate(152.546875,223.368896484375)"/>
<path d="M0 0 C1.30485352 -0.01253311 2.60970703 -0.02506622 3.95410156 -0.03797913 C5.37045289 -0.02571045 6.78679464 -0.01229037 8.203125 0.00219727 C9.66373878 0.00136805 11.12435245 -0.00109334 12.58496094 -0.00511169 C15.64156283 -0.00796597 18.69743044 0.00669358 21.75390625 0.03417969 C25.66486559 0.06826323 29.57451249 0.06224153 33.48553467 0.04351711 C36.50027333 0.03293027 39.51470848 0.04189994 42.52941895 0.05690193 C43.97106016 0.06207194 45.41273322 0.06161629 46.85437012 0.05535698 C48.87170527 0.04988554 50.88905599 0.07317461 52.90625 0.09765625 C54.05254883 0.10385483 55.19884766 0.11005341 56.37988281 0.11643982 C60.13263565 0.74489847 61.81266788 1.92665148 64.453125 4.63110352 C65.078125 8.06860352 65.078125 8.06860352 64.453125 11.63110352 C61.92120372 14.81844312 60.4127178 16.43075479 56.37988281 17.27275085 C54.66043457 17.28324211 54.66043457 17.28324211 52.90625 17.29394531 C51.60139648 17.31293381 50.29654297 17.3319223 48.95214844 17.35148621 C47.53580092 17.34585476 46.11945855 17.33876472 44.703125 17.33032227 C43.2425071 17.33623447 41.78189406 17.34348257 40.32128906 17.352005 C37.26471652 17.36386978 34.20887287 17.35720407 31.15234375 17.33789062 C27.24100578 17.31499648 23.33183918 17.34179244 19.42071533 17.38295269 C16.40593789 17.4085637 13.3916779 17.40594245 10.37683105 17.39505959 C8.9351606 17.39357572 7.49344993 17.40123048 6.05187988 17.41831017 C-5.16139705 17.52961303 -5.16139705 17.52961303 -8.54638672 15.3343811 C-10.49747355 13.09072594 -11.47075756 10.94318502 -12.171875 8.06860352 C-10.55863852 1.77698123 -5.98084158 0.00501801 0 0 Z " fill="#F3BE6E" transform="translate(152.546875,190.368896484375)"/>
<path d="M0 0 C1.41434121 0.0017129 2.82868559 0.0016436 4.24302673 -0.00012207 C7.1995198 0.00152712 10.15525087 0.02015121 13.11157227 0.05175781 C16.89344629 0.09147161 20.6743254 0.09579657 24.45636845 0.08829498 C27.37415111 0.08522004 30.29171175 0.09736364 33.20944023 0.11442566 C34.60362797 0.12143574 35.99784087 0.12458262 37.39204597 0.12373352 C39.34224518 0.12553888 41.29238669 0.14923298 43.24243164 0.17382812 C44.35018448 0.18224731 45.45793732 0.1906665 46.59925842 0.19934082 C49.96925575 0.64378822 51.87014293 1.58610313 54.58984375 3.59375 C56.0341523 6.48236709 55.96672881 8.39022701 55.58984375 11.59375 C53.06162113 14.77311403 51.54488871 16.39644195 47.51660156 17.22866821 C46.37030273 17.23264618 45.22400391 17.23662415 44.04296875 17.24072266 C42.08568848 17.26436386 42.08568848 17.26436386 40.08886719 17.28848267 C38.67251742 17.27953261 37.25617539 17.26927755 35.83984375 17.2578125 C34.37922767 17.26118321 32.91861432 17.26603795 31.45800781 17.27230835 C28.40142023 17.2796679 25.34556476 17.26900528 22.2890625 17.24560547 C18.37792691 17.21711645 14.46850677 17.2335256 10.55743408 17.26346779 C7.54267534 17.28156667 4.52832097 17.27577127 1.5135498 17.26282883 C0.07189733 17.25950188 -1.36979228 17.26355693 -2.81140137 17.27522659 C-4.82868717 17.28797403 -6.84610231 17.26508735 -8.86328125 17.24072266 C-10.00958008 17.23674469 -11.15587891 17.23276672 -12.33691406 17.22866821 C-16.36037939 16.39743811 -17.86523379 14.75084424 -20.41015625 11.59375 C-21.09765625 8.59375 -21.09765625 8.59375 -20.41015625 5.59375 C-14.98590317 -1.11687011 -8.04368558 -0.1030462 0 0 Z " fill="#F35A94" transform="translate(161.41015625,157.40625)"/>
<path d="M0 0 C0.65725571 -0.00686325 1.31451141 -0.0137265 1.99168396 -0.02079773 C4.16402805 -0.03909689 6.33565202 -0.03522403 8.50805664 -0.02954102 C10.01876562 -0.03410157 11.52947252 -0.03940677 13.04017639 -0.04542542 C16.20688299 -0.05436275 19.3733375 -0.05192675 22.54003906 -0.04199219 C26.59679669 -0.03050514 30.65268354 -0.05070571 34.70932674 -0.07990932 C37.82948834 -0.09826311 40.94944099 -0.09798053 44.06964302 -0.0922718 C45.565163 -0.09211847 47.06069703 -0.09817316 48.5561657 -0.11056328 C50.64867488 -0.12545616 52.73957224 -0.11481162 54.83203125 -0.09765625 C56.6171537 -0.097407 56.6171537 -0.097407 58.43833923 -0.09715271 C62.10840302 0.5074594 63.28864735 1.44352616 65.48071289 4.40405273 C66.04321289 7.90405273 66.04321289 7.90405273 65.48071289 11.40405273 C62.84376871 14.11471431 61.16150201 15.29004368 57.4074707 15.91871643 C55.68802246 15.9280143 55.68802246 15.9280143 53.93383789 15.9375 C52.62898438 15.95333633 51.32413086 15.96917267 49.97973633 15.98548889 C48.56339153 15.98164746 47.14704955 15.97660844 45.73071289 15.97045898 C44.27009688 15.97569704 42.80948427 15.98197419 41.34887695 15.98924255 C38.29239956 15.99963511 35.23638807 15.99510184 32.17993164 15.98046875 C28.26884485 15.96327381 24.35922623 15.98678842 20.44830322 16.02195835 C17.43357668 16.04394919 14.41920066 16.04248717 11.40441895 16.03419304 C9.96275216 16.03337458 8.52105937 16.04021803 7.07946777 16.05496407 C5.06223935 16.07243764 3.04479894 16.05453155 1.02758789 16.03515625 C-0.11871094 16.03419449 -1.26500977 16.03323273 -2.44604492 16.03224182 C-6.48920998 15.2057947 -8.01449957 13.62320121 -10.51928711 10.40405273 C-10.51928711 6.94675698 -10.34345462 4.60685149 -8.36424255 1.71836853 C-5.60782389 -0.24525862 -3.3577229 0.0152543 0 0 Z " fill="#FA5A95" transform="translate(151.519287109375,125.595947265625)"/>
<path d="M0 0 C3.5 0.5 3.5 0.5 5.9375 2.0625 C8.01657237 5.30585289 8.05363084 7.79357428 7.5 11.5 C6.24872519 15.58523079 4.63867947 19.50486614 3.01171875 23.453125 C2.55271683 24.59029968 2.0937149 25.72747437 1.62080383 26.89910889 C0.65055981 29.29512822 -0.3256328 31.68874624 -1.30737305 34.08007812 C-2.81058576 37.74533255 -4.29237919 41.41871039 -5.77148438 45.09375 C-6.71749388 47.4223857 -7.66471809 49.75052836 -8.61328125 52.078125 C-9.05714676 53.17811829 -9.50101227 54.27811157 -9.95832825 55.41143799 C-10.37853745 56.42969666 -10.79874664 57.44795532 -11.23168945 58.49707031 C-11.59809036 59.39306946 -11.96449127 60.2890686 -12.34199524 61.21221924 C-13.49421308 63.48856724 -14.53531054 64.89005261 -16.5 66.5 C-18.4375 66.8984375 -18.4375 66.8984375 -20.5 66.875 C-21.5209375 66.88660156 -21.5209375 66.88660156 -22.5625 66.8984375 C-25.08883921 66.37890807 -25.88055135 65.4823056 -27.5 63.5 C-28.38569265 55.74731992 -26.18581804 49.9348272 -23.265625 42.82421875 C-22.8311908 41.73663773 -22.39675659 40.6490567 -21.94915771 39.52851868 C-21.03181977 37.24216628 -20.10688868 34.95884738 -19.17480469 32.6784668 C-17.7503897 29.18845483 -16.35403144 25.68816203 -14.9609375 22.18554688 C-14.06413952 19.96027606 -13.16575616 17.73564337 -12.265625 15.51171875 C-11.64037933 13.94450325 -11.64037933 13.94450325 -11.00250244 12.34562683 C-10.60238953 11.37394058 -10.20227661 10.40225433 -9.79003906 9.40112305 C-9.44362366 8.54890671 -9.09720825 7.69669037 -8.74029541 6.81864929 C-6.51604204 2.66055641 -4.72417358 0.67488194 0 0 Z " fill="#0E6180" transform="translate(356.5,147.5)"/>
<path d="M0 0 C16 0 16 0 22 4 C24.29996286 7.17923924 24.23465832 10.00348428 24.1953125 13.859375 C24.18886719 14.97441406 24.18242187 16.08945313 24.17578125 17.23828125 C24.15902344 18.39714844 24.14226562 19.55601563 24.125 20.75 C24.11597656 21.92433594 24.10695313 23.09867188 24.09765625 24.30859375 C24.0741016 27.20581629 24.03823108 30.10293396 24 33 C16.08 33 8.16 33 0 33 C0 22.11 0 11.22 0 0 Z " fill="#B4ACB5" transform="translate(371,80)"/>
<path d="M0 0 C1.30166359 -0.01902626 1.30166359 -0.01902626 2.62962341 -0.03843689 C3.56403763 -0.03550125 4.49845184 -0.03256561 5.46118164 -0.02954102 C6.42407608 -0.03478287 7.38697052 -0.04002472 8.37904358 -0.04542542 C10.41577185 -0.05184977 12.4525372 -0.05050328 14.48925781 -0.04199219 C17.6062226 -0.0334885 20.72135142 -0.06222792 23.83813477 -0.09399414 C25.81664984 -0.09560638 27.79516816 -0.09502819 29.77368164 -0.09204102 C31.17226662 -0.10889198 31.17226662 -0.10889198 32.59910583 -0.12608337 C39.03929937 -0.05671467 39.03929937 -0.05671467 42.26806641 2.25146484 C44.24174403 5.25231251 44.33116454 6.87971877 43.68383789 10.40405273 C41.67000287 13.15821235 40.06453689 15.09223951 36.63619995 15.8664856 C34.12705528 16.04954032 31.66426215 16.07084428 29.14868164 16.03295898 C27.77517296 16.03657692 27.77517296 16.03657692 26.37391663 16.04026794 C24.44324399 16.03929072 22.51254291 16.02592689 20.58203125 16.00097656 C17.62736942 15.96662286 14.67569203 15.98033454 11.72094727 15.99975586 C9.84267933 15.99285838 7.96441911 15.98318687 6.08618164 15.97045898 C5.20381332 15.97541885 4.32144501 15.98037872 3.41233826 15.98548889 C-2.69430699 15.86818753 -2.69430699 15.86818753 -5.87280273 13.49584961 C-8.32146024 9.94711864 -7.78712245 7.64269579 -7.31616211 3.40405273 C-5.17033451 0.46776533 -3.56088513 0.02521783 0 0 Z " fill="#63B8FB" transform="translate(177.316162109375,277.595947265625)"/>
<path d="M0 0 C1.14210937 0.00386719 2.28421875 0.00773437 3.4609375 0.01171875 C4.64945313 0.03621094 5.83796875 0.06070312 7.0625 0.0859375 C8.25101563 0.08722656 9.43953125 0.08851562 10.6640625 0.08984375 C20.49206586 0.18967674 20.49206586 0.18967674 24.0625 2.4609375 C25.98449114 5.02359236 26.07278636 6.29292699 25.875 9.5234375 C25.00758123 12.65948997 24.63812289 13.58189033 22.0625 15.4609375 C17.44665494 16.11593395 12.78199666 15.92398711 8.125 15.8984375 C6.19237305 15.9284082 6.19237305 15.9284082 4.22070312 15.95898438 C2.98384766 15.95833984 1.74699219 15.95769531 0.47265625 15.95703125 C-0.66034912 15.95888428 -1.79335449 15.9607373 -2.96069336 15.96264648 C-6.58493713 15.35181888 -7.7622355 14.37942008 -9.9375 11.4609375 C-10.4375 7.9609375 -10.4375 7.9609375 -9.9375 4.4609375 C-6.95214177 0.52289877 -4.85124951 -0.03822833 0 0 Z " fill="#433F43" transform="translate(206.9375,17.5390625)"/>
<path d="M0 0 C4.93731454 1.46290801 4.93731454 1.46290801 6.375 4 C7.02588557 8.39347757 6.84938867 10.30998011 4.3125 14 C1.375 16 1.375 16 -2.25 16.0625 C-5.625 15 -5.625 15 -7.5625 13.3125 C-8.9863395 10.2135552 -9.17653827 8.37817188 -8.625 5 C-5.91953265 1.14675862 -4.77773264 0 0 0 Z " fill="#9CDF43" transform="translate(149.625,343)"/>
<path d="M0 0 C4.11289267 0.85685264 5.59686932 2.20235933 8 5.625 C8 9.14455419 7.63108355 11.47420059 5.9375 14.5625 C2.72688264 16.32316113 -0.49995202 16.37853146 -4 15.625 C-6.73080856 13.23554251 -7.76900145 11.65166021 -8.5625 8.125 C-7.50109364 3.40763841 -4.65431864 0.96964972 0 0 Z " fill="#454145" transform="translate(250,17.375)"/>
<path d="M0 0 C3.375 1.0625 3.375 1.0625 5.3125 2.75 C6.7363395 5.8489448 6.92653827 7.68432812 6.375 11.0625 C4.3125 14 4.3125 14 1.375 16.0625 C-2.47710127 16.12891554 -4.62348005 15.93479157 -7.5625 13.375 C-8.9863395 10.2760552 -9.17653827 8.44067188 -8.625 5.0625 C-5.92665364 1.21940065 -4.75860157 0.08204485 0 0 Z " fill="#26CDB1" transform="translate(149.625,309.9375)"/>
<path d="M0 0 C2.4375 1.5625 2.4375 1.5625 4 4 C4.5625 7.5 4.5625 7.5 4 11 C1.41830549 13.96135546 -0.18881135 14.86756104 -4.0625 15.5 C-7 15 -7 15 -9.375 13.4375 C-11.62340519 10.06489221 -11.56783945 7.97487617 -11 4 C-8.11188513 -0.5054592 -5.11821063 -0.73117295 0 0 Z " fill="#61B6F9" transform="translate(152,278)"/>
<path d="M0 0 C1.9375 1.125 1.9375 1.125 3 3 C3.49573337 6.89504791 3.58016848 9.09493717 1.4375 12.4375 C-1.94217804 14.60396028 -4.05983987 14.56288002 -8 14 C-10.4375 12.4375 -10.4375 12.4375 -12 10 C-12.5625 6.5 -12.5625 6.5 -12 3 C-8.31376997 -1.46815761 -5.41712863 -1.50475795 0 0 Z " fill="#9EE042" transform="translate(153,377)"/>
</svg>
