<?xml version="1.0" encoding="UTF-8"?>
<svg version="1.1" xmlns="http://www.w3.org/2000/svg" width="512" height="512">
<path d="M0 0 C1.63406523 -0.00417648 3.26812756 -0.00965572 4.90218455 -0.01631981 C9.37762562 -0.0307518 13.85288218 -0.02653673 18.32833326 -0.019153 C23.16073984 -0.0144181 27.99310669 -0.026934 32.82550049 -0.03717041 C42.28658905 -0.05435712 51.7476112 -0.05519872 61.20871132 -0.04995751 C68.89911235 -0.04591452 76.58949378 -0.04736089 84.27989388 -0.05270576 C85.37483029 -0.05345419 86.4697667 -0.05420261 87.597883 -0.05497371 C89.82230389 -0.0565052 92.04672477 -0.05804355 94.27114565 -0.05958868 C115.12603228 -0.07331313 135.98088138 -0.06787629 156.83576716 -0.05640347 C175.91119622 -0.04647003 194.98652829 -0.05941379 214.06194239 -0.08333766 C233.6544407 -0.10772471 253.24689384 -0.11733756 272.83940703 -0.11068493 C283.83680356 -0.10719198 294.83412549 -0.10942987 305.83151054 -0.12693596 C315.19276742 -0.14165293 324.55389716 -0.14229988 333.91515153 -0.12486505 C338.69008587 -0.11634878 343.46479304 -0.11422091 348.23971558 -0.1295166 C352.61381152 -0.14335473 356.98748548 -0.13861181 361.36155695 -0.11927737 C362.94086198 -0.11551439 364.52020074 -0.11844794 366.09947573 -0.12888902 C378.58226636 -0.2055251 388.57866081 1.63987489 397.9513092 10.38768005 C405.32020111 18.44166168 408.08615385 27.38358717 408.06242371 38.21261597 C408.06242272 38.88644084 408.06242174 39.5602657 408.06242073 40.25450951 C408.06139023 42.50522915 408.05338303 44.75587112 408.04554749 47.00657654 C408.04366764 48.62317351 408.0423231 50.23977118 408.04147339 51.85636902 C408.03919222 55.33434115 408.03447319 58.81229877 408.02827835 62.29026604 C408.01986698 67.79094735 408.02531202 73.29155896 408.0342865 78.79223633 C408.0357575 79.72105903 408.03722851 80.64988172 408.03874409 81.60685056 C408.04181468 83.50588679 408.04493471 85.40492294 408.04810309 87.30395901 C408.06928389 100.10741719 408.08295629 112.91064681 408.05091858 125.71409607 C408.02939748 134.35489408 408.0325198 142.99529148 408.06432712 151.63606316 C408.08018309 156.20724209 408.08340282 160.7776547 408.05656815 165.34879875 C408.03155108 169.64773529 408.03906588 173.94538708 408.07144737 178.2442627 C408.07753877 179.82044058 408.07169722 181.39671728 408.05295372 182.97279549 C407.66671911 191.16929954 407.66671911 191.16929954 410.4665184 198.57242012 C412.22235101 200.07724169 413.98011717 201.19197905 415.9513092 202.38768005 C417.96016906 204.52230541 419.73506662 206.80931508 421.5138092 209.13768005 C421.98850647 209.75618835 422.46320374 210.37469666 422.95228577 211.01194763 C428.92219183 218.88759993 433.20866324 226.57363306 436.7013092 235.82518005 C436.99553772 236.60014832 437.28976624 237.37511658 437.59291077 238.17356873 C441.35865872 248.6079196 442.24417143 258.67264786 442.1466217 269.7118988 C442.14237686 271.55301994 442.14237686 271.55301994 442.13804626 273.43133545 C442.1269417 277.31272043 442.10185526 281.19386601 442.0763092 285.07518005 C442.06626684 287.72296316 442.0571432 290.37074991 442.04896545 293.01853943 C442.02703428 299.47499992 441.99365479 305.93132288 441.9513092 312.38768005 C442.70331604 312.36665222 443.45532288 312.34562439 444.2301178 312.32395935 C445.21834534 312.30760437 446.20657288 312.29124939 447.2247467 312.2743988 C448.20362854 312.25337097 449.18251038 312.23234314 450.1910553 312.2106781 C454.27244996 312.47239853 455.97188648 313.64347492 458.9513092 316.38768005 C459.89268175 319.2117977 460.06856303 320.91686037 460.04896545 323.8368988 C460.0457428 324.6844574 460.04252014 325.53201599 460.03919983 326.40525818 C460.03082092 327.2863324 460.02244202 328.16740662 460.0138092 329.07518005 C460.00704163 330.41419373 460.00704163 330.41419373 460.00013733 331.78025818 C459.98835903 333.98279992 459.97191085 336.18520605 459.9513092 338.38768005 C460.7144342 338.65580505 461.4775592 338.92393005 462.2638092 339.20018005 C464.89067013 340.36088605 466.26561868 341.09492414 467.9513092 343.38768005 C468.5741179 346.43439289 468.46074168 349.32554788 467.9513092 352.38768005 C465.75299556 355.4198368 464.50167727 356.20422403 460.9513092 357.38768005 C460.6213092 362.66768005 460.2913092 367.94768005 459.9513092 373.38768005 C461.6013092 373.71768005 463.2513092 374.04768005 464.9513092 374.38768005 C467.1801003 376.23219683 467.83224802 377.67592967 468.30677795 380.51268005 C468.45420872 382.9353261 468.42760992 385.00617647 467.9513092 387.38768005 C465.6388092 389.95018005 465.6388092 389.95018005 462.9513092 391.38768005 C461.9613092 391.38768005 460.9713092 391.38768005 459.9513092 391.38768005 C459.9513092 396.99768005 459.9513092 402.60768005 459.9513092 408.38768005 C461.6013092 408.71768005 463.2513092 409.04768005 464.9513092 409.38768005 C467.13180808 410.96567266 467.82845032 411.84095802 468.4200592 414.47361755 C468.48043849 418.89639994 468.39343111 420.80216726 465.6388092 424.45018005 C462.9513092 426.38768005 462.9513092 426.38768005 459.9513092 426.38768005 C459.9513092 431.99768005 459.9513092 437.60768005 459.9513092 443.38768005 C461.6013092 443.71768005 463.2513092 444.04768005 464.9513092 444.38768005 C467.16135052 445.97871636 467.83775504 446.83218536 468.38490295 449.5087738 C468.39539368 455.72977712 468.39539368 455.72977712 466.2638092 458.88768005 C463.76231927 460.51026812 461.85783153 460.8863893 458.9513092 461.38768005 C458.80435608 462.13791443 458.65740295 462.8881488 458.5059967 463.66111755 C455.52456882 477.26602411 448.30595996 488.3888398 436.6388092 496.20018005 C428.13534275 501.29752921 419.18251299 504.49821947 409.22973633 504.52812195 C408.08746582 504.53383209 406.94519531 504.53954224 405.76831055 504.54542542 C404.52408829 504.54654327 403.27986603 504.54766113 401.99794006 504.54881287 C400.02139938 504.55626022 400.02139938 504.55626022 398.00492859 504.56385803 C394.39503042 504.57694829 390.78515083 504.58342095 387.17523265 504.58786869 C384.91523603 504.59080625 382.65524441 504.59491243 380.39525032 504.59937286 C373.31098039 504.61304194 366.22672198 504.6227102 359.14243978 504.62657475 C350.99007373 504.63104737 342.83787602 504.64856057 334.68556112 504.67757535 C328.36854877 504.69927002 322.05158349 504.70928325 315.73453432 504.71061587 C311.96931859 504.7116588 308.20426121 504.71745578 304.43908501 504.73543549 C300.89068416 504.75205038 297.34255839 504.75400756 293.79413223 504.74529648 C291.89040354 504.74417257 289.98668342 504.75778781 288.08300781 504.77204895 C272.11052142 504.69549774 258.98331624 500.07490329 247.3106842 488.99705505 C239.96973001 480.87825141 235.8085733 472.12498812 233.9513092 461.38768005 C233.17400452 461.25361755 232.39669983 461.11955505 231.59584045 460.98143005 C228.09673675 460.1958115 226.96443706 459.37009169 224.9513092 456.38768005 C224.1478898 451.97293103 224.13812008 448.57842127 226.7013092 444.82518005 C228.9513092 443.38768005 228.9513092 443.38768005 232.9513092 443.38768005 C232.9513092 437.77768005 232.9513092 432.16768005 232.9513092 426.38768005 C231.3013092 426.05768005 229.6513092 425.72768005 227.9513092 425.38768005 C226.1388092 423.57518005 226.1388092 423.57518005 224.9513092 421.38768005 C224.9513092 420.06768005 224.9513092 418.74768005 224.9513092 417.38768005 C223.71240212 417.39044543 222.47349504 417.39321081 221.19704533 417.39605999 C191.77230537 417.46106664 162.34758175 417.51051816 132.92278776 417.54087604 C129.29923814 417.54462806 125.67568867 417.54851103 122.05213928 417.55247498 C120.97008731 417.55365537 120.97008731 417.55365537 119.8661757 417.55485962 C108.19368542 417.56790513 96.52123958 417.59155426 84.84877563 417.61913844 C72.86721346 417.64721644 60.88567453 417.66386137 48.90408081 417.66994554 C42.17610959 417.67368856 35.44823094 417.68267348 28.72029305 417.70487022 C22.38630044 417.72524884 16.05244993 417.73151099 9.71842766 417.7270031 C7.39527998 417.72782767 5.07212749 417.73378499 2.74900818 417.74529648 C-0.42721629 417.7602618 -3.602907 417.75661861 -6.77914429 417.7484436 C-7.6945382 417.75718213 -8.60993212 417.76592065 -9.55306524 417.77492398 C-19.82066941 417.7036848 -27.67826005 414.5835833 -35.0486908 407.38768005 C-40.83112921 400.42672562 -44.29413677 394.20730384 -44.3059597 384.9926033 C-44.31240859 383.71886801 -44.31885749 382.44513272 -44.3255018 381.13279939 C-44.32255978 379.72673137 -44.31942436 378.32066376 -44.31611633 376.91459656 C-44.31985392 375.41511549 -44.32445588 373.91563638 -44.32984698 372.41616035 C-44.34207908 368.29882734 -44.34181626 364.18157557 -44.33945823 360.06422853 C-44.33905011 355.6223707 -44.35008873 351.18053893 -44.35957336 346.73869324 C-44.3761857 338.03721209 -44.38168302 329.33575803 -44.38279812 320.63426235 C-44.38374852 313.56068809 -44.38785843 306.48712277 -44.39419937 299.41355133 C-44.41181274 279.35679198 -44.42103814 259.30005402 -44.41953842 239.24328688 C-44.41945851 238.16204014 -44.4193786 237.08079341 -44.41929626 235.96678162 C-44.4192145 234.88421395 -44.41913274 233.80164629 -44.4190485 232.68627355 C-44.41823567 215.14322094 -44.43737245 197.60025421 -44.465573 180.05722645 C-44.49430346 162.0423244 -44.50811319 144.02746422 -44.50638545 126.01253867 C-44.50572158 115.89929055 -44.51121232 105.78613245 -44.53274155 95.67290497 C-44.55095549 87.06183356 -44.55529894 78.45089297 -44.5417227 69.83981064 C-44.53519402 65.44766057 -44.53507216 61.05576144 -44.5524292 56.66363525 C-44.56816957 52.63914481 -44.56528665 48.61510408 -44.54786094 44.59062454 C-44.54479314 43.13841284 -44.54841517 41.68616749 -44.55958109 40.23399547 C-44.64564472 28.24233923 -42.61311098 18.23758091 -34.0486908 9.38768005 C-23.62651739 0.7156452 -13.02108568 -0.05418199 0 0 Z M407.9513092 223.38768005 C407.9513092 252.75768005 407.9513092 282.12768005 407.9513092 312.38768005 C413.2313092 312.38768005 418.5113092 312.38768005 423.9513092 312.38768005 C424.05129905 305.29340066 424.12330096 298.19954486 424.17103577 291.10472107 C424.19096653 288.69872376 424.21812114 286.2927737 424.25306702 283.88694763 C424.49688287 266.65131842 424.44437865 250.0849846 415.9513092 234.57518005 C415.6213092 233.9222699 415.2913092 233.26935974 414.9513092 232.59666443 C412.95282568 228.76753877 411.08606332 226.52243417 407.9513092 223.38768005 Z " fill="#AFD2EF" transform="translate(44.04869079589844,3.6123199462890625)"/>
<path d="M0 0 C1.47208609 -0.0245674 1.47208609 -0.0245674 2.97391129 -0.04963112 C3.77409117 -0.0705466 4.57427105 -0.09146208 5.39869881 -0.11301136 C9.00355432 0.19689201 10.83153019 1.64097202 13.46271133 4.06442833 C14.40408388 6.88854598 14.57996516 8.59360865 14.56036758 11.51364708 C14.55714493 12.36120567 14.55392227 13.20876427 14.55060196 14.08200645 C14.54222305 14.96308067 14.53384415 15.84415489 14.52521133 16.75192833 C14.52069962 17.64460411 14.5161879 18.53727989 14.51153946 19.45700645 C14.49976116 21.6595482 14.48331298 23.86195432 14.46271133 26.06442833 C15.22583633 26.33255333 15.98896133 26.60067833 16.77521133 26.87692833 C19.40207226 28.03763432 20.77702081 28.77167241 22.46271133 31.06442833 C23.08552004 34.11114116 22.97214381 37.00229615 22.46271133 40.06442833 C20.26439769 43.09658508 19.0130794 43.88097231 15.46271133 45.06442833 C15.13271133 50.34442833 14.80271133 55.62442833 14.46271133 61.06442833 C16.11271133 61.39442833 17.76271133 61.72442833 19.46271133 62.06442833 C21.69150244 63.9089451 22.34365015 65.35267795 22.81818008 68.18942833 C22.96561085 70.61207437 22.93901205 72.68292475 22.46271133 75.06442833 C20.15021133 77.62692833 20.15021133 77.62692833 17.46271133 79.06442833 C16.47271133 79.06442833 15.48271133 79.06442833 14.46271133 79.06442833 C14.46271133 84.67442833 14.46271133 90.28442833 14.46271133 96.06442833 C16.11271133 96.39442833 17.76271133 96.72442833 19.46271133 97.06442833 C21.64321021 98.64242093 22.33985245 99.51770629 22.93146133 102.15036583 C22.99184062 106.57314822 22.90483324 108.47891554 20.15021133 112.12692833 C17.46271133 114.06442833 17.46271133 114.06442833 14.46271133 114.06442833 C14.46271133 119.67442833 14.46271133 125.28442833 14.46271133 131.06442833 C16.11271133 131.39442833 17.76271133 131.72442833 19.46271133 132.06442833 C21.67275265 133.65546464 22.34915717 134.50893363 22.89630508 137.18552208 C22.90679581 143.4065254 22.90679581 143.4065254 20.77521133 146.56442833 C18.2737214 148.1870164 16.36923366 148.56313758 13.46271133 149.06442833 C13.31575821 149.8146627 13.16880508 150.56489708 13.01739883 151.33786583 C10.03597095 164.94277238 2.81736209 176.06558808 -8.84978867 183.87692833 C-17.35325512 188.97427748 -26.30608488 192.17496775 -36.25886154 192.20487022 C-37.40113205 192.21058037 -38.54340256 192.21629051 -39.72028732 192.22217369 C-40.96450958 192.22329155 -42.20873184 192.22440941 -43.49065781 192.22556114 C-44.80835159 192.23052605 -46.12604538 192.23549095 -47.48366928 192.24060631 C-51.09356745 192.25369656 -54.70344704 192.26016923 -58.31336522 192.26461697 C-60.57336184 192.26755452 -62.83335346 192.27166071 -65.09334755 192.27612114 C-72.17761748 192.28979022 -79.26187589 192.29945848 -86.34615809 192.30332303 C-94.49852414 192.30779565 -102.65072185 192.32530884 -110.80303675 192.35432363 C-117.1200491 192.3760183 -123.43701438 192.38603153 -129.75406355 192.38736415 C-133.51927928 192.38840707 -137.28433666 192.39420406 -141.04951286 192.41218376 C-144.59791371 192.42879866 -148.14603948 192.43075584 -151.69446564 192.42204475 C-153.59819433 192.42092085 -155.50191445 192.43453608 -157.40559006 192.44879723 C-173.37807645 192.37224601 -186.50528163 187.75165156 -198.17791367 176.67380333 C-205.51886786 168.55499968 -209.68002457 159.80173639 -211.53728867 149.06442833 C-212.31459335 148.93036583 -213.09189804 148.79630333 -213.89275742 148.65817833 C-217.39186112 147.87255977 -218.52416081 147.04683997 -220.53728867 144.06442833 C-221.34070807 139.6496793 -221.35047779 136.25516955 -218.78728867 132.50192833 C-216.53728867 131.06442833 -216.53728867 131.06442833 -212.53728867 131.06442833 C-212.53728867 125.45442833 -212.53728867 119.84442833 -212.53728867 114.06442833 C-214.18728867 113.73442833 -215.83728867 113.40442833 -217.53728867 113.06442833 C-220.20995331 110.66824623 -220.51805519 109.21554851 -220.97478867 105.62692833 C-220.46273489 101.45734762 -219.61167845 99.88954327 -216.53728867 97.06442833 C-214.06228867 96.56942833 -214.06228867 96.56942833 -211.53728867 96.06442833 C-211.53728867 90.45442833 -211.53728867 84.84442833 -211.53728867 79.06442833 C-213.18728867 78.73442833 -214.83728867 78.40442833 -216.53728867 78.06442833 C-219.291855 75.45875747 -220.39894063 73.80228451 -221.09978867 70.06442833 C-220.34653401 66.04707019 -218.6622518 64.60800297 -215.53728867 62.06442833 C-214.05228867 61.56942833 -214.05228867 61.56942833 -212.53728867 61.06442833 C-212.20728867 55.45442833 -211.87728867 49.84442833 -211.53728867 44.06442833 C-213.18728867 43.73442833 -214.83728867 43.40442833 -216.53728867 43.06442833 C-219.291855 40.45875747 -220.39894063 38.80228451 -221.09978867 35.06442833 C-220.34114388 31.01832279 -218.75508227 29.55090521 -215.53728867 27.06442833 C-214.21728867 27.06442833 -212.89728867 27.06442833 -211.53728867 27.06442833 C-211.56347275 26.45446007 -211.58965683 25.84449181 -211.61663437 25.21603966 C-211.72094585 22.43660075 -211.78571849 19.65757394 -211.84978867 16.87692833 C-211.8916832 15.9172213 -211.93357773 14.95751427 -211.97674179 13.9687252 C-211.99285507 13.03737755 -212.00896835 12.10602989 -212.02556992 11.14645958 C-212.051754 10.29285851 -212.07793808 9.43925743 -212.10491562 8.55978966 C-211.25313796 4.81526515 -209.51151514 3.44448607 -206.53728867 1.06442833 C-203.59789047 0.57057532 -201.23795726 0.38439766 -198.30337143 0.42519188 C-197.06516339 0.41265836 -197.06516339 0.41265836 -195.80194104 0.39987165 C-193.03734951 0.37793474 -190.27408557 0.39155114 -187.50945663 0.4050045 C-185.526582 0.39655153 -183.54371566 0.38590753 -181.56086349 0.3732357 C-176.17411382 0.34503905 -170.78776175 0.34757201 -165.40096045 0.35552955 C-159.75926062 0.3586546 -154.11768741 0.33361435 -148.47603989 0.31157494 C-137.77949969 0.27407924 -127.08308654 0.26198461 -116.38648713 0.25895053 C-104.25471649 0.25427977 -92.12307542 0.22138138 -79.99136138 0.18605268 C-59.23858868 0.1262208 -38.48586385 0.08865226 -17.73301315 0.07234764 C-16.41998746 0.07117815 -16.41998746 0.07117815 -15.08043599 0.06998503 C-13.41669263 0.06917615 -11.75294815 0.06956197 -10.0892055 0.07130086 C-6.72456011 0.07406346 -3.36428139 0.06127717 0 0 Z " fill="#EFC319" transform="translate(489.5372886657715,315.9355716705322)"/>
<path d="M0 0 C1.63406523 -0.00417648 3.26812756 -0.00965572 4.90218455 -0.01631981 C9.37762562 -0.0307518 13.85288218 -0.02653673 18.32833326 -0.019153 C23.16073984 -0.0144181 27.99310669 -0.026934 32.82550049 -0.03717041 C42.28658905 -0.05435712 51.7476112 -0.05519872 61.20871132 -0.04995751 C68.89911235 -0.04591452 76.58949378 -0.04736089 84.27989388 -0.05270576 C85.37483029 -0.05345419 86.4697667 -0.05420261 87.597883 -0.05497371 C89.82230389 -0.0565052 92.04672477 -0.05804355 94.27114565 -0.05958868 C115.12603228 -0.07331313 135.98088138 -0.06787629 156.83576716 -0.05640347 C175.91119622 -0.04647003 194.98652829 -0.05941379 214.06194239 -0.08333766 C233.6544407 -0.10772471 253.24689384 -0.11733756 272.83940703 -0.11068493 C283.83680356 -0.10719198 294.83412549 -0.10942987 305.83151054 -0.12693596 C315.19276742 -0.14165293 324.55389716 -0.14229988 333.91515153 -0.12486505 C338.69008587 -0.11634878 343.46479304 -0.11422091 348.23971558 -0.1295166 C352.61381152 -0.14335473 356.98748548 -0.13861181 361.36155695 -0.11927737 C362.94086198 -0.11551439 364.52020074 -0.11844794 366.09947573 -0.12888902 C378.58226636 -0.2055251 388.57866081 1.63987489 397.9513092 10.38768005 C413.1772144 27.0291456 407.9513092 48.51885569 407.9513092 70.38768005 C258.7913092 70.38768005 109.6313092 70.38768005 -44.0486908 70.38768005 C-44.0486908 19.72101339 -44.0486908 19.72101339 -34.0486908 9.38768005 C-23.62651739 0.7156452 -13.02108568 -0.05418199 0 0 Z " fill="#4482C3" transform="translate(44.04869079589844,3.6123199462890625)"/>
<path d="M0 0 C5.19827104 4.01270045 10.04752289 8.40246616 14.671875 13.0625 C15.21205765 13.59345276 15.7522403 14.12440552 16.30879211 14.67144775 C18.35805862 18.2661692 18.06429329 21.84482061 18.01245117 25.87011719 C18.01281278 26.77260822 18.01317438 27.67509926 18.01354694 28.60493851 C18.01130959 31.52331046 17.98847217 34.44110602 17.96484375 37.359375 C17.96043235 39.16226932 17.95737215 40.96516747 17.95568848 42.76806641 C17.93996621 49.4496029 17.89808252 56.13105713 17.859375 62.8125 C17.7975 77.745 17.735625 92.6775 17.671875 108.0625 C-28.528125 108.0625 -74.728125 108.0625 -122.328125 108.0625 C-122.328125 45.80132114 -122.328125 45.80132114 -114.578125 31.6875 C-114.23523438 31.03523438 -113.89234375 30.38296875 -113.5390625 29.7109375 C-102.27299094 8.82347637 -84.98774843 -4.26490257 -62.4765625 -11.10546875 C-41.63393589 -16.61350779 -17.76823804 -12.06086461 0 0 Z " fill="#AFD2EF" transform="translate(434.328125,207.9375)"/>
<path d="M0 0 C0.82886719 0.61359375 1.65773438 1.2271875 2.51171875 1.859375 C5.58451884 4.50285137 7.97002908 7.42291537 10.4375 10.625 C10.9212207 11.25253174 11.40494141 11.88006348 11.90332031 12.52661133 C17.92429707 20.43344546 22.23761168 28.13365819 25.75 37.4375 C26.04422852 38.21246826 26.33845703 38.98743652 26.64160156 39.78588867 C35.33907401 63.88534519 31 89.73173789 31 115 C-32.03 115 -95.06 115 -160 115 C-160 32.4144 -160 32.4144 -131.55859375 2.42578125 C-93.76340692 -33.25237699 -39.52302977 -31.1427885 0 0 Z M-99 1 C-99.91910156 1.46921875 -100.83820313 1.9384375 -101.78515625 2.421875 C-119.79457943 12.18182047 -131.34301648 27.23288354 -139 46 C-144.94683434 68.36333773 -144.94683434 68.36333773 -143 114 C-91.52 114 -40.04 114 13 114 C15.4987913 74.62608993 15.4987913 74.62608993 5.1875 36.5625 C4.84203125 35.90765625 4.4965625 35.2528125 4.140625 34.578125 C-6.0488465 15.65482079 -21.79989197 1.89472358 -42.6171875 -4.41015625 C-61.70072181 -9.1341131 -81.44701768 -8.38662156 -99 1 Z " fill="#96A6A5" transform="translate(455,202)"/>
<path d="M0 0 C1.29693535 -0.02409439 1.29693535 -0.02409439 2.62007141 -0.04867554 C6.57613345 -0.09313499 10.5320278 -0.1341907 14.48828125 -0.15722656 C16.57465774 -0.17378639 18.66097749 -0.20107668 20.74707031 -0.23925781 C23.75510082 -0.29403155 26.7618016 -0.31590132 29.77026367 -0.33056641 C30.70062943 -0.35323578 31.63099518 -0.37590515 32.58955383 -0.39926147 C37.15616412 -0.38437153 39.16916419 -0.29351479 42.91357422 2.53417969 C45.22298653 5.76634779 45.39308343 7.29958575 44.81323242 11.19287109 C43.99595457 13.64470464 43.37196312 14.79682445 41.26538086 16.29003906 C37.66162045 17.6168716 34.11653333 17.43796985 30.32885742 17.38818359 C29.60553223 17.38616943 28.88220703 17.38415527 28.13696289 17.38208008 C25.44565451 17.37164865 22.75443682 17.34372606 20.06323242 17.31787109 C14.04073242 17.27662109 8.01823242 17.23537109 1.81323242 17.19287109 C1.81323242 39.96287109 1.81323242 62.73287109 1.81323242 86.19287109 C24.58323242 86.19287109 47.35323242 86.19287109 70.81323242 86.19287109 C70.81323242 76.95287109 70.81323242 67.71287109 70.81323242 58.19287109 C75.81323242 52.19287109 75.81323242 52.19287109 79.31323242 51.56787109 C83.28568643 52.27723788 84.9855495 53.36518817 87.81323242 56.19287109 C89.97516042 60.51672709 89.12280079 66.24017626 89.16333008 71.0390625 C89.17976798 72.46077991 89.20689472 73.88241895 89.24536133 75.30371094 C89.4829993 84.14177707 89.26152914 91.82000868 83.81323242 99.19287109 C78.96402651 103.73422729 73.83780706 104.34877981 67.45532227 104.40161133 C66.33518234 104.416287 66.33518234 104.416287 65.19241333 104.43125916 C62.71968354 104.46118322 60.24700791 104.48259436 57.77416992 104.50146484 C56.92761463 104.50803667 56.08105934 104.5146085 55.20885086 104.52137947 C50.72461874 104.55396561 46.24041025 104.57841405 41.75610352 104.59790039 C38.05457726 104.61568448 34.353817 104.65045822 30.65258789 104.70043945 C26.17512143 104.76082631 21.69836284 104.79140162 17.22050858 104.80107307 C15.51971829 104.80960023 13.81894552 104.82835047 12.11838913 104.8578167 C-4.4960146 105.13011646 -4.4960146 105.13011646 -10.54649353 100.03735352 C-17.67725629 92.01883577 -16.79193438 82.0987667 -16.75317383 71.97021484 C-16.75841736 70.29830074 -16.7646965 68.62638959 -16.7719574 66.95448303 C-16.78232354 63.46373494 -16.77785351 59.97339549 -16.76318359 56.48266602 C-16.74597649 52.02500769 -16.76953373 47.56863612 -16.80467319 43.11112118 C-16.82670234 39.66308671 -16.8251929 36.21535778 -16.81690788 32.76727486 C-16.81609185 31.12434029 -16.8228882 29.48138251 -16.83767891 27.83851433 C-16.96456319 11.20077141 -16.96456319 11.20077141 -11.18676758 5.19287109 C-7.43548209 1.7905424 -5.03275075 0.08492382 0 0 Z " fill="#2C82BB" transform="translate(59.186767578125,264.80712890625)"/>
<path d="M0 0 C2.8977289 0.03984897 5.79091095 0.02062155 8.6887207 -0.00512695 C10.54225397 0.00242909 12.39577718 0.01337947 14.24926758 0.02807617 C15.53851387 0.01760002 15.53851387 0.01760002 16.85380554 0.00691223 C21.04302905 0.10495274 23.89002143 0.42976836 27.25439453 3.05224609 C29.70629883 5.72729492 29.70629883 5.72729492 30.39379883 9.22729492 C29.54662023 13.54020415 28.07838793 14.99750851 24.70629883 17.72729492 C21.53304589 19.31392139 18.11846336 18.84817744 14.63598633 18.82495117 C13.93030518 18.82394409 13.22462402 18.82293701 12.49755859 18.82189941 C9.85878883 18.8166632 7.22004222 18.80270194 4.58129883 18.78979492 C-4.26682617 18.75885742 -4.26682617 18.75885742 -13.29370117 18.72729492 C-13.29370117 41.49729492 -13.29370117 64.26729492 -13.29370117 87.72729492 C9.47629883 87.72729492 32.24629883 87.72729492 55.70629883 87.72729492 C55.70629883 78.15729492 55.70629883 68.58729492 55.70629883 58.72729492 C59.70629883 53.72729492 59.70629883 53.72729492 63.14379883 52.72729492 C67.12478823 52.72729492 68.66764276 53.20955132 71.70629883 55.72729492 C74.94687395 60.66048555 74.07825818 66.67181618 74.0769043 72.35205078 C74.08124901 74.39141181 74.1175074 76.42855492 74.15551758 78.4675293 C74.17945375 86.55396743 74.01255998 94.16695052 68.18774414 100.33544922 C63.44462218 104.44495352 60.1912193 104.88232844 54.13891602 104.90429688 C53.3582225 104.91086807 52.57752899 104.91743927 51.7731781 104.92420959 C49.18317574 104.9439594 46.59323145 104.95560975 44.00317383 104.96557617 C43.11885933 104.9696517 42.23454483 104.97372723 41.32343292 104.97792625 C36.64164971 104.99879555 31.95989586 105.01309275 27.27807617 105.02246094 C22.44475223 105.03351885 17.61188951 105.06790902 12.77872849 105.10763264 C9.06061962 105.13379574 5.34262061 105.14215256 1.6244278 105.14574242 C-0.15694031 105.15061027 -1.93830344 105.16222995 -3.7195816 105.18078041 C-6.21633763 105.20516269 -8.71190127 105.20420869 -11.20874023 105.19726562 C-11.94143631 105.21007568 -12.67413239 105.22288574 -13.42903137 105.23608398 C-18.52169885 105.18460293 -21.3588986 103.90294588 -25.29370117 100.72729492 C-30.12894775 95.35479872 -31.59361539 91.50945944 -31.58422852 84.33178711 C-31.59094574 83.59302841 -31.59766296 82.85426971 -31.60458374 82.09312439 C-31.62356361 79.65340422 -31.6274883 77.21395931 -31.62963867 74.77416992 C-31.63606808 73.07269173 -31.64279654 71.37121465 -31.64981079 69.66973877 C-31.66178457 66.1021468 -31.66549166 62.53465166 -31.66430664 58.96704102 C-31.66410378 54.40968845 -31.691371 49.85296178 -31.72585106 45.29575729 C-31.74816328 41.78000068 -31.75214282 38.26439345 -31.75108719 34.7485733 C-31.75343799 33.06934712 -31.76223202 31.3901165 -31.77775192 29.71096039 C-31.85906285 20.00225036 -31.90200737 12.63453999 -25.67919922 4.65771484 C-18.21223359 -1.06202713 -8.95867634 -0.13813105 0 0 Z " fill="#2C81BB" transform="translate(74.293701171875,116.272705078125)"/>
<path d="M0 0 C0.9748556 -0.00226556 1.9497112 -0.00453111 2.95410788 -0.00686532 C6.2414406 -0.01322754 9.52873233 -0.01237454 12.81607056 -0.0115509 C15.1645259 -0.01454102 17.51298074 -0.0179432 19.86143494 -0.02172852 C26.25601187 -0.03058789 32.65057543 -0.03290744 39.04515791 -0.0335443 C43.70485865 -0.03412024 48.36455711 -0.03726939 53.02425677 -0.04038078 C65.54927742 -0.04869043 78.07429095 -0.05242247 90.59931426 -0.05171105 C91.3110245 -0.05167109 92.02273474 -0.05163113 92.75601196 -0.05158997 C93.82487699 -0.05152864 93.82487699 -0.05152864 94.91533525 -0.05146609 C106.46496936 -0.05105959 118.01457088 -0.0606291 129.56419556 -0.07472833 C141.41585058 -0.08908239 153.26748969 -0.09599904 165.11915362 -0.09513456 C171.77592538 -0.09480223 178.43266493 -0.09775804 185.08942795 -0.10831261 C191.34872666 -0.11796542 197.60795305 -0.11809218 203.86725426 -0.11079597 C206.16830869 -0.10974661 208.46936756 -0.11213374 210.77041435 -0.11815643 C213.9044021 -0.12582971 217.03813715 -0.12126253 220.17211914 -0.11352539 C221.08904018 -0.11866895 222.00596122 -0.12381252 222.95066774 -0.12911195 C224.20956125 -0.12221375 224.20956125 -0.12221375 225.49388695 -0.1151762 C226.21730919 -0.11539357 226.94073144 -0.11561094 227.68607557 -0.11583489 C230.1038789 0.18183003 231.65387382 0.83718423 233.71304321 2.13371277 C236.15825436 5.80152949 236.4354208 8.8682451 235.71304321 13.13371277 C233.84289227 15.56490899 232.43165976 16.77440449 229.71304321 18.13371277 C226.61243902 18.23868123 223.53394749 18.28150476 220.43281555 18.28088379 C219.45866552 18.28456048 218.48451548 18.28823717 217.48084575 18.29202527 C214.1958536 18.30309434 210.91089305 18.30691138 207.62588501 18.31071472 C205.2790517 18.31697687 202.93221939 18.32362345 200.58538818 18.33062744 C193.52792769 18.34987807 186.47047075 18.3604587 179.41299054 18.36935523 C176.09081998 18.37373689 172.768651 18.37910554 169.4464817 18.3843441 C158.40520782 18.40135672 147.36393494 18.41585154 136.32264996 18.42309284 C133.45676866 18.42500278 130.59088737 18.42692311 127.7250061 18.42887878 C126.65653454 18.42960439 126.65653454 18.42960439 125.56647769 18.43034466 C114.02395009 18.43864738 102.48152604 18.46398816 90.93904366 18.49645946 C79.09303411 18.52951342 67.24707722 18.54754007 55.4010213 18.55073708 C48.74808548 18.55290369 42.09528349 18.56211574 35.44238853 18.58719826 C29.18549216 18.61040633 22.92886804 18.61474142 16.67193985 18.60443687 C14.37290989 18.60393965 12.07386687 18.61031455 9.77487755 18.62399292 C6.64099572 18.6415984 3.50810305 18.63466126 0.3742218 18.62145996 C-0.53978639 18.63242921 -1.45379459 18.64339845 -2.3955 18.6547001 C-6.56195058 18.61220177 -8.72321992 18.48691151 -12.32828045 16.22822857 C-14.6697034 13.72442165 -15.22055228 12.73135332 -15.59945679 9.32121277 C-15.21531321 5.40294827 -13.99439362 3.9207801 -11.28695679 1.13371277 C-7.82361272 -0.59795927 -3.81228377 -0.00640745 0 0 Z " fill="#F8FAFC" transform="translate(180.28695678710938,29.866287231445313)"/>
<path d="M0 0 C5.30458658 3.82468381 8.62449683 8.54896621 11.15625 14.5546875 C12.31850694 23.16800247 12.25915817 31.17748789 7.08203125 38.4921875 C3.90380124 41.8960525 0.33437781 44.49904862 -3.84375 46.5546875 C-4.50375 46.5546875 -5.16375 46.5546875 -5.84375 46.5546875 C-5.82280273 47.19494873 -5.80185547 47.83520996 -5.78027344 48.49487305 C-5.69685716 51.41048325 -5.64501031 54.32584202 -5.59375 57.2421875 C-5.54347656 58.75329102 -5.54347656 58.75329102 -5.4921875 60.29492188 C-5.39304373 67.8050624 -5.39304373 67.8050624 -7.734375 71.69921875 C-10.22394999 73.88912267 -11.37322864 74.48149529 -14.65625 74.9921875 C-18.29671131 74.49251634 -19.57312899 73.44651276 -21.82055664 70.58911133 C-23.92704526 66.40076257 -23.34804639 61.75329361 -23.15625 57.1796875 C-23.13369141 56.15746094 -23.11113281 55.13523437 -23.08789062 54.08203125 C-23.02923082 51.57139169 -22.94720928 49.06381371 -22.84375 46.5546875 C-23.7821875 46.255625 -24.720625 45.9565625 -25.6875 45.6484375 C-31.95136032 43.47779284 -35.43837425 39.30874483 -38.6640625 33.66796875 C-41.26938071 26.79234421 -41.16392072 18.7294379 -38.953125 11.73828125 C-35.65237893 5.23581149 -29.88869313 -0.39174945 -22.98046875 -2.96875 C-14.83232623 -4.78606881 -7.25586658 -4.16976748 0 0 Z " fill="#E57E24" transform="translate(404.84375,372.4453125)"/>
<path d="M0 0 C1.14362 -0.00554901 2.28723999 -0.01109802 3.46551514 -0.01681519 C7.24566549 -0.02862558 11.02462097 -0.0043199 14.8046875 0.02148438 C17.43115179 0.02319514 20.05761778 0.02313014 22.68408203 0.0213623 C28.18862406 0.02141584 33.69282238 0.04114886 39.19726562 0.07324219 C45.55543021 0.11013358 51.91314471 0.1189174 58.27140236 0.11194468 C64.39517622 0.1056329 70.51877139 0.11661994 76.64251709 0.13591003 C79.24525194 0.14294506 81.8480004 0.14606396 84.45074463 0.1452179 C88.08720517 0.14701408 91.7230251 0.16838203 95.359375 0.1953125 C96.43693054 0.1923819 97.51448608 0.18945129 98.62469482 0.18643188 C107.84372253 0.29185474 107.84372253 0.29185474 111.6796875 3.61523438 C113.6796875 6.61523438 113.6796875 6.61523438 113.5546875 10.05273438 C112.61002818 13.89884734 111.73926334 15.20465947 108.6796875 17.61523438 C106.26705725 18.8215495 104.7336052 18.75152714 102.03778076 18.76913452 C101.05924637 18.77773499 100.08071198 18.78633545 99.07252502 18.79519653 C97.99510544 18.79945648 96.91768585 18.80371643 95.80761719 18.80810547 C94.10988411 18.8203717 94.10988411 18.8203717 92.37785339 18.83288574 C88.61909521 18.85777008 84.86037485 18.87426346 81.1015625 18.88867188 C79.82007576 18.89399555 78.53858902 18.89931923 77.21826935 18.90480423 C71.8327126 18.92604027 66.4471682 18.94516986 61.06158066 18.95642662 C53.34672504 18.97265843 45.63237368 19.00581508 37.91770816 19.06282747 C31.83724432 19.10622813 25.75697797 19.12217487 19.67636871 19.12855911 C17.09116273 19.13528448 14.50596445 19.15053959 11.92086029 19.17444992 C8.3032942 19.20600091 4.68700299 19.20615247 1.06933594 19.19873047 C0.00001328 19.2151358 -1.06930939 19.23154114 -2.17103577 19.2484436 C-10.27662002 19.18032356 -10.27662002 19.18032356 -13.98455811 16.20767212 C-17.12675168 12.72017307 -17.12675168 12.72017307 -17.0078125 9.61523438 C-17.01167969 8.97585937 -17.01554688 8.33648437 -17.01953125 7.67773438 C-14.20663316 -0.61952926 -7.37015125 -0.09071655 0 0 Z " fill="#304355" transform="translate(190.3203125,168.384765625)"/>
<path d="M0 0 C2.9375 1.5 2.9375 1.5 5 4 C5.84362493 8.14782256 5.92982176 10.39034135 3.80859375 14.0625 C1.96947051 16.47330251 0.01141696 18.73061968 -2 21 C-2.86880695 22.02226379 -3.7345371 23.04714811 -4.59765625 24.07421875 C-6.47148317 26.30353589 -8.35333157 28.52559076 -10.2421875 30.7421875 C-12.69788371 33.63233998 -15.10677164 36.55778736 -17.5 39.5 C-21.28225104 44.14986418 -25.14628634 48.72354007 -29.03930664 53.28051758 C-32.34465406 57.16885172 -35.4671096 61.16054239 -38.46484375 65.29296875 C-40.88777381 67.98716834 -43.24650815 68.84587667 -46.75 69.5625 C-51.84963495 68.67987087 -54.40327335 65.57359657 -58 62 C-59.12229176 60.9035393 -60.24469604 59.80719376 -61.3671875 58.7109375 C-71.89101735 48.35138488 -71.89101735 48.35138488 -72.3125 43.125 C-72.25340627 40.17031347 -72.06564964 39.10941607 -70.5 36.5 C-67.69344562 34.81606737 -65.44065339 34.25696579 -62.15625 34.41015625 C-57.86222012 35.58479124 -55.01485705 38.87124835 -52 42 C-50.68409365 43.35053546 -49.35921586 44.69306167 -48 46 C-47.34 46 -46.68 46 -46 46 C-44.62508701 44.49212839 -43.32635538 42.91460239 -42.0625 41.3125 C-40.85787109 39.80623047 -40.85787109 39.80623047 -39.62890625 38.26953125 C-39.20109863 37.73408691 -38.77329102 37.19864258 -38.33251953 36.64697266 C-36.10266704 33.89091093 -33.79968422 31.19780723 -31.5 28.5 C-24.63443967 20.41591322 -17.8657615 12.26996645 -11.5078125 3.77734375 C-8.03820903 -0.31247381 -5.12688899 -0.53036783 0 0 Z " fill="#FD5566" transform="translate(142,265)"/>
<path d="M0 0 C2.4375 1.5625 2.4375 1.5625 4 4 C4.53661463 8.96368531 4.65032359 10.99230233 1.91015625 15.23828125 C0.98001068 16.2803641 0.0296307 17.304648 -0.9375 18.3125 C-1.95797725 19.44315732 -2.97749548 20.57468088 -3.99609375 21.70703125 C-4.50640137 22.26213379 -5.01670898 22.81723633 -5.54248047 23.38916016 C-7.62080877 25.68611327 -9.5588292 28.08674773 -11.5 30.5 C-15.24491189 35.10089175 -19.06321371 39.63351633 -22.90527344 44.15307617 C-25.89355627 47.67453158 -28.83577717 51.22919539 -31.75 54.8125 C-32.47703125 55.69164062 -33.2040625 56.57078125 -33.953125 57.4765625 C-35.27484478 59.10601093 -36.55963259 60.76645334 -37.796875 62.4609375 C-38.35890625 63.19570312 -38.9209375 63.93046875 -39.5 64.6875 C-39.9640625 65.33074219 -40.428125 65.97398437 -40.90625 66.63671875 C-43.80771242 68.52591723 -46.01270203 68.86432411 -49.45898438 68.73266602 C-55.02471019 67.12786748 -58.68076848 62.25405119 -62.5 58.125 C-63.85738281 56.71927734 -63.85738281 56.71927734 -65.2421875 55.28515625 C-72.84729484 47.34889559 -72.84729484 47.34889559 -73.375 42.6875 C-73 39 -73 39 -70.875 36.0625 C-68 34 -68 34 -65.1875 33.25 C-59.41140691 34.60908073 -55.62400884 39.19554574 -51.75 43.5 C-50.15810306 45.20207758 -50.15810306 45.20207758 -48.21484375 44.9609375 C-44.88851734 43.51776943 -43.02834191 40.88854294 -40.8125 38.125 C-40.32910156 37.53783203 -39.84570312 36.95066406 -39.34765625 36.34570312 C-37.8894542 34.57091774 -36.44385078 32.78646802 -35 31 C-33.50041039 29.16633097 -32.00044162 27.33297192 -30.5 25.5 C-29.78199219 24.61828125 -29.06398437 23.7365625 -28.32421875 22.828125 C-24.76963423 18.50288266 -21.15055617 14.23321354 -17.5234375 9.96875 C-16.02258962 8.20304661 -14.52610696 6.43359397 -13.0390625 4.65625 C-8.5396472 -0.69915162 -6.98317907 -1.56519531 0 0 Z " fill="#FD5465" transform="translate(143,118)"/>
<path d="M0 0 C0.71300262 -0.0087616 1.42600525 -0.01752319 2.16061401 -0.02655029 C4.50223831 -0.04844052 6.84195247 -0.03403099 9.18359375 -0.01708984 C10.8197465 -0.02046102 12.4558968 -0.02531616 14.09204102 -0.03158569 C17.51505461 -0.03894288 20.93741422 -0.02828955 24.36035156 -0.00488281 C28.73875486 0.0236052 33.11562566 0.00719489 37.49397278 -0.02274513 C40.87076272 -0.0408499 44.24719186 -0.03504572 47.62399292 -0.02210617 C49.23786604 -0.0187809 50.85177238 -0.02282828 52.46560669 -0.03450394 C54.72534399 -0.04726639 56.98263179 -0.02776612 59.2421875 0 C60.52536865 0.00397797 61.8085498 0.00795593 63.13061523 0.01205444 C67.71810666 0.84651936 69.35167717 2.37774879 72.62109375 5.64697266 C73.41796875 7.70947266 73.41796875 7.70947266 73.37109375 9.64697266 C73.39429688 10.60603516 73.39429688 10.60603516 73.41796875 11.58447266 C72.13718206 14.89944998 69.5725419 16.83182489 66.62109375 18.64697266 C63.13061523 19.28189087 63.13061523 19.28189087 59.2421875 19.29394531 C58.52918488 19.30270691 57.81618225 19.31146851 57.08157349 19.32049561 C54.73994919 19.34238583 52.40023503 19.3279763 50.05859375 19.31103516 C48.422441 19.31440634 46.7862907 19.31926147 45.15014648 19.32553101 C41.72713289 19.33288819 38.30477328 19.32223486 34.88183594 19.29882812 C30.50343264 19.27034012 26.12656184 19.28675042 21.74821472 19.31669044 C18.37142478 19.33479522 14.99499564 19.32899103 11.61819458 19.31605148 C10.00432146 19.31272621 8.39041512 19.31677359 6.77658081 19.32844925 C4.51684351 19.34121171 2.25955571 19.32171143 0 19.29394531 C-1.92477173 19.28797836 -1.92477173 19.28797836 -3.88842773 19.28189087 C-8.47591916 18.44742595 -10.10948967 16.91619652 -13.37890625 13.64697266 C-14.17578125 11.58447266 -14.17578125 11.58447266 -14.12890625 9.64697266 C-14.144375 9.00759766 -14.15984375 8.36822266 -14.17578125 7.70947266 C-11.71448706 1.33906416 -6.17968052 0.01915751 0 0 Z " fill="#304255" transform="translate(187.37890625,272.35302734375)"/>
<path d="M0 0 C0.73397003 -0.0087616 1.46794006 -0.01752319 2.22415161 -0.02655029 C4.64092814 -0.04848742 7.05586241 -0.03401381 9.47265625 -0.01708984 C11.15747426 -0.02045966 12.8422899 -0.02531367 14.52709961 -0.03158569 C18.05443517 -0.03894924 21.58113671 -0.0282688 25.10839844 -0.00488281 C29.62479619 0.02360539 34.13970837 0.00719854 38.65605164 -0.02274513 C42.13402454 -0.04083254 45.61164652 -0.03505363 49.08963013 -0.02210617 C50.75456926 -0.01877611 52.41954049 -0.02284521 54.08444214 -0.03450394 C56.41392108 -0.04723743 58.74101108 -0.02780549 61.0703125 0 C61.75513702 -0.01012115 62.43996155 -0.02024231 63.14553833 -0.03067017 C66.90788073 0.05232748 68.4779576 0.60161049 71.46264648 2.96865845 C73.53515625 5.64697266 73.53515625 5.64697266 74.16015625 9.14697266 C73.36272293 13.61259924 72.06209093 14.84988933 68.53515625 17.64697266 C65.83508749 18.14346324 63.7624969 18.33373363 61.0703125 18.29394531 C59.96935745 18.30708771 59.96935745 18.30708771 58.84616089 18.32049561 C56.42938436 18.34243273 54.01445009 18.32795912 51.59765625 18.31103516 C49.91283824 18.31440498 48.2280226 18.31925898 46.54321289 18.32553101 C43.01587733 18.33289456 39.48917579 18.32221412 35.96191406 18.29882812 C31.44551631 18.27033992 26.93060413 18.28674677 22.41426086 18.31669044 C18.93628796 18.33477785 15.45866598 18.32899894 11.98068237 18.31605148 C10.31574324 18.31272142 8.65077201 18.31679052 6.98587036 18.32844925 C4.65639142 18.34118275 2.32930142 18.32175081 0 18.29394531 C-0.68482452 18.30406647 -1.36964905 18.31418762 -2.07522583 18.32461548 C-5.83756823 18.24161784 -7.4076451 17.69233482 -10.39233398 15.32528687 C-12.46484375 12.64697266 -12.46484375 12.64697266 -13.08984375 9.14697266 C-11.76666951 1.73719689 -6.9071713 -0.10208243 0 0 Z " fill="#2C3E50" transform="translate(186.46484375,125.35302734375)"/>
<path d="M0 0 C0.6461879 -0.00700928 1.29237579 -0.01401855 1.95814514 -0.02124023 C4.08256704 -0.03876735 6.20564399 -0.02721823 8.33007812 -0.01367188 C9.81311294 -0.01636836 11.29614602 -0.02025208 12.7791748 -0.02526855 C15.8827401 -0.03115637 18.98584395 -0.02262444 22.08935547 -0.00390625 C26.06080609 0.01888368 30.03117539 0.00575664 34.00258636 -0.01819611 C37.06361997 -0.03267395 40.12439864 -0.02803917 43.18544006 -0.01768494 C44.64942046 -0.0150231 46.11342426 -0.01826832 47.57737732 -0.02760315 C49.62642413 -0.03780252 51.67373802 -0.02222486 53.72265625 0 C54.88671997 0.00318237 56.05078369 0.00636475 57.25012207 0.00964355 C61.03388022 0.62737878 62.68928196 1.80702417 65.36132812 4.51757812 C66.42382812 7.95507812 66.42382812 7.95507812 66.36132812 11.51757812 C64.5949164 14.31947258 63.33082991 16.03282723 60.36132812 17.51757812 C58.26425904 17.63491897 56.16345512 17.68737829 54.06323242 17.71044922 C53.0946077 17.72271545 53.0946077 17.72271545 52.10641479 17.73522949 C49.96613491 17.76007238 47.82592133 17.77659693 45.68554688 17.79101562 C44.9544401 17.7963393 44.22333332 17.80166298 43.47007179 17.80714798 C39.59993157 17.83387543 35.72982356 17.85325111 31.85961914 17.86767578 C27.86453561 17.88431858 23.87027785 17.92909292 19.8755064 17.98004723 C16.80167202 18.01372427 13.72803352 18.02525359 10.65403175 18.03090286 C9.18161524 18.03761474 7.7092116 18.0528355 6.23697472 18.07679367 C4.17317059 18.10846092 2.11159129 18.10848174 0.04760742 18.10107422 C-1.71206108 18.1132045 -1.71206108 18.1132045 -3.50727844 18.12557983 C-7.57059089 17.33663364 -9.05539634 15.67383213 -11.63867188 12.51757812 C-12.61241038 9.44171003 -12.16626626 7.84142276 -11.63867188 4.51757812 C-7.93203906 0.65459404 -5.26406199 0.01439114 0 0 Z " fill="#2C3E50" transform="translate(185.638671875,316.482421875)"/>
<path d="M0 0 C0.89534958 -0.00807175 1.79069916 -0.01614349 2.71318054 -0.02445984 C4.61044374 -0.03830305 6.50773188 -0.04902414 8.4050293 -0.05688477 C11.30240269 -0.07408921 14.19863254 -0.11797152 17.09570312 -0.16210938 C18.93879369 -0.17223707 20.78189396 -0.18075293 22.625 -0.1875 C23.92211662 -0.21376213 23.92211662 -0.21376213 25.24543762 -0.24055481 C29.36545463 -0.22574753 31.47880435 -0.0924991 35.05688477 2.12841797 C37.26764254 4.51450123 37.69233396 5.46678363 37.63671875 8.67578125 C37.64960937 9.41699219 37.6625 10.15820312 37.67578125 10.921875 C36.64493934 14.51769414 34.93873499 15.93166264 32.01171875 18.23828125 C28.91400778 18.9584765 25.89958977 18.91631089 22.73046875 18.8671875 C21.83936401 18.86959946 20.94825928 18.87201141 20.03015137 18.87449646 C18.15075214 18.87351928 16.27132368 18.86015636 14.39208984 18.83520508 C11.52081195 18.80088992 8.65261237 18.81455336 5.78125 18.83398438 C3.95180986 18.82708563 2.12237764 18.81741298 0.29296875 18.8046875 C-0.99003113 18.8121273 -0.99003113 18.8121273 -2.2989502 18.81971741 C-6.37940196 18.73937847 -8.48146216 18.55914366 -12.00585938 16.32788086 C-14.3761858 13.82940501 -14.92029566 12.8501516 -15.30078125 9.42578125 C-14.91663767 5.50751675 -13.69571808 4.02534858 -10.98828125 1.23828125 C-7.59499761 -0.45836057 -3.73468231 0.03168041 0 0 Z " fill="#E57F24" transform="translate(474.98828125,411.76171875)"/>
<path d="M0 0 C1.94771284 -0.01654177 3.89536543 -0.04380834 5.84277344 -0.08203125 C8.6489211 -0.13684813 11.45364263 -0.15868317 14.26025391 -0.17333984 C15.12813538 -0.19600922 15.99601685 -0.21867859 16.89019775 -0.24203491 C21.34002663 -0.22651672 23.11383003 -0.09522611 26.72949219 2.73803711 C28.7485207 5.43891059 29.36481989 6.59536612 29.30712891 9.91259766 C29.32001953 10.65638672 29.33291016 11.40017578 29.34619141 12.16650391 C28.31794214 15.54762942 26.66240421 16.48976029 23.68212891 18.35009766 C20.58588532 18.9324815 17.54437501 18.91110524 14.40087891 18.88134766 C13.50977417 18.88517456 12.61866943 18.88900146 11.70056152 18.89294434 C9.82119615 18.89565983 7.94179276 18.88832406 6.0625 18.87158203 C3.19136017 18.85016651 0.32272247 18.87139526 -2.54833984 18.89697266 C-4.37777243 18.89432931 -6.20720347 18.8892042 -8.03662109 18.88134766 C-8.89195435 18.88944458 -9.7472876 18.8975415 -10.62854004 18.90588379 C-14.71312303 18.84185442 -16.80582763 18.67389472 -20.33544922 16.44189453 C-22.69163817 13.95570895 -23.24019294 12.93268379 -23.69287109 9.53759766 C-23.19742092 5.32627116 -21.47434373 4.04464746 -18.31787109 1.35009766 C-15.34567364 -1.6220998 -4.2257228 0.02632627 0 0 Z " fill="#E57F24" transform="translate(483.31787109375,376.64990234375)"/>
<path d="M0 0 C1.88554239 -0.01653985 3.7710226 -0.04380394 5.65625 -0.08203125 C8.37891062 -0.13694285 11.10010156 -0.15869661 13.82324219 -0.17333984 C14.66095154 -0.19600922 15.49866089 -0.21867859 16.36175537 -0.24203491 C20.57239872 -0.22691945 23.27858174 0.06195723 26.63183594 2.73803711 C29.08886719 5.35009766 29.08886719 5.35009766 29.66699219 7.66650391 C29.55871094 8.40771484 29.45042969 9.14892578 29.33886719 9.91259766 C29.26152344 10.65638672 29.18417969 11.40017578 29.10449219 12.16650391 C27.52034003 15.57243105 25.36682437 16.57621948 22.08886719 18.35009766 C19.02938555 18.92200615 16.03509336 18.935105 12.92871094 18.91650391 C12.06121719 18.92270248 11.19372345 18.92890106 10.29994202 18.93528748 C8.47365436 18.94236456 6.64730189 18.93924863 4.82104492 18.92651367 C2.03085718 18.91262001 -0.75599211 18.94678002 -3.54589844 18.98486328 C-5.32519613 18.98581432 -7.10449801 18.98395646 -8.88378906 18.97900391 C-9.71411148 18.99226212 -10.5444339 19.00552032 -11.3999176 19.0191803 C-15.6932367 18.95029079 -17.42296317 18.72408431 -20.94018555 16.02954102 C-22.91113281 13.35009766 -22.91113281 13.35009766 -23.47363281 9.85009766 C-22.82991062 5.84471514 -21.75167455 4.19063939 -18.91113281 1.35009766 C-13.79086093 -1.21003828 -5.69974439 0.03665112 0 0 Z " fill="#E58025" transform="translate(291.9111328125,411.64990234375)"/>
<path d="M0 0 C1.20416817 -0.01210762 1.20416817 -0.01210762 2.43266296 -0.02445984 C4.1314377 -0.03828325 5.83024 -0.0490132 7.52905273 -0.05688477 C10.11691383 -0.0740871 12.70349334 -0.11798567 15.29101562 -0.16210938 C16.94400105 -0.17223797 18.59699731 -0.18075356 20.25 -0.1875 C21.40342644 -0.21376213 21.40342644 -0.21376213 22.58015442 -0.24055481 C27.76950467 -0.21977581 30.70210725 0.81480571 34.82421875 4.23828125 C36.25084094 7.09152562 36.13455743 9.07282674 35.82421875 12.23828125 C33.67331424 15.5758917 32.62009076 16.97299058 28.82421875 18.23828125 C25.93351065 18.3714809 23.06773264 18.45057097 20.17578125 18.4765625 C19.32623871 18.48463425 18.47669617 18.49270599 17.60140991 18.50102234 C15.80428092 18.51484673 14.00712586 18.52557624 12.20996094 18.53344727 C9.46629029 18.55067406 6.72382067 18.59457525 3.98046875 18.63867188 C2.23308176 18.64879814 0.48568455 18.65731445 -1.26171875 18.6640625 C-2.48850845 18.69032463 -2.48850845 18.69032463 -3.74008179 18.71711731 C-7.75169249 18.70189025 -9.69943978 18.54076158 -13.17041016 16.33666992 C-15.5492152 13.84752585 -16.09602708 12.83643752 -16.55078125 9.42578125 C-16.05116641 5.17905515 -14.43274186 3.8892957 -11.17578125 1.23828125 C-7.43027966 -0.01021928 -3.90452359 0.03721493 0 0 Z " fill="#E58025" transform="translate(285.17578125,376.76171875)"/>
<path d="M0 0 C1.40680275 -0.00361794 1.40680275 -0.00361794 2.84202576 -0.00730896 C4.81977579 -0.00633161 6.79755356 0.00703517 8.77514648 0.03198242 C11.80221364 0.06633385 14.82636757 0.05262526 17.85351562 0.03320312 C19.77735617 0.04010062 21.70118919 0.04977213 23.625 0.0625 C24.5292421 0.05754013 25.43348419 0.05258026 26.36512756 0.04747009 C32.61760621 0.16472527 32.61760621 0.16472527 35.81420898 2.52563477 C38.24290814 6.09311017 38.00035054 9.48430329 37.24609375 13.62890625 C35.41814095 16.33698447 34.27482792 17.33909338 31.14282227 18.22143555 C27.28144736 18.76459903 23.47401367 18.71947999 19.5859375 18.6484375 C18.75904922 18.6343132 17.93216095 18.6201889 17.08021545 18.6056366 C15.33783601 18.57262534 13.59551679 18.53628721 11.85327148 18.49682617 C9.18925641 18.4415238 6.5257489 18.41302426 3.86132812 18.38476562 C2.16532906 18.34931698 0.46936264 18.31226206 -1.2265625 18.2734375 C-2.4188723 18.26688896 -2.4188723 18.26688896 -3.63526917 18.26020813 C-7.2387251 18.14912292 -9.33412153 17.95435453 -12.22436523 15.71362305 C-14.80135452 12.20126687 -15.26847567 10.00274635 -14.75390625 5.62890625 C-10.57371998 -0.18090742 -6.62160821 -0.0973054 0 0 Z " fill="#E57E24" transform="translate(474.75390625,446.37109375)"/>
<path d="M0 0 C0.9170874 0.00091644 1.8341748 0.00183289 2.77905273 0.0027771 C4.71571028 0.00881216 6.65235853 0.02455534 8.58886719 0.04931641 C11.55178253 0.08580551 14.513446 0.0903358 17.4765625 0.08984375 C19.3593858 0.09967599 21.24220063 0.11133345 23.125 0.125 C24.45325806 0.12833847 24.45325806 0.12833847 25.80834961 0.13174438 C27.04983765 0.15088394 27.04983765 0.15088394 28.31640625 0.17041016 C29.04158447 0.17803375 29.7667627 0.18565735 30.51391602 0.19351196 C32.93339379 0.50935459 34.4989514 1.16336313 36.5625 2.4609375 C38.72001534 5.69721052 38.8161352 6.29672588 38.4375 9.9609375 C38.37304688 10.734375 38.30859375 11.5078125 38.2421875 12.3046875 C37.28941072 15.32728971 36.35226126 15.91767103 33.5625 17.4609375 C30.49666125 17.95985972 27.44546312 17.99748617 24.34375 18.04296875 C23.44885864 18.0656633 22.55396729 18.08835785 21.63195801 18.11174011 C19.74258348 18.15627266 17.85302854 18.19364838 15.96337891 18.22436523 C13.07248833 18.27326853 10.18317781 18.34877632 7.29296875 18.42773438 C5.45576304 18.46773327 3.61852312 18.50619641 1.78125 18.54296875 C0.91761841 18.56575394 0.05398682 18.58853912 -0.83581543 18.61201477 C-2.04727234 18.62774788 -2.04727234 18.62774788 -3.28320312 18.64379883 C-4.34432312 18.66353508 -4.34432312 18.66353508 -5.42687988 18.68367004 C-7.85109825 18.4151199 -9.37714157 17.75995365 -11.4375 16.4609375 C-13.47781755 13.40046118 -13.75343524 12.52597756 -13.8125 9.0234375 C-13.84085937 8.26160156 -13.86921875 7.49976563 -13.8984375 6.71484375 C-12.39052788 -0.65857869 -6.10208159 -0.09903183 0 0 Z " fill="#E57E24" transform="translate(282.4375,446.5390625)"/>
<path d="M0 0 C2.00063121 2.72111577 1.6819699 5.2222209 1.5703125 8.4921875 C1.21484375 10.65234375 1.21484375 10.65234375 -0.53515625 13.15234375 C-5.19553886 16.25926549 -10.13796517 15.76779222 -15.56640625 15.671875 C-16.41690552 15.6577507 -17.26740479 15.6436264 -18.14367676 15.6290741 C-19.93910823 15.59601564 -21.73448178 15.55966963 -23.52978516 15.52026367 C-26.27509824 15.46504605 -29.01992032 15.43649161 -31.765625 15.40820312 C-33.51175313 15.37274829 -35.25784964 15.33569257 -37.00390625 15.296875 C-38.2337323 15.29032646 -38.2337323 15.29032646 -39.48840332 15.28364563 C-45.18676464 15.11330036 -45.18676464 15.11330036 -48.27148438 12.73706055 C-50.82666544 9.21791682 -51.29911044 7.02095439 -50.78515625 2.65234375 C-48.79876123 -0.01939693 -47.18621996 -1.99319246 -43.86010742 -2.83468628 C-41.54260934 -3.05540824 -39.26940619 -3.11828362 -36.94140625 -3.125 C-35.67133728 -3.15479698 -35.67133728 -3.15479698 -34.37561035 -3.18519592 C-32.59061525 -3.22228222 -30.80534233 -3.24763006 -29.02001953 -3.26196289 C-26.29341962 -3.28508617 -23.56959919 -3.34547532 -20.84375 -3.41210938 C-19.10550708 -3.44359856 -17.36722418 -3.47296671 -15.62890625 -3.5 C-14.81732056 -3.51651108 -14.00573486 -3.53302216 -13.16955566 -3.55003357 C-8.0882198 -3.57684898 -4.18624057 -3.16029102 0 0 Z " fill="#E57E24" transform="translate(510.78515625,345.34765625)"/>
<path d="M0 0 C0.91330078 -0.00478363 1.82660156 -0.00956726 2.76757812 -0.01449585 C4.69402799 -0.01789067 6.62053579 -0.00871744 8.546875 0.01220703 C11.49089348 0.03897969 14.4310997 0.01244628 17.375 -0.01953125 C19.25000839 -0.01622708 21.12501442 -0.00982068 23 0 C23.87720703 -0.01012115 24.75441406 -0.02024231 25.65820312 -0.03067017 C30.08288624 0.05392509 31.94996199 0.24251267 35.56640625 3.01416016 C37.92008232 6.23976622 38.08252527 7.75282141 37.5 11.6640625 C36.62505259 14.28890474 36.06026267 15.32865949 33.68052673 16.7532959 C31.39857229 17.70642702 29.81992388 17.93866856 27.36157227 17.98632812 C26.55716202 18.00554321 25.75275177 18.0247583 24.92396545 18.04455566 C23.63322365 18.0573053 23.63322365 18.0573053 22.31640625 18.0703125 C21.42388657 18.08171265 20.53136688 18.09311279 19.61180115 18.1048584 C17.72651896 18.1237245 15.84117133 18.13681293 13.95581055 18.14453125 C11.07549144 18.1639748 8.19801055 18.22604936 5.31835938 18.2890625 C3.48439191 18.30212099 1.65040409 18.31262256 -0.18359375 18.3203125 C-1.47129921 18.35735291 -1.47129921 18.35735291 -2.78501892 18.3951416 C-8.59937263 18.35192649 -8.59937263 18.35192649 -11.16604614 16.39160156 C-13.35721269 13.88225046 -14.45838359 11.86798292 -15.125 8.6015625 C-13.3617204 0.3141484 -7.14217494 -0.08240593 0 0 Z " fill="#E47E25" transform="translate(283.5,342.3359375)"/>
<path d="M0 0 C1.84851563 -0.05607422 1.84851563 -0.05607422 3.734375 -0.11328125 C7.81267893 0.38064667 9.3769849 1.4448053 12.25 4.3125 C13.67662219 7.16574437 13.56033868 9.14704549 13.25 12.3125 C11.45006226 15.01240662 10.166227 16.8543865 7.25 18.3125 C4.98354234 18.48772676 2.71027146 18.57978256 0.4375 18.625 C-1.39748047 18.68107422 -1.39748047 18.68107422 -3.26953125 18.73828125 C-7.3237799 18.24230695 -8.89043139 17.16149719 -11.75 14.3125 C-13.19430855 11.42388291 -13.12688506 9.51602299 -12.75 6.3125 C-10.3125 3.5 -10.3125 3.5 -7.75 1.3125 C-5.82815673 -0.60934327 -2.55710692 0.05039941 0 0 Z " fill="#25AC63" transform="translate(90.75,29.6875)"/>
<path d="M0 0 C3.49598625 1.69144764 4.81945804 2.72918705 7 6 C6.85533327 9.97833499 6.60587056 12.25731996 4.0625 15.375 C-0.93239491 19.31037175 -6.89849327 18.63603585 -13 18 C-16.2416085 16.76345059 -16.85835407 15.93711441 -19 13 C-19.83494011 10.10398394 -19.83494011 7.89601606 -19 5 C-14.30659565 -1.43666882 -7.46467449 -1.12110255 0 0 Z " fill="#E9C11F" transform="translate(54,30)"/>
<path d="M0 0 C2.31466018 1.6241291 3.63099819 3.36782643 4.3125 6.12109375 C4.54541974 9.68143834 4.12266728 11.76045441 1.94921875 14.5859375 C-1.67744449 17.25260165 -3.99858813 17.33742242 -8.48828125 17.3984375 C-9.61878906 17.42421875 -10.74929687 17.45 -11.9140625 17.4765625 C-15.48848276 17.1169801 -17.32388451 16.28865873 -20.17578125 14.1484375 C-21.80606183 10.88787635 -21.8338833 7.66055357 -21.17578125 4.1484375 C-16.32387487 -2.50560554 -7.43537248 -2.91007397 0 0 Z " fill="#F85467" transform="translate(143.17578125,30.8515625)"/>
<path d="M0 0 C3.69879153 1.16443437 5.24663599 1.8273867 7.375 5.0625 C7.96174844 9.0963955 7.73108261 11.33485293 5.9375 15 C2.6830567 17.61942997 0.60087726 17.79270174 -3.49609375 17.54296875 C-5.625 17.0625 -5.625 17.0625 -8.1875 15 C-10.01660679 11.26226004 -10.35897997 9.17278784 -9.625 5.0625 C-6.48302168 1.38408636 -4.88568266 0.08423591 0 0 Z " fill="#EFC219" transform="translate(391.625,385.9375)"/>
</svg>
