<svg xmlns="http://www.w3.org/2000/svg" viewBox="0 0 100 100" fill="none">
  <defs>
    <linearGradient id="shieldGrad" x1="0%" y1="0%" x2="100%" y2="100%">
      <stop offset="0%" style="stop-color:#00FFF7;stop-opacity:1" />
      <stop offset="50%" style="stop-color:#00E5E5;stop-opacity:1" />
      <stop offset="100%" style="stop-color:#00CCCC;stop-opacity:1" />
    </linearGradient>
    <linearGradient id="shieldShadow" x1="0%" y1="0%" x2="100%" y2="100%">
      <stop offset="0%" style="stop-color:#004F4F;stop-opacity:0.8" />
      <stop offset="100%" style="stop-color:#002F2F;stop-opacity:0.9" />
    </linearGradient>
  </defs>
  <!-- 3D Shadow -->
  <path d="M52 12L82 22V40C82 58 68 74 52 82C36 74 22 58 22 40V22L52 12Z" fill="url(#shieldShadow)"/>
  <!-- Main Shield -->
  <path d="M50 10L80 20V38C80 56 66 72 50 80C34 72 20 56 20 38V20L50 10Z" fill="url(#shieldGrad)" stroke="#00FFF7" stroke-width="1"/>
  <!-- Inner Highlight -->
  <path d="M50 18L70 25V38C70 50 62 60 50 65C38 60 30 50 30 38V25L50 18Z" fill="#00FFF7" opacity="0.3"/>
  <!-- Center Glow -->
  <circle cx="50" cy="45" r="8" fill="#FFFFFF" opacity="0.6"/>
</svg>